<svg width="358" height="120" viewBox="0 0 358 120" fill="none" xmlns="http://www.w3.org/2000/svg">
<path d="M32.3994 11.5098V12.7812H21.1064V11.5098H25.96V9.07617H22.0771V7.87305H23.8135V4.18164H22.0361V2.95117H31.415V4.18164H29.6104V7.87305H31.374V9.07617H27.4639V11.5098H32.3994ZM25.3311 7.87305H28.1064V4.18164H25.3311V7.87305ZM43.2549 8.33789V9.54102H34.5869V2.82812H43.1455V4.05859H36.1318V5.54883H42.8584V6.73828H36.1318V8.33789H43.2549ZM44.499 11.4688V12.7129H33.2061V11.4688H44.499ZM55.5322 2.17188V3.30664H53.8369V5.19336H55.4639V6.32812H51.6768V7.24414H56.5713V8.43359H45.3057V7.24414H50.1592V6.32812H46.3857V5.19336H48.0127V3.30664H46.3174V2.17188H55.5322ZM55.1631 9.19922V12.0977H48.1357V12.9727H55.5049V14.1074H46.6455V11.0586H53.6729V10.293H46.6318V9.19922H55.1631ZM49.5303 5.19336H52.3057V3.30664H49.5303V5.19336ZM67.7002 1.85742V14.2305H66.1963V1.85742H67.7002ZM63.8994 2.9375V7.57227H59.6475V10.0605C61.5957 10.0469 63.2773 9.95117 65.1982 9.62305L65.335 10.8672C63.2295 11.2363 61.3838 11.3047 59.1689 11.3047H58.0889V6.36914H62.3545V4.16797H58.0752V2.9375H63.8994ZM75.124 2.55469C77.7764 2.55469 79.7314 3.88086 79.7314 5.89062C79.7314 7.74316 78.1387 8.98047 75.876 9.19922V11.4688H80.7979V12.7129H69.5049V11.4688H74.3721V9.19922C72.123 8.98047 70.5303 7.74316 70.5439 5.89062C70.5303 3.88086 72.4854 2.55469 75.124 2.55469ZM75.124 3.78516C73.3193 3.77148 72.0205 4.5918 72.0342 5.89062C72.0205 7.23047 73.3193 8.02344 75.124 8.02344C76.9561 8.02344 78.2412 7.23047 78.2412 5.89062C78.2412 4.5918 76.9561 3.77148 75.124 3.78516ZM88.9873 13.1367C86.6084 13.1367 85.1865 11.291 85.1865 8.05078C85.1865 4.82422 86.6084 2.96484 88.9873 2.96484C91.3525 2.96484 92.7881 4.82422 92.7881 8.05078C92.7881 11.291 91.3662 13.1367 88.9873 13.1367ZM88.9873 11.6465C90.2314 11.6465 90.9971 10.4297 90.9971 8.05078C90.9971 5.68555 90.2178 4.44141 88.9873 4.44141C87.7568 4.44141 86.9775 5.68555 86.9775 8.05078C86.9775 10.4297 87.7432 11.6465 88.9873 11.6465ZM97.874 13.1367C95.7549 13.1367 94.251 11.9883 94.21 10.3203H96.001C96.0557 11.1133 96.8486 11.6328 97.874 11.6328C98.9678 11.6328 99.7471 11.0312 99.7471 10.1562C99.7471 9.26758 98.9814 8.625 97.6963 8.625H96.8076V7.25781H97.6963C98.749 7.25781 99.4873 6.66992 99.4736 5.80859C99.4873 4.97461 98.8584 4.41406 97.8877 4.41406C96.958 4.41406 96.1514 4.93359 96.124 5.76758H94.415C94.4561 4.09961 95.96 2.96484 97.9014 2.96484C99.9111 2.96484 101.21 4.19531 101.196 5.71289C101.21 6.82031 100.472 7.62695 99.3916 7.8457V7.92773C100.786 8.11914 101.579 9.00781 101.565 10.252C101.579 11.9199 100.021 13.1367 97.874 13.1367Z" fill="white"/>
<path d="M6.00062 5.59961C5.89453 5.59961 5.79279 5.64175 5.71778 5.71677C5.64276 5.79178 5.60062 5.89352 5.60062 5.99961C5.60062 6.1057 5.64276 6.20744 5.71778 6.28245C5.79279 6.35747 5.89453 6.39961 6.00062 6.39961H10.0006C10.1067 6.39961 10.2084 6.35747 10.2835 6.28245C10.3585 6.20744 10.4006 6.1057 10.4006 5.99961C10.4006 5.89352 10.3585 5.79178 10.2835 5.71677C10.2084 5.64175 10.1067 5.59961 10.0006 5.59961H6.00062ZM4.80062 7.59961C4.80062 7.49352 4.84276 7.39178 4.91778 7.31677C4.99279 7.24175 5.09453 7.19961 5.20062 7.19961H10.8006C10.9067 7.19961 11.0084 7.24175 11.0835 7.31677C11.1585 7.39178 11.2006 7.49352 11.2006 7.59961C11.2006 7.7057 11.1585 7.80744 11.0835 7.88245C11.0084 7.95747 10.9067 7.99961 10.8006 7.99961H5.20062C5.09453 7.99961 4.99279 7.95747 4.91778 7.88245C4.84276 7.80744 4.80062 7.7057 4.80062 7.59961ZM6.00062 8.79961C5.89453 8.79961 5.79279 8.84175 5.71778 8.91677C5.64276 8.99178 5.60062 9.09352 5.60062 9.19961C5.60062 9.3057 5.64276 9.40744 5.71778 9.48245C5.79279 9.55747 5.89453 9.59961 6.00062 9.59961H10.0006C10.1067 9.59961 10.2084 9.55747 10.2835 9.48245C10.3585 9.40744 10.4006 9.3057 10.4006 9.19961C10.4006 9.09352 10.3585 8.99178 10.2835 8.91677C10.2084 8.84175 10.1067 8.79961 10.0006 8.79961H6.00062ZM2.00062 1.59961C1.71723 1.59919 1.44283 1.69908 1.22603 1.88158C1.00923 2.06408 0.864013 2.31743 0.816103 2.59674C0.768194 2.87605 0.820682 3.16331 0.964272 3.40763C1.10786 3.65195 1.33329 3.83757 1.60062 3.93161V9.59961C1.60062 10.2361 1.85347 10.8466 2.30356 11.2967C2.75365 11.7468 3.3641 11.9996 4.00062 11.9996H7.60062V13.5996H5.20062C5.09453 13.5996 4.99279 13.6418 4.91778 13.7168C4.84276 13.7918 4.80062 13.8935 4.80062 13.9996C4.80062 14.1057 4.84276 14.2074 4.91778 14.2825C4.99279 14.3575 5.09453 14.3996 5.20062 14.3996H10.8006C10.9067 14.3996 11.0084 14.3575 11.0835 14.2825C11.1585 14.2074 11.2006 14.1057 11.2006 13.9996C11.2006 13.8935 11.1585 13.7918 11.0835 13.7168C11.0084 13.6418 10.9067 13.5996 10.8006 13.5996H8.40062V11.9996H12.0006C12.6371 11.9996 13.2476 11.7468 13.6977 11.2967C14.1478 10.8466 14.4006 10.2361 14.4006 9.59961V3.93161C14.6679 3.83757 14.8934 3.65195 15.037 3.40763C15.1806 3.16331 15.233 2.87605 15.1851 2.59674C15.1372 2.31743 14.992 2.06408 14.7752 1.88158C14.5584 1.69908 14.284 1.59919 14.0006 1.59961H2.00062ZM2.40062 9.59961V3.99961H13.6006V9.59961C13.6006 10.024 13.432 10.4309 13.132 10.731C12.8319 11.031 12.425 11.1996 12.0006 11.1996H4.00062C3.57627 11.1996 3.16931 11.031 2.86925 10.731C2.56919 10.4309 2.40062 10.024 2.40062 9.59961Z" fill="white"/>
<rect y="26" width="358" height="42" rx="21" fill="#553BF3"/>
<path d="M127.967 53V40.2734H132.748C135.666 40.2734 137.23 42.0488 137.23 44.4922C137.23 46.9355 135.648 48.6934 132.713 48.6934H130.252V53H127.967ZM130.252 46.8125H132.396C134.119 46.8125 134.893 45.8457 134.893 44.4922C134.893 43.1211 134.119 42.1895 132.396 42.1895H130.252V46.8125ZM139.076 40.2734H141.889L145.668 49.5195H145.826L149.605 40.2734H152.418V53H150.221V44.2461H150.098L146.564 52.9648H144.93L141.396 44.2109H141.291V53H139.076V40.2734ZM158.922 53V51.3477L163.422 47.0059C164.705 45.7227 165.373 44.9668 165.373 43.8945C165.373 42.7168 164.441 41.9609 163.193 41.9609C161.875 41.9609 161.031 42.7871 161.049 44.0703H158.869C158.852 41.6621 160.662 40.0977 163.211 40.0977C165.812 40.0977 167.57 41.6445 167.57 43.7891C167.57 45.2305 166.867 46.3906 164.371 48.7461L162.104 50.9961V51.084H167.764V53H158.922ZM182.512 38.6738V54.5645H180.543V38.6738H182.512ZM177.766 40.3613C177.766 45.0898 175.938 49.1152 170.365 51.752L169.346 50.1875C173.503 48.21 175.437 45.5205 175.779 41.9082H170.154V40.3613H177.766ZM201.988 40.0801V41.5215C201.971 43.4551 202.006 45.6699 201.285 49.0273L199.369 48.834C199.642 47.5596 199.809 46.4258 199.914 45.4062L190.545 45.9336L190.264 44.2637L200.02 43.9121C200.055 43.0859 200.063 42.3477 200.072 41.6621H190.756V40.0801H201.988ZM203.553 50.9961V52.6133H189.068V50.9961H194.412V47.0762H196.346V50.9961H203.553ZM217.545 40.0801V41.5215C217.527 43.4551 217.562 45.6699 216.842 49.0273L214.926 48.834C215.198 47.5596 215.365 46.4258 215.471 45.4062L206.102 45.9336L205.82 44.2637L215.576 43.9121C215.611 43.0859 215.62 42.3477 215.629 41.6621H206.312V40.0801H217.545ZM219.109 50.9961V52.6133H204.625V50.9961H209.969V47.0762H211.902V50.9961H219.109ZM232.715 38.6914V42.4883H234.947V44.1055H232.715V48.2363H230.764V38.6914H232.715ZM228.039 39.6582V44.2285H222.748V45.8984C225.446 45.8809 227.292 45.7842 229.463 45.4238L229.674 46.9883C227.301 47.4102 225.244 47.5156 222.098 47.498H220.797V42.752H226.123V41.2051H220.779V39.6582H228.039ZM227.529 48.5879C230.799 48.6055 232.855 49.7129 232.873 51.5938C232.855 53.457 230.799 54.5293 227.529 54.5293C224.189 54.5293 222.15 53.457 222.15 51.5938C222.15 49.7129 224.189 48.6055 227.529 48.5879ZM227.529 50.1172C225.314 50.1172 224.049 50.6445 224.066 51.5938C224.049 52.543 225.314 53.0527 227.529 53.0527C229.727 53.0527 230.939 52.543 230.939 51.5938C230.939 50.6445 229.727 50.1172 227.529 50.1172Z" fill="white"/>
<path d="M40.6354 86.9102V99.1602H39.3301V86.9102H40.6354ZM30.4302 95.1091C30.933 95.1091 31.4744 95.1091 32.0401 95.0994V89.2307H30.7541V88.1671H37.73V89.2307H36.4489V94.9302C37.087 94.8867 37.7203 94.8287 38.3246 94.7562L38.3923 95.7231C35.7431 96.1436 32.828 96.1872 30.5704 96.1968L30.4302 95.1091ZM33.297 95.0753C33.9109 95.0608 34.5442 95.0414 35.1775 95.0076V89.2307H33.297V95.0753ZM52.2564 88.1575V89.4627C52.2564 91.0532 52.2564 92.7693 51.8068 95.3895L50.487 95.2735C50.9705 92.8128 50.9705 91.0097 50.9753 89.4627V89.2162H43.7481V88.1575H52.2564ZM42.554 97.4247V96.3515H53.7212V97.4247H42.554ZM60.8512 88.1236V96.0856H55.1177V88.1236H60.8512ZM56.3891 95.0366H59.5556V89.1533H56.3891V95.0366ZM62.896 99.1602V86.9102H64.1965V91.7106H66.1592V92.808H64.1965V99.1602H62.896ZM77.9445 92.5325V93.5283H66.7339V92.5325H77.9445ZM68.0633 95.3218V94.384H76.5668V97.0863H69.3734V98.0967H76.9487V99.0152H68.0778V96.221H75.2809V95.3218H68.0633ZM68.1407 88.143V87.2293H76.5329V89.8785H69.4604V90.8115H76.7457V91.7251H68.1745V89.0228H75.2374V88.143H68.1407ZM91.9055 86.9102V89.9655H93.6507V91.0628H91.9055V94.1326H90.6099V86.9102H91.9055ZM82.1838 92.9627C83.1362 92.9627 84.2384 92.9627 85.3889 92.9289V92.2424C83.9822 92.1167 83.1023 91.5463 83.112 90.6326C83.1023 89.6319 84.2529 89.047 86.0222 89.047C87.7915 89.047 88.9324 89.6319 88.9421 90.6326C88.9324 91.5414 88.0719 92.107 86.6845 92.2424V92.8854C87.7819 92.8322 88.8841 92.7452 89.9138 92.605L90.0153 93.4413C87.3855 93.8812 84.4752 93.8957 82.3288 93.8957L82.1838 92.9627ZM82.498 88.6941V87.7901H85.3889V86.799H86.6845V87.7901H89.5657V88.6941H82.498ZM83.8178 95.5442V94.6499H91.9055V97.2023H85.1327V98.1402H92.3551V99.0442H83.842V96.3757H90.6196V95.5442H83.8178ZM84.3496 90.6326C84.3447 91.1257 84.9828 91.4206 86.0222 91.4206C87.0616 91.4206 87.6997 91.1257 87.6997 90.6326C87.6997 90.1588 87.0616 89.893 86.0222 89.8881C84.9828 89.893 84.3447 90.1588 84.3496 90.6326ZM105.538 92.8854V93.9392H94.3704V92.8854H97.0486V91.2417C96.1011 90.8598 95.5645 90.241 95.5645 89.4289C95.5645 87.9738 97.2517 87.1278 99.9443 87.1229C102.627 87.1278 104.314 87.9738 104.314 89.4289C104.314 90.241 103.778 90.8598 102.83 91.2465V92.8854H105.538ZM95.6902 96.951C95.6902 95.549 97.2807 94.7707 99.9395 94.7804C102.579 94.7707 104.165 95.549 104.174 96.951C104.165 98.3626 102.579 99.136 99.9395 99.136C97.2807 99.136 95.6902 98.3626 95.6902 96.951ZM96.9133 89.4289C96.9036 90.2507 98.0396 90.7051 99.9443 90.7051C101.839 90.7051 102.985 90.2507 102.985 89.4289C102.985 88.607 101.839 88.1333 99.9443 88.1333C98.0396 88.1333 96.9036 88.607 96.9133 89.4289ZM97.0099 96.951C97.0003 97.7148 98.0686 98.1499 99.9395 98.1402C101.791 98.1499 102.869 97.7148 102.879 96.951C102.869 96.192 101.791 95.7762 99.9395 95.7666C98.0686 95.7762 97.0003 96.192 97.0099 96.951ZM98.3539 92.8854H101.54V91.5849C101.061 91.6623 100.524 91.701 99.9443 91.701C99.3642 91.701 98.8325 91.6623 98.3539 91.5898V92.8854ZM116.095 86.9199V90.8598H117.869V91.9427H116.095V96.0905H114.795V86.9199H116.095ZM106.485 89.395V88.3508H109.491V86.9151H110.782V88.3508H113.775V89.395H106.485ZM107.152 92.3052C107.147 90.8985 108.355 89.9848 110.134 89.9848C111.889 89.9848 113.098 90.8985 113.103 92.3052C113.098 93.6878 111.889 94.5919 110.134 94.5919C108.355 94.5919 107.147 93.6878 107.152 92.3052ZM108.331 98.9088V95.3605H109.622V97.8453H116.617V98.9088H108.331ZM108.404 92.3052C108.394 93.0981 109.09 93.5863 110.134 93.5815C111.169 93.5863 111.865 93.0981 111.875 92.3052C111.865 91.4931 111.169 90.9903 110.134 90.9903C109.09 90.9903 108.394 91.4931 108.404 92.3052ZM133.179 93.8329V94.8964H130.341V99.1602H129.026V94.8964H126.097V99.1602H124.762V94.8964H121.968V93.8329H133.179ZM123.191 90.0815C123.191 88.4282 124.956 87.3791 127.547 87.3695C130.138 87.3791 131.917 88.4282 131.917 90.0815C131.917 91.7155 130.138 92.75 127.547 92.7403C124.956 92.75 123.191 91.7155 123.191 90.0815ZM124.526 90.0815C124.516 91.087 125.729 91.7058 127.547 91.7106C129.37 91.7058 130.578 91.087 130.578 90.0815C130.578 89.0518 129.37 88.4233 127.547 88.4233C125.729 88.4233 124.516 89.0518 124.526 90.0815ZM137.365 87.8287C139.197 87.8336 140.502 89.5014 140.512 92.1264C140.502 94.7659 139.197 96.4337 137.365 96.4337C135.533 96.4337 134.227 94.7659 134.237 92.1264C134.227 89.5014 135.533 87.8336 137.365 87.8287ZM135.475 92.1264C135.475 94.0698 136.248 95.2686 137.365 95.2686C138.506 95.2686 139.26 94.0698 139.265 92.1264C139.26 90.1975 138.506 88.9986 137.365 88.989C136.248 88.9986 135.475 90.1975 135.475 92.1264ZM142.33 99.1602V86.9102H143.63V91.7106H145.593V92.808H143.63V99.1602H142.33ZM156.368 86.9102V99.1602H155.063V86.9102H156.368ZM146.303 95.8778C149.561 94.3308 151.147 92.1215 151.403 89.2645H146.897V88.23H152.728C152.718 91.8122 151.195 94.9206 146.989 96.9268L146.303 95.8778ZM165.949 90.0283C165.939 92.1941 167.206 94.413 169.023 95.3025L168.226 96.3419C166.887 95.6506 165.852 94.2776 165.316 92.6436C164.769 94.384 163.696 95.8488 162.304 96.5739L161.497 95.5297C163.377 94.6209 164.648 92.2762 164.658 90.0283V87.9302H165.949V90.0283ZM169.947 99.1602V86.9102H171.247V91.7977H173.21V92.9047H171.247V99.1602H169.947ZM183.932 86.9102V99.1602H182.636V86.9102H183.932ZM173.867 95.8294C174.877 95.8246 176.028 95.8149 177.227 95.7811V94.5532C175.801 94.3646 174.872 93.5186 174.882 92.3246C174.872 90.942 176.076 90.0331 177.855 90.0331C179.644 90.0331 180.862 90.942 180.862 92.3246C180.862 93.509 179.939 94.3501 178.522 94.5483V95.7327C179.653 95.6796 180.799 95.5925 181.877 95.4523L181.974 96.4289C179.257 96.8785 176.294 96.9123 174.051 96.9123L173.867 95.8294ZM174.123 89.4095V88.3702H177.227V86.9344H178.527V88.3702H181.602V89.4095H174.123ZM176.105 92.3246C176.095 93.1029 176.825 93.5863 177.855 93.5815C178.904 93.5863 179.624 93.1029 179.624 92.3246C179.624 91.5414 178.904 91.0387 177.855 91.0387C176.825 91.0387 176.095 91.5414 176.105 92.3246ZM190.254 88.7521C190.245 90.4586 191.357 91.991 193.213 92.5953L192.507 93.6105C191.158 93.1222 190.167 92.1796 189.636 90.9517C189.104 92.3536 188.036 93.4461 186.551 93.9827L185.855 92.9385C187.813 92.2714 188.949 90.6423 188.959 88.8052V87.5919H190.254V88.7521ZM187.871 96.8253C187.862 95.3412 189.437 94.4807 192.009 94.4807C194.576 94.4807 196.147 95.3412 196.152 96.8253C196.147 98.3046 194.576 99.1409 192.009 99.1409C189.437 99.1409 187.862 98.3046 187.871 96.8253ZM189.157 96.8253C189.147 97.6423 190.216 98.116 192.009 98.116C193.798 98.116 194.862 97.6423 194.866 96.8253C194.862 95.9793 193.798 95.5007 192.009 95.5007C190.216 95.5007 189.147 95.9793 189.157 96.8253ZM192.237 90.4731V89.4047H194.818V86.9102H196.114V94.1423H194.818V90.4731H192.237ZM203.171 87.4372V89.0953H206.381V87.4372H207.667V92.7742H201.89V87.4372H203.171ZM203.123 94.7707V93.7459H211.046V96.8349H204.428V98H211.462V99.0442H203.152V95.8729H209.755V94.7707H203.123ZM203.171 91.7396H206.381V90.096H203.171V91.7396ZM209.746 93.2141V86.9102H211.046V89.4772H212.82V90.5407H211.046V93.2141H209.746ZM219.501 87.5967V88.6409H215.319V91.6188C217.635 91.614 219.022 91.5221 220.618 91.203L220.767 92.2279C219.071 92.5953 217.572 92.6533 215.01 92.6485H214.038V87.5967H219.501ZM215.222 94.6789V93.6347H223.146V96.7721H216.528V97.9517H223.562V99.0055H215.251V95.7762H221.855V94.6789H215.222ZM221.845 93.0594V86.9102H223.146V89.4095H224.92V90.4827H223.146V93.0594H221.845ZM231.194 87.1133C233.955 87.1133 235.564 87.8577 235.564 89.2162C235.564 90.5939 233.955 91.3384 231.194 91.3481C228.434 91.3384 226.814 90.5939 226.814 89.2162C226.814 87.8577 228.434 87.1133 231.194 87.1133ZM225.62 93.1319V92.0925H236.788V93.1319H225.62ZM226.95 95.0463V94.0746H235.371V96.9413H228.245V98.0387H235.724V99.0442H226.974V96.0083H234.095V95.0463H226.95ZM228.173 89.2162C228.163 89.98 229.246 90.3715 231.194 90.3715C233.157 90.3715 234.235 89.98 234.235 89.2162C234.235 88.5007 233.157 88.0753 231.194 88.0801C229.246 88.0753 228.163 88.5007 228.173 89.2162ZM245.155 87.4758C247.002 87.4662 248.331 88.5007 248.331 90.0138C248.331 91.5173 247.002 92.5615 245.155 92.5518C243.313 92.5615 241.989 91.5173 241.994 90.0138C241.989 88.5007 243.313 87.4662 245.155 87.4758ZM241.124 93.4993C243.381 93.4993 246.504 93.451 249.187 93.0546L249.279 94.0214C248.162 94.2293 247.007 94.3598 245.88 94.442V98.788H244.58V94.5145C243.391 94.5677 242.264 94.5773 241.293 94.5822L241.124 93.4993ZM243.251 90.0138C243.241 90.9033 244.043 91.4931 245.155 91.4834C246.296 91.4931 247.099 90.9033 247.099 90.0138C247.099 89.1195 246.296 88.52 245.155 88.5297C244.043 88.52 243.241 89.1195 243.251 90.0138ZM250.038 99.1651V86.9199H251.314V99.1651H250.038ZM262.863 86.9199V90.8598H264.637V91.9427H262.863V96.0905H261.562V86.9199H262.863ZM253.252 89.395V88.3508H256.259V86.9151H257.55V88.3508H260.542V89.395H253.252ZM253.919 92.3052C253.914 90.8985 255.123 89.9848 256.902 89.9848C258.657 89.9848 259.865 90.8985 259.87 92.3052C259.865 93.6878 258.657 94.5919 256.902 94.5919C255.123 94.5919 253.914 93.6878 253.919 92.3052ZM255.099 98.9088V95.3605H256.39V97.8453H263.385V98.9088H255.099ZM255.171 92.3052C255.162 93.0981 255.858 93.5863 256.902 93.5815C257.937 93.5863 258.633 93.0981 258.642 92.3052C258.633 91.4931 257.937 90.9903 256.902 90.9903C255.858 90.9903 255.162 91.4931 255.171 92.3052ZM273.923 88.288V91.4738H275.562V87.1471H276.799V98.5559H275.562V92.5421H273.923V95.9309H269.166V88.288H273.923ZM270.389 94.9012H272.705V89.3177H270.389V94.9012ZM278.042 99.1602V86.9102H279.289V99.1602H278.042ZM287.139 87.9883V89.0615H282.682V91.4302H286.898V92.4648H282.682V95.2058C284.727 95.1961 286.24 95.1188 288.014 94.8239L288.145 95.8826C286.25 96.192 284.616 96.2597 282.358 96.2645H281.372V87.9883H287.139ZM289.097 99.1602V86.9102H290.398V91.7396H292.36V92.837H290.398V99.1602H289.097ZM303.169 86.9102V99.1844H301.883V92.4551H299.166V96.1485H293.433V87.8626H294.738V90.9807H297.9V87.8626H299.166V91.3867H301.883V86.9102H303.169ZM294.738 95.0898H297.9V92.0104H294.738V95.0898ZM311.276 88.6506C311.276 90.6423 313.398 92.5325 315.747 92.953L315.158 94.0359C313.195 93.6105 311.397 92.3294 310.599 90.6084C309.792 92.3198 307.998 93.6057 306.035 94.0359L305.455 92.953C307.785 92.518 309.898 90.6423 309.908 88.6506V87.7272H311.276V88.6506ZM305.054 97.5504V96.4724H316.265V97.5504H305.054ZM34.6989 108.028C34.6892 110.194 35.9558 112.413 37.7735 113.302L36.9758 114.342C35.6367 113.651 34.6022 112.278 34.0656 110.644C33.5193 112.384 32.4461 113.849 31.0539 114.574L30.2465 113.53C32.1271 112.621 33.3985 110.276 33.4081 108.028V105.93H34.6989V108.028ZM38.6968 117.16V104.91H39.9972V109.798H41.9599V110.905H39.9972V117.16H38.6968ZM52.6818 104.91V117.16H51.3862V104.91H52.6818ZM42.6169 113.829C43.6272 113.825 44.7778 113.815 45.9767 113.781V112.553C44.5506 112.365 43.6224 111.519 43.6321 110.325C43.6224 108.942 44.8261 108.033 46.6051 108.033C48.3938 108.033 49.612 108.942 49.612 110.325C49.612 111.509 48.6887 112.35 47.2723 112.548V113.733C48.4035 113.68 49.5492 113.593 50.6272 113.452L50.7239 114.429C48.0071 114.878 45.0437 114.912 42.8006 114.912L42.6169 113.829ZM42.8731 107.41V106.37H45.9767V104.934H47.2771V106.37H50.3517V107.41H42.8731ZM44.8551 110.325C44.8455 111.103 45.5754 111.586 46.6051 111.581C47.6542 111.586 48.3745 111.103 48.3745 110.325C48.3745 109.541 47.6542 109.039 46.6051 109.039C45.5754 109.039 44.8455 109.541 44.8551 110.325ZM59.4639 112.635C58.9273 112.635 58.4825 112.2 58.4922 111.669C58.4825 111.137 58.9273 110.702 59.4639 110.702C59.986 110.702 60.4307 111.137 60.4307 111.669C60.4307 112.2 59.986 112.635 59.4639 112.635ZM71.9973 105.838V106.53C71.9876 107.347 71.9876 108.565 71.6879 110.141L70.402 110.03C70.6679 108.666 70.7114 107.68 70.721 106.912H65.8191V105.838H71.9973ZM65.0795 111.2C65.8336 111.195 66.6893 111.19 67.5884 111.171V108.594H68.8744V111.127C70.1893 111.074 71.538 110.977 72.7708 110.803L72.8481 111.751C70.2908 112.2 67.3661 112.249 65.2003 112.253L65.0795 111.2ZM66.9407 116.909V113.283H68.2362V115.845H75.2604V116.909H66.9407ZM73.5491 114.115V104.91H74.8688V108.811H76.556V109.909H74.8688V114.115H73.5491ZM87.8096 104.91V117.16H86.5769V104.91H87.8096ZM77.2081 113.622C79.8089 112.079 81.0561 110.015 81.2785 107.501H77.8124V106.433H82.5693C82.5693 107.057 82.5209 107.671 82.4242 108.26H84.0679V105.224H85.3055V116.566H84.0679V112.389H81.9747V111.325H84.0679V109.324H82.1825C81.5927 111.383 80.2875 113.172 77.9816 114.545L77.2081 113.622ZM102.747 106.09V107.395C102.737 108.942 102.737 110.552 102.302 112.896L101.026 112.761C101.451 110.542 101.451 108.903 101.451 107.395V107.144H93.9439V106.09H102.747ZM92.7982 115.507V114.434H95.4328V110.46H96.7284V114.434H98.4929V110.46H99.7692V114.434H103.965V115.507H92.7982ZM116.065 110.755V111.804H113.179V113.22H114.692V117.16H113.387V114.25H106.135V113.22H107.75V111.804H104.898V110.755H116.065ZM106.092 107.545C106.092 106.07 107.793 105.176 110.472 105.186C113.145 105.176 114.842 106.07 114.842 107.545C114.842 109.029 113.145 109.923 110.472 109.914C107.793 109.923 106.092 109.029 106.092 107.545ZM107.441 107.545C107.431 108.405 108.586 108.903 110.472 108.908C112.347 108.903 113.512 108.405 113.512 107.545C113.512 106.704 112.347 106.206 110.472 106.211C108.586 106.206 107.431 106.704 107.441 107.545ZM109.05 113.22H111.903V111.804H109.05V113.22ZM127.115 105.278V106.269H125.332V108.386H127.062V109.377H118.071V108.386H119.806V106.269H118.017V105.278H127.115ZM116.997 111.316V110.281H128.165V111.316H116.997ZM118.327 113.23V112.273H126.748V115.067H119.622V116.058H127.101V117.044H118.351V114.148H125.472V113.23H118.327ZM121.097 108.386H124.031V106.269H121.097V108.386ZM139.534 104.92V113.23H138.306V109.106H136.808V112.186H135.594V105.147H136.808V108.048H138.306V104.92H139.534ZM129.609 106.892V105.838H134.26V109.363H130.895V110.987C132.418 110.972 133.569 110.9 134.917 110.629L135.048 111.659C133.53 111.968 132.263 112.017 130.451 112.017H129.638V108.401H133.018V106.892H129.609ZM130.625 116.092C132.921 115.768 134.734 114.458 134.743 112.95V112.66H136.039V112.95C136.039 114.458 137.852 115.768 140.163 116.092L139.645 117.102C137.765 116.807 136.15 115.898 135.396 114.613C134.632 115.898 133.013 116.807 131.142 117.102L130.625 116.092ZM152.364 111.016V112.05H141.197V111.016H146.113V109.74H142.27V108.681H144.005V106.341H142.217V105.287H151.315V106.341H149.531V108.681H151.262V109.74H147.413V111.016H152.364ZM142.536 117.006V113.119H151V117.006H142.536ZM143.817 115.952H149.739V114.134H143.817V115.952ZM145.296 108.681H148.23V106.341H145.296V108.681Z" fill="white"/>
<path d="M9 95L12 98L22 88" stroke="white" stroke-width="2" stroke-linecap="round" stroke-linejoin="round"/>
<path d="M21 96V103C21 103.53 20.7893 104.039 20.4142 104.414C20.0391 104.789 19.5304 105 19 105H5C4.46957 105 3.96086 104.789 3.58579 104.414C3.21071 104.039 3 103.53 3 103V89C3 88.4696 3.21071 87.9609 3.58579 87.5858C3.96086 87.2107 4.46957 87 5 87H16" stroke="white" stroke-width="2" stroke-linecap="round" stroke-linejoin="round"/>
</svg>
