<svg width="358" height="108" viewBox="0 0 358 108" fill="none" xmlns="http://www.w3.org/2000/svg">
<path d="M33.1045 11.5098V12.7812H21.8115V11.5098H26.665V9.07617H22.7822V7.87305H24.5186V4.18164H22.7412V2.95117H32.1201V4.18164H30.3154V7.87305H32.0791V9.07617H28.1689V11.5098H33.1045ZM26.0361 7.87305H28.8115V4.18164H26.0361V7.87305ZM43.96 8.33789V9.54102H35.292V2.82812H43.8506V4.05859H36.8369V5.54883H43.5635V6.73828H36.8369V8.33789H43.96ZM45.2041 11.4688V12.7129H33.9111V11.4688H45.2041ZM56.2373 2.17188V3.30664H54.542V5.19336H56.1689V6.32812H52.3818V7.24414H57.2764V8.43359H46.0107V7.24414H50.8643V6.32812H47.0908V5.19336H48.7178V3.30664H47.0225V2.17188H56.2373ZM55.8682 9.19922V12.0977H48.8408V12.9727H56.21V14.1074H47.3506V11.0586H54.3779V10.293H47.3369V9.19922H55.8682ZM50.2354 5.19336H53.0107V3.30664H50.2354V5.19336ZM68.4053 1.85742V14.2305H66.9014V1.85742H68.4053ZM64.6045 2.9375V7.57227H60.3525V10.0605C62.3008 10.0469 63.9824 9.95117 65.9033 9.62305L66.04 10.8672C63.9346 11.2363 62.0889 11.3047 59.874 11.3047H58.7939V6.36914H63.0596V4.16797H58.7803V2.9375H64.6045ZM75.8291 2.55469C78.4814 2.55469 80.4365 3.88086 80.4365 5.89062C80.4365 7.74316 78.8438 8.98047 76.5811 9.19922V11.4688H81.5029V12.7129H70.21V11.4688H75.0771V9.19922C72.8281 8.98047 71.2354 7.74316 71.249 5.89062C71.2354 3.88086 73.1904 2.55469 75.8291 2.55469ZM75.8291 3.78516C74.0244 3.77148 72.7256 4.5918 72.7393 5.89062C72.7256 7.23047 74.0244 8.02344 75.8291 8.02344C77.6611 8.02344 78.9463 7.23047 78.9463 5.89062C78.9463 4.5918 77.6611 3.77148 75.8291 3.78516ZM89.6924 13.1367C87.3135 13.1367 85.8916 11.291 85.8916 8.05078C85.8916 4.82422 87.3135 2.96484 89.6924 2.96484C92.0576 2.96484 93.4932 4.82422 93.4932 8.05078C93.4932 11.291 92.0713 13.1367 89.6924 13.1367ZM89.6924 11.6465C90.9365 11.6465 91.7021 10.4297 91.7021 8.05078C91.7021 5.68555 90.9229 4.44141 89.6924 4.44141C88.4619 4.44141 87.6826 5.68555 87.6826 8.05078C87.6826 10.4297 88.4482 11.6465 89.6924 11.6465ZM94.9834 13V11.7148L98.4834 8.33789C99.4814 7.33984 100.001 6.75195 100.001 5.91797C100.001 5.00195 99.2764 4.41406 98.3057 4.41406C97.2803 4.41406 96.624 5.05664 96.6377 6.05469H94.9424C94.9287 4.18164 96.3369 2.96484 98.3193 2.96484C100.343 2.96484 101.71 4.16797 101.71 5.83594C101.71 6.95703 101.163 7.85938 99.2217 9.69141L97.458 11.4414V11.5098H101.86V13H94.9834Z" fill="white"/>
<path d="M6.00062 5.59961C5.89453 5.59961 5.79279 5.64175 5.71778 5.71677C5.64276 5.79178 5.60062 5.89352 5.60062 5.99961C5.60062 6.1057 5.64276 6.20744 5.71778 6.28245C5.79279 6.35747 5.89453 6.39961 6.00062 6.39961H10.0006C10.1067 6.39961 10.2084 6.35747 10.2835 6.28245C10.3585 6.20744 10.4006 6.1057 10.4006 5.99961C10.4006 5.89352 10.3585 5.79178 10.2835 5.71677C10.2084 5.64175 10.1067 5.59961 10.0006 5.59961H6.00062ZM4.80062 7.59961C4.80062 7.49352 4.84276 7.39178 4.91778 7.31677C4.99279 7.24175 5.09453 7.19961 5.20062 7.19961H10.8006C10.9067 7.19961 11.0084 7.24175 11.0835 7.31677C11.1585 7.39178 11.2006 7.49352 11.2006 7.59961C11.2006 7.7057 11.1585 7.80744 11.0835 7.88245C11.0084 7.95747 10.9067 7.99961 10.8006 7.99961H5.20062C5.09453 7.99961 4.99279 7.95747 4.91778 7.88245C4.84276 7.80744 4.80062 7.7057 4.80062 7.59961ZM6.00062 8.79961C5.89453 8.79961 5.79279 8.84175 5.71778 8.91677C5.64276 8.99178 5.60062 9.09352 5.60062 9.19961C5.60062 9.3057 5.64276 9.40744 5.71778 9.48245C5.79279 9.55747 5.89453 9.59961 6.00062 9.59961H10.0006C10.1067 9.59961 10.2084 9.55747 10.2835 9.48245C10.3585 9.40744 10.4006 9.3057 10.4006 9.19961C10.4006 9.09352 10.3585 8.99178 10.2835 8.91677C10.2084 8.84175 10.1067 8.79961 10.0006 8.79961H6.00062ZM2.00062 1.59961C1.71723 1.59919 1.44283 1.69908 1.22603 1.88158C1.00923 2.06408 0.864013 2.31743 0.816103 2.59674C0.768194 2.87605 0.820682 3.16331 0.964272 3.40763C1.10786 3.65195 1.33329 3.83757 1.60062 3.93161V9.59961C1.60062 10.2361 1.85347 10.8466 2.30356 11.2967C2.75365 11.7468 3.3641 11.9996 4.00062 11.9996H7.60062V13.5996H5.20062C5.09453 13.5996 4.99279 13.6418 4.91778 13.7168C4.84276 13.7918 4.80062 13.8935 4.80062 13.9996C4.80062 14.1057 4.84276 14.2074 4.91778 14.2825C4.99279 14.3575 5.09453 14.3996 5.20062 14.3996H10.8006C10.9067 14.3996 11.0084 14.3575 11.0835 14.2825C11.1585 14.2074 11.2006 14.1057 11.2006 13.9996C11.2006 13.8935 11.1585 13.7918 11.0835 13.7168C11.0084 13.6418 10.9067 13.5996 10.8006 13.5996H8.40062V11.9996H12.0006C12.6371 11.9996 13.2476 11.7468 13.6977 11.2967C14.1478 10.8466 14.4006 10.2361 14.4006 9.59961V3.93161C14.6679 3.83757 14.8934 3.65195 15.037 3.40763C15.1806 3.16331 15.233 2.87605 15.1851 2.59674C15.1372 2.31743 14.992 2.06408 14.7752 1.88158C14.5584 1.69908 14.284 1.59919 14.0006 1.59961H2.00062ZM2.40062 9.59961V3.99961H13.6006V9.59961C13.6006 10.024 13.432 10.4309 13.132 10.731C12.8319 11.031 12.425 11.1996 12.0006 11.1996H4.00062C3.57627 11.1996 3.16931 11.031 2.86925 10.731C2.56919 10.4309 2.40062 10.024 2.40062 9.59961Z" fill="white"/>
<rect x="0.5" y="26.5" width="357" height="41" rx="20.5" fill="white"/>
<rect x="0.5" y="26.5" width="357" height="41" rx="20.5" stroke="#767BFF"/>
<path d="M127.759 53V40.2734H132.54C135.458 40.2734 137.022 42.0488 137.022 44.4922C137.022 46.9355 135.44 48.6934 132.505 48.6934H130.044V53H127.759ZM130.044 46.8125H132.188C133.911 46.8125 134.685 45.8457 134.685 44.4922C134.685 43.1211 133.911 42.1895 132.188 42.1895H130.044V46.8125ZM138.868 40.2734H141.681L145.46 49.5195H145.618L149.397 40.2734H152.21V53H150.013V44.2461H149.89L146.356 52.9648H144.722L141.188 44.2109H141.083V53H138.868V40.2734ZM163.882 40.2734V53H161.579V42.5059H161.509L158.538 44.4043V42.3125L161.685 40.2734H163.882ZM179.72 38.6738V54.5645H177.751V38.6738H179.72ZM174.974 40.3613C174.974 45.0898 173.146 49.1152 167.573 51.752L166.554 50.1875C170.711 48.21 172.645 45.5205 172.987 41.9082H167.362V40.3613H174.974ZM200.778 47.5859V49.168H197.245V54.5645H195.259V49.168H191.743V54.5645H189.739V49.168H186.259V47.5859H200.778ZM193.483 39.2363C196.858 39.2539 199.214 40.625 199.214 42.7871C199.214 44.9141 196.858 46.2676 193.483 46.2676C190.091 46.2676 187.771 44.9141 187.788 42.7871C187.771 40.625 190.091 39.2539 193.483 39.2363ZM193.483 40.8184C191.233 40.8184 189.774 41.5391 189.792 42.7871C189.774 44 191.233 44.7207 193.483 44.7207C195.733 44.7207 197.192 44 197.192 42.7871C197.192 41.5391 195.733 40.8184 193.483 40.8184ZM215.087 38.6738V54.5645H213.153V38.6738H215.087ZM204.681 40.2207V48.9043C206.913 48.8691 209.286 48.667 211.729 48.1836L211.976 49.8184C209.181 50.3984 206.579 50.5742 204.118 50.5742H202.747V40.2207H204.681ZM222.294 42.2422C222.294 43.9297 223.313 45.6348 225.317 46.4082L224.421 47.832C222.971 47.3135 221.978 46.2939 221.415 45.0371C220.861 46.417 219.859 47.5596 218.374 48.166L217.407 46.7246C219.429 45.8809 220.431 44.0527 220.448 42.2422V42.1016H217.829V40.5371H220.448V38.8848H222.294V40.5371H224.878V42.1016H222.294V42.2422ZM230.978 38.6914V49.502H229.114V38.6914H230.978ZM227.849 38.9727V48.0781H225.985V44.6504H224.122V43.0508H225.985V38.9727H227.849ZM226.513 49.0098C226.513 50.8203 228.552 52.543 231.716 52.9648L231.03 54.4766C228.481 54.1162 226.513 52.9824 225.546 51.4004C224.553 52.9824 222.584 54.1162 220.044 54.4766L219.358 52.9648C222.54 52.543 224.544 50.8203 224.562 49.0098V48.6934H226.513V49.0098Z" fill="#553BF3"/>
<path d="M31.8515 101H30.2562L33.8142 91.0994H35.5594L39.1174 101H37.5173L36.6133 98.3847H32.7555L31.8515 101ZM33.1906 97.1229H36.1782L34.7231 92.9075H34.6457L33.1906 97.1229ZM41.8742 91.0994V101H40.3708V91.0994H41.8742ZM50.4543 92.511C50.4543 93.8646 51.3293 95.2037 52.886 95.7935L52.2768 96.7749C51.1166 96.3301 50.3093 95.4841 49.8742 94.4593C49.444 95.5905 48.6318 96.538 47.4523 97.0262L46.8045 96.0691C48.3659 95.4213 49.2168 93.971 49.2264 92.511V92.5014H47.0897V91.4669H49.2264V90.0891H50.4543V91.4669H52.5524V92.5014H50.4543V92.511ZM48.2934 101.092C50.5945 100.768 52.388 99.4385 52.3977 97.9351V97.6644H53.6933V97.9351C53.6933 99.4385 55.511 100.768 57.7976 101.092L57.3383 102.102C55.4191 101.807 53.7996 100.894 53.0503 99.6029C52.2914 100.894 50.667 101.807 48.7623 102.102L48.2934 101.092ZM53.3259 97.1374V90.1374H54.5683V92.98H55.9605V89.9199H57.1885V98.1961H55.9605V94.0532H54.5683V97.1374H53.3259ZM61.6016 90.239V91.5152H67.277V90.239H68.5678V94.7831H65.0726V96.0449H70.018V97.0794H58.8509V96.0449H63.7963V94.7831H60.3108V90.239H61.6016ZM59.6776 101.097C62.0367 100.802 63.7673 99.5981 63.7673 98.1333V97.8287H65.0774V98.1333C65.0774 99.5981 66.7984 100.802 69.1914 101.097L68.7176 102.102C66.7742 101.812 65.1741 100.985 64.4296 99.7624C63.6755 100.985 62.0754 101.812 60.1562 102.102L59.6776 101.097ZM61.6016 93.7583H67.277V92.5159H61.6016V93.7583ZM76.5244 90.1133C79.2848 90.1133 80.8946 90.8577 80.8946 92.2162C80.8946 93.5939 79.2848 94.3384 76.5244 94.3481C73.764 94.3384 72.1446 93.5939 72.1446 92.2162C72.1446 90.8577 73.764 90.1133 76.5244 90.1133ZM70.9505 96.1319V95.0925H82.1176V96.1319H70.9505ZM72.2799 98.0463V97.0746H80.7012V99.9413H73.5755V101.039H81.0541V102.044H72.3041V99.0083H79.425V98.0463H72.2799ZM73.503 92.2162C73.4933 92.98 74.5762 93.3715 76.5244 93.3715C78.4871 93.3715 79.5652 92.98 79.5652 92.2162C79.5652 91.5007 78.4871 91.0753 76.5244 91.0801C74.5762 91.0753 73.4933 91.5007 73.503 92.2162ZM96.1028 89.9102V92.9655H97.8479V94.0628H96.1028V97.1326H94.8072V89.9102H96.1028ZM86.3811 95.9627C87.3334 95.9627 88.4356 95.9627 89.5862 95.9289V95.2424C88.1794 95.1167 87.2996 94.5463 87.3093 93.6326C87.2996 92.6319 88.4501 92.047 90.2195 92.047C91.9888 92.047 93.1297 92.6319 93.1394 93.6326C93.1297 94.5414 92.2692 95.107 90.8818 95.2424V95.8854C91.9791 95.8322 93.0814 95.7452 94.111 95.605L94.2126 96.4413C91.5827 96.8812 88.6725 96.8957 86.5261 96.8957L86.3811 95.9627ZM86.6953 91.6941V90.7901H89.5862V89.799H90.8818V90.7901H93.763V91.6941H86.6953ZM88.0151 98.5442V97.6499H96.1028V100.202H89.33V101.14H96.5523V102.044H88.0392V99.3757H94.8168V98.5442H88.0151ZM88.5468 93.6326C88.542 94.1257 89.1801 94.4206 90.2195 94.4206C91.2588 94.4206 91.897 94.1257 91.897 93.6326C91.897 93.1588 91.2588 92.893 90.2195 92.8881C89.1801 92.893 88.542 93.1588 88.5468 93.6326ZM109.735 95.8854V96.9392H98.5677V95.8854H101.246V94.2417C100.298 93.8598 99.7618 93.241 99.7618 92.4289C99.7618 90.9738 101.449 90.1278 104.142 90.1229C106.825 90.1278 108.512 90.9738 108.512 92.4289C108.512 93.241 107.975 93.8598 107.028 94.2465V95.8854H109.735ZM99.8875 99.951C99.8875 98.549 101.478 97.7707 104.137 97.7804C106.776 97.7707 108.362 98.549 108.372 99.951C108.362 101.363 106.776 102.136 104.137 102.136C101.478 102.136 99.8875 101.363 99.8875 99.951ZM101.111 92.4289C101.101 93.2507 102.237 93.7051 104.142 93.7051C106.037 93.7051 107.182 93.2507 107.182 92.4289C107.182 91.607 106.037 91.1333 104.142 91.1333C102.237 91.1333 101.101 91.607 101.111 92.4289ZM101.207 99.951C101.198 100.715 102.266 101.15 104.137 101.14C105.988 101.15 107.066 100.715 107.076 99.951C107.066 99.192 105.988 98.7762 104.137 98.7666C102.266 98.7762 101.198 99.192 101.207 99.951ZM102.551 95.8854H105.737V94.5849C105.258 94.6623 104.722 94.701 104.142 94.701C103.561 94.701 103.03 94.6623 102.551 94.5898V95.8854ZM120.292 89.9199V93.8598H122.066V94.9427H120.292V99.0905H118.992V89.9199H120.292ZM110.682 92.395V91.3508H113.689V89.9151H114.979V91.3508H117.972V92.395H110.682ZM111.349 95.3052C111.344 93.8985 112.553 92.9848 114.332 92.9848C116.087 92.9848 117.295 93.8985 117.3 95.3052C117.295 96.6878 116.087 97.5919 114.332 97.5919C112.553 97.5919 111.344 96.6878 111.349 95.3052ZM112.528 101.909V98.3605H113.819V100.845H120.814V101.909H112.528ZM112.601 95.3052C112.591 96.0981 113.287 96.5863 114.332 96.5815C115.366 96.5863 116.062 96.0981 116.072 95.3052C116.062 94.4931 115.366 93.9903 114.332 93.9903C113.287 93.9903 112.591 94.4931 112.601 95.3052ZM136.675 89.9102V102.16H135.418V95.8902H133.857V101.532H132.639V90.1616H133.857V94.8122H135.418V89.9102H136.675ZM126.755 99.047V91.3557H128.056V97.9061C129.187 97.8867 130.42 97.7997 131.807 97.529L131.952 98.6602C130.27 98.9648 128.868 99.047 127.548 99.047H126.755ZM152.913 99.5642V100.633H141.702V99.5642H146.648V96.6637H147.948V99.5642H152.913ZM142.22 96.1077C144.497 95.721 146.609 94.0193 146.609 92.1485V92.0373H142.631V90.9593H151.941V92.0373H147.963V92.1485C147.963 94.0193 150.085 95.6872 152.42 96.0497L151.893 97.0746C149.916 96.7023 148.093 95.5566 147.296 93.9468C146.503 95.576 144.695 96.7507 142.747 97.1326L142.22 96.1077ZM164.012 89.9199V98.9406H162.716V94.6913H160.174V93.6181H162.716V89.9199H164.012ZM153.981 96.5428C156.707 95.663 158.559 93.9952 158.825 91.9213H154.605V90.8432H160.246C160.236 94.0387 158.042 96.4461 154.527 97.5822L153.981 96.5428ZM156.118 101.909V98.0221H157.437V100.845H164.321V101.909H156.118ZM176.436 89.9102V102.16H175.188V89.9102H176.436ZM166.037 95.1989C166.037 92.5497 167.076 90.8916 168.672 90.8916C170.161 90.8916 171.171 92.3032 171.326 94.6043H172.708V90.1471H173.946V101.556H172.708V95.6581H171.331C171.21 98.0511 170.19 99.5304 168.672 99.5256C167.076 99.5304 166.037 97.8626 166.037 95.1989ZM167.246 95.1989C167.236 97.1519 167.792 98.2977 168.672 98.288C169.576 98.2977 170.136 97.1519 170.136 95.1989C170.136 93.2507 169.576 92.1098 168.672 92.1098C167.792 92.1098 167.236 93.2507 167.246 95.1989ZM187.626 90.732V96.0159H181.888V90.732H187.626ZM182.604 101.116C184.711 100.811 186.273 99.7721 186.466 98.5732H183.097V97.5338H191.238V98.5732H187.868C188.057 99.7479 189.647 100.811 191.736 101.121L191.257 102.126C189.396 101.836 187.868 100.981 187.162 99.8156C186.461 100.985 184.939 101.827 183.082 102.102L182.604 101.116ZM183.16 94.9717H186.355V91.7762H183.16V94.9717ZM189.744 96.8619V89.9102H191.044V92.7576H192.818V93.8405H191.044V96.8619H189.744ZM203.434 93.4972V94.5366H194.993V90.355H196.279V93.4972H203.434ZM193.5 97.1181V96.0787H204.71V97.1181H193.5ZM194.901 101.87V98.2831H196.192V100.811H203.511V101.87H194.901ZM213.774 96.4171V98.5394C214.896 98.4765 216.032 98.3798 217.1 98.2203L217.202 99.1823C214.427 99.6899 211.449 99.7141 209.259 99.7141L209.099 98.6457C210.085 98.6409 211.255 98.636 212.483 98.5974V96.4171H213.774ZM209.423 95.8322C211.255 95.3101 212.396 94.0338 212.454 92.5256H209.757V91.4669H212.483V90.0069H213.774V91.4669H216.53V92.5256H213.779C213.842 93.9662 215.007 95.1989 216.839 95.692L216.239 96.7072C214.775 96.2914 213.682 95.4019 213.126 94.2369C212.594 95.4648 211.512 96.3978 210.047 96.8184L209.423 95.8322ZM217.869 102.184V89.9102H219.164V102.184H217.869ZM231.046 91.0898V92.2887C231.041 93.8066 231.041 95.4986 230.577 98.0124L229.272 97.8674C229.741 95.4986 229.741 93.7631 229.751 92.2887V92.1436H222.311V91.0898H231.046ZM221.136 100.507V99.4337H225.381V95.1119H226.666V99.4337H232.303V100.507H221.136ZM237.224 90.7804C239.162 90.7804 240.55 91.9793 240.56 93.7003C240.55 95.4261 239.162 96.6202 237.224 96.6202C235.295 96.6202 233.879 95.4261 233.888 93.7003C233.879 91.9793 235.295 90.7804 237.224 90.7804ZM233.299 98.4669C235.532 98.4717 238.621 98.4475 241.299 98.0608L241.401 99.0083C238.626 99.5352 235.648 99.5497 233.458 99.5497L233.299 98.4669ZM235.169 93.7003C235.16 94.7831 236.035 95.4938 237.224 95.4938C238.413 95.4938 239.288 94.7831 239.293 93.7003C239.288 92.6222 238.413 91.9068 237.224 91.9068C236.035 91.9068 235.16 92.6222 235.169 93.7003ZM242.068 102.184V89.9102H243.363V102.184H242.068ZM259.258 89.9102V102.16H258.025V95.8273H256.44V101.532H255.241V90.1616H256.44V94.7686H258.025V89.9102H259.258ZM249.164 99.2162V91.3847H253.747V92.4385H250.465V98.1188C251.968 98.1043 253.099 98.0366 254.404 97.7852L254.511 98.8584C253.032 99.163 251.765 99.2065 249.976 99.2162H249.164ZM268.157 91.1526V92.1872H260.867V91.1526H263.874V89.8522H265.165V91.1526H268.157ZM261.534 94.9765C261.53 93.6326 262.743 92.7576 264.517 92.7479C266.282 92.7576 267.481 93.6326 267.485 94.9765C267.481 96.3156 266.282 97.1954 264.517 97.1954C262.743 97.1954 261.53 96.3156 261.534 94.9765ZM262.38 99.25V98.1961H270.478V102.16H269.177V99.25H262.38ZM262.787 94.9765C262.777 95.7307 263.473 96.1851 264.517 96.1851C265.552 96.1851 266.248 95.7307 266.258 94.9765C266.248 94.2175 265.552 93.7486 264.517 93.739C263.473 93.7486 262.777 94.2175 262.787 94.9765ZM269.177 97.5725V89.9102H270.478V93.2362H272.252V94.3094H270.478V97.5725H269.177ZM282.901 91.0898V92.395C282.892 93.942 282.892 95.5518 282.457 97.8964L281.18 97.761C281.606 95.5421 281.606 93.9033 281.606 92.395V92.1436H274.098V91.0898H282.901ZM272.952 100.507V99.4337H275.587V95.4599H276.883V99.4337H278.647V95.4599H279.923V99.4337H284.12V100.507H272.952ZM296.243 95.5325V96.5283H285.033V95.5325H296.243ZM286.362 98.3218V97.384H294.866V100.086H287.672V101.097H295.248V102.015H286.377V99.221H293.58V98.3218H286.362ZM286.44 91.143V90.2293H294.832V92.8785H287.759V93.8115H295.044V94.7251H286.473V92.0228H293.536V91.143H286.44ZM310.195 89.9102V92.4724H311.969V93.5504H310.195V96.1077H308.894V89.9102H310.195ZM300.753 93.0718C300.744 91.4523 302.117 90.3405 303.973 90.3308C305.829 90.3405 307.188 91.4523 307.188 93.0718C307.188 94.6768 305.829 95.8032 303.973 95.8032C302.117 95.8032 300.744 94.6768 300.753 93.0718ZM302.02 93.0718C302.01 94.0725 302.842 94.7638 303.973 94.7638C305.095 94.7638 305.926 94.0725 305.926 93.0718C305.926 92.076 305.095 91.3992 303.973 91.404C302.842 91.3992 302.01 92.076 302.02 93.0718ZM302.271 97.6837V96.6588H310.195V99.7624H303.577V100.966H310.61V102.006H302.3V98.8004H308.904V97.6837H302.271ZM315.947 90.8287C317.779 90.8336 319.084 92.5014 319.094 95.1264C319.084 97.7659 317.779 99.4337 315.947 99.4337C314.115 99.4337 312.809 97.7659 312.819 95.1264C312.809 92.5014 314.115 90.8336 315.947 90.8287ZM314.057 95.1264C314.057 97.0698 314.83 98.2686 315.947 98.2686C317.088 98.2686 317.842 97.0698 317.847 95.1264C317.842 93.1975 317.088 91.9986 315.947 91.989C314.83 91.9986 314.057 93.1975 314.057 95.1264ZM320.912 102.16V89.9102H322.212V94.7106H324.175V95.808H322.212V102.16H320.912ZM335.98 99.5691V100.642H324.769V99.5691H329.7V97.0552H326.045V90.7465H327.346V92.8591H333.359V90.7465H334.65V97.0552H330.986V99.5691H335.98ZM327.346 96.0014H333.359V93.9033H327.346V96.0014ZM347.049 89.9102V102.16H345.744V89.9102H347.049ZM336.985 98.8778C340.243 97.3308 341.828 95.1215 342.085 92.2645H337.579V91.23H343.409C343.4 94.8122 341.877 97.9206 337.671 99.9268L336.985 98.8778Z" fill="white"/>
<path d="M9 95L12 98L22 88" stroke="white" stroke-width="2" stroke-linecap="round" stroke-linejoin="round"/>
<path d="M21 96V103C21 103.53 20.7893 104.039 20.4142 104.414C20.0391 104.789 19.5304 105 19 105H5C4.46957 105 3.96086 104.789 3.58579 104.414C3.21071 104.039 3 103.53 3 103V89C3 88.4696 3.21071 87.9609 3.58579 87.5858C3.96086 87.2107 4.46957 87 5 87H16" stroke="white" stroke-width="2" stroke-linecap="round" stroke-linejoin="round"/>
</svg>
