<svg width="272" height="24" viewBox="0 0 272 24" fill="none" xmlns="http://www.w3.org/2000/svg">
<path d="M11.9531 6.0625V7.10938C11.9531 8.17969 11.9531 9.4375 11.625 11.0781H13.5625V12.0781H0.921875V11.0781H10.3906C10.5234 10.4141 10.6094 9.82031 10.6562 9.28125L2.34375 9.64062L2.1875 8.65625L10.7188 8.39062C10.7344 7.94531 10.7344 7.51562 10.7344 7.10938V7.0625H2.51562V6.0625H11.9531ZM12.0625 13.4219V16.625H3.65625V18.0938H12.5469V19.0781H2.4375V15.6875H10.8438V14.375H2.40625V13.4219H12.0625ZM26.2031 5.39062V13.875H24.9844V5.39062H26.2031ZM26.2031 14.625V19.2656H24.9844V15.6406H16.8594V14.625H26.2031ZM21.7812 6.21875V10.0469H16.6562V12.0625C19.1406 12.0625 21 11.9844 23.25 11.6406L23.3906 12.6406C21.0625 13 19.1562 13.0781 16.5938 13.0781H15.4688V9.07812H20.5625V7.21875H15.4375V6.21875H21.7812ZM35.5 7.78125V8.78125H28.5312V7.78125H31.4219V5.79688H32.6406V7.78125H35.5ZM32.0156 9.71875C33.7656 9.71875 35.0156 11.0312 35.0312 12.875C35.0156 14.7344 33.7656 16.0625 32.0156 16.0625C30.2812 16.0625 29.0312 14.7344 29.0312 12.875C29.0312 11.0312 30.2812 9.71875 32.0156 9.71875ZM32.0156 10.75C30.9219 10.7656 30.125 11.6562 30.125 12.875C30.125 14.1094 30.9219 15 32.0156 14.9844C33.125 15 33.9375 14.1094 33.9375 12.875C33.9375 11.6562 33.125 10.7656 32.0156 10.75ZM40.3906 5.375V19.2656H39.2188V12.25H37.375V18.5781H36.2188V5.71875H37.375V11.2344H39.2188V5.375H40.3906ZM163.938 11.8281V12.7969H151.219V11.8281H163.938ZM162.344 13.9062V16.8594H154V18.1875H162.797V19.0781H152.766V16.0156H161.125V14.8281H152.75V13.9062H162.344ZM162.297 5.79688V8.67188H154.094V9.89062H162.547V10.7812H152.875V7.82812H161.062V6.6875H152.828V5.79688H162.297ZM179.922 5.39062V9.59375H182V10.625H179.922V14.7031H178.688V5.39062H179.922ZM169.016 13.2812C170.125 13.2812 171.422 13.2812 172.781 13.2344V12.2188C171.164 12.0781 170.125 11.3203 170.125 10.1719C170.125 8.90625 171.422 8.125 173.375 8.125C175.344 8.125 176.625 8.90625 176.641 10.1719C176.625 11.3125 175.609 12.0703 174 12.2188V13.1875C175.297 13.125 176.609 13.0234 177.828 12.8438L177.938 13.7344C174.922 14.2656 171.594 14.2812 169.156 14.2812L169.016 13.2812ZM179.922 15.3906V19.2656H178.688V16.375H170.719V15.3906H179.922ZM177.406 6.65625V7.59375H169.359V6.65625H172.781V5.26562H174V6.65625H177.406ZM173.375 9C172.094 8.98438 171.297 9.4375 171.297 10.1719C171.297 10.8906 172.094 11.3906 173.375 11.375C174.656 11.3906 175.469 10.8906 175.469 10.1719C175.469 9.4375 174.656 8.98438 173.375 9ZM194.375 5.39062V15.5469H193.156V5.39062H194.375ZM194.812 17.9375V18.9688H185.406V14.5156H186.625V17.9375H194.812ZM186.875 6.35938C188.953 6.35938 190.516 7.76562 190.516 9.76562C190.516 11.7969 188.953 13.1875 186.875 13.1875C184.797 13.1875 183.234 11.7969 183.234 9.76562C183.234 7.76562 184.797 6.35938 186.875 6.35938ZM186.875 7.4375C185.469 7.4375 184.422 8.40625 184.438 9.76562C184.422 11.1562 185.469 12.1094 186.875 12.1094C188.25 12.1094 189.312 11.1562 189.312 9.76562C189.312 8.40625 188.25 7.4375 186.875 7.4375ZM207.484 5.375V11.1094H209.812V12.125H207.484V19.2656H206.266V5.375H207.484ZM204.922 7.60938V8.625H196.656V7.60938H200.234V5.54688H201.453V7.60938H204.922ZM200.859 9.78125C202.828 9.78125 204.25 11.0938 204.266 12.9688C204.25 14.8438 202.828 16.1562 200.859 16.1562C198.875 16.1562 197.438 14.8438 197.453 12.9688C197.438 11.0938 198.875 9.78125 200.859 9.78125ZM200.859 10.8125C199.562 10.8125 198.609 11.7188 198.625 12.9688C198.609 14.2344 199.562 15.125 200.859 15.1094C202.141 15.125 203.078 14.2344 203.094 12.9688C203.078 11.7188 202.141 10.8125 200.859 10.8125ZM214.688 9.32812C214.688 11.5312 215.766 13.9219 217.609 15.0156L216.906 15.9688C215.57 15.1562 214.609 13.6719 214.125 11.9844C213.609 13.8281 212.578 15.4141 211.188 16.2656L210.406 15.3438C212.328 14.2188 213.5 11.75 213.5 9.375V6.6875H214.688V9.32812ZM222.469 5.375V19.2656H221.281V5.375H222.469ZM219.594 5.67188V18.5625H218.438V11.4062H216.078V10.3594H218.438V5.67188H219.594ZM237.109 16.4531V17.4844H224.391V16.4531H227.547V12.7031C226.359 12.0859 225.641 11.0859 225.641 9.82812C225.641 7.67188 227.75 6.26562 230.719 6.25C233.688 6.26562 235.797 7.67188 235.797 9.82812C235.797 11.0625 235.102 12.0547 233.953 12.6719V16.4531H237.109ZM230.719 7.26562C228.438 7.25 226.828 8.28125 226.828 9.82812C226.828 11.375 228.438 12.4219 230.719 12.4219C232.984 12.4219 234.609 11.375 234.609 9.82812C234.609 8.28125 232.984 7.25 230.719 7.26562ZM228.75 16.4531H232.719V13.1406C232.117 13.3047 231.445 13.3906 230.719 13.3906C230.008 13.3906 229.344 13.3125 228.75 13.1562V16.4531Z" fill="#333333"/>
<path d="M53.4844 6.70312V7.73438H48.3438V14.8125C50.8438 14.8125 52.5 14.7266 54.4219 14.3594L54.5781 15.375C52.5312 15.7656 50.8438 15.8594 48.1719 15.8594H47.1094V6.70312H53.4844ZM57.9375 5.375V19.2969H56.7031V11.4531H52.6562V10.4375H56.7031V5.375H57.9375ZM75.1094 5.375V8.51562H77.2031V9.54688H75.1094V12.5H73.8906V5.375H75.1094ZM71.2656 6.29688V11.9531H64.8438V6.29688H71.2656ZM66.0469 7.29688V10.9688H70.0781V7.29688H66.0469ZM66.9219 13.75V17.875C67.7266 17.8516 68.7969 17.7344 69.7812 17.4062L69.9688 18.3906C68.6094 18.8438 67.2969 18.8906 66.3906 18.8906H65.7344V13.75H66.9219ZM76.5 13.8906V14.8281H69.4844V13.8906H72.4062V12.6562H73.6094V13.8906H76.5ZM72.9844 15.3281C74.5 15.3438 75.5781 16.0781 75.5938 17.2812C75.5781 18.4844 74.5 19.2344 72.9844 19.2344C71.4531 19.2344 70.3906 18.4844 70.4062 17.2812C70.3906 16.0781 71.4531 15.3438 72.9844 15.3281ZM72.9844 16.2031C72.125 16.2031 71.5 16.625 71.5 17.2812C71.5 17.9375 72.125 18.375 72.9844 18.3594C73.8594 18.375 74.4688 17.9375 74.4688 17.2812C74.4688 16.625 73.8594 16.2031 72.9844 16.2031ZM90.7344 12.7031V13.7031H78.0781V12.7031H90.7344ZM89.3281 17.9375V18.9688H79.7188V14.9219H80.9531V17.9375H89.3281ZM84.4062 5.875C87.3906 5.85938 89.3125 6.89062 89.3125 8.625C89.3125 10.3594 87.3906 11.3906 84.4062 11.3906C81.3906 11.3906 79.4844 10.3594 79.4844 8.625C79.4844 6.89062 81.3906 5.85938 84.4062 5.875ZM84.4062 6.85938C82.1719 6.85938 80.7344 7.53125 80.75 8.625C80.7344 9.71875 82.1719 10.3906 84.4062 10.3906C86.625 10.3906 88.0625 9.71875 88.0625 8.625C88.0625 7.53125 86.625 6.85938 84.4062 6.85938ZM102.891 6.67188C102.891 8.625 105.453 10.3281 107.953 10.6719L107.453 11.6719C105.297 11.3125 103.164 10.1172 102.266 8.40625C101.375 10.125 99.2344 11.3125 97.0781 11.6719L96.5781 10.6719C99.0781 10.3281 101.625 8.65625 101.625 6.67188V5.875H102.891V6.67188ZM108.578 13.2031V14.2344H102.828V19.2656H101.625V14.2344H95.9219V13.2031H108.578ZM120.609 5.375V9H122.703V10.0156H120.609V13.7188H119.391V5.375H120.609ZM116.828 6.40625C116.828 9.9375 114.328 12.5469 110.281 13.7344L109.766 12.7344C113.117 11.7656 115.258 9.83594 115.516 7.42188H110.375V6.40625H116.828ZM116.219 13.875C119.016 13.875 120.766 14.8906 120.766 16.5469C120.766 18.2344 119.016 19.2344 116.219 19.2344C113.453 19.2344 111.656 18.2344 111.672 16.5469C111.656 14.8906 113.453 13.875 116.219 13.875ZM116.219 14.8594C114.188 14.8438 112.875 15.5 112.891 16.5469C112.875 17.5938 114.188 18.25 116.219 18.25C118.266 18.25 119.578 17.5938 119.578 16.5469C119.578 15.5 118.266 14.8438 116.219 14.8594ZM135.5 6.96875V7.98438H124.234V6.96875H129.297V5.29688H130.5V6.96875H135.5ZM136.297 14.375V15.3906H130.5V19.2969H129.297V15.3906H123.578V14.375H136.297ZM129.906 8.78125C132.734 8.78125 134.438 9.60938 134.438 11.1094C134.438 12.5781 132.734 13.4062 129.906 13.4219C127.062 13.4062 125.359 12.5781 125.375 11.1094C125.359 9.60938 127.062 8.78125 129.906 8.78125ZM129.906 9.71875C127.828 9.71875 126.625 10.2344 126.641 11.1094C126.625 11.9688 127.828 12.4688 129.906 12.4688C131.953 12.4688 133.156 11.9688 133.172 11.1094C133.156 10.2344 131.953 9.71875 129.906 9.71875ZM148.891 5.375V19.2656H147.656V5.375H148.891ZM144.781 6.89062C144.766 10.8906 142.906 14.4219 138.25 16.6562L137.578 15.6562C141.336 13.875 143.25 11.2109 143.531 7.89062H138.219V6.89062H144.781Z" fill="#553BF3"/>
<path d="M258 17L263 12L258 7" stroke="#333333" stroke-width="2" stroke-linecap="round" stroke-linejoin="round"/>
</svg>
