<svg width="341" height="24" viewBox="0 0 341 24" fill="none" xmlns="http://www.w3.org/2000/svg">
<path d="M14.6914 4.07812V5.38672C14.6914 6.72461 14.6914 8.29688 14.2812 10.3477H16.7031V11.5977H0.902344V10.3477H12.7383C12.9043 9.51758 13.0117 8.77539 13.0703 8.10156L2.67969 8.55078L2.48438 7.32031L13.1484 6.98828C13.168 6.43164 13.168 5.89453 13.168 5.38672V5.32812H2.89453V4.07812H14.6914ZM14.8281 13.2773V17.2812H4.32031V19.1172H15.4336V20.3477H2.79688V16.1094H13.3047V14.4688H2.75781V13.2773H14.8281ZM32.5039 3.23828V13.8438H30.9805V3.23828H32.5039ZM32.5039 14.7812V20.582H30.9805V16.0508H20.8242V14.7812H32.5039ZM26.9766 4.27344V9.05859H20.5703V11.5781C23.6758 11.5781 26 11.4805 28.8125 11.0508L28.9883 12.3008C26.0781 12.75 23.6953 12.8477 20.4922 12.8477H19.0859V7.84766H25.4531V5.52344H19.0469V4.27344H26.9766ZM44.125 6.22656V7.47656H35.4141V6.22656H39.0273V3.74609H40.5508V6.22656H44.125ZM39.7695 8.64844C41.957 8.64844 43.5195 10.2891 43.5391 12.5938C43.5195 14.918 41.957 16.5781 39.7695 16.5781C37.6016 16.5781 36.0391 14.918 36.0391 12.5938C36.0391 10.2891 37.6016 8.64844 39.7695 8.64844ZM39.7695 9.9375C38.4023 9.95703 37.4062 11.0703 37.4062 12.5938C37.4062 14.1367 38.4023 15.25 39.7695 15.2305C41.1562 15.25 42.1719 14.1367 42.1719 12.5938C42.1719 11.0703 41.1562 9.95703 39.7695 9.9375ZM50.2383 3.21875V20.582H48.7734V11.8125H46.4688V19.7227H45.0234V3.64844H46.4688V10.543H48.7734V3.21875H50.2383ZM204.672 11.2852V12.4961H188.773V11.2852H204.672ZM202.68 13.8828V17.5742H192.25V19.2344H203.246V20.3477H190.707V16.5195H201.156V15.0352H190.688V13.8828H202.68ZM202.621 3.74609V7.33984H192.367V8.86328H202.934V9.97656H190.844V6.28516H201.078V4.85938H190.785V3.74609H202.621ZM224.652 3.23828V8.49219H227.25V9.78125H224.652V14.8789H223.109V3.23828H224.652ZM211.02 13.1016C212.406 13.1016 214.027 13.1016 215.727 13.043V11.7734C213.705 11.5977 212.406 10.6504 212.406 9.21484C212.406 7.63281 214.027 6.65625 216.469 6.65625C218.93 6.65625 220.531 7.63281 220.551 9.21484C220.531 10.6406 219.262 11.5879 217.25 11.7734V12.9844C218.871 12.9062 220.512 12.7793 222.035 12.5547L222.172 13.668C218.402 14.332 214.242 14.3516 211.195 14.3516L211.02 13.1016ZM224.652 15.7383V20.582H223.109V16.9688H213.148V15.7383H224.652ZM221.508 4.82031V5.99219H211.449V4.82031H215.727V3.08203H217.25V4.82031H221.508ZM216.469 7.75C214.867 7.73047 213.871 8.29688 213.871 9.21484C213.871 10.1133 214.867 10.7383 216.469 10.7188C218.07 10.7383 219.086 10.1133 219.086 9.21484C219.086 8.29688 218.07 7.73047 216.469 7.75ZM242.719 3.23828V15.9336H241.195V3.23828H242.719ZM243.266 18.9219V20.2109H231.508V14.6445H233.031V18.9219H243.266ZM233.344 4.44922C235.941 4.44922 237.895 6.20703 237.895 8.70703C237.895 11.2461 235.941 12.9844 233.344 12.9844C230.746 12.9844 228.793 11.2461 228.793 8.70703C228.793 6.20703 230.746 4.44922 233.344 4.44922ZM233.344 5.79688C231.586 5.79688 230.277 7.00781 230.297 8.70703C230.277 10.4453 231.586 11.6367 233.344 11.6367C235.062 11.6367 236.391 10.4453 236.391 8.70703C236.391 7.00781 235.062 5.79688 233.344 5.79688ZM259.105 3.21875V10.3867H262.016V11.6562H259.105V20.582H257.582V3.21875H259.105ZM255.902 6.01172V7.28125H245.57V6.01172H250.043V3.43359H251.566V6.01172H255.902ZM250.824 8.72656C253.285 8.72656 255.062 10.3672 255.082 12.7109C255.062 15.0547 253.285 16.6953 250.824 16.6953C248.344 16.6953 246.547 15.0547 246.566 12.7109C246.547 10.3672 248.344 8.72656 250.824 8.72656ZM250.824 10.0156C249.203 10.0156 248.012 11.1484 248.031 12.7109C248.012 14.293 249.203 15.4062 250.824 15.3867C252.426 15.4062 253.598 14.293 253.617 12.7109C253.598 11.1484 252.426 10.0156 250.824 10.0156ZM268.109 8.16016C268.109 10.9141 269.457 13.9023 271.762 15.2695L270.883 16.4609C269.213 15.4453 268.012 13.5898 267.406 11.4805C266.762 13.7852 265.473 15.7676 263.734 16.832L262.758 15.6797C265.16 14.2734 266.625 11.1875 266.625 8.21875V4.85938H268.109V8.16016ZM277.836 3.21875V20.582H276.352V3.21875H277.836ZM274.242 3.58984V19.7031H272.797V10.7578H269.848V9.44922H272.797V3.58984H274.242ZM296.137 17.0664V18.3555H280.238V17.0664H284.184V12.3789C282.699 11.6074 281.801 10.3574 281.801 8.78516C281.801 6.08984 284.438 4.33203 288.148 4.3125C291.859 4.33203 294.496 6.08984 294.496 8.78516C294.496 10.3281 293.627 11.5684 292.191 12.3398V17.0664H296.137ZM288.148 5.58203C285.297 5.5625 283.285 6.85156 283.285 8.78516C283.285 10.7188 285.297 12.0273 288.148 12.0273C290.98 12.0273 293.012 10.7188 293.012 8.78516C293.012 6.85156 290.98 5.5625 288.148 5.58203ZM285.688 17.0664H290.648V12.9258C289.896 13.1309 289.057 13.2383 288.148 13.2383C287.26 13.2383 286.43 13.1406 285.688 12.9453V17.0664Z" fill="#333333"/>
<path d="M66.6055 4.87891V6.16797H60.1797V15.0156C63.3047 15.0156 65.375 14.9082 67.7773 14.4492L67.9727 15.7188C65.4141 16.207 63.3047 16.3242 59.9648 16.3242H58.6367V4.87891H66.6055ZM72.1719 3.21875V20.6211H70.6289V10.8164H65.5703V9.54688H70.6289V3.21875H72.1719ZM93.6367 3.21875V7.14453H96.2539V8.43359H93.6367V12.125H92.1133V3.21875H93.6367ZM88.832 4.37109V11.4414H80.8047V4.37109H88.832ZM82.3086 5.62109V10.2109H87.3477V5.62109H82.3086ZM83.4023 13.6875V18.8438C84.4082 18.8145 85.7461 18.668 86.9766 18.2578L87.2109 19.4883C85.5117 20.0547 83.8711 20.1133 82.7383 20.1133H81.918V13.6875H83.4023ZM95.375 13.8633V15.0352H86.6055V13.8633H90.2578V12.3203H91.7617V13.8633H95.375ZM90.9805 15.6602C92.875 15.6797 94.2227 16.5977 94.2422 18.1016C94.2227 19.6055 92.875 20.543 90.9805 20.543C89.0664 20.543 87.7383 19.6055 87.7578 18.1016C87.7383 16.5977 89.0664 15.6797 90.9805 15.6602ZM90.9805 16.7539C89.9062 16.7539 89.125 17.2812 89.125 18.1016C89.125 18.9219 89.9062 19.4688 90.9805 19.4492C92.0742 19.4688 92.8359 18.9219 92.8359 18.1016C92.8359 17.2812 92.0742 16.7539 90.9805 16.7539ZM113.168 12.3789V13.6289H97.3477V12.3789H113.168ZM111.41 18.9219V20.2109H99.3984V15.1523H100.941V18.9219H111.41ZM105.258 3.84375C108.988 3.82422 111.391 5.11328 111.391 7.28125C111.391 9.44922 108.988 10.7383 105.258 10.7383C101.488 10.7383 99.1055 9.44922 99.1055 7.28125C99.1055 5.11328 101.488 3.82422 105.258 3.84375ZM105.258 5.07422C102.465 5.07422 100.668 5.91406 100.688 7.28125C100.668 8.64844 102.465 9.48828 105.258 9.48828C108.031 9.48828 109.828 8.64844 109.828 7.28125C109.828 5.91406 108.031 5.07422 105.258 5.07422ZM128.363 4.83984C128.363 7.28125 131.566 9.41016 134.691 9.83984L134.066 11.0898C131.371 10.6406 128.705 9.14648 127.582 7.00781C126.469 9.15625 123.793 10.6406 121.098 11.0898L120.473 9.83984C123.598 9.41016 126.781 7.32031 126.781 4.83984V3.84375H128.363V4.83984ZM135.473 13.0039V14.293H128.285V20.582H126.781V14.293H119.652V13.0039H135.473ZM150.512 3.21875V7.75H153.129V9.01953H150.512V13.6484H148.988V3.21875H150.512ZM145.785 4.50781C145.785 8.92188 142.66 12.1836 137.602 13.668L136.957 12.418C141.146 11.207 143.822 8.79492 144.145 5.77734H137.719V4.50781H145.785ZM145.023 13.8438C148.52 13.8438 150.707 15.1133 150.707 17.1836C150.707 19.293 148.52 20.543 145.023 20.543C141.566 20.543 139.32 19.293 139.34 17.1836C139.32 15.1133 141.566 13.8438 145.023 13.8438ZM145.023 15.0742C142.484 15.0547 140.844 15.875 140.863 17.1836C140.844 18.4922 142.484 19.3125 145.023 19.3125C147.582 19.3125 149.223 18.4922 149.223 17.1836C149.223 15.875 147.582 15.0547 145.023 15.0742ZM169.125 5.21094V6.48047H155.043V5.21094H161.371V3.12109H162.875V5.21094H169.125ZM170.121 14.4688V15.7383H162.875V20.6211H161.371V15.7383H154.223V14.4688H170.121ZM162.133 7.47656C165.668 7.47656 167.797 8.51172 167.797 10.3867C167.797 12.2227 165.668 13.2578 162.133 13.2773C158.578 13.2578 156.449 12.2227 156.469 10.3867C156.449 8.51172 158.578 7.47656 162.133 7.47656ZM162.133 8.64844C159.535 8.64844 158.031 9.29297 158.051 10.3867C158.031 11.4609 159.535 12.0859 162.133 12.0859C164.691 12.0859 166.195 11.4609 166.215 10.3867C166.195 9.29297 164.691 8.64844 162.133 8.64844ZM185.863 3.21875V20.582H184.32V3.21875H185.863ZM180.727 5.11328C180.707 10.1133 178.383 14.5273 172.562 17.3203L171.723 16.0703C176.42 13.8438 178.812 10.5137 179.164 6.36328H172.523V5.11328H180.727Z" fill="#553BF3"/>
<path d="M327 17L332 12L327 7" stroke="#333333" stroke-width="2" stroke-linecap="round" stroke-linejoin="round"/>
</svg>
