<svg width="279" height="24" viewBox="0 0 279 24" fill="none" xmlns="http://www.w3.org/2000/svg">
<path d="M12.0391 6.0625V7.10938C12.0391 8.17969 12.0391 9.42969 11.7031 11.0781H13.6484V12.0781H1.00781V11.0781H10.4688C10.6172 10.4141 10.6953 9.82031 10.75 9.28125L2.42969 9.64062L2.27344 8.65625L10.8047 8.39844C10.8281 7.94531 10.8203 7.51562 10.8203 7.10938V7.0625H2.60156V6.0625H12.0391ZM2.49219 14.375V13.4219H12.1484V16.625H3.74219V18.0938H12.6328V19.0781H2.52344V15.6875H10.9297V14.375H2.49219ZM26.2891 5.39062V13.875H25.0703V5.39062H26.2891ZM15.5234 7.21875V6.21875H21.8672V10.0469H16.7422V12.0625C19.2266 12.0547 21.0781 11.9766 23.3359 11.6406L23.4766 12.6406C21.1406 13.0078 19.2422 13.0859 16.6797 13.0781H15.5547V9.07812H20.6484V7.21875H15.5234ZM16.9453 15.6406V14.625H26.2891V19.2656H25.0703V15.6406H16.9453ZM35.5859 7.78125V8.78125H28.6172V7.78125H31.5078V5.79688H32.7266V7.78125H35.5859ZM29.1172 12.875C29.1172 11.0312 30.375 9.72656 32.1016 9.71875C33.8516 9.72656 35.1016 11.0312 35.1172 12.875C35.1016 14.7422 33.8516 16.0547 32.1016 16.0625C30.375 16.0547 29.1172 14.7422 29.1172 12.875ZM30.2109 12.875C30.2109 14.1094 31 14.9922 32.1016 14.9844C33.2109 14.9922 34.0234 14.1094 34.0234 12.875C34.0234 11.6562 33.2109 10.7656 32.1016 10.75C31 10.7656 30.2109 11.6562 30.2109 12.875ZM36.3047 18.5781V5.71875H37.4609V11.2344H39.3047V5.375H40.4766V19.2656H39.3047V12.25H37.4609V18.5781H36.3047ZM47.3672 9.10938C47.3594 11.625 48.9766 14.1562 50.9922 15.0781L50.2578 16.0781C48.6797 15.2656 47.375 13.6094 46.7578 11.6328C46.1406 13.7109 44.8359 15.4922 43.2578 16.3281L42.4609 15.3438C44.5 14.3438 46.1094 11.6719 46.1172 9.10938V6.57812H47.3672V9.10938ZM49.4766 11.125V10.125H52.7734V5.375H53.9922V19.2969H52.7734V11.125H49.4766ZM177.852 11.8281V12.7969H165.133V11.8281H177.852ZM166.664 14.8281V13.9062H176.258V16.8594H167.914V18.1875H176.711V19.0781H166.68V16.0156H175.039V14.8281H166.664ZM166.742 6.6875V5.79688H176.211V8.67188H168.008V9.89062H176.461V10.7812H166.789V7.82812H174.977V6.6875H166.742ZM193.836 5.39062V9.59375H195.914V10.625H193.836V14.7031H192.602V5.39062H193.836ZM182.93 13.2812C184.039 13.2812 185.336 13.2812 186.695 13.2422V12.2188C185.078 12.0703 184.031 11.3281 184.039 10.1719C184.031 8.90625 185.336 8.125 187.289 8.125C189.258 8.125 190.539 8.90625 190.555 10.1719C190.539 11.3203 189.523 12.0625 187.914 12.2188V13.1953C189.211 13.1328 190.523 13.0234 191.742 12.8438L191.852 13.7344C188.836 14.2656 185.516 14.2891 183.07 14.2812L182.93 13.2812ZM183.273 7.59375V6.65625H186.695V5.26562H187.914V6.65625H191.32V7.59375H183.273ZM184.633 16.375V15.3906H193.836V19.2656H192.602V16.375H184.633ZM185.211 10.1719C185.203 10.8984 186.008 11.3906 187.289 11.375C188.57 11.3906 189.383 10.8984 189.383 10.1719C189.383 9.4375 188.57 8.98438 187.289 9C186.008 8.98438 185.203 9.4375 185.211 10.1719ZM208.289 5.39062V15.5469H207.07V5.39062H208.289ZM197.148 9.76562C197.141 7.76562 198.711 6.36719 200.789 6.35938C202.867 6.36719 204.422 7.76562 204.43 9.76562C204.422 11.7891 202.867 13.1953 200.789 13.1875C198.711 13.1953 197.141 11.7891 197.148 9.76562ZM198.352 9.76562C198.336 11.1484 199.383 12.1094 200.789 12.1094C202.172 12.1094 203.227 11.1484 203.227 9.76562C203.227 8.40625 202.172 7.4375 200.789 7.4375C199.383 7.4375 198.336 8.40625 198.352 9.76562ZM199.32 18.9688V14.5156H200.539V17.9375H208.727V18.9688H199.32ZM221.398 5.375V11.1094H223.727V12.125H221.398V19.2656H220.18V5.375H221.398ZM210.57 8.625V7.60938H214.148V5.54688H215.367V7.60938H218.836V8.625H210.57ZM211.367 12.9688C211.359 11.0938 212.797 9.78125 214.773 9.78125C216.734 9.78125 218.164 11.0938 218.18 12.9688C218.164 14.8516 216.734 16.1562 214.773 16.1562C212.797 16.1562 211.359 14.8516 211.367 12.9688ZM212.539 12.9688C212.531 14.2344 213.477 15.125 214.773 15.1094C216.055 15.125 216.992 14.2344 217.008 12.9688C216.992 11.7109 216.055 10.8047 214.773 10.8125C213.477 10.8047 212.531 11.7109 212.539 12.9688ZM228.602 9.32812C228.602 11.5391 229.68 13.9219 231.523 15.0156L230.82 15.9688C229.477 15.1562 228.516 13.6719 228.031 11.9766C227.523 13.8281 226.492 15.4219 225.102 16.2656L224.32 15.3438C226.242 14.2188 227.414 11.7578 227.414 9.375V6.6875H228.602V9.32812ZM229.992 11.4062V10.3594H232.352V5.67188H233.508V18.5625H232.352V11.4062H229.992ZM235.195 19.2656V5.375H236.383V19.2656H235.195ZM251.023 16.4531V17.4844H238.305V16.4531H241.461V12.7109C240.273 12.0938 239.555 11.0938 239.555 9.82812C239.555 7.67969 241.664 6.26562 244.633 6.25C247.602 6.26562 249.711 7.67969 249.711 9.82812C249.711 11.0703 249.016 12.0547 247.867 12.6719V16.4531H251.023ZM240.742 9.82812C240.734 11.3828 242.352 12.4219 244.633 12.4219C246.891 12.4219 248.523 11.3828 248.523 9.82812C248.523 8.27344 246.891 7.25 244.633 7.26562C242.352 7.25 240.734 8.27344 240.742 9.82812ZM242.664 16.4531H246.633V13.1484C246.031 13.3047 245.359 13.3906 244.633 13.3906C243.922 13.3906 243.258 13.3125 242.664 13.1562V16.4531Z" fill="#333333"/>
<path d="M67.3984 6.70312V7.73438H62.2578V14.8125C64.7656 14.8203 66.4141 14.7344 68.3359 14.3594L68.4922 15.375C66.4453 15.7656 64.75 15.8594 62.0859 15.8594H61.0234V6.70312H67.3984ZM66.5703 11.4531V10.4375H70.6172V5.375H71.8516V19.2969H70.6172V11.4531H66.5703ZM89.0234 5.375V8.51562H91.1172V9.54688H89.0234V12.5H87.8047V5.375H89.0234ZM78.7578 11.9531V6.29688H85.1797V11.9531H78.7578ZM79.6484 18.8906V13.75H80.8359V17.8828C81.6406 17.8516 82.7109 17.7344 83.6953 17.4062L83.8828 18.3906C82.5312 18.8359 81.2109 18.8984 80.3047 18.8906H79.6484ZM79.9609 10.9688H83.9922V7.29688H79.9609V10.9688ZM83.3984 14.8281V13.8906H86.3203V12.6562H87.5234V13.8906H90.4141V14.8281H83.3984ZM84.3203 17.2812C84.3125 16.0781 85.3672 15.3359 86.8984 15.3281C88.4219 15.3359 89.4922 16.0781 89.5078 17.2812C89.4922 18.4844 88.4219 19.2344 86.8984 19.2344C85.3672 19.2344 84.3125 18.4844 84.3203 17.2812ZM85.4141 17.2812C85.4141 17.9453 86.0312 18.375 86.8984 18.3594C87.7656 18.375 88.3828 17.9453 88.3828 17.2812C88.3828 16.6328 87.7656 16.2109 86.8984 16.2031C86.0312 16.2109 85.4141 16.6328 85.4141 17.2812ZM104.648 12.7031V13.7031H91.9922V12.7031H104.648ZM93.3984 8.625C93.3984 6.88281 95.3047 5.85938 98.3203 5.875C101.305 5.85938 103.219 6.88281 103.227 8.625C103.219 10.3516 101.305 11.3906 98.3203 11.3906C95.3047 11.3906 93.3984 10.3516 93.3984 8.625ZM93.6328 18.9688V14.9219H94.8672V17.9375H103.242V18.9688H93.6328ZM94.6641 8.625C94.6562 9.72656 96.0781 10.3906 98.3203 10.3906C100.547 10.3906 101.969 9.72656 101.977 8.625C101.969 7.53906 100.547 6.85938 98.3203 6.85938C96.0781 6.85938 94.6562 7.53906 94.6641 8.625ZM116.805 6.67188C116.812 8.63281 119.359 10.3203 121.867 10.6719L121.367 11.6719C119.211 11.3125 117.07 10.1172 116.18 8.41406C115.289 10.1328 113.156 11.3125 110.992 11.6719L110.492 10.6719C113 10.3203 115.539 8.66406 115.539 6.67188V5.875H116.805V6.67188ZM109.836 14.2344V13.2031H122.492V14.2344H116.742V19.2656H115.539V14.2344H109.836ZM134.523 5.375V9H136.617V10.0156H134.523V13.7188H133.305V5.375H134.523ZM123.68 12.7344C127.031 11.7656 129.172 9.83594 129.422 7.42188H124.289V6.40625H130.742C130.734 9.94531 128.242 12.5391 124.195 13.7344L123.68 12.7344ZM125.586 16.5469C125.578 14.8828 127.367 13.8672 130.133 13.875C132.922 13.8672 134.68 14.8828 134.68 16.5469C134.68 18.2344 132.922 19.2344 130.133 19.2344C127.367 19.2344 125.578 18.2344 125.586 16.5469ZM126.805 16.5469C126.789 17.5938 128.094 18.2578 130.133 18.25C132.172 18.2578 133.492 17.5938 133.492 16.5469C133.492 15.5 132.172 14.8516 130.133 14.8594C128.094 14.8516 126.789 15.5 126.805 16.5469ZM149.414 6.96875V7.98438H138.148V6.96875H143.211V5.29688H144.414V6.96875H149.414ZM137.492 15.3906V14.375H150.211V15.3906H144.414V19.2969H143.211V15.3906H137.492ZM139.289 11.1094C139.273 9.60938 140.977 8.78125 143.82 8.78125C146.641 8.78125 148.344 9.60938 148.352 11.1094C148.344 12.5781 146.641 13.4062 143.82 13.4219C140.977 13.4062 139.273 12.5781 139.289 11.1094ZM140.555 11.1094C140.539 11.9688 141.75 12.4766 143.82 12.4688C145.867 12.4766 147.07 11.9688 147.086 11.1094C147.07 10.2344 145.867 9.72656 143.82 9.71875C141.75 9.72656 140.539 10.2344 140.555 11.1094ZM162.805 5.375V19.2656H161.57V5.375H162.805ZM151.492 15.6562C155.25 13.875 157.172 11.2109 157.445 7.89062H152.133V6.89062H158.695C158.68 10.8828 156.82 14.4219 152.164 16.6562L151.492 15.6562Z" fill="#553BF3"/>
<path d="M265 17L270 12L265 7" stroke="#333333" stroke-width="2" stroke-linecap="round" stroke-linejoin="round"/>
</svg>
