<svg width="350" height="24" viewBox="0 0 350 24" fill="none" xmlns="http://www.w3.org/2000/svg">
<path d="M14.5488 4.07812V5.38672C14.5488 6.72461 14.5488 8.28711 14.1289 10.3477H16.5605V11.5977H0.759766V10.3477H12.5859C12.7715 9.51758 12.8691 8.77539 12.9375 8.10156L2.53711 8.55078L2.3418 7.32031L13.0059 6.99805C13.0352 6.43164 13.0254 5.89453 13.0254 5.38672V5.32812H2.75195V4.07812H14.5488ZM2.61523 14.4688V13.2773H14.6855V17.2812H4.17773V19.1172H15.291V20.3477H2.6543V16.1094H13.1621V14.4688H2.61523ZM32.3613 3.23828V13.8438H30.8379V3.23828H32.3613ZM18.9043 5.52344V4.27344H26.834V9.05859H20.4277V11.5781C23.5332 11.5684 25.8477 11.4707 28.6699 11.0508L28.8457 12.3008C25.9258 12.7598 23.5527 12.8574 20.3496 12.8477H18.9434V7.84766H25.3105V5.52344H18.9043ZM20.6816 16.0508V14.7812H32.3613V20.582H30.8379V16.0508H20.6816ZM43.9824 6.22656V7.47656H35.2715V6.22656H38.8848V3.74609H40.4082V6.22656H43.9824ZM35.8965 12.5938C35.8965 10.2891 37.4688 8.6582 39.627 8.64844C41.8145 8.6582 43.377 10.2891 43.3965 12.5938C43.377 14.9277 41.8145 16.5684 39.627 16.5781C37.4688 16.5684 35.8965 14.9277 35.8965 12.5938ZM37.2637 12.5938C37.2637 14.1367 38.25 15.2402 39.627 15.2305C41.0137 15.2402 42.0293 14.1367 42.0293 12.5938C42.0293 11.0703 41.0137 9.95703 39.627 9.9375C38.25 9.95703 37.2637 11.0703 37.2637 12.5938ZM44.8809 19.7227V3.64844H46.3262V10.543H48.6309V3.21875H50.0957V20.582H48.6309V11.8125H46.3262V19.7227H44.8809ZM58.709 7.88672C58.6992 11.0312 60.7207 14.1953 63.2402 15.3477L62.3223 16.5977C60.3496 15.582 58.7188 13.5117 57.9473 11.041C57.1758 13.6387 55.5449 15.8652 53.5723 16.9102L52.5762 15.6797C55.125 14.4297 57.1367 11.0898 57.1465 7.88672V4.72266H58.709V7.88672ZM61.3457 10.4062V9.15625H65.4668V3.21875H66.9902V20.6211H65.4668V10.4062H61.3457ZM221.814 11.2852V12.4961H205.916V11.2852H221.814ZM207.83 15.0352V13.8828H219.822V17.5742H209.393V19.2344H220.389V20.3477H207.85V16.5195H218.299V15.0352H207.83ZM207.928 4.85938V3.74609H219.764V7.33984H209.51V8.86328H220.076V9.97656H207.986V6.28516H218.221V4.85938H207.928ZM241.795 3.23828V8.49219H244.393V9.78125H241.795V14.8789H240.252V3.23828H241.795ZM228.162 13.1016C229.549 13.1016 231.17 13.1016 232.869 13.0527V11.7734C230.848 11.5879 229.539 10.6602 229.549 9.21484C229.539 7.63281 231.17 6.65625 233.611 6.65625C236.072 6.65625 237.674 7.63281 237.693 9.21484C237.674 10.6504 236.404 11.5781 234.393 11.7734V12.9941C236.014 12.916 237.654 12.7793 239.178 12.5547L239.314 13.668C235.545 14.332 231.395 14.3613 228.338 14.3516L228.162 13.1016ZM228.592 5.99219V4.82031H232.869V3.08203H234.393V4.82031H238.65V5.99219H228.592ZM230.291 16.9688V15.7383H241.795V20.582H240.252V16.9688H230.291ZM231.014 9.21484C231.004 10.123 232.01 10.7383 233.611 10.7188C235.213 10.7383 236.229 10.123 236.229 9.21484C236.229 8.29688 235.213 7.73047 233.611 7.75C232.01 7.73047 231.004 8.29688 231.014 9.21484ZM259.861 3.23828V15.9336H258.338V3.23828H259.861ZM245.936 8.70703C245.926 6.20703 247.889 4.45898 250.486 4.44922C253.084 4.45898 255.027 6.20703 255.037 8.70703C255.027 11.2363 253.084 12.9941 250.486 12.9844C247.889 12.9941 245.926 11.2363 245.936 8.70703ZM247.439 8.70703C247.42 10.4355 248.729 11.6367 250.486 11.6367C252.215 11.6367 253.533 10.4355 253.533 8.70703C253.533 7.00781 252.215 5.79688 250.486 5.79688C248.729 5.79688 247.42 7.00781 247.439 8.70703ZM248.65 20.2109V14.6445H250.174V18.9219H260.408V20.2109H248.65ZM276.248 3.21875V10.3867H279.158V11.6562H276.248V20.582H274.725V3.21875H276.248ZM262.713 7.28125V6.01172H267.186V3.43359H268.709V6.01172H273.045V7.28125H262.713ZM263.709 12.7109C263.699 10.3672 265.496 8.72656 267.967 8.72656C270.418 8.72656 272.205 10.3672 272.225 12.7109C272.205 15.0645 270.418 16.6953 267.967 16.6953C265.496 16.6953 263.699 15.0645 263.709 12.7109ZM265.174 12.7109C265.164 14.293 266.346 15.4062 267.967 15.3867C269.568 15.4062 270.74 14.293 270.76 12.7109C270.74 11.1387 269.568 10.0059 267.967 10.0156C266.346 10.0059 265.164 11.1387 265.174 12.7109ZM285.252 8.16016C285.252 10.9238 286.6 13.9023 288.904 15.2695L288.025 16.4609C286.346 15.4453 285.145 13.5898 284.539 11.4707C283.904 13.7852 282.615 15.7773 280.877 16.832L279.9 15.6797C282.303 14.2734 283.768 11.1973 283.768 8.21875V4.85938H285.252V8.16016ZM286.99 10.7578V9.44922H289.939V3.58984H291.385V19.7031H289.939V10.7578H286.99ZM293.494 20.582V3.21875H294.979V20.582H293.494ZM313.279 17.0664V18.3555H297.381V17.0664H301.326V12.3887C299.842 11.6172 298.943 10.3672 298.943 8.78516C298.943 6.09961 301.58 4.33203 305.291 4.3125C309.002 4.33203 311.639 6.09961 311.639 8.78516C311.639 10.3379 310.77 11.5684 309.334 12.3398V17.0664H313.279ZM300.428 8.78516C300.418 10.7285 302.439 12.0273 305.291 12.0273C308.113 12.0273 310.154 10.7285 310.154 8.78516C310.154 6.8418 308.113 5.5625 305.291 5.58203C302.439 5.5625 300.418 6.8418 300.428 8.78516ZM302.83 17.0664H307.791V12.9355C307.039 13.1309 306.199 13.2383 305.291 13.2383C304.402 13.2383 303.572 13.1406 302.83 12.9453V17.0664Z" fill="#333333"/>
<path d="M83.748 4.87891V6.16797H77.3223V15.0156C80.457 15.0254 82.5176 14.918 84.9199 14.4492L85.1152 15.7188C82.5566 16.207 80.4375 16.3242 77.1074 16.3242H75.7793V4.87891H83.748ZM82.7129 10.8164V9.54688H87.7715V3.21875H89.3145V20.6211H87.7715V10.8164H82.7129ZM110.779 3.21875V7.14453H113.396V8.43359H110.779V12.125H109.256V3.21875H110.779ZM97.9473 11.4414V4.37109H105.975V11.4414H97.9473ZM99.0605 20.1133V13.6875H100.545V18.8535C101.551 18.8145 102.889 18.668 104.119 18.2578L104.354 19.4883C102.664 20.0449 101.014 20.123 99.8809 20.1133H99.0605ZM99.4512 10.2109H104.49V5.62109H99.4512V10.2109ZM103.748 15.0352V13.8633H107.4V12.3203H108.904V13.8633H112.518V15.0352H103.748ZM104.9 18.1016C104.891 16.5977 106.209 15.6699 108.123 15.6602C110.027 15.6699 111.365 16.5977 111.385 18.1016C111.365 19.6055 110.027 20.543 108.123 20.543C106.209 20.543 104.891 19.6055 104.9 18.1016ZM106.268 18.1016C106.268 18.9316 107.039 19.4688 108.123 19.4492C109.207 19.4688 109.979 18.9316 109.979 18.1016C109.979 17.291 109.207 16.7637 108.123 16.7539C107.039 16.7637 106.268 17.291 106.268 18.1016ZM130.311 12.3789V13.6289H114.49V12.3789H130.311ZM116.248 7.28125C116.248 5.10352 118.631 3.82422 122.4 3.84375C126.131 3.82422 128.523 5.10352 128.533 7.28125C128.523 9.43945 126.131 10.7383 122.4 10.7383C118.631 10.7383 116.248 9.43945 116.248 7.28125ZM116.541 20.2109V15.1523H118.084V18.9219H128.553V20.2109H116.541ZM117.83 7.28125C117.82 8.6582 119.598 9.48828 122.4 9.48828C125.184 9.48828 126.961 8.6582 126.971 7.28125C126.961 5.92383 125.184 5.07422 122.4 5.07422C119.598 5.07422 117.82 5.92383 117.83 7.28125ZM145.506 4.83984C145.516 7.29102 148.699 9.40039 151.834 9.83984L151.209 11.0898C148.514 10.6406 145.838 9.14648 144.725 7.01758C143.611 9.16602 140.945 10.6406 138.24 11.0898L137.615 9.83984C140.75 9.40039 143.924 7.33008 143.924 4.83984V3.84375H145.506V4.83984ZM136.795 14.293V13.0039H152.615V14.293H145.428V20.582H143.924V14.293H136.795ZM167.654 3.21875V7.75H170.271V9.01953H167.654V13.6484H166.131V3.21875H167.654ZM154.1 12.418C158.289 11.207 160.965 8.79492 161.277 5.77734H154.861V4.50781H162.928C162.918 8.93164 159.803 12.1738 154.744 13.668L154.1 12.418ZM156.482 17.1836C156.473 15.1035 158.709 13.834 162.166 13.8438C165.652 13.834 167.85 15.1035 167.85 17.1836C167.85 19.293 165.652 20.543 162.166 20.543C158.709 20.543 156.473 19.293 156.482 17.1836ZM158.006 17.1836C157.986 18.4922 159.617 19.3223 162.166 19.3125C164.715 19.3223 166.365 18.4922 166.365 17.1836C166.365 15.875 164.715 15.0645 162.166 15.0742C159.617 15.0645 157.986 15.875 158.006 17.1836ZM186.268 5.21094V6.48047H172.186V5.21094H178.514V3.12109H180.018V5.21094H186.268ZM171.365 15.7383V14.4688H187.264V15.7383H180.018V20.6211H178.514V15.7383H171.365ZM173.611 10.3867C173.592 8.51172 175.721 7.47656 179.275 7.47656C182.801 7.47656 184.93 8.51172 184.939 10.3867C184.93 12.2227 182.801 13.2578 179.275 13.2773C175.721 13.2578 173.592 12.2227 173.611 10.3867ZM175.193 10.3867C175.174 11.4609 176.688 12.0957 179.275 12.0859C181.834 12.0957 183.338 11.4609 183.357 10.3867C183.338 9.29297 181.834 8.6582 179.275 8.64844C176.688 8.6582 175.174 9.29297 175.193 10.3867ZM203.006 3.21875V20.582H201.463V3.21875H203.006ZM188.865 16.0703C193.562 13.8438 195.965 10.5137 196.307 6.36328H189.666V5.11328H197.869C197.85 10.1035 195.525 14.5273 189.705 17.3203L188.865 16.0703Z" fill="#553BF3"/>
<path d="M336 17L341 12L336 7" stroke="#333333" stroke-width="2" stroke-linecap="round" stroke-linejoin="round"/>
</svg>
