<svg width="410" height="58" viewBox="0 0 410 58" fill="none" xmlns="http://www.w3.org/2000/svg">
<rect width="410" height="58" rx="12" fill="#553BF3"/>
<path d="M162.205 24.4883C162.188 27.3271 163.611 30.1924 166.072 31.3789L164.877 32.9434C163.154 32.0732 161.915 30.3945 161.238 28.373C160.544 30.5352 159.243 32.3281 157.424 33.2422L156.229 31.6777C158.786 30.4648 160.245 27.4238 160.254 24.4883V21.957H162.205V24.4883ZM167.021 36.5645V20.6738H168.973V26.8965H171.416V28.5664H168.973V36.5645H167.021ZM185.391 20.6914V32.293H183.439V26.4746H180.627V24.8926H183.439V20.6914H185.391ZM172.049 28.8652C174.58 28.0303 175.934 25.9561 175.934 23.8379V23.416H172.629V21.834H181.207V23.416H177.92V23.8555C177.92 25.7627 179.203 27.7402 181.664 28.5488L180.68 30.1133C178.904 29.5068 177.647 28.2939 176.953 26.791C176.259 28.4609 174.932 29.7969 173.051 30.4473L172.049 28.8652ZM174.967 36.248V31.2734H176.918V34.666H185.795V36.248H174.967ZM205.219 20.6738V29.3398H203.268V25.9473H200.525V24.3301H203.268V20.6738H205.219ZM191.877 28.0742C194.391 27.2305 195.744 25.1738 195.762 23.082H192.457V21.4824H201.035V23.082H197.748C197.766 24.9893 199.049 26.958 201.492 27.7754L200.508 29.2871C198.732 28.6807 197.476 27.4766 196.781 25.9824C196.087 27.6436 194.769 28.9795 192.879 29.6211L191.877 28.0742ZM194.742 36.3711V30.0078H196.693V31.6602H203.268V30.0078H205.219V36.3711H194.742ZM196.693 34.7891H203.268V33.1895H196.693V34.7891ZM215.748 21.9922C215.739 23.9873 217.98 26.0176 221.373 26.457L220.6 28.0391C217.901 27.6348 215.757 26.3076 214.72 24.5146C213.683 26.3076 211.547 27.6348 208.875 28.0391L208.102 26.457C211.459 26.0176 213.691 24.0049 213.691 21.9922V21.1836H215.748V21.9922ZM207.469 31.0273V29.4102H221.953V31.0273H215.643V36.5645H213.709V31.0273H207.469ZM235.471 20.6738V27.002H237.914V28.6191H235.471V36.5645H233.537V20.6738H235.471ZM222.938 24.6816V23.1172H226.699V20.9023H228.65V23.1172H232.307V24.6816H222.938ZM223.676 29.4629C223.658 27.2656 225.363 25.71 227.684 25.7188C229.969 25.71 231.665 27.2656 231.674 29.4629C231.665 31.6514 229.969 33.1895 227.684 33.1895C225.363 33.1895 223.658 31.6514 223.676 29.4629ZM225.539 29.4629C225.53 30.7549 226.436 31.5811 227.684 31.5723C228.905 31.5811 229.793 30.7549 229.811 29.4629C229.793 28.1709 228.905 27.3184 227.684 27.3184C226.436 27.3184 225.53 28.1709 225.539 29.4629ZM251.854 20.6738V36.5645H249.885V20.6738H251.854ZM238.688 32.1875C242.854 30.21 244.77 27.5205 245.121 23.9082H239.496V22.3613H247.107C247.107 27.0898 245.271 31.1064 239.707 33.752L238.688 32.1875Z" fill="white"/>
</svg>
