<svg width="357" height="162" viewBox="0 0 357 162" fill="none" xmlns="http://www.w3.org/2000/svg">
<path d="M1.11602 14L1.1105 13.1823L4.9337 9.04972C6.38674 7.46409 6.98895 6.67956 6.99448 5.61326C6.98895 4.35359 5.96685 3.50829 4.61878 3.50829C3.19337 3.50829 2.26519 4.45856 2.26519 5.77348H1.20994C1.1989 3.87845 2.66851 2.53039 4.65193 2.53039C6.61878 2.53039 8.03315 3.87293 8.03867 5.61326C8.03315 6.87293 7.45304 7.82873 5.50829 9.89503L2.67956 12.9282V13.0055H8.37569V14H1.11602ZM14.0904 14.1547C11.6815 14.1547 10.2672 12.0166 10.2672 8.34254C10.2672 4.69061 11.6926 2.53039 14.0904 2.53039C16.4826 2.53039 17.9081 4.69061 17.9081 8.34254C17.9081 12.0166 16.4992 14.1547 14.0904 14.1547ZM11.3501 8.34254C11.3501 11.4033 12.3722 13.1602 14.0904 13.1602C15.8031 13.1602 16.8252 11.4033 16.8252 8.34254C16.8252 5.28177 15.7976 3.50829 14.0904 3.50829C12.3777 3.50829 11.3501 5.28177 11.3501 8.34254ZM19.866 14L19.8605 13.1823L23.6837 9.04972C25.1367 7.46409 25.739 6.67956 25.7445 5.61326C25.739 4.35359 24.7169 3.50829 23.3688 3.50829C21.9434 3.50829 21.0152 4.45856 21.0152 5.77348H19.9599C19.9489 3.87845 21.4185 2.53039 23.4019 2.53039C25.3688 2.53039 26.7831 3.87293 26.7887 5.61326C26.7831 6.87293 26.203 7.82873 24.2583 9.89503L21.4296 12.9282V13.0055H27.1257V14H19.866ZM28.7617 11.5967V10.6851L33.9274 2.68508H35.2644V10.6077H36.8169V11.5967H35.2644V14H34.2036V11.5967H28.7617ZM29.9937 10.6077H34.2036V4.16575H34.0931L29.9937 10.5304V10.6077ZM49.1279 2.90608C49.1169 6.8011 47.6141 10.4751 42.7743 12.8674L42.2053 12.0994C44.8406 10.8011 46.4705 9.10497 47.3489 7.14917L42.4373 7.61326L42.2219 6.73481L47.6583 6.35912C47.9401 5.52486 48.1003 4.64641 48.1556 3.73481H42.918V2.90608H49.1279ZM49.0782 7.8895V7.0442H52.5147V1.43094H53.4871V15.221H52.5147V7.8895H49.0782ZM67.2986 1.43094V15.2376H66.3207V1.43094H67.2986ZM56.7627 3.58564V2.75691H63.1329V7.52486H57.7958V11.011H57.9174C60.1936 11.011 62.2931 10.9171 64.8732 10.5028L64.9782 11.337C62.3539 11.7514 60.2434 11.8564 57.9174 11.8564H56.7903V6.69613H62.1439V3.58564H56.7627ZM80.7124 2.08287V3.07182C80.7124 4.09392 80.7124 5.36464 80.3643 7.03315H82.3532V7.86188H78.8892V9.50276H80.8229V12.558H72.3256V14.2099H81.3201V15.0221H71.3422V11.7901H79.8505V10.2928H71.3035V9.50276H73.2759V7.86188H69.8008V7.03315H79.3753C79.53 6.31492 79.6184 5.67956 79.6682 5.1105L71.2372 5.50276L71.0991 4.67403L79.7179 4.38674C79.74 3.90608 79.74 3.47514 79.74 3.07182V2.90055H71.4195V2.08287H80.7124ZM74.2648 9.50276H77.9168V7.86188H74.2648V9.50276ZM94.988 10.3536V15.0221H85.9991V10.3536H94.988ZM84.1979 2.98343V2.14917H90.3029V5.83978H85.209V8.07182H85.2477C87.5405 8.08287 89.314 8.00552 91.5018 7.65193L91.5902 8.49171C89.3637 8.8453 87.5736 8.91713 85.2477 8.9116H84.2366V5.06077H89.3416V2.98343H84.1979ZM86.977 14.1934H94.0156V11.1381H86.977V14.1934ZM91.2421 5.44751V4.61326H93.9991V1.44751H94.988V9.53591H93.9991V5.44751H91.2421ZM112.691 1.44751V11.5691H111.702V6.1547H108.669V5.33149H111.702V1.44751H112.691ZM101.42 8.9116C103.387 8.20994 105.001 6.38122 105.001 4.33149V3.45856H101.768V2.62983H109.177V3.45856H105.984V4.33149C105.984 6.16022 107.498 7.90055 109.459 8.58564L108.934 9.38122C107.376 8.80663 106.1 7.60221 105.514 6.11602C104.929 7.77901 103.575 9.09392 101.945 9.72376L101.42 8.9116ZM103.934 14.8895V10.6464H104.918V14.0552H113.1V14.8895H103.934ZM122.077 2.66851V3.9558H125.53V1.44751H126.519V11.5138H125.53V7.74033H122.077V9.00552H115.829V2.66851H122.077ZM116.795 8.19889H121.11V3.49171H116.795V8.19889ZM117.691 14.8895V10.6243H118.679V14.0552H126.851V14.8895H117.691ZM122.077 6.89503H125.53V4.8011H122.077V6.89503ZM144.189 1.43094V15.2376H143.211V1.43094H144.189ZM133.653 3.58564V2.75691H140.023V7.52486H134.686V11.011H134.808C137.084 11.011 139.184 10.9171 141.764 10.5028L141.869 11.337C139.244 11.7514 137.134 11.8564 134.808 11.8564H133.681V6.69613H139.035V3.58564H133.653ZM157.747 6.19889V7.02762H148.316V2.16022H149.31V6.19889H157.747ZM146.686 10.0055V9.1768H159.249V10.0055H155.846V15.221H154.863V10.0055H151.067V15.221H150.084V10.0055H146.686ZM171.862 1.43094V8.49724H170.89V5.44751H167.801C167.597 7.07735 166.188 8.18232 164.293 8.18232C162.227 8.18232 160.741 6.89503 160.752 5.04972C160.741 3.20442 162.227 1.94475 164.293 1.94475C166.171 1.94475 167.569 3.00552 167.796 4.60773H170.89V1.43094H171.862ZM161.696 5.04972C161.691 6.37017 162.785 7.35359 164.293 7.34807C165.774 7.35359 166.879 6.37017 166.879 5.04972C166.879 3.74033 165.774 2.76243 164.293 2.76796C162.785 2.76243 161.691 3.74033 161.696 5.04972ZM163.006 10.1105V9.30939H171.862V12.4641H164.011V14.2044H172.431V15.0221H163.044V11.6961H170.89V10.1105H163.006ZM176.331 2.68508L176.254 10.7624H175.21L175.127 2.68508H176.331ZM174.9 13.2486C174.889 12.7901 175.276 12.4144 175.734 12.4144C176.193 12.4144 176.569 12.7901 176.569 13.2486C176.569 13.7072 176.193 14.0829 175.734 14.0829C175.276 14.0829 174.889 13.7072 174.9 13.2486Z" fill="white"/>
<path d="M2.01381 67V50.0276H3.67956V65.5083H11.7265V67H2.01381ZM19.6299 67.2652C16.0498 67.2652 13.7956 64.5801 13.7956 60.7182C13.7956 56.8481 16.0912 54.0967 19.4144 54.0967C22.1741 54.0967 24.8343 56.0442 24.8343 60.3702V61.1243H15.4034C15.4779 63.9917 17.1105 65.8315 19.6299 65.8315C21.3868 65.8315 22.4227 64.9282 22.8702 64.116H24.5857C24.0139 65.8729 22.2072 67.2652 19.6299 67.2652ZM15.4116 59.732H23.21C23.21 57.3536 21.652 55.5304 19.4227 55.5304C17.1354 55.5304 15.5525 57.4365 15.4116 59.732ZM26.9924 63.4365C26.9924 60.8508 29.089 59.8729 31.6747 59.674C32.5448 59.6077 34.6415 59.4751 35.2134 59.4503V58.2569C35.2134 56.5497 34.1111 55.5055 32.1222 55.5055C30.4482 55.5055 29.3211 56.2845 29.0062 57.4282H27.3487C27.6222 55.4309 29.5614 54.0967 32.1885 54.0967C34.1029 54.0967 36.7962 54.9088 36.7962 58.3978V67H35.2134V65.0359H35.1222C34.6001 66.1298 33.3239 67.2901 31.2023 67.2901C28.8736 67.2901 26.9924 65.8895 26.9924 63.4365ZM28.5918 63.5028C28.5918 65.011 29.8018 65.8564 31.4426 65.8564C33.7631 65.8564 35.2134 64.174 35.2134 62.1602V60.7845C34.5918 60.826 32.5531 60.9834 31.915 61.0249C29.6774 61.1823 28.5918 62.0442 28.5918 63.5028ZM40.2467 67V54.2707H41.8047V56.2348H41.9125C42.418 54.942 43.7771 54.0801 45.36 54.0801C45.6086 54.0801 45.9815 54.0967 46.1804 54.105V55.721C46.0395 55.6961 45.6417 55.6215 45.2357 55.6215C43.2799 55.6215 41.8462 56.9807 41.8462 58.8287V67H40.2467ZM49.8618 59.1022V67H48.2623V54.2707H49.8204V56.2845H49.953C50.5496 54.9669 51.8176 54.105 53.6988 54.105C56.2679 54.105 58.0165 55.7376 58.0165 58.779V67H56.4088V58.8867C56.4088 56.8398 55.1988 55.5552 53.2679 55.5552C51.2955 55.5552 49.8618 56.8895 49.8618 59.1022ZM67.5685 67V50.0276H69.1762V56.6409H69.3005C69.8061 55.5552 70.8171 54.0967 73.1541 54.0967C76.295 54.0967 78.4414 56.7238 78.4414 60.6685C78.4414 64.6298 76.3033 67.2652 73.179 67.2652C70.8503 67.2652 69.8144 65.8066 69.3005 64.6961H69.1265V67H67.5685ZM69.1348 60.6436C69.1348 63.6602 70.5354 65.8149 72.9635 65.8149C75.4663 65.8149 76.8337 63.5525 76.8337 60.6436C76.8337 57.7597 75.4829 55.5387 72.9635 55.5387C70.5188 55.5387 69.1348 57.6354 69.1348 60.6436ZM81.7646 71.7735C81.4331 71.7735 81.1016 71.7652 80.8945 71.7403L80.9028 70.3066C81.0602 70.3149 81.4166 70.3315 81.6735 70.3315C82.4939 70.3315 83.3144 70.2155 83.9939 68.3591L84.4414 67.1243L79.7591 54.2707H81.4829L85.2039 64.9282H85.3116L89.0326 54.2707H90.7563L85.3779 68.9724C84.6818 70.8536 83.5133 71.7735 81.7646 71.7735ZM104.318 67H99.2794V50.0276H104.6C109.473 50.0276 112.357 53.2017 112.357 58.4724C112.348 63.8094 109.44 67 104.318 67ZM100.945 65.5083H104.227C108.536 65.5083 110.732 62.8564 110.724 58.4724C110.724 54.1381 108.578 51.5193 104.5 51.5193H100.945V65.5083ZM120.346 67.2652C117.015 67.2652 114.694 64.5801 114.694 60.6934C114.694 56.7735 117.015 54.0967 120.346 54.0967C123.677 54.0967 125.99 56.7818 125.99 60.6934C125.99 64.5801 123.686 67.2652 120.346 67.2652ZM116.302 60.6934C116.302 63.4862 117.727 65.8315 120.346 65.8315C122.956 65.8315 124.39 63.4862 124.39 60.6934C124.39 57.9006 122.956 55.5304 120.346 55.5304C117.735 55.5304 116.302 57.9006 116.302 60.6934ZM128.787 67V54.2707H130.394V67H128.787ZM128.43 50.989C128.43 50.3757 128.961 49.8785 129.607 49.8785C130.229 49.8785 130.767 50.3757 130.767 50.989C130.767 51.6105 130.229 52.1077 129.607 52.1077C128.961 52.1077 128.43 51.6105 128.43 50.989ZM135.432 59.1022V67H133.833V54.2707H135.391V56.2845H135.523C136.12 54.9669 137.388 54.105 139.269 54.105C141.838 54.105 143.587 55.7376 143.587 58.779V67H141.979V58.8867C141.979 56.8398 140.769 55.5552 138.838 55.5552C136.866 55.5552 135.432 56.8895 135.432 59.1022ZM151.959 72.0387C149.141 72.0387 147.086 70.837 146.779 68.5994H148.47C148.777 69.9586 150.119 70.6298 151.959 70.6298C154.263 70.6298 155.663 69.5608 155.663 67.2403V64.4144H155.531C155.033 65.5249 153.956 66.8591 151.644 66.8591C148.594 66.8591 146.382 64.4475 146.382 60.5276C146.382 56.6409 148.52 54.0967 151.669 54.0967C154.022 54.0967 155.033 55.5552 155.556 56.6409H155.705V54.2707H157.254V67.3232C157.254 70.5635 155.009 72.0387 151.959 72.0387ZM147.998 60.5773C147.998 63.4365 149.365 65.4254 151.859 65.4254C154.279 65.4254 155.688 63.5939 155.688 60.5773C155.688 57.6354 154.312 55.5387 151.859 55.5387C149.34 55.5387 147.998 57.7597 147.998 60.5773ZM166.803 67V50.0276H172.347C176.01 50.0276 177.875 52.3149 177.875 55.2983C177.875 58.2818 176.01 60.5856 172.372 60.5856H168.469V67H166.803ZM168.469 59.0856H172.306C174.958 59.0856 176.226 57.4779 176.226 55.2983C176.226 53.1105 174.958 51.5193 172.289 51.5193H168.469V59.0856ZM180.755 67V54.2707H182.313V56.2348H182.42C182.926 54.942 184.285 54.0801 185.868 54.0801C186.116 54.0801 186.489 54.0967 186.688 54.105V55.721C186.547 55.6961 186.15 55.6215 185.743 55.6215C183.788 55.6215 182.354 56.9807 182.354 58.8287V67H180.755ZM193.377 67.2652C190.046 67.2652 187.725 64.5801 187.725 60.6934C187.725 56.7735 190.046 54.0967 193.377 54.0967C196.709 54.0967 199.021 56.7818 199.021 60.6934C199.021 64.5801 196.717 67.2652 193.377 67.2652ZM189.333 60.6934C189.333 63.4862 190.758 65.8315 193.377 65.8315C195.988 65.8315 197.421 63.4862 197.421 60.6934C197.421 57.9006 195.988 55.5304 193.377 55.5304C190.767 55.5304 189.333 57.9006 189.333 60.6934ZM201.818 54.2707H203.426V68.1768C203.426 70.3978 202.158 71.7735 199.945 71.7735H199.589V70.2901H199.92C201.122 70.2901 201.818 69.511 201.818 68.1768V54.2707ZM201.437 50.989C201.437 50.3757 201.967 49.8785 202.614 49.8785C203.235 49.8785 203.774 50.3757 203.774 50.989C203.774 51.6105 203.235 52.1077 202.614 52.1077C201.967 52.1077 201.437 51.6105 201.437 50.989ZM212.052 67.2652C208.472 67.2652 206.217 64.5801 206.217 60.7182C206.217 56.8481 208.513 54.0967 211.836 54.0967C214.596 54.0967 217.256 56.0442 217.256 60.3702V61.1243H207.825C207.9 63.9917 209.532 65.8315 212.052 65.8315C213.809 65.8315 214.845 64.9282 215.292 64.116H217.008C216.436 65.8729 214.629 67.2652 212.052 67.2652ZM207.834 59.732H215.632C215.632 57.3536 214.074 55.5304 211.845 55.5304C209.557 55.5304 207.974 57.4365 207.834 59.732ZM225.066 67.2652C221.61 67.2652 219.389 64.489 219.389 60.6934C219.389 56.8564 221.677 54.0967 225.041 54.0967C227.619 54.0967 229.616 55.6961 229.947 58.0746H228.348C228.041 56.6823 226.856 55.5304 225.066 55.5304C222.655 55.5304 220.997 57.6022 220.997 60.6436C220.997 63.7099 222.613 65.8149 225.066 65.8149C226.715 65.8149 228.008 64.8536 228.356 63.2624H229.956C229.624 65.5746 227.751 67.2652 225.066 67.2652ZM237.767 54.2707V55.6381H235.09V63.6105C235.09 65.2099 235.985 65.6575 236.963 65.6575C237.269 65.6575 237.75 65.6243 238.015 65.616V67.1077C237.75 67.1492 237.352 67.1823 236.814 67.1823C235.156 67.1823 233.49 66.105 233.49 63.9917V55.6381H231.584V54.2707H233.49V51.221H235.09V54.2707H237.767Z" fill="white"/>
<path d="M17.4023 81.4902V100.912H15.1035V81.4902H17.4023ZM13.4062 81.834V99.9668H11.1289V90.7285H9.28125C9.05566 94.5098 7.43359 96.8516 5.02734 96.8301C2.49219 96.8516 0.837891 94.166 0.837891 89.8906C0.837891 85.6152 2.49219 82.9727 5.02734 82.9727C7.37988 82.9727 8.98047 85.1641 9.25977 88.7949H11.1289V81.834H13.4062ZM5.02734 85.2285C3.80273 85.207 3.0293 86.8613 3.05078 89.8906C3.0293 92.9199 3.80273 94.5742 5.02734 94.5527C6.31641 94.5742 7.08984 92.9199 7.08984 89.8906C7.08984 86.8613 6.31641 85.207 5.02734 85.2285ZM35.0359 88.3652V90.3418H21.737V82.457H34.821V84.3906H24.1863V88.3652H35.0359ZM37.1628 92.4688V94.4023H32.9304V100.912H30.5241V94.4023H26.1198V100.912H23.7351V94.4023H19.4167V92.4688H37.1628ZM46.1381 83.7246V85.6152H41.1538V88.9453H45.3217V90.793H41.1538V94.5527C43.4633 94.5312 45.0532 94.4238 46.9545 94.1016L47.1694 96.0137C44.935 96.4434 43.0873 96.4863 40.144 96.4863H38.8764V83.7246H46.1381ZM54.9897 81.4902V100.912H52.6694V81.4902H54.9897ZM50.9077 81.877V99.9668H48.6733V90.5996H46.267V88.666H48.6733V81.877H50.9077ZM72.7736 83.2949V85.6152C72.7736 88.4297 72.7736 91.1152 71.9142 95.2188L69.5295 95.0039C69.9269 93.3066 70.1525 91.8135 70.2814 90.4277L58.8302 91.0293L58.508 89.0957L70.3888 88.6445C70.4318 87.6025 70.4318 86.6035 70.4318 85.6152V85.2285H59.088V83.2949H72.7736ZM74.7287 96.4863V98.4414H57.0255V96.4863H74.7287ZM83.5914 99H80.6051L86.0836 83.4453H89.5211L95.0211 99H92.0348L90.7457 95.1543H84.8805L83.5914 99ZM85.6324 92.8984H89.9938L87.8668 86.625H87.7379L85.6324 92.8984ZM99.4417 83.4453V99H96.6488V83.4453H99.4417ZM108.691 93.8652C107.767 93.8652 107.015 93.1133 107.015 92.1895C107.015 91.2871 107.767 90.5352 108.691 90.5352C109.572 90.5352 110.345 91.2871 110.345 92.1895C110.345 93.1133 109.572 93.8652 108.691 93.8652ZM133.861 81.4902V100.912H131.54V81.4902H133.861ZM129.779 81.877V99.9668H127.544V90.6426H123.806V88.6875H127.544V81.877H129.779ZM125.138 83.7676V85.6797H120.089V94.4668C122.388 94.4453 124.031 94.3486 125.933 93.9512L126.126 95.9062C123.935 96.3574 122.001 96.4434 119.058 96.4648H117.747V83.7676H125.138ZM152.053 81.4902V100.934H149.646V81.4902H152.053ZM141.59 82.9082C144.512 82.9082 146.639 85.5723 146.66 89.7617C146.639 93.9941 144.512 96.6367 141.59 96.6367C138.646 96.6367 136.519 93.9941 136.519 89.7617C136.519 85.5723 138.646 82.9082 141.59 82.9082ZM141.59 85.0566C139.935 85.0566 138.818 86.7969 138.818 89.7617C138.818 92.748 139.935 94.4883 141.59 94.4883C143.223 94.4883 144.34 92.748 144.34 89.7617C144.34 86.7969 143.223 85.0566 141.59 85.0566ZM170.975 81.4902V100.934H168.612V90.4492H164.96V88.5156H168.612V81.4902H170.975ZM164.659 83.166V85.1211H157.977V88.6016H163.885V90.4922H157.977V94.4883C160.931 94.4775 163.144 94.3809 165.647 93.9727L165.883 95.9062C163.048 96.3359 160.577 96.4434 157.096 96.4648H155.571V83.166H164.659ZM195.156 81.4902V100.912H192.857V90.9434H190.774V100.01H188.539V82.0059H190.774V89.0098H192.857V81.4902H195.156ZM186.885 83.9395C186.885 89.1816 185.231 93.6934 179.709 96.8516L178.334 95.1973C182.47 92.8018 184.221 89.7295 184.565 85.8516H179.236V83.9395H186.885ZM200.307 82.3496V84.8203H204.841V82.3496H207.204V90.8145H197.944V82.3496H200.307ZM200.307 88.9238H204.841V86.625H200.307V88.9238ZM212.596 81.4902V85.4219H215.304V87.3555H212.596V91.4375H210.212V81.4902H212.596ZM212.596 92.2109V97.3027H202.284V98.8496H213.198V100.74H199.921V95.5625H210.212V94.0801H199.899V92.2109H212.596ZM223.033 87.0117C223.033 90.0195 224.816 93.4355 227.888 94.8535L226.556 96.7441C224.365 95.7129 222.743 93.6289 221.873 91.2012C220.992 93.8652 219.294 96.1426 217.06 97.2168L215.664 95.3477C218.757 93.8867 220.626 90.2344 220.648 87.0117V85.3789H216.416V83.4023H227.093V85.3789H223.033V87.0117ZM231.283 81.4902V89.0527H234.269V91.0508H231.283V100.912H228.898V81.4902H231.283ZM250.716 83.5098V84.8848C250.716 86.625 250.716 89.0527 250.179 92.4043L247.815 92.2109C248.277 89.2676 248.331 87.0977 248.352 85.4219H240.726V83.5098H250.716ZM245.817 89.0527V94.7891C247.794 94.7139 249.824 94.5742 251.683 94.3379L251.811 96.1211C247.794 96.7656 243.347 96.8516 239.931 96.8301L239.694 94.918C240.844 94.9072 242.122 94.8965 243.454 94.8535V89.0527H245.817ZM255.099 81.4902V89.3965H257.913V91.416H255.099V100.912H252.692V81.4902H255.099ZM274.924 81.4902V93.0273H272.539V88.2793H269.23V86.3242H272.539V81.4902H274.924ZM268.349 93.5215C272.474 93.5215 274.988 94.875 274.988 97.2168C274.988 99.5586 272.474 100.912 268.349 100.912C264.246 100.912 261.732 99.5586 261.754 97.2168C261.732 94.875 264.246 93.5215 268.349 93.5215ZM268.349 95.3477C265.642 95.3477 264.117 95.9922 264.117 97.2168C264.117 98.4199 265.642 99.0645 268.349 99.0645C271.056 99.0645 272.603 98.4199 272.603 97.2168C272.603 95.9922 271.056 95.3477 268.349 95.3477ZM265.793 84.8203C265.793 87.1836 267.361 89.5684 270.369 90.5781L269.166 92.4688C267.007 91.7383 265.47 90.2559 264.633 88.4297C263.773 90.5029 262.151 92.1572 259.841 92.9844L258.595 91.0938C261.711 90.0195 263.365 87.3984 263.365 84.8418V84.6914H259.326V82.7578H269.81V84.6914H265.793V84.8203ZM288.749 99.2148C285.29 99.2148 282.841 97.3672 282.841 94.832C282.841 92.8555 284.302 91.2441 286.171 90.9434V90.8574C284.538 90.5137 283.421 89.0957 283.421 87.3984C283.421 84.9922 285.677 83.2305 288.749 83.2305C291.8 83.2305 294.056 84.9922 294.056 87.3984C294.056 89.0957 292.917 90.5137 291.306 90.8574V90.9434C293.175 91.2441 294.657 92.8555 294.657 94.832C294.657 97.3672 292.187 99.2148 288.749 99.2148ZM288.749 97.002C290.575 97.002 291.778 96.0137 291.778 94.5742C291.778 93.1133 290.489 92.0391 288.749 92.0391C286.987 92.0391 285.698 93.1133 285.72 94.5742C285.698 96.0137 286.901 97.002 288.749 97.002ZM288.749 89.9551C290.253 89.9551 291.327 89.0098 291.327 87.6562C291.327 86.3457 290.275 85.4219 288.749 85.4219C287.202 85.4219 286.15 86.3242 286.15 87.6562C286.15 89.0098 287.224 89.9551 288.749 89.9551ZM312.334 81.4902V100.912H309.928V81.4902H312.334ZM306.533 83.5527C306.533 89.332 304.299 94.252 297.488 97.4746L296.242 95.5625C301.323 93.1455 303.686 89.8584 304.105 85.4434H297.23V83.5527H306.533ZM337.654 96.5938V98.5488H319.908V96.5938H327.556V92.3613H321.863V82.9941H335.613V92.3613H329.919V96.5938H337.654ZM324.204 84.9062V90.4922H333.249V84.9062H324.204ZM350.152 82.6504V84.5625H346.07C346.103 86.8398 347.778 89.0205 350.84 89.8906L349.637 91.7598C347.392 91.0938 345.77 89.6865 344.889 87.8926C344.019 89.8262 342.354 91.3516 340.033 92.082L338.83 90.2129C341.935 89.2998 343.61 86.9688 343.664 84.5625H339.475V82.6504H350.152ZM354.879 81.4902V92.0176H352.473V81.4902H354.879ZM344.395 92.877V94.875H352.494V92.877H354.879V100.676H342.031V92.877H344.395ZM344.395 98.7422H352.494V96.7227H344.395V98.7422Z" fill="white"/>
</svg>
