<svg width="358" height="202" viewBox="0 0 358 202" fill="none" xmlns="http://www.w3.org/2000/svg">
<path d="M18.3691 51.4258V53.4023H10.6348V59.9121H8.27148V53.4023H0.623047V51.4258H18.3691ZM9.45312 41.1777C13.5781 41.1992 16.457 42.875 16.457 45.5391C16.457 48.1816 13.5781 49.8359 9.45312 49.8359C5.30664 49.8359 2.4707 48.1816 2.49219 45.5391C2.4707 42.875 5.30664 41.1992 9.45312 41.1777ZM9.45312 43.1113C6.70312 43.1113 4.91992 44.0137 4.94141 45.5391C4.91992 47.043 6.70312 47.9453 9.45312 47.9453C12.2031 47.9453 13.9863 47.043 13.9863 45.5391C13.9863 44.0137 12.2031 43.1113 9.45312 43.1113ZM29.7773 42.1016C29.7773 44.5508 32.5059 47.0215 36.6523 47.5586L35.707 49.4922C32.4092 48.998 29.7881 47.376 28.5312 45.1738C27.2529 47.376 24.6426 48.998 21.377 49.4922L20.4316 47.5586C24.5352 47.0215 27.2637 44.5508 27.2637 42.1016V41.1133H29.7773V42.1016ZM37.3613 51.168V53.1445H29.6484V59.9121H27.2852V53.1445H19.6582V51.168H37.3613ZM59.8125 42.2734V44.25C59.8125 46.6562 59.8125 49.2773 59.1035 53.0801L56.7617 52.8438C57.4277 49.2559 57.4277 46.5918 57.4277 44.25V44.1855H45.6758V42.2734H59.8125ZM61.5957 55.4434V57.3984H43.8926V55.4434H47.8672V49.2559H50.252V55.4434H52.7227V49.2559H55.0645V55.4434H61.5957ZM80.6094 49.6641V51.5762H76.1836V53.5957H78.4395V59.9121H76.0547V55.4648H64.8613V53.5957H67.2676V51.5762H62.9062V49.6641H80.6094ZM71.7363 40.8984C75.9902 40.8984 78.7188 42.3379 78.7402 44.6797C78.7188 47.043 75.9902 48.4824 71.7363 48.4824C67.4824 48.4824 64.7324 47.043 64.7324 44.6797C64.7324 42.3379 67.4824 40.8984 71.7363 40.8984ZM71.7363 42.7676C68.9004 42.7676 67.2031 43.4551 67.2246 44.6797C67.2031 45.9473 68.9004 46.6348 71.7363 46.6348C74.5723 46.6348 76.2695 45.9473 76.2695 44.6797C76.2695 43.4551 74.5723 42.7676 71.7363 42.7676ZM69.6523 53.5957H73.8203V51.5762H69.6523V53.5957ZM87.9785 44.0996C87.9785 46.2051 89.2031 48.3105 91.7598 49.2773L90.4922 51.1035C88.7627 50.4375 87.5596 49.2021 86.8613 47.6875C86.1523 49.4277 84.8848 50.9102 83.0371 51.6836L81.748 49.8574C84.4121 48.6758 85.6582 46.248 85.6797 44.0996V41.6934H87.9785V44.0996ZM98.5273 40.5117V52.4141H96.25V47.3652H94.3164V51.8125H92.082V40.877H94.3164V45.4102H96.25V40.5117H98.5273ZM91.9746 52.7363C96.0352 52.7363 98.6133 54.0684 98.6348 56.3027C98.6133 58.5371 96.0352 59.8906 91.9746 59.8906C87.8711 59.8906 85.3145 58.5371 85.3145 56.3027C85.3145 54.0684 87.8711 52.7363 91.9746 52.7363ZM91.9746 54.541C89.2891 54.541 87.6992 55.1641 87.6992 56.3027C87.6992 57.4629 89.2891 58.0645 91.9746 58.0645C94.6387 58.0645 96.2285 57.4629 96.2285 56.3027C96.2285 55.1641 94.6387 54.541 91.9746 54.541ZM113.137 45.0879C113.137 47.4082 114.748 49.6426 117.82 50.5879L116.66 52.457C114.458 51.791 112.868 50.3838 111.977 48.5898C111.117 50.5234 109.517 52.0488 107.25 52.7793L106.09 50.9102C109.141 49.9434 110.752 47.5801 110.752 45.0879V44.7871H106.691V42.8965H110.752V40.6191H113.158V42.8965H117.197V44.7871H113.137V45.0879ZM122.418 40.5117V54.9277H120.033V48.2031H116.553V46.291H120.033V40.5117H122.418ZM122.912 57.5918V59.5254H109.678V53.6816H112.062V57.5918H122.912ZM142.012 40.4902V59.9121H139.734V50.0723H137.736V58.9668H135.48V40.834H137.736V48.0957H139.734V40.4902H142.012ZM131.205 45.4531C131.205 48.9121 132.365 52.0918 135.244 53.5742L133.848 55.4004C132 54.4121 130.786 52.7041 130.109 50.5879C129.443 53.0049 128.229 54.9492 126.307 56.0879L124.846 54.2617C127.725 52.6289 128.885 49.2344 128.885 45.4531V44.5293H125.426V42.6172H134.385V44.5293H131.205V45.4531ZM159.629 42.3809V44.5723C159.629 47.1719 159.629 49.8574 158.92 53.9395L156.492 53.7246C157.244 49.9004 157.244 47.0859 157.244 44.5723V44.3145H146.051V42.3809H159.629ZM161.885 55.293V57.248H144.182V55.293H161.885ZM180.92 49.9648V51.8555H173.207V53.7891H170.844V51.8555H163.174V49.9648H180.92ZM167.814 52.8438V54.6055H176.387V52.8438H178.75V59.6758H165.451V52.8438H167.814ZM167.814 57.8496H176.387V56.3887H167.814V57.8496ZM178.729 40.834V45.625H167.793V47H179.115V48.7832H165.43V43.9277H176.344V42.6387H165.365V40.834H178.729ZM193.359 46.3984C193.359 49.3633 194.584 52.4141 197.334 53.8535L195.98 55.6152C194.165 54.6699 192.951 52.9727 192.264 50.9316C191.576 53.123 190.352 55.0029 188.525 56.0449L187.15 54.2832C189.857 52.6934 191.104 49.4707 191.104 46.3984V45.8613H187.709V43.9062H191.104V41.1777H193.359V43.9062H196.711V45.8613H193.359V46.3984ZM204.273 40.4902V59.9121H201.996V50.0723H199.998V58.9668H197.742V40.834H199.998V48.0957H201.996V40.4902H204.273ZM224.146 49.8359V51.748H206.443V49.8359H210.568V47.3652C209.107 46.7529 208.27 45.7754 208.27 44.5078C208.27 42.1875 210.998 40.8125 215.273 40.8125C219.549 40.8125 222.256 42.1875 222.277 44.5078C222.267 45.7861 221.429 46.7637 219.957 47.3652V49.8359H224.146ZM215.273 52.9297C219.463 52.9082 221.977 54.1543 221.998 56.3887C221.977 58.6445 219.463 59.8691 215.273 59.8691C211.041 59.8691 208.506 58.6445 208.506 56.3887C208.506 54.1543 211.041 52.9082 215.273 52.9297ZM215.273 54.7344C212.438 54.7344 210.912 55.293 210.934 56.3887C210.912 57.4844 212.438 58.0645 215.273 58.0645C218.045 58.0645 219.592 57.4844 219.613 56.3887C219.592 55.293 218.045 54.7344 215.273 54.7344ZM215.273 42.6602C212.395 42.6602 210.74 43.3047 210.762 44.5078C210.74 45.6895 212.395 46.3125 215.273 46.3125C218.131 46.3125 219.807 45.6895 219.807 44.5078C219.807 43.3047 218.131 42.6602 215.273 42.6602ZM212.975 49.8359H217.572V47.9883C216.874 48.085 216.101 48.1387 215.273 48.1387C214.446 48.1387 213.673 48.085 212.975 47.9883V49.8359ZM240.947 40.4902V48.2461H243.633V50.2227H240.947V59.9121H238.541V40.4902H240.947ZM231.279 42.5312C231.258 47.623 230.549 51.9199 227.047 55.7012L225.178 54.3477C227.917 51.4473 228.809 48.375 229.002 44.4863H225.951V42.5312H231.279ZM236.65 42.5312C236.629 47.752 236.092 52.7363 232.59 56.9473L230.678 55.6367C233.449 52.3389 234.223 48.6973 234.395 44.4863H231.924V42.5312H236.65ZM251.797 46.0117C251.797 49.1914 253.666 52.543 256.803 53.8535L255.492 55.7441C253.193 54.7559 251.518 52.7148 250.637 50.2441C249.734 52.9082 248.037 55.1426 245.76 56.2168L244.385 54.3477C247.457 52.9297 249.369 49.3203 249.369 46.0117V44.3789H245.094V42.4023H256.051V44.3789H251.797V46.0117ZM260.627 40.4902V59.9121H258.221V40.4902H260.627ZM16.7793 69.4902V79.3945H14.416V69.4902H16.7793ZM16.8223 80.2969V85.3457H6.31641V86.8496H17.4023V88.7402H3.97461V83.5625H14.4375V82.1445H3.93164V80.2969H16.8223ZM7.88477 71.4668C7.88477 73.9375 9.51758 76.2578 12.5898 77.1816L11.4297 79.0293C9.17383 78.3418 7.5625 76.8916 6.68164 75.0332C5.80078 77.0527 4.14648 78.6318 1.82617 79.373L0.623047 77.5039C3.75977 76.4941 5.41406 74.002 5.41406 71.4668V69.9629H7.88477V71.4668ZM36.373 69.4902V88.9121H34.0957V69.4902H36.373ZM32.4199 69.8555V87.9668H30.1641V78.1914H27.3711V76.2578H30.1641V69.8555H32.4199ZM25.6523 74.7969C25.6523 78.084 26.834 81.3711 29.6055 82.9609L28.1875 84.7227C26.3936 83.6484 25.2012 81.8008 24.5352 79.5879C23.8477 81.9834 22.6123 84.0244 20.7754 85.1738L19.3145 83.3906C22.1289 81.6934 23.3535 78.1699 23.3535 74.7969V73.5078H19.9805V71.5742H28.7891V73.5078H25.6523V74.7969ZM54.0117 71.1016C54.0117 73.5508 56.7402 76.0215 60.8867 76.5586L59.9414 78.4922C56.6436 77.998 54.0225 76.376 52.7656 74.1738C51.4873 76.376 48.877 77.998 45.6113 78.4922L44.666 76.5586C48.7695 76.0215 51.498 73.5508 51.498 71.1016V70.1133H54.0117V71.1016ZM61.5957 80.168V82.1445H53.8828V88.9121H51.5195V82.1445H43.8926V80.168H61.5957ZM80.6523 84.6797V86.6562H62.9062V84.6797H67.6113V81.4785H65.0117V75.1406H76.1836V72.7559H64.9688V70.8223H78.5469V77.0527H67.3965V79.5449H78.998V81.4785H76.1621V84.6797H80.6523ZM69.9316 84.6797H73.8203V81.4785H69.9316V84.6797ZM87.9785 73.0996C87.9785 75.2051 89.2031 77.3105 91.7598 78.2773L90.4922 80.1035C88.7627 79.4375 87.5596 78.2021 86.8613 76.6875C86.1523 78.4277 84.8848 79.9102 83.0371 80.6836L81.748 78.8574C84.4121 77.6758 85.6582 75.248 85.6797 73.0996V70.6934H87.9785V73.0996ZM98.5273 69.5117V81.4141H96.25V76.3652H94.3164V80.8125H92.082V69.877H94.3164V74.4102H96.25V69.5117H98.5273ZM91.9746 81.7363C96.0352 81.7363 98.6133 83.0684 98.6348 85.3027C98.6133 87.5371 96.0352 88.8906 91.9746 88.8906C87.8711 88.8906 85.3145 87.5371 85.3145 85.3027C85.3145 83.0684 87.8711 81.7363 91.9746 81.7363ZM91.9746 83.541C89.2891 83.541 87.6992 84.1641 87.6992 85.3027C87.6992 86.4629 89.2891 87.0645 91.9746 87.0645C94.6387 87.0645 96.2285 86.4629 96.2285 85.3027C96.2285 84.1641 94.6387 83.541 91.9746 83.541ZM118.658 79.5449V81.457H111.16V84.8086H108.797V81.457H100.912V79.5449H118.658ZM116.703 86.5918V88.5254H103.061V83.1758H105.424V86.5918H116.703ZM105.596 70.1133V72.3047H113.975V70.1133H116.338V78.0195H103.232V70.1133H105.596ZM105.596 76.1289H113.975V74.0879H105.596V76.1289ZM137.672 77.2676V79.1582H119.947V77.2676H137.672ZM135.566 74.1309V76.0215H122.203V69.9844H135.395V71.8965H124.588V74.1309H135.566ZM135.438 80.4902V85.3672H124.395V86.8496H135.975V88.7188H122.053V83.6484H133.096V82.2949H122.031V80.4902H135.438ZM155.117 69.4902V88.9336H152.711V69.4902H155.117ZM144.654 70.9082C147.576 70.9082 149.703 73.5723 149.725 77.7617C149.703 81.9941 147.576 84.6367 144.654 84.6367C141.711 84.6367 139.584 81.9941 139.584 77.7617C139.584 73.5723 141.711 70.9082 144.654 70.9082ZM144.654 73.0566C143 73.0566 141.883 74.7969 141.883 77.7617C141.883 80.748 143 82.4883 144.654 82.4883C146.287 82.4883 147.404 80.748 147.404 77.7617C147.404 74.7969 146.287 73.0566 144.654 73.0566ZM180.898 81.1562V83.1113H173.207V88.9336H170.844V83.1113H163.195V81.1562H180.898ZM179.244 71.7891V73.6797H173.25C173.476 75.6025 176 77.6113 179.889 78.084L179.008 79.9746C175.796 79.5664 173.304 78.1484 172.047 76.2793C170.769 78.1699 168.255 79.5664 165.021 79.9746L164.162 78.084C168.04 77.6113 170.586 75.6348 170.822 73.6797H164.828V71.7891H170.844V69.5117H173.207V71.7891H179.244ZM189.191 74.0879C189.191 76.4082 190.803 78.6426 193.875 79.5879L192.715 81.457C190.513 80.791 188.923 79.3838 188.031 77.5898C187.172 79.5234 185.571 81.0488 183.305 81.7793L182.145 79.9102C185.195 78.9434 186.807 76.5801 186.807 74.0879V73.7871H182.746V71.8965H186.807V69.6191H189.213V71.8965H193.252V73.7871H189.191V74.0879ZM198.473 69.5117V83.9277H196.088V77.2031H192.607V75.291H196.088V69.5117H198.473ZM198.967 86.5918V88.5254H185.732V82.6816H188.117V86.5918H198.967ZM216.541 69.4902V74.2812H219.248V76.2578H216.541V80.834H214.156V69.4902H216.541ZM206.357 81.6074V83.2832H214.156V81.6074H216.541V88.6758H203.994V81.6074H206.357ZM206.357 86.7852H214.156V85.1309H206.357V86.7852ZM212.76 71.2949V73.207H201.244V71.2949H205.82V69.3398H208.205V71.2949H212.76ZM207.002 73.873C209.816 73.873 211.729 75.2266 211.75 77.2891C211.729 79.3516 209.816 80.7051 207.002 80.7051C204.166 80.7051 202.232 79.3516 202.232 77.2891C202.232 75.2266 204.166 73.873 207.002 73.873ZM207.002 75.6348C205.52 75.6348 204.553 76.2578 204.553 77.2891C204.553 78.3418 205.52 78.9434 207.002 78.9434C208.484 78.9434 209.473 78.3418 209.473 77.2891C209.473 76.2578 208.484 75.6348 207.002 75.6348ZM236.436 69.4902V88.9121H234.072V69.4902H236.436ZM223.717 71.3809V81.9941C226.445 81.9512 229.346 81.7041 232.332 81.1133L232.633 83.1113C229.217 83.8203 226.037 84.0352 223.029 84.0352H221.354V71.3809H223.717ZM254.461 69.4902V76.8594H257.447V78.8145H254.461V88.9336H252.076V69.4902H254.461ZM249.133 71.3379V73.2715H242.43V82.1875C245.448 82.1875 247.833 82.0371 250.508 81.5645L250.787 83.584C247.779 84.0996 245.158 84.1855 241.656 84.1855H240.045V71.3379H249.133Z" fill="white"/>
<path d="M4.12845 128.099V138H3.15193V129.115H3.09392L0.749309 130.662V129.666L3.11809 128.099H4.12845ZM16.3579 127.002V139.068H15.4974V127.002H16.3579ZM6.63139 136.018C9.94285 134.442 11.7122 131.981 11.9249 129.042H7.15832V128.331H12.7951C12.7902 131.735 11.0692 134.814 7.10515 136.733L6.63139 136.018ZM20.2973 137.159L19.3014 140.702H18.5038L19.2676 137.159H20.2973ZM25.8593 138L25.8545 137.285L29.1998 133.669C30.4712 132.281 30.9981 131.595 31.003 130.662C30.9981 129.559 30.1038 128.82 28.9242 128.82C27.677 128.82 26.8649 129.651 26.8649 130.802H25.9415C25.9318 129.144 27.2178 127.964 28.9533 127.964C30.6742 127.964 31.9118 129.139 31.9167 130.662C31.9118 131.764 31.4042 132.6 29.7026 134.408L27.2274 137.062V137.13H32.2115V138H25.8593ZM43.5786 127.002V139.068H42.7181V127.002H43.5786ZM33.8521 136.018C37.1636 134.442 38.9329 131.981 39.1456 129.042H34.379V128.331H40.0158C40.0109 131.735 38.2899 134.814 34.3258 136.733L33.8521 136.018ZM55.0951 128.186C55.0903 129.97 57.5606 131.406 59.5474 131.706L59.1897 132.416C57.4107 132.097 55.4141 131.048 54.66 129.506C53.9107 131.063 51.9093 132.097 50.1303 132.416L49.7629 131.706C51.7546 131.406 54.2104 130.009 54.2104 128.186V127.461H55.0951V128.186ZM49.149 134.611V133.876H60.142V134.611H55.0516V139.068H54.2056V134.611H49.149ZM72.2948 136.777V137.517H61.2486V136.777H64.444V134.345H62.6698V130.734H70.0131V128.665H62.6312V127.935H70.8639V131.459H63.5207V133.62H71.1443V134.345H69.1912V136.777H72.2948ZM65.29 136.777H68.3501V134.345H65.29V136.777ZM76.8627 129.477C76.8627 130.826 77.8779 132.204 79.4152 132.769L78.9559 133.441C77.7618 132.977 76.8772 132.059 76.4566 130.971C76.0167 132.155 75.103 133.229 73.8944 133.76L73.4159 133.088C74.9725 132.407 76.036 130.826 76.036 129.477V127.766H76.8627V129.477ZM75.6009 136.912C75.5913 135.564 77.1092 134.785 79.6085 134.78C82.0885 134.785 83.621 135.564 83.621 136.912C83.621 138.251 82.0885 139.03 79.6085 139.03C77.1092 139.03 75.5913 138.251 75.6009 136.912ZM76.4469 136.912C76.4421 137.797 77.67 138.348 79.6085 138.338C81.5277 138.348 82.7605 137.797 82.7653 136.912C82.7605 136.018 81.5277 135.472 79.6085 135.472C77.67 135.472 76.4421 136.018 76.4469 136.912ZM80.1065 134.099V127.249H80.9283V130.352H82.7315V127.017H83.5485V134.485H82.7315V131.077H80.9283V134.099H80.1065ZM98.7825 127.017V135.873H97.9171V131.135H95.2631V130.415H97.9171V127.017H98.7825ZM88.9206 133.548C90.6416 132.934 92.0532 131.334 92.0532 129.54V128.776H89.2251V128.051H95.7079V128.776H92.9137V129.54C92.9137 131.14 94.2383 132.663 95.9544 133.262L95.4952 133.959C94.1319 133.456 93.0152 132.402 92.5028 131.102C91.9903 132.557 90.806 133.707 89.3798 134.258L88.9206 133.548ZM91.1202 138.778V135.066H91.9807V138.048H99.1402V138.778H91.1202ZM110.79 127.017V136.192H109.915V134.838H107.377V134.181H109.915V127.017H110.79ZM100.866 132.673C103.118 132.668 106.154 132.648 108.75 132.315L108.818 132.963C107.701 133.137 106.522 133.243 105.366 133.311V135.728H104.501V133.349C103.239 133.398 102.031 133.403 100.991 133.403L100.866 132.673ZM101.861 129.613C101.861 128.346 103.055 127.529 104.839 127.529C106.609 127.529 107.807 128.346 107.812 129.613C107.807 130.894 106.609 131.691 104.839 131.691C103.055 131.691 101.861 130.894 101.861 129.613ZM102.664 138.778V135.283H103.529V138.048H111.095V138.778H102.664ZM102.683 129.613C102.674 130.459 103.558 131.029 104.839 131.029C106.091 131.029 106.976 130.459 106.986 129.613C106.976 128.771 106.091 128.186 104.839 128.191C103.558 128.186 102.674 128.771 102.683 129.613ZM126.602 126.871V135.799H125.07V126.871H126.602ZM126.943 137.74V138.971H118.426V134.896H119.957V137.74H126.943ZM119.861 127.678C121.734 127.678 123.184 128.977 123.184 130.768C123.184 132.6 121.734 133.871 119.861 133.871C117.975 133.871 116.525 132.6 116.525 130.768C116.525 128.977 117.975 127.678 119.861 127.678ZM119.861 129.004C118.809 129.004 118.002 129.701 118.016 130.768C118.002 131.861 118.809 132.545 119.861 132.545C120.887 132.545 121.693 131.861 121.693 130.768C121.693 129.701 120.887 129.004 119.861 129.004ZM138.756 126.871V136.004H137.238V131.479H135.023V130.248H137.238V126.871H138.756ZM139.07 137.74V138.971H130.635V135.211H132.166V137.74H139.07ZM134.627 127.814V129.045H130.525V130.385H134.258V131.574H130.525V132.996C132.48 132.989 133.711 132.948 135.146 132.695L135.27 133.912C133.67 134.199 132.289 134.254 129.951 134.254H129.008V127.814H134.627ZM148.258 128.102V138H146.467V129.838H146.412L144.102 131.314V129.688L146.549 128.102H148.258ZM154.314 138.137C151.936 138.137 150.514 136.291 150.514 133.051C150.514 129.824 151.936 127.965 154.314 127.965C156.68 127.965 158.115 129.824 158.115 133.051C158.115 136.291 156.693 138.137 154.314 138.137ZM154.314 136.646C155.559 136.646 156.324 135.43 156.324 133.051C156.324 130.686 155.545 129.441 154.314 129.441C153.084 129.441 152.305 130.686 152.305 133.051C152.305 135.43 153.07 136.646 154.314 136.646ZM163.256 138.137C160.877 138.137 159.455 136.291 159.455 133.051C159.455 129.824 160.877 127.965 163.256 127.965C165.621 127.965 167.057 129.824 167.057 133.051C167.057 136.291 165.635 138.137 163.256 138.137ZM163.256 136.646C164.5 136.646 165.266 135.43 165.266 133.051C165.266 130.686 164.486 129.441 163.256 129.441C162.025 129.441 161.246 130.686 161.246 133.051C161.246 135.43 162.012 136.646 163.256 136.646ZM170.98 132.928C169.572 132.928 168.807 131.889 168.807 130.371C168.807 128.867 169.6 127.828 170.98 127.828C172.416 127.828 173.168 128.867 173.168 130.371C173.168 131.902 172.389 132.928 170.98 132.928ZM170.98 131.834C171.596 131.834 171.896 131.26 171.896 130.371C171.896 129.51 171.623 128.908 170.98 128.922C170.379 128.922 170.064 129.51 170.064 130.371C170.064 131.26 170.379 131.834 170.98 131.834ZM177.447 138.26C176.039 138.273 175.273 137.221 175.273 135.717C175.273 134.199 176.066 133.16 177.447 133.16C178.869 133.16 179.635 134.199 179.635 135.717C179.635 137.234 178.855 138.273 177.447 138.26ZM177.447 137.166C178.076 137.166 178.363 136.592 178.363 135.717C178.363 134.842 178.09 134.24 177.447 134.254C176.846 134.254 176.531 134.855 176.531 135.717C176.531 136.592 176.846 137.166 177.447 137.166ZM170.078 138L176.887 128.102H178.268L171.459 138H170.078ZM188.166 128.099V138H187.189V129.115H187.131L184.786 130.662V129.666L187.155 128.099H188.166ZM200.395 127.002V139.068H199.535V127.002H200.395ZM190.668 136.018C193.98 134.442 195.749 131.981 195.962 129.042H191.195V128.331H196.832C196.827 131.735 195.106 134.814 191.142 136.733L190.668 136.018ZM204.334 137.159L203.339 140.702H202.541L203.305 137.159H204.334ZM209.896 138L209.892 137.285L213.237 133.669C214.508 132.281 215.035 131.595 215.04 130.662C215.035 129.559 214.141 128.82 212.961 128.82C211.714 128.82 210.902 129.651 210.902 130.802H209.979C209.969 129.144 211.255 127.964 212.99 127.964C214.711 127.964 215.949 129.139 215.954 130.662C215.949 131.764 215.441 132.6 213.74 134.408L211.265 137.062V137.13H216.249V138H209.896ZM227.616 127.002V139.068H226.755V127.002H227.616ZM217.889 136.018C221.201 134.442 222.97 131.981 223.183 129.042H218.416V128.331H224.053C224.048 131.735 222.327 134.814 218.363 136.733L217.889 136.018ZM236.778 127.964C238.494 127.979 240.225 129.134 240.23 132.629C240.225 135.907 239.002 138.135 236.633 138.135C234.946 138.135 233.786 137.067 233.573 135.501H234.535C234.728 136.516 235.453 137.265 236.633 137.265C238.325 137.265 239.306 135.723 239.316 133.016H239.2C238.697 133.886 237.725 134.437 236.633 134.437C234.902 134.437 233.471 133.084 233.471 131.213C233.471 129.429 234.772 127.95 236.778 127.964ZM234.419 131.203C234.419 132.528 235.419 133.572 236.773 133.572C238.146 133.572 239.214 132.421 239.127 131.155C239.031 129.845 238.073 128.829 236.778 128.829C235.419 128.829 234.409 129.903 234.419 131.203ZM245.12 138.135C243.012 138.135 241.775 136.265 241.775 133.05C241.775 129.854 243.022 127.964 245.12 127.964C247.213 127.964 248.461 129.854 248.461 133.05C248.461 136.265 247.228 138.135 245.12 138.135ZM242.722 133.05C242.722 135.728 243.617 137.265 245.12 137.265C246.619 137.265 247.513 135.728 247.513 133.05C247.513 130.372 246.614 128.82 245.12 128.82C243.621 128.82 242.722 130.372 242.722 133.05ZM255.187 135.699C255.187 134.597 255.888 133.717 257.043 133.717C258.203 133.717 258.88 134.597 258.88 135.699V136.158C258.88 137.265 258.189 138.14 257.043 138.14C255.873 138.14 255.187 137.265 255.187 136.158V135.699ZM250.203 130.401V129.941C250.203 128.834 250.909 127.959 252.054 127.959C253.224 127.959 253.896 128.834 253.896 129.941V130.401C253.896 131.503 253.21 132.383 252.054 132.383C250.884 132.383 250.203 131.503 250.203 130.401ZM250.652 138L257.449 128.099H258.349L251.547 138H250.652ZM251.01 130.401C251.01 131.102 251.353 131.686 252.054 131.686C252.75 131.686 253.084 131.102 253.084 130.401V129.941C253.084 129.24 252.765 128.655 252.054 128.655C251.368 128.655 251.01 129.24 251.01 129.941V130.401ZM255.999 136.158C255.999 136.859 256.333 137.444 257.043 137.444C257.73 137.444 258.073 136.859 258.073 136.158V135.699C258.073 134.998 257.744 134.413 257.043 134.413C256.347 134.413 255.999 134.998 255.999 135.699V136.158ZM270.316 127.002V139.083H269.456V127.002H270.316ZM260.904 132.136C260.904 129.598 262.161 127.974 263.949 127.964C265.724 127.974 266.995 129.598 266.995 132.136C266.995 134.679 265.724 136.303 263.949 136.303C262.161 136.303 260.904 134.679 260.904 132.136ZM261.735 132.136C261.735 134.152 262.649 135.544 263.949 135.544C265.25 135.544 266.154 134.152 266.159 132.136C266.154 130.12 265.25 128.738 263.949 128.728C262.649 128.738 261.735 130.12 261.735 132.136ZM276.431 128.97C276.431 130.666 277.804 132.209 279.506 132.808L279.027 133.494C277.688 132.987 276.566 131.928 276.044 130.604C275.541 132.102 274.391 133.262 272.979 133.828L272.515 133.132C274.265 132.465 275.59 130.845 275.599 128.916V127.616H276.431V128.97ZM274.115 136.878C274.111 135.52 275.599 134.732 278.075 134.732C280.535 134.732 282.01 135.52 282.015 136.878C282.01 138.251 280.535 139.03 278.075 139.03C275.599 139.03 274.111 138.251 274.115 136.878ZM274.966 136.878C274.957 137.782 276.17 138.329 278.075 138.334C279.974 138.329 281.178 137.782 281.178 136.878C281.178 135.994 279.974 135.438 278.075 135.438C276.17 135.438 274.957 135.994 274.966 136.878ZM281.048 134.403V127.002H281.913V130.251H283.779V130.985H281.913V134.403H281.048ZM292.578 129.004C292.578 130.535 293.631 132.053 295.6 132.668L294.82 133.844C293.419 133.399 292.4 132.463 291.84 131.287C291.279 132.565 290.233 133.584 288.764 134.076L287.984 132.9C289.967 132.23 291.033 130.617 291.047 129.004V128.854H288.381V127.637H295.176V128.854H292.578V129.004ZM298.184 126.857V134.309H296.652V126.857H298.184ZM298.184 134.883V139.217H296.652V136.113H289.748V134.883H298.184ZM310.352 126.871V136.223H308.82V135.143H306.4V134.076H308.82V126.871H310.352ZM310.639 137.74V138.971H301.574V135.32H303.092V137.74H310.639ZM299.934 132.422C302.217 132.408 305.279 132.381 307.904 132.053L307.986 133.146C306.968 133.317 305.915 133.434 304.869 133.502V135.881H303.352V133.584C302.196 133.632 301.096 133.639 300.125 133.639L299.934 132.422ZM303.967 127.322C305.771 127.322 307.029 128.211 307.043 129.51C307.029 130.836 305.771 131.684 303.967 131.684C302.135 131.684 300.877 130.836 300.877 129.51C300.877 128.211 302.135 127.322 303.967 127.322ZM303.967 128.443C302.982 128.443 302.312 128.84 302.312 129.51C302.312 130.18 302.982 130.576 303.967 130.576C304.91 130.576 305.58 130.18 305.594 129.51C305.58 128.84 304.91 128.443 303.967 128.443ZM325.76 126.871V135.895H324.242V131.369H322.055V130.139H324.242V126.871H325.76ZM326.074 137.74V138.971H317.652V135.102H319.17V137.74H326.074ZM319.949 129.332C319.949 130.822 320.947 132.354 322.861 132.982L322.096 134.199C320.715 133.728 319.737 132.791 319.197 131.615C318.65 132.921 317.618 133.953 316.162 134.459L315.383 133.229C317.352 132.586 318.404 130.959 318.404 129.318V128.99H315.834V127.76H322.506V128.99H319.949V129.332ZM337.299 126.857V131H338.967V132.258H337.299V136.51H335.781V126.857H337.299ZM337.736 137.74V138.971H329.178V135.867H330.695V137.74H337.736ZM327.4 134.035C328.323 134.035 329.396 134.028 330.518 133.98V133.201C329.144 133.037 328.275 132.36 328.275 131.369C328.275 130.152 329.465 129.441 331.256 129.455C333.061 129.441 334.236 130.152 334.236 131.369C334.236 132.354 333.389 133.023 332.035 133.201V133.912C333.088 133.857 334.147 133.762 335.139 133.611L335.262 134.678C332.65 135.17 329.697 135.197 327.564 135.225L327.4 134.035ZM334.811 127.938V129.045H327.715V127.938H330.518V126.816H332.035V127.938H334.811ZM331.256 130.48C330.299 130.48 329.725 130.795 329.738 131.369C329.725 131.902 330.299 132.217 331.256 132.217C332.213 132.217 332.787 131.902 332.787 131.369C332.787 130.795 332.213 130.48 331.256 130.48ZM342.152 128.102L342.002 135.088H340.457L340.293 128.102H342.152ZM341.236 138.109C340.648 138.109 340.17 137.631 340.17 137.043C340.17 136.469 340.648 135.99 341.236 135.99C341.797 135.99 342.289 136.469 342.289 137.043C342.289 137.631 341.797 138.109 341.236 138.109ZM4.52539 156.137C2.59766 156.123 0.65625 154.975 0.669922 151.324C0.669922 147.934 2.21484 145.965 4.63477 145.965C6.54883 145.965 7.86133 147.168 8.08008 148.768H6.31641C6.13867 148.016 5.53711 147.51 4.63477 147.51C3.19922 147.51 2.39258 148.781 2.39258 150.859H2.48828C2.99414 150.012 3.95117 149.506 5.03125 149.506C6.80859 149.506 8.17578 150.846 8.17578 152.719C8.17578 154.688 6.71289 156.15 4.52539 156.137ZM4.52539 154.701C5.63281 154.701 6.45312 153.84 6.45312 152.76C6.45312 151.707 5.64648 150.859 4.55273 150.859C3.44531 150.859 2.59766 151.734 2.58398 152.773C2.59766 153.812 3.4043 154.701 4.52539 154.701ZM19.8789 144.857V157.217H18.416V150.873H17.0898V156.643H15.668V145.186H17.0898V149.643H18.416V144.857H19.8789ZM14.6152 146.416C14.6152 149.752 13.5625 152.623 10.0488 154.633L9.17383 153.58C11.8057 152.056 12.9199 150.101 13.1387 147.633H9.74805V146.416H14.6152ZM31.7324 144.871V152.076H30.2012V151.57H27.8906V150.641H30.2012V144.871H31.7324ZM21.3555 149.328C23.748 149.328 26.7285 149.301 29.3809 149.041L29.4629 149.998C28.335 150.155 27.1729 150.251 26.0312 150.299V152.09H24.5273V150.367C23.4678 150.395 22.4492 150.401 21.5195 150.395L21.3555 149.328ZM31.7324 152.459V155.234H24.7051V156.027H32.0605V157.107H23.2148V154.236H30.2285V153.498H23.1602V152.459H31.7324ZM25.3477 145.062C27.1797 145.062 28.4375 145.801 28.4375 146.922C28.4375 148.07 27.1797 148.768 25.3477 148.768C23.4746 148.768 22.2305 148.07 22.2305 146.922C22.2305 145.801 23.4746 145.062 25.3477 145.062ZM25.3477 146.074C24.3086 146.074 23.666 146.402 23.6797 146.922C23.666 147.441 24.3086 147.756 25.3477 147.756C26.3594 147.756 27.0156 147.441 27.0156 146.922C27.0156 146.402 26.3594 146.074 25.3477 146.074ZM40.6191 156V146.102H44.3379C46.6074 146.102 47.8242 147.373 47.8242 149.26C47.8242 150.606 47.209 151.604 46.0469 152.076L48.1797 156H46.1973L44.2559 152.377H42.3965V156H40.6191ZM42.3965 150.887H44.0645C45.4043 150.887 46.0059 150.312 46.0059 149.26C46.0059 148.207 45.4043 147.592 44.0645 147.592H42.3965V150.887ZM49.3555 156V146.102H55.7949V147.592H51.1328V150.299H55.4531V151.789H51.1328V154.496H55.8223V156H49.3555ZM58.7617 156H56.8613L60.3477 146.102H62.5352L66.0352 156H64.1348L63.3145 153.553H59.582L58.7617 156ZM60.0605 152.117H62.8359L61.4824 148.125H61.4004L60.0605 152.117ZM67.2109 156V146.102H68.9883V154.496H73.3633V156H67.2109ZM78.1074 156V146.102H81.8262C84.0957 146.102 85.3125 147.373 85.3125 149.26C85.3125 150.606 84.6973 151.604 83.5352 152.076L85.668 156H83.6855L81.7441 152.377H79.8848V156H78.1074ZM79.8848 150.887H81.5527C82.8926 150.887 83.4941 150.312 83.4941 149.26C83.4941 148.207 82.8926 147.592 81.5527 147.592H79.8848V150.887ZM86.8438 156V146.102H93.2832V147.592H88.6211V150.299H92.9414V151.789H88.6211V154.496H93.3105V156H86.8438ZM96.3047 146.102L98.875 153.908H98.9844L101.568 146.102H103.523L100.023 156H97.8359L94.3496 146.102H96.3047ZM106.477 146.102V156H104.699V146.102H106.477ZM108.322 156V146.102H114.762V147.592H110.1V150.299H114.42V151.789H110.1V154.496H114.789V156H108.322ZM118.562 156L115.773 146.102H117.688L119.479 153.389H119.574L121.475 146.102H123.225L125.139 153.402H125.221L127.012 146.102H128.926L126.137 156H124.373L122.391 149.041H122.322L120.326 156H118.562ZM140.848 154.523V155.781H129.555V154.523H134.422V152.514H130.895V148.467H138.004V146.936H130.867V145.705H139.508V149.67H132.412V151.27H139.795V152.514H135.926V154.523H140.848ZM146.592 145.742V147.738H150.488V145.742H151.339V151.388H145.741V145.742H146.592ZM146.592 150.673H150.488V148.449H146.592V150.673ZM146.955 153.762V153.051H155.018V157.068H154.153V153.762H146.955ZM154.153 152.345V145.002H155.018V152.345H154.153ZM167.48 145.002V157.068H166.639V145.002H167.48ZM157.701 154.081V146.525H162.23V147.255H158.537V153.341C160.437 153.346 161.563 153.278 162.912 152.979L163.009 153.723C161.607 154.018 160.437 154.076 158.45 154.081H157.701ZM161.418 150.412V149.672H164.212V145.316H165.044V156.406H164.212V150.412H161.418ZM179.193 145.002V157.083H178.333V145.002H179.193ZM169.781 150.136C169.781 147.598 171.038 145.974 172.826 145.964C174.601 145.974 175.872 147.598 175.872 150.136C175.872 152.679 174.601 154.303 172.826 154.303C171.038 154.303 169.781 152.679 169.781 150.136ZM170.612 150.136C170.612 152.152 171.526 153.544 172.826 153.544C174.127 153.544 175.031 152.152 175.036 150.136C175.031 148.12 174.127 146.738 172.826 146.728C171.526 146.738 170.612 148.12 170.612 150.136ZM191.336 145.002V157.083H190.485V150.387H187.788V149.662H190.485V145.002H191.336ZM181.958 154.119V146.138H187.585V146.863H182.828V149.541H187.014V150.257H182.828V153.38H182.862C185.255 153.385 186.686 153.322 188.373 152.998L188.484 153.723C186.729 154.028 185.279 154.11 182.862 154.119H181.958ZM203.544 146.375V146.902C203.534 147.791 203.534 149.425 203.181 151.736L202.316 151.664C202.659 149.546 202.684 148.019 202.684 147.1H197.458V146.375H203.544ZM196.757 153.602C197.583 153.597 198.512 153.593 199.483 153.568V149.817H200.339V153.539C201.721 153.491 203.143 153.404 204.443 153.244L204.487 153.902C201.934 154.294 199.053 154.352 196.882 154.347L196.757 153.602ZM205.26 157.068V145.002H206.116V150.117H208.175V150.876H206.116V157.068H205.26ZM218.931 145.002V152.2H218.066V148.942H215.45V148.217H218.066V145.002H218.931ZM209.074 151.354C210.805 150.711 212.202 149.082 212.202 147.294V146.665H209.374V145.94H215.856V146.665H213.062V147.284C213.062 148.898 214.387 150.402 216.103 151.001L215.644 151.698C214.28 151.195 213.168 150.141 212.656 148.85C212.144 150.32 210.954 151.485 209.528 152.046L209.074 151.354ZM210.964 154.83C210.954 153.419 212.472 152.606 214.967 152.606C217.452 152.606 218.97 153.419 218.97 154.83C218.97 156.232 217.452 157.039 214.967 157.049C212.472 157.039 210.954 156.232 210.964 154.83ZM211.815 154.83C211.805 155.763 213.038 156.348 214.967 156.338C216.891 156.348 218.119 155.763 218.119 154.83C218.119 153.883 216.891 153.298 214.967 153.298C213.038 153.298 211.805 153.883 211.815 154.83ZM230.704 146.225V153.979H225.207V146.225H230.704ZM226.058 153.259H229.867V146.926H226.058V153.259ZM233.512 157.083V145.002H234.373V157.083H233.512ZM246.492 145.002V157.083H245.636V145.002H246.492ZM237.273 146.887V146.162H242.847V150.334H238.177V153.385H238.283C240.275 153.385 242.112 153.302 244.37 152.94L244.461 153.67C242.165 154.032 240.318 154.124 238.283 154.124H237.297V149.609H241.981V146.887H237.273ZM259.723 154.738V155.478H248.676V154.738H253.738V152.021H250.025V145.887H250.886V148.159H257.479V145.887H258.33V152.021H254.589V154.738H259.723ZM250.886 151.296H257.479V148.884H250.886V151.296ZM270.696 145.002V157.068H269.835V145.002H270.696ZM260.969 154.018C264.281 152.442 266.05 149.981 266.263 147.042H261.496V146.331H267.133C267.128 149.735 265.407 152.814 261.443 154.733L260.969 154.018Z" fill="white"/>
<path d="M0.714844 10V1.51562H4.04297C5.9707 1.51562 7.07812 2.59961 7.07812 4.28125C7.07812 5.44141 6.54492 6.28516 5.57812 6.70117L7.38281 10H5.4375L3.81445 6.98828H2.47266V10H0.714844ZM2.47266 5.55859H3.71484C4.75781 5.55859 5.26758 5.13086 5.26172 4.28125C5.26758 3.42578 4.75781 2.96289 3.71484 2.95703H2.47266V5.55859ZM8.29688 10V1.51562H13.9922V2.96875H10.0547V5.03125H13.6992V6.48438H10.0547V8.54688H14.0039V10H8.29688ZM16.8516 1.51562L18.9141 7.98438H18.9961L21.0703 1.51562H23.0156L20.0859 10H17.8242L14.8828 1.51562H16.8516ZM25.7344 1.51562V10H23.9766V1.51562H25.7344ZM27.1641 10V1.51562H32.8594V2.96875H28.9219V5.03125H32.5664V6.48438H28.9219V8.54688H32.8711V10H27.1641ZM36.1289 10L33.7031 1.51562H35.625L37.0547 7.44531H37.125L38.6836 1.51562H40.3359L41.8945 7.45703H41.9648L43.3945 1.51562H45.3164L42.8906 10H41.168L39.5508 4.39844H39.4805L37.8516 10H36.1289Z" fill="#767BFF"/>
</svg>
