<svg width="169" height="52" viewBox="0 0 169 52" fill="none" xmlns="http://www.w3.org/2000/svg">
<path d="M29.7969 23.2812C29.7969 25.5938 31.1562 28.0312 33.4375 28.9844L32.4844 30.3594C30.8125 29.6406 29.5938 28.1562 28.9531 26.3594C28.2969 28.2969 27.0625 29.9219 25.4062 30.7031L24.4062 29.3438C26.6406 28.3125 28.0312 25.6875 28.0312 23.2812V22.0938H24.9219V20.6562H32.8906V22.0938H29.7969V23.2812ZM36.2188 19.2656V33.3906H34.4688V19.2656H36.2188ZM49.625 19.9531V21.0469C49.625 22.1406 49.625 23.3906 49.2812 25.0625H51.2031V26.4688H38.2969V25.0625H47.5312C47.8594 23.5391 47.8906 22.375 47.8906 21.3438H39.8906V19.9531H49.625ZM49.6094 28.1094V33.2188H39.8438V28.1094H49.6094ZM41.5469 29.4688V31.8125H47.8906V29.4688H41.5469ZM61.25 23.2812C61.25 25.5938 62.6094 28.0312 64.8906 28.9844L63.9375 30.3594C62.2656 29.6406 61.0469 28.1562 60.4062 26.3594C59.75 28.2969 58.5156 29.9219 56.8594 30.7031L55.8594 29.3438C58.0938 28.3125 59.4844 25.6875 59.4844 23.2812V22.0938H56.375V20.6562H64.3438V22.0938H61.25V23.2812ZM67.6719 19.2656V33.3906H65.9219V19.2656H67.6719ZM81.5938 19.2812V29.9688H79.8438V28.7344H77.0781V27.5156H79.8438V19.2812H81.5938ZM81.9219 31.7031V33.1094H71.5625V28.9375H73.2969V31.7031H81.9219ZM69.6875 25.625C72.2969 25.6094 75.7969 25.5781 78.7969 25.2031L78.8906 26.4531C77.7266 26.6484 76.5234 26.7812 75.3281 26.8594V29.5781H73.5938V26.9531C72.2734 27.0078 71.0156 27.0156 69.9062 27.0156L69.6875 25.625ZM74.2969 19.7969C76.3594 19.7969 77.7969 20.8125 77.8125 22.2969C77.7969 23.8125 76.3594 24.7812 74.2969 24.7812C72.2031 24.7812 70.7656 23.8125 70.7656 22.2969C70.7656 20.8125 72.2031 19.7969 74.2969 19.7969ZM74.2969 21.0781C73.1719 21.0781 72.4062 21.5312 72.4062 22.2969C72.4062 23.0625 73.1719 23.5156 74.2969 23.5156C75.375 23.5156 76.1406 23.0625 76.1562 22.2969C76.1406 21.5312 75.375 21.0781 74.2969 21.0781ZM94.6406 19.2656V24.8906H96.8125V26.3281H94.6406V33.3906H92.9219V19.2656H94.6406ZM91.8281 21.4375V22.8281H83.5V21.4375H86.8438V19.4688H88.5781V21.4375H91.8281ZM87.7188 23.75C89.75 23.75 91.2656 25.125 91.2656 27.0781C91.2656 29.0312 89.75 30.3906 87.7188 30.3906C85.6562 30.3906 84.1406 29.0312 84.1562 27.0781C84.1406 25.125 85.6562 23.75 87.7188 23.75ZM87.7188 25.1719C86.6094 25.1719 85.8125 25.9219 85.8125 27.0781C85.8125 28.2344 86.6094 28.9688 87.7188 28.9531C88.7969 28.9688 89.5938 28.2344 89.6094 27.0781C89.5938 25.9219 88.7969 25.1719 87.7188 25.1719ZM109.203 19.2656V33.3906H107.453V19.2656H109.203ZM104.984 20.7656C104.984 24.9688 103.359 28.5469 98.4062 30.8906L97.5 29.5C101.195 27.7422 102.914 25.3516 103.219 22.1406H98.2188V20.7656H104.984Z" fill="white"/>
<path d="M131 31L136 26L131 21" stroke="white" stroke-width="2" stroke-linecap="round" stroke-linejoin="round"/>
</svg>
