<svg width="358" height="120" viewBox="0 0 358 120" fill="none" xmlns="http://www.w3.org/2000/svg">
<path d="M33.1045 11.5098V12.7812H21.8115V11.5098H26.665V9.07617H22.7822V7.87305H24.5186V4.18164H22.7412V2.95117H32.1201V4.18164H30.3154V7.87305H32.0791V9.07617H28.1689V11.5098H33.1045ZM26.0361 7.87305H28.8115V4.18164H26.0361V7.87305ZM43.96 8.33789V9.54102H35.292V2.82812H43.8506V4.05859H36.8369V5.54883H43.5635V6.73828H36.8369V8.33789H43.96ZM45.2041 11.4688V12.7129H33.9111V11.4688H45.2041ZM56.2373 2.17188V3.30664H54.542V5.19336H56.1689V6.32812H52.3818V7.24414H57.2764V8.43359H46.0107V7.24414H50.8643V6.32812H47.0908V5.19336H48.7178V3.30664H47.0225V2.17188H56.2373ZM55.8682 9.19922V12.0977H48.8408V12.9727H56.21V14.1074H47.3506V11.0586H54.3779V10.293H47.3369V9.19922H55.8682ZM50.2354 5.19336H53.0107V3.30664H50.2354V5.19336ZM68.4053 1.85742V14.2305H66.9014V1.85742H68.4053ZM64.6045 2.9375V7.57227H60.3525V10.0605C62.3008 10.0469 63.9824 9.95117 65.9033 9.62305L66.04 10.8672C63.9346 11.2363 62.0889 11.3047 59.874 11.3047H58.7939V6.36914H63.0596V4.16797H58.7803V2.9375H64.6045ZM75.8291 2.55469C78.4814 2.55469 80.4365 3.88086 80.4365 5.89062C80.4365 7.74316 78.8438 8.98047 76.5811 9.19922V11.4688H81.5029V12.7129H70.21V11.4688H75.0771V9.19922C72.8281 8.98047 71.2354 7.74316 71.249 5.89062C71.2354 3.88086 73.1904 2.55469 75.8291 2.55469ZM75.8291 3.78516C74.0244 3.77148 72.7256 4.5918 72.7393 5.89062C72.7256 7.23047 74.0244 8.02344 75.8291 8.02344C77.6611 8.02344 78.9463 7.23047 78.9463 5.89062C78.9463 4.5918 77.6611 3.77148 75.8291 3.78516ZM89.6924 13.1367C87.3135 13.1367 85.8916 11.291 85.8916 8.05078C85.8916 4.82422 87.3135 2.96484 89.6924 2.96484C92.0576 2.96484 93.4932 4.82422 93.4932 8.05078C93.4932 11.291 92.0713 13.1367 89.6924 13.1367ZM89.6924 11.6465C90.9365 11.6465 91.7021 10.4297 91.7021 8.05078C91.7021 5.68555 90.9229 4.44141 89.6924 4.44141C88.4619 4.44141 87.6826 5.68555 87.6826 8.05078C87.6826 10.4297 88.4482 11.6465 89.6924 11.6465ZM94.9834 13V11.7148L98.4834 8.33789C99.4814 7.33984 100.001 6.75195 100.001 5.91797C100.001 5.00195 99.2764 4.41406 98.3057 4.41406C97.2803 4.41406 96.624 5.05664 96.6377 6.05469H94.9424C94.9287 4.18164 96.3369 2.96484 98.3193 2.96484C100.343 2.96484 101.71 4.16797 101.71 5.83594C101.71 6.95703 101.163 7.85938 99.2217 9.69141L97.458 11.4414V11.5098H101.86V13H94.9834Z" fill="white"/>
<path d="M5.99964 5.59961C5.89355 5.59961 5.79181 5.64175 5.7168 5.71677C5.64178 5.79178 5.59964 5.89352 5.59964 5.99961C5.59964 6.1057 5.64178 6.20744 5.7168 6.28245C5.79181 6.35747 5.89355 6.39961 5.99964 6.39961H9.99964C10.1057 6.39961 10.2075 6.35747 10.2825 6.28245C10.3575 6.20744 10.3996 6.1057 10.3996 5.99961C10.3996 5.89352 10.3575 5.79178 10.2825 5.71677C10.2075 5.64175 10.1057 5.59961 9.99964 5.59961H5.99964ZM4.79964 7.59961C4.79964 7.49352 4.84178 7.39178 4.9168 7.31677C4.99181 7.24175 5.09355 7.19961 5.19964 7.19961H10.7996C10.9057 7.19961 11.0075 7.24175 11.0825 7.31677C11.1575 7.39178 11.1996 7.49352 11.1996 7.59961C11.1996 7.7057 11.1575 7.80744 11.0825 7.88245C11.0075 7.95747 10.9057 7.99961 10.7996 7.99961H5.19964C5.09355 7.99961 4.99181 7.95747 4.9168 7.88245C4.84178 7.80744 4.79964 7.7057 4.79964 7.59961ZM5.99964 8.79961C5.89355 8.79961 5.79181 8.84175 5.7168 8.91677C5.64178 8.99178 5.59964 9.09352 5.59964 9.19961C5.59964 9.3057 5.64178 9.40744 5.7168 9.48245C5.79181 9.55747 5.89355 9.59961 5.99964 9.59961H9.99964C10.1057 9.59961 10.2075 9.55747 10.2825 9.48245C10.3575 9.40744 10.3996 9.3057 10.3996 9.19961C10.3996 9.09352 10.3575 8.99178 10.2825 8.91677C10.2075 8.84175 10.1057 8.79961 9.99964 8.79961H5.99964ZM1.99964 1.59961C1.71625 1.59919 1.44185 1.69908 1.22505 1.88158C1.00825 2.06408 0.863036 2.31743 0.815127 2.59674C0.767217 2.87605 0.819705 3.16331 0.963295 3.40763C1.10688 3.65195 1.33231 3.83757 1.59964 3.93161V9.59961C1.59964 10.2361 1.8525 10.8466 2.30259 11.2967C2.75267 11.7468 3.36312 11.9996 3.99964 11.9996H7.59964V13.5996H5.19964C5.09355 13.5996 4.99181 13.6418 4.9168 13.7168C4.84178 13.7918 4.79964 13.8935 4.79964 13.9996C4.79964 14.1057 4.84178 14.2074 4.9168 14.2825C4.99181 14.3575 5.09355 14.3996 5.19964 14.3996H10.7996C10.9057 14.3996 11.0075 14.3575 11.0825 14.2825C11.1575 14.2074 11.1996 14.1057 11.1996 13.9996C11.1996 13.8935 11.1575 13.7918 11.0825 13.7168C11.0075 13.6418 10.9057 13.5996 10.7996 13.5996H8.39964V11.9996H11.9996C12.6362 11.9996 13.2466 11.7468 13.6967 11.2967C14.1468 10.8466 14.3996 10.2361 14.3996 9.59961V3.93161C14.667 3.83757 14.8924 3.65195 15.036 3.40763C15.1796 3.16331 15.2321 2.87605 15.1842 2.59674C15.1362 2.31743 14.991 2.06408 14.7742 1.88158C14.5574 1.69908 14.283 1.59919 13.9996 1.59961H1.99964ZM2.39964 9.59961V3.99961H13.5996V9.59961C13.5996 10.024 13.4311 10.4309 13.131 10.731C12.831 11.031 12.424 11.1996 11.9996 11.1996H3.99964C3.5753 11.1996 3.16833 11.031 2.86827 10.731C2.56821 10.4309 2.39964 10.024 2.39964 9.59961Z" fill="white"/>
<path d="M34.7472 89.8204C34.7472 91.3674 35.8978 92.7887 37.7783 93.3736L37.145 94.3985C35.7383 93.9586 34.6796 93.0304 34.1236 91.8363C33.587 93.1174 32.5283 94.1181 31.0877 94.6015L30.4496 93.5863C32.3204 92.982 33.4565 91.4738 33.4565 89.8204V89.5304H30.7928V88.4862H33.4565V86.9876H34.7666V88.4862H37.4061V89.5304H34.7472V89.8204ZM32.712 98.9088V95.2396H34.0076V97.8453H40.9883V98.9088H32.712ZM36.9903 91.6865V90.6278H39.3688V86.9199H40.6644V96.047H39.3688V91.6865H36.9903ZM52.8514 86.9102V99.1602H51.609V92.8709H50.1442V98.5559H48.9163V87.1471H50.1442V91.7831H51.609V86.9102H52.8514ZM42.1048 95.6989C43.8983 94.6982 44.7347 92.5856 44.7347 90.1492V89.366H42.4384V88.3073H48.1283V89.366H45.9916V90.1492C45.9916 92.3536 46.8182 94.3501 48.6021 95.2686L47.8383 96.2645C46.6297 95.6119 45.8272 94.471 45.3921 93.0546C44.9715 94.6644 44.1594 95.9503 42.9122 96.6899L42.1048 95.6989ZM64.0425 88.0898V89.395C64.0329 90.942 64.0329 92.5518 63.5978 94.8964L62.3215 94.761C62.747 92.5421 62.747 90.9033 62.747 89.395V89.1436H55.2394V88.0898H64.0425ZM54.0936 97.5069V96.4337H56.7283V92.4599H58.0239V96.4337H59.7884V92.4599H61.0646V96.4337H65.2608V97.5069H54.0936ZM77.0804 92.7548V93.8039H74.1943V95.2203H75.7074V99.1602H74.4022V96.25H67.1508V95.2203H68.7655V93.8039H65.9132V92.7548H77.0804ZM67.1073 89.5449C67.1073 88.0704 68.809 87.1761 71.4871 87.1858C74.1605 87.1761 75.8573 88.0704 75.8573 89.5449C75.8573 91.029 74.1605 91.9233 71.4871 91.9137C68.809 91.9233 67.1073 91.029 67.1073 89.5449ZM68.4561 89.5449C68.4464 90.4054 69.6018 90.9033 71.4871 90.9081C73.3628 90.9033 74.5279 90.4054 74.5279 89.5449C74.5279 88.7037 73.3628 88.2058 71.4871 88.2106C69.6018 88.2058 68.4464 88.7037 68.4561 89.5449ZM70.0659 95.2203H72.9181V93.8039H70.0659V95.2203ZM81.7211 87.7804C83.6597 87.7804 85.0471 88.9793 85.0568 90.7003C85.0471 92.4261 83.6597 93.6202 81.7211 93.6202C79.7923 93.6202 78.3758 92.4261 78.3855 90.7003C78.3758 88.9793 79.7923 87.7804 81.7211 87.7804ZM77.7957 95.4669C80.0291 95.4717 83.1182 95.4475 85.7964 95.0608L85.8979 96.0083C83.1231 96.5352 80.1452 96.5497 77.9552 96.5497L77.7957 95.4669ZM79.6666 90.7003C79.6569 91.7831 80.5319 92.4938 81.7211 92.4938C82.9103 92.4938 83.7853 91.7831 83.7902 90.7003C83.7853 89.6222 82.9103 88.9068 81.7211 88.9068C80.5319 88.9068 79.6569 89.6222 79.6666 90.7003ZM86.565 99.1844V86.9102H87.8606V99.1844H86.565ZM94.745 88.0994V98H93.2415V88.0994H94.745ZM95.987 89.395V88.0994H103.659V89.395H100.579V98H99.076V89.395H95.987ZM107.488 87.6354L104.298 99.489H102.997L106.188 87.6354H107.488ZM118.027 86.9102V99.1602H116.722V86.9102H118.027ZM107.963 95.8778C111.221 94.3308 112.806 92.1215 113.063 89.2645H108.557V88.23H114.387C114.378 91.8122 112.855 94.9206 108.649 96.9268L107.963 95.8778ZM125.917 87.3743C125.917 88.7859 127.855 89.9655 130.239 90.241L129.794 91.2224C127.783 90.9758 126.028 90.1298 125.24 88.8778C124.447 90.1298 122.692 90.9758 120.706 91.2224L120.256 90.241C122.644 89.9655 124.583 88.7859 124.583 87.3743V86.9731H125.917V87.3743ZM119.666 92.9675V91.933H130.833V92.9675H125.883V94.0552H129.417V96.9606H122.291V98.0387H129.77V99.0442H121.02V96.018H128.141V95.0608H120.996V94.0552H124.583V92.9675H119.666ZM144.573 88.0898V89.395C144.563 90.942 144.563 92.5518 144.128 94.8964L142.852 94.761C143.277 92.5421 143.277 90.9033 143.277 89.395V89.1436H135.769V88.0898H144.573ZM134.624 97.5069V96.4337H137.258V92.4599H138.554V96.4337H140.318V92.4599H141.595V96.4337H145.791V97.5069H134.624ZM157.61 92.7548V93.8039H154.724V95.2203H156.238V99.1602H154.932V96.25H147.681V95.2203H149.296V93.8039H146.443V92.7548H157.61ZM147.637 89.5449C147.637 88.0704 149.339 87.1761 152.017 87.1858C154.691 87.1761 156.387 88.0704 156.387 89.5449C156.387 91.029 154.691 91.9233 152.017 91.9137C149.339 91.9233 147.637 91.029 147.637 89.5449ZM148.986 89.5449C148.976 90.4054 150.132 90.9033 152.017 90.9081C153.893 90.9033 155.058 90.4054 155.058 89.5449C155.058 88.7037 153.893 88.2058 152.017 88.2106C150.132 88.2058 148.976 88.7037 148.986 89.5449ZM150.596 95.2203H153.448V93.8039H150.596V95.2203ZM171.582 86.9102V99.1602H170.277V86.9102H171.582ZM161.517 95.8778C164.775 94.3308 166.361 92.1215 166.617 89.2645H162.112V88.23H167.942C167.932 91.8122 166.409 94.9206 162.203 96.9268L161.517 95.8778ZM180.037 87.8384V88.5297C180.027 89.3467 180.027 90.5649 179.727 92.1409L178.442 92.0297C178.707 90.6664 178.751 89.6802 178.761 88.9116H173.859V87.8384H180.037ZM173.119 93.1996C173.873 93.1948 174.729 93.1899 175.628 93.1706V90.5939H176.914V93.1271C178.229 93.0739 179.578 92.9772 180.81 92.8032L180.888 93.7507C178.33 94.2003 175.406 94.2486 173.24 94.2535L173.119 93.1996ZM174.98 98.9088V95.2831H176.276V97.8453H183.3V98.9088H174.98ZM181.589 96.1146V86.9102H182.908V90.8115H184.596V91.9088H182.908V96.1146H181.589ZM195.483 88.1526V89.1872H188.193V88.1526H191.2V86.8522H192.49V88.1526H195.483ZM188.86 91.9765C188.855 90.6326 190.068 89.7576 191.842 89.7479C193.607 89.7576 194.806 90.6326 194.811 91.9765C194.806 93.3156 193.607 94.1954 191.842 94.1954C190.068 94.1954 188.855 93.3156 188.86 91.9765ZM189.706 96.25V95.1961H197.803V99.1602H196.503V96.25H189.706ZM190.112 91.9765C190.102 92.7307 190.798 93.1851 191.842 93.1851C192.877 93.1851 193.573 92.7307 193.583 91.9765C193.573 91.2175 192.877 90.7486 191.842 90.739C190.798 90.7486 190.102 91.2175 190.112 91.9765ZM196.503 94.5725V86.9102H197.803V90.2362H199.577V91.3094H197.803V94.5725H196.503ZM202.661 94.2583V95.5587H208.419V94.2583H209.719V99.0055H201.38V94.2583H202.661ZM199.998 93.48V92.4164H211.165V93.48H199.998ZM200.597 90.6374C202.971 90.3232 204.914 89.0228 204.914 87.5628V87.0407H206.248V87.5628C206.248 88.9793 208.201 90.3425 210.551 90.6374L210.082 91.6575C208.1 91.3771 206.369 90.4392 205.586 89.134C204.793 90.4441 203.053 91.3771 201.081 91.6575L200.597 90.6374ZM202.661 97.9662H208.419V96.5642H202.661V97.9662ZM221.772 87.8384V88.5297C221.762 89.3467 221.762 90.5649 221.462 92.1409L220.176 92.0297C220.442 90.6664 220.486 89.6802 220.495 88.9116H215.593V87.8384H221.772ZM214.854 93.1996C215.608 93.1948 216.464 93.1899 217.363 93.1706V90.5939H218.649V93.1271C219.964 93.0739 221.312 92.9772 222.545 92.8032L222.622 93.7507C220.065 94.2003 217.14 94.2486 214.975 94.2535L214.854 93.1996ZM216.715 98.9088V95.2831H218.011V97.8453H225.035V98.9088H216.715ZM223.323 96.1146V86.9102H224.643V90.8115H226.33V91.9088H224.643V96.1146H223.323ZM236.936 86.9102V99.1844H235.651V86.9102H236.936ZM227.452 89.076V88.0124H233.19V92.4938H228.8V95.172C230.782 95.1623 232.518 95.0704 234.568 94.732L234.689 95.8052C232.518 96.163 230.671 96.2452 228.515 96.2452H227.466V91.4496H231.875V89.076H227.452ZM246.228 90.0283C246.219 92.2666 247.567 94.5193 249.467 95.3557L248.684 96.3902C247.277 95.7182 246.165 94.3405 245.59 92.663C245.025 94.4565 243.898 95.9406 242.433 96.6512L241.631 95.5684C243.56 94.7079 244.913 92.3681 244.923 90.0283V87.9302H246.228V90.0283ZM250.574 99.1844V86.9102H251.88V99.1844H250.574ZM259.774 88.6506C259.774 90.6423 261.896 92.5325 264.245 92.953L263.656 94.0359C261.693 93.6105 259.895 92.3294 259.097 90.6084C258.29 92.3198 256.496 93.6057 254.533 94.0359L253.953 92.953C256.283 92.518 258.396 90.6423 258.406 88.6506V87.7272H259.774V88.6506ZM253.552 97.5504V96.4724H264.763V97.5504H253.552ZM270.583 87.6837V88.7521H267.16V90.0815H270.1V91.0967H267.16V92.5615C268.775 92.5518 269.839 92.489 271.091 92.2569L271.226 93.2818C269.81 93.5477 268.644 93.6008 266.706 93.6008H265.913V87.6837H270.583ZM267.629 99.0055V94.8094H275.809V99.0055H267.629ZM268.915 97.9517H274.537V95.8439H268.915V97.9517ZM270.656 91.0048V89.9461H272.173V87.1181H273.411V94.1664H272.173V91.0048H270.656ZM274.581 94.2631V86.9102H275.809V94.2631H274.581ZM40.0794 104.91V107.994H41.8536V109.063H40.0794V112.181H38.779V104.91H40.0794ZM30.4399 111.233C33.3066 110.421 35.0711 108.826 35.308 106.844H30.9862V105.785H36.7099C36.7148 108.952 34.5587 111.243 30.9669 112.282L30.4399 111.233ZM32.1029 114.729C32.0932 113.24 33.7079 112.316 36.1637 112.316C38.634 112.316 40.2148 113.24 40.2148 114.729C40.2148 116.237 38.634 117.146 36.1637 117.146C33.7079 117.146 32.0932 116.237 32.1029 114.729ZM33.3888 114.729C33.3791 115.589 34.4523 116.121 36.1637 116.116C37.8653 116.121 38.9434 115.589 38.9434 114.729C38.9434 113.863 37.8653 113.341 36.1637 113.351C34.4523 113.341 33.3791 113.863 33.3888 114.729ZM46.6635 107.086C46.6587 108.575 47.7899 109.928 49.6414 110.479L49.0226 111.499C47.6062 111.074 46.562 110.175 46.0206 109.015C45.4791 110.276 44.3914 111.248 42.9412 111.712L42.2837 110.692C44.1787 110.112 45.3438 108.691 45.3534 107.086V107.071H42.6753V105.998H49.3272V107.071H46.6635V107.086ZM42.1193 113.597C43.0814 113.597 44.2029 113.597 45.368 113.568V111.2H46.6635V113.525C47.7271 113.472 48.7954 113.39 49.7913 113.249L49.8831 114.197C47.263 114.671 44.4156 114.666 42.3079 114.671L42.1193 113.597ZM50.5309 117.16V104.91H51.8265V109.914H53.7119V111.011H51.8265V117.16H50.5309ZM64.0479 105.838V106.53C64.0382 107.347 64.0382 108.565 63.7385 110.141L62.4526 110.03C62.7185 108.666 62.762 107.68 62.7717 106.912H57.8697V105.838H64.0479ZM57.1301 111.2C57.8842 111.195 58.7399 111.19 59.6391 111.171V108.594H60.925V111.127C62.2399 111.074 63.5887 110.977 64.8214 110.803L64.8987 111.751C62.3414 112.2 59.4167 112.249 57.2509 112.253L57.1301 111.2ZM58.9913 116.909V113.283H60.2869V115.845H67.311V116.909H58.9913ZM65.5997 114.115V104.91H66.9195V108.811H68.6066V109.909H66.9195V114.115H65.5997ZM79.2128 104.91V117.184H77.9269V104.91H79.2128ZM69.728 107.076V106.012H75.4663V110.494H71.0768V113.172C73.0588 113.162 74.7943 113.07 76.844 112.732L76.9649 113.805C74.7943 114.163 72.9476 114.245 70.7915 114.245H69.7425V109.45H74.1514V107.076H69.728ZM84.5497 105.684C86.4302 105.693 87.8322 106.883 87.8418 108.604C87.8322 110.122 86.7444 111.224 85.2023 111.465V113.404C86.2852 113.356 87.3729 113.273 88.3881 113.138L88.4799 114.11C85.8936 114.564 83.0462 114.584 80.9143 114.559L80.7161 113.491C81.6685 113.486 82.7659 113.481 83.9067 113.452V111.465C82.3211 111.233 81.2382 110.131 81.2479 108.604C81.2382 106.883 82.6208 105.693 84.5497 105.684ZM82.5145 108.604C82.5048 109.691 83.3701 110.416 84.5497 110.407C85.7051 110.416 86.5607 109.691 86.5704 108.604C86.5607 107.511 85.7051 106.8 84.5497 106.791C83.3701 106.8 82.5048 107.511 82.5145 108.604ZM89.1277 117.16V104.91H90.4233V109.885H92.3087V110.982H90.4233V117.16H89.1277ZM102.094 105.988C102.094 107.617 104.08 109.145 106.493 109.469L105.976 110.528C103.974 110.209 102.219 109.164 101.422 107.724C100.624 109.174 98.8692 110.209 96.8774 110.528L96.3553 109.469C98.758 109.145 100.74 107.637 100.74 105.988V105.321H102.094V105.988ZM95.8284 112.805V111.731H106.996V112.805H102.021V117.16H100.745V112.805H95.8284ZM117.273 104.91V107.994H119.047V109.063H117.273V112.181H115.973V104.91H117.273ZM107.634 111.233C110.5 110.421 112.265 108.826 112.502 106.844H108.18V105.785H113.904C113.908 108.952 111.752 111.243 108.16 112.282L107.634 111.233ZM109.296 114.729C109.287 113.24 110.901 112.316 113.357 112.316C115.828 112.316 117.408 113.24 117.408 114.729C117.408 116.237 115.828 117.146 113.357 117.146C110.901 117.146 109.287 116.237 109.296 114.729ZM110.582 114.729C110.573 115.589 111.646 116.121 113.357 116.116C115.059 116.121 116.137 115.589 116.137 114.729C116.137 113.863 115.059 113.341 113.357 113.351C111.646 113.341 110.573 113.863 110.582 114.729ZM123.209 107.265C123.209 108.604 124.065 109.957 125.66 110.552L124.969 111.552C123.833 111.117 123.035 110.281 122.595 109.276C122.146 110.412 121.309 111.403 120.12 111.91L119.414 110.905C121.068 110.18 121.952 108.628 121.952 107.265V105.674H123.209V107.265ZM121.658 114.922C121.648 113.52 123.248 112.698 125.815 112.698C128.363 112.698 129.972 113.52 129.972 114.922C129.972 116.314 128.363 117.141 125.815 117.141C123.248 117.141 121.648 116.314 121.658 114.922ZM122.948 114.922C122.939 115.7 124.026 116.15 125.815 116.14C127.584 116.15 128.672 115.7 128.677 114.922C128.672 114.139 127.584 113.684 125.815 113.684C124.026 113.684 122.939 114.139 122.948 114.922ZM126.037 112.07V105.147H127.246V108.11H128.677V104.92H129.905V112.461H128.677V109.179H127.246V112.07H126.037ZM141.241 105.838V106.53C141.232 107.347 141.232 108.565 140.932 110.141L139.646 110.03C139.912 108.666 139.956 107.68 139.965 106.912H135.063V105.838H141.241ZM134.324 111.2C135.078 111.195 135.933 111.19 136.833 111.171V108.594H138.119V111.127C139.433 111.074 140.782 110.977 142.015 110.803L142.092 111.751C139.535 112.2 136.61 112.249 134.445 112.253L134.324 111.2ZM136.185 116.909V113.283H137.48V115.845H144.505V116.909H136.185ZM142.793 114.115V104.91H144.113V108.811H145.8V109.909H144.113V114.115H142.793ZM156.406 104.91V117.184H155.121V104.91H156.406ZM146.922 107.076V106.012H152.66V110.494H148.27V113.172C150.252 113.162 151.988 113.07 154.038 112.732L154.158 113.805C151.988 114.163 150.141 114.245 147.985 114.245H146.936V109.45H151.345V107.076H146.922ZM172.384 110.663V111.736H161.202V110.663H172.384ZM162.522 114.917C162.522 113.496 164.117 112.693 166.771 112.693C169.411 112.693 170.997 113.496 171.006 114.917C170.997 116.343 169.411 117.141 166.771 117.141C164.117 117.141 162.522 116.343 162.522 114.917ZM162.595 109.599V105.35H171.006V106.409H163.881V108.55H171.079V109.599H162.595ZM163.842 114.917C163.832 115.705 164.901 116.131 166.771 116.131C168.623 116.131 169.701 115.705 169.711 114.917C169.701 114.139 168.623 113.704 166.771 113.694C164.901 113.704 163.832 114.139 163.842 114.917ZM186.109 106.09V107.395C186.099 108.942 186.099 110.552 185.664 112.896L184.388 112.761C184.813 110.542 184.813 108.903 184.813 107.395V107.144H177.306V106.09H186.109ZM176.16 115.507V114.434H178.795V110.46H180.09V114.434H181.855V110.46H183.131V114.434H187.327V115.507H176.16ZM199.147 110.755V111.804H196.261V113.22H197.774V117.16H196.469V114.25H189.217V113.22H190.832V111.804H187.98V110.755H199.147ZM189.174 107.545C189.174 106.07 190.875 105.176 193.553 105.186C196.227 105.176 197.924 106.07 197.924 107.545C197.924 109.029 196.227 109.923 193.553 109.914C190.875 109.923 189.174 109.029 189.174 107.545ZM190.522 107.545C190.513 108.405 191.668 108.903 193.553 108.908C195.429 108.903 196.594 108.405 196.594 107.545C196.594 106.704 195.429 106.206 193.553 106.211C191.668 106.206 190.513 106.704 190.522 107.545ZM192.132 113.22H194.984V111.804H192.132V113.22ZM213.147 104.92V113.892H211.852V109.295H209.502V108.236H211.852V104.92H213.147ZM202.942 111.335C204.827 110.702 206.002 109.087 206.002 107.4V106.916H203.343V105.858H209.956V106.916H207.317V107.4C207.317 108.927 208.424 110.46 210.271 111.079L209.608 112.113C208.226 111.635 207.215 110.648 206.684 109.44C206.142 110.789 205.074 111.872 203.614 112.394L202.942 111.335ZM205.195 116.909V113.095H206.49V115.845H213.471V116.909H205.195ZM224.382 104.92V108.536H226.156V109.624H224.382V113.926H223.081V104.92H224.382ZM215.226 111.896V105.795H216.507V107.762H219.717V105.795H221.003V111.896H215.226ZM216.507 110.861H219.717V108.778H216.507V110.861ZM216.618 116.909V113.032H217.909V115.845H224.904V116.909H216.618ZM230.241 108.666C230.241 110.6 231.13 112.563 232.822 113.472L232.092 114.434C230.908 113.8 230.086 112.631 229.641 111.243C229.201 112.727 228.38 114.008 227.195 114.714L226.431 113.738C228.133 112.742 229.008 110.648 229.018 108.666V108.173H226.808V107.115H229.018V105.35H230.241V107.115H232.416V108.173H230.241V108.666ZM231.609 110.76V109.682H233.373V105.171H234.596V116.541H233.373V110.76H231.609ZM235.848 117.16V104.91H237.081V117.16H235.848ZM251.744 104.91V111.146H250.448V108.811H247.901V107.753H250.448V104.91H251.744ZM241.713 110.383C244.565 109.711 246.175 108.328 246.397 106.52H242.365V105.461H247.789C247.789 108.555 245.716 110.552 242.158 111.432L241.713 110.383ZM243.734 112.698V111.659H251.744V114.767H245.048V115.995H252.111V117.044H243.758V113.791H250.443V112.698H243.734ZM263.515 104.92V113.941H262.215V104.92H263.515ZM253.557 111.504C255.452 110.905 256.607 109.401 256.607 107.762V107.526H253.89V106.491H256.607V104.973H257.917V106.491H260.615V107.526H257.903V107.762C257.898 109.305 259.082 110.716 260.977 111.277L260.349 112.307C258.908 111.867 257.84 110.943 257.279 109.754C256.733 111.04 255.655 112.046 254.195 112.519L253.557 111.504ZM255.5 116.909V113.114H256.805V115.845H263.873V116.909H255.5ZM279.478 111.349V112.384H268.287V111.349H273.228V110.286H269.747V105.244H278.115V106.273H271.052V107.265H277.801V108.231H271.052V109.276H278.197V110.286H274.528V111.349H279.478ZM269.631 115.164C269.631 113.883 271.163 113.177 273.88 113.186C276.573 113.177 278.105 113.883 278.115 115.164C278.105 116.459 276.573 117.141 273.88 117.141C271.163 117.141 269.631 116.459 269.631 115.164ZM270.936 115.164C270.926 115.831 271.951 116.164 273.88 116.155C275.795 116.164 276.81 115.831 276.819 115.164C276.81 114.506 275.795 114.158 273.88 114.158C271.951 114.158 270.926 114.506 270.936 115.164ZM289.756 104.91V107.985H291.53V109.077H289.756V112.046H288.455V104.91H289.756ZM280.145 107.158V106.114H283.152V104.804H284.443V106.114H287.435V107.158H280.145ZM280.812 109.807C280.808 108.502 282.006 107.656 283.795 107.656C285.56 107.656 286.759 108.502 286.763 109.807C286.759 111.113 285.56 111.963 283.795 111.959C282.006 111.963 280.808 111.113 280.812 109.807ZM281.915 117.006V112.558H283.201V113.747H288.455V112.558H289.756V117.006H281.915ZM282.064 109.807C282.055 110.537 282.751 110.992 283.795 110.992C284.83 110.992 285.526 110.537 285.535 109.807C285.526 109.092 284.83 108.623 283.795 108.628C282.751 108.623 282.055 109.092 282.064 109.807ZM283.201 115.966H288.455V114.758H283.201V115.966ZM306.28 111.05V112.104H301.426V114.482H300.116V112.104H295.069V111.05H306.28ZM296.307 107.69C296.297 106.157 298.032 105.205 300.662 105.195C303.297 105.205 305.018 106.157 305.018 107.69C305.018 109.213 303.297 110.16 300.662 110.16C298.032 110.16 296.297 109.213 296.307 107.69ZM296.481 116.909V113.302H297.781V115.831H305.037V116.909H296.481ZM297.694 107.69C297.684 108.575 298.874 109.106 300.662 109.111C302.461 109.106 303.64 108.575 303.64 107.69C303.64 106.781 302.461 106.24 300.662 106.244C298.874 106.24 297.684 106.781 297.694 107.69ZM310.292 105.626C311.307 105.621 312.177 105.998 312.753 106.631H315.822V104.91H317.118V112.142H315.822V110.489H312.748C312.172 111.117 311.302 111.494 310.292 111.49C308.45 111.494 307.077 110.276 307.087 108.56C307.077 106.834 308.45 105.616 310.292 105.626ZM308.32 108.56C308.32 109.633 309.141 110.392 310.292 110.383C311.413 110.392 312.24 109.633 312.24 108.56C312.24 107.463 311.413 106.733 310.292 106.742C309.141 106.733 308.32 107.463 308.32 108.56ZM308.875 114.777C308.866 113.283 310.451 112.413 313.014 112.413C315.566 112.413 317.152 113.283 317.157 114.777C317.152 116.271 315.566 117.141 313.014 117.141C310.451 117.141 308.866 116.271 308.875 114.777ZM310.147 114.777C310.137 115.628 311.22 116.116 313.014 116.116C314.817 116.116 315.89 115.628 315.89 114.777C315.89 113.912 314.817 113.419 313.014 113.419C311.22 113.419 310.137 113.912 310.147 114.777ZM313.352 107.68C313.434 107.956 313.483 108.251 313.483 108.56C313.483 108.869 313.434 109.16 313.352 109.43H315.822V107.68H313.352ZM326.284 108.028C326.279 110.271 327.536 112.505 329.407 113.346L328.624 114.39C327.227 113.689 326.173 112.307 325.636 110.629C325.095 112.394 324.026 113.883 322.62 114.613L321.798 113.568C323.693 112.66 324.959 110.296 324.969 108.028V105.93H326.284V108.028ZM328.063 110.035V108.981H330.794V104.91H332.08V117.184H330.794V110.035H328.063ZM343.832 104.91V117.184H342.527V104.91H343.832ZM334.362 114.255V105.93H335.658V109.077H338.964V105.93H340.245V114.255H334.362ZM335.658 113.182H338.964V110.107H335.658V113.182ZM351.726 106.651C351.726 108.642 353.849 110.532 356.198 110.953L355.608 112.036C353.646 111.61 351.847 110.329 351.05 108.608C350.242 110.32 348.449 111.606 346.486 112.036L345.906 110.953C348.236 110.518 350.349 108.642 350.358 106.651V105.727H351.726V106.651ZM345.505 115.55V114.472H356.715V115.55H345.505Z" fill="white"/>
<path d="M9 95L12 98L22 88" stroke="white" stroke-width="2" stroke-linecap="round" stroke-linejoin="round"/>
<path d="M21 96V103C21 103.53 20.7893 104.039 20.4142 104.414C20.0391 104.789 19.5304 105 19 105H5C4.46957 105 3.96086 104.789 3.58579 104.414C3.21071 104.039 3 103.53 3 103V89C3 88.4696 3.21071 87.9609 3.58579 87.5858C3.96086 87.2107 4.46957 87 5 87H16" stroke="white" stroke-width="2" stroke-linecap="round" stroke-linejoin="round"/>
<rect y="26" width="358" height="42" rx="21" fill="white"/>
<path d="M85.4492 53V40.2734H87.7344V51.0664H93.3594V53H85.4492ZM95.1875 40.2734H98L101.779 49.5195H101.938L105.717 40.2734H108.529V53H106.332V44.2461H106.209L102.676 52.9648H101.041L97.5078 44.2109H97.4023V53H95.1875V40.2734ZM117.811 43.7715C117.696 42.6729 116.773 42.04 115.402 42.0488C113.952 42.04 113.091 42.7432 113.082 43.7012C113.073 44.7734 114.207 45.2129 115.262 45.459L116.457 45.7754C118.355 46.2148 120.184 47.2168 120.184 49.4316C120.184 51.6641 118.417 53.1934 115.367 53.1934C112.405 53.1934 110.524 51.7695 110.428 49.2559H112.678C112.783 50.583 113.899 51.2334 115.35 51.2422C116.853 51.2334 117.89 50.5039 117.898 49.4141C117.89 48.4121 116.976 47.9902 115.596 47.6387L114.154 47.2695C112.062 46.7246 110.762 45.6699 110.762 43.8418C110.762 41.5918 112.757 40.0977 115.438 40.0977C118.136 40.0977 119.973 41.6182 120.008 43.7715H117.811ZM139.414 38.6738V48.4648H137.533V38.6738H139.414ZM125.598 44.6504C127.725 44.6592 131.231 44.6152 133.824 44.2109L133.947 45.5293C132.972 45.7402 131.908 45.8809 130.836 45.9688V48.3945H128.955V46.083C127.777 46.127 126.67 46.1357 125.791 46.127L125.598 44.6504ZM126.318 41.5918C126.318 40.1328 127.725 39.2363 129.816 39.2363C131.882 39.2363 133.297 40.1328 133.297 41.5918C133.297 43.0332 131.882 43.9648 129.816 43.9648C127.725 43.9648 126.318 43.0332 126.318 41.5918ZM128.094 41.5918C128.103 42.251 128.744 42.585 129.816 42.5938C130.862 42.585 131.548 42.251 131.557 41.5918C131.548 40.9414 130.862 40.5898 129.816 40.5898C128.744 40.5898 128.103 40.9414 128.094 41.5918ZM128.27 54.3711V48.9922H130.203V50.2051H137.463V48.9922H139.414V54.3711H128.27ZM130.203 52.8418H137.463V51.6992H130.203V52.8418ZM132.031 47.7793V46.4434H134.562V38.9551H136.408V48.4473H134.562V47.7793H132.031ZM149.117 39.8867C151.227 39.8779 152.598 42.0488 152.615 45.5469C152.598 49.0537 151.227 51.2334 149.117 51.2246C147.043 51.2334 145.689 49.0537 145.689 45.5469C145.689 42.0488 147.043 39.8779 149.117 39.8867ZM147.5 45.5469C147.491 48.0342 148.106 49.3701 149.117 49.3613C150.172 49.3701 150.796 48.0342 150.805 45.5469C150.796 43.0684 150.172 41.7236 149.117 41.7324C148.106 41.7236 147.491 43.0684 147.5 45.5469ZM153.828 53.791V38.9551H155.674V44.8086H157.361V38.6738H159.242V54.5645H157.361V46.4258H155.674V53.791H153.828ZM174.236 39.1309V40.6074H172.057V43.0156H174.148V44.4922H162.477V43.0156H164.568V40.6074H162.389V39.1309H174.236ZM161.088 47.041V45.4941H175.572V47.041H161.088ZM162.793 49.5371V48.1133H173.762V51.8926H164.727V52.9648H174.201V54.4238H162.811V50.5391H171.846V49.5371H162.793ZM166.52 43.0156H170.088V40.6074H166.52V43.0156ZM189.881 38.6738V54.582H187.947V38.6738H189.881ZM177.506 41.6445V40.0625H184.994V46.0215H179.527V49.2207C182.032 49.2031 184.186 49.0713 186.664 48.6582L186.84 50.2578C184.142 50.7236 181.769 50.8291 178.912 50.8203H177.523V44.4746H183.008V41.6445H177.506ZM199.25 40.502C199.241 41.9961 199.101 43.4287 198.731 44.7734H200.691V39.0605H202.537V53.8086H200.691V46.3555H198.151C197.281 48.2715 195.778 49.959 193.309 51.3477L192.201 50.0117C194.354 48.7812 195.682 47.3486 196.455 45.7051L192.482 46.1094L192.254 44.4219L197.009 44.1582C197.176 43.499 197.281 42.8047 197.334 42.084H193.027V40.502H199.25ZM204.049 54.5645V38.6738H205.912V54.5645H204.049ZM220.977 38.6738V54.582H219.008V38.6738H220.977ZM208.268 45.4414C208.259 42.0137 210.008 39.834 212.416 39.834C214.798 39.834 216.556 42.0137 216.564 45.4414C216.556 48.8955 214.798 51.0664 212.416 51.0664C210.008 51.0664 208.259 48.8955 208.268 45.4414ZM210.148 45.4414C210.148 47.8848 211.071 49.2998 212.416 49.3086C213.752 49.2998 214.666 47.8848 214.666 45.4414C214.666 43.0156 213.752 41.5918 212.416 41.5918C211.071 41.5918 210.148 43.0156 210.148 45.4414ZM229.098 41.4863C229.089 43.7275 230.346 45.9072 232.789 46.8301L231.699 48.3418C230.003 47.6738 228.79 46.3467 228.131 44.7031C227.445 46.4697 226.162 47.8672 224.334 48.5703L223.279 47.0234C225.811 46.1094 227.12 43.8682 227.129 41.4863V39.5879H229.098V41.4863ZM226.145 54.248V49.3262H228.131V52.666H236.973V54.248H226.145ZM231.77 45.5645V44H234.67V42.4355H231.77V40.8535H234.67V38.6914H236.621V50.4863H234.67V45.5645H231.77ZM256.783 38.6738V54.5645H254.902V46.4082H253.197V53.8262H251.369V39.0957H253.197V44.8262H254.902V38.6738H256.783ZM243.02 49.8887C246.403 47.9375 247.836 45.4238 248.117 42.2422H243.758V40.6777H250.016C250.016 44.9756 248.662 48.667 244.145 51.2422L243.02 49.8887ZM261.178 39.377V41.3984H264.887V39.377H266.82V46.3027H259.244V39.377H261.178ZM260.844 48.9746V47.4453H271.232V51.6113H262.795V52.877H271.725V54.4238H260.861V50.1875H269.281V48.9746H260.844ZM261.178 44.7559H264.887V42.875H261.178V44.7559ZM269.281 46.8125V38.6738H271.232V41.8906H273.447V43.4727H271.232V46.8125H269.281Z" fill="#553BF3"/>
</svg>
