<svg width="358" height="300" viewBox="0 0 358 300" fill="none" xmlns="http://www.w3.org/2000/svg">
<path d="M5.54688 42.6094C5.54688 44.2969 6.71875 45.9219 8.95312 46.6094L8.10938 47.9688C6.50781 47.4844 5.35156 46.4609 4.70312 45.1562C4.07812 46.5625 2.91406 47.6719 1.26562 48.2031L0.421875 46.8438C2.64062 46.1406 3.8125 44.4219 3.8125 42.6094V42.3906H0.859375V41.0156H3.8125V39.3594H5.5625V41.0156H8.5V42.3906H5.54688V42.6094ZM12.2969 39.2812V49.7656H10.5625V44.875H8.03125V43.4844H10.5625V39.2812H12.2969ZM12.6562 51.7031V53.1094H3.03125V48.8594H4.76562V51.7031H12.6562ZM26.5469 39.2656V53.3906H24.8906V46.2344H23.4375V52.7031H21.7969V39.5156H23.4375V44.7969H24.8906V39.2656H26.5469ZM18.6875 42.875C18.6875 45.3906 19.5312 47.7031 21.625 48.7812L20.6094 50.1094C19.2656 49.3906 18.3828 48.1484 17.8906 46.6094C17.4062 48.3672 16.5234 49.7812 15.125 50.6094L14.0625 49.2812C16.1562 48.0938 17 45.625 17 42.875V42.2031H14.4844V40.8125H21V42.2031H18.6875V42.875ZM30.7344 40.6875V52H28.7031V40.6875H30.7344ZM32.3438 42.3906V40.6875H41.3594V42.3906H37.875V52H35.8438V42.3906H32.3438ZM53.9531 40.5625V42C53.9531 43.75 53.9531 45.6562 53.4375 48.4219L51.7344 48.25C52.2188 45.6406 52.2188 43.7031 52.2188 42V41.9531H43.6719V40.5625H53.9531ZM55.25 50.1406V51.5625H42.375V50.1406H45.2656V45.6406H47V50.1406H48.7969V45.6406H50.5V50.1406H55.25ZM69.0781 45.9375V47.3281H65.8594V48.7969H67.5V53.3906H65.7656V50.1562H57.625V48.7969H59.375V47.3281H56.2031V45.9375H69.0781ZM62.625 39.5625C65.7188 39.5625 67.7031 40.6094 67.7188 42.3125C67.7031 44.0312 65.7188 45.0781 62.625 45.0781C59.5312 45.0781 57.5312 44.0312 57.5312 42.3125C57.5312 40.6094 59.5312 39.5625 62.625 39.5625ZM62.625 40.9219C60.5625 40.9219 59.3281 41.4219 59.3438 42.3125C59.3281 43.2344 60.5625 43.7344 62.625 43.7344C64.6875 43.7344 65.9219 43.2344 65.9219 42.3125C65.9219 41.4219 64.6875 40.9219 62.625 40.9219ZM61.1094 48.7969H64.1406V47.3281H61.1094V48.7969ZM82.1094 39.2656V49.8438H80.4531V39.2656H82.1094ZM79.2812 39.5156V49.4219H77.625V44.0469H75.7344V42.625H77.625V39.5156H79.2812ZM82.5 51.7031V53.1094H72.6562V48.5781H74.3906V51.7031H82.5ZM74.3906 42.1562C74.3906 43.7969 75.2031 45.4531 77 46.25L76.0312 47.5938C74.8438 47.0469 74.0312 46.0938 73.5625 44.9375C73.0625 46.2344 72.1797 47.3281 70.8906 47.9375L69.9375 46.625C71.8125 45.7188 72.7031 43.8281 72.7031 42.1562V40.2344H74.3906V42.1562ZM95.7031 39.2656V53.4062H93.9844V45.7812H91.3281V44.375H93.9844V39.2656H95.7031ZM91.1094 40.4844V41.9062H86.25V44.4375H90.5469V45.8125H86.25V48.7188C88.3984 48.7109 90.0078 48.6406 91.8281 48.3438L92 49.75C89.9375 50.0625 88.1406 50.1406 85.6094 50.1562H84.5V40.4844H91.1094ZM102.266 40.25C104.5 40.2344 106.141 41.6562 106.156 43.6562C106.141 45.6719 104.5 47.0781 102.266 47.0781C100.047 47.0781 98.3906 45.6719 98.3906 43.6562C98.3906 41.6562 100.047 40.2344 102.266 40.25ZM102.266 41.75C101.031 41.75 100.109 42.4844 100.109 43.6562C100.109 44.8438 101.031 45.5625 102.266 45.5625C103.516 45.5625 104.453 44.8438 104.453 43.6562C104.453 42.4844 103.516 41.75 102.266 41.75ZM109.453 39.2656V53.4062H107.719V39.2656H109.453ZM97.75 49.0312C100.297 49.0312 103.828 49 106.875 48.5625L107.016 49.8281C103.844 50.4375 100.453 50.4531 97.9688 50.4531L97.75 49.0312ZM127.078 39.2812V49.4844H125.328V39.2812H127.078ZM127.469 51.7031V53.1094H117.734V48.4531H119.484V51.7031H127.469ZM119.375 40.2031C121.516 40.2031 123.172 41.6875 123.172 43.7344C123.172 45.8281 121.516 47.2812 119.375 47.2812C117.219 47.2812 115.562 45.8281 115.562 43.7344C115.562 41.6875 117.219 40.2031 119.375 40.2031ZM119.375 41.7188C118.172 41.7188 117.25 42.5156 117.266 43.7344C117.25 44.9844 118.172 45.7656 119.375 45.7656C120.547 45.7656 121.469 44.9844 121.469 43.7344C121.469 42.5156 120.547 41.7188 119.375 41.7188ZM141.219 39.2812V49.8281H139.562V39.2812H141.219ZM138.438 39.5469V49.4844H136.781V44.5625H135.188V43.1719H136.781V39.5469H138.438ZM141.609 51.7031V53.1094H131.844V48.6719H133.594V51.7031H141.609ZM135.109 40.375V41.7812H131.406V43.3594H134.578V44.6875H131.406V46.3125C133.102 46.3047 134.266 46.2578 135.641 46L135.828 47.375C134.203 47.6719 132.859 47.7344 130.672 47.7344H129.734V40.375H135.109ZM148.312 42.6562C148.297 45.25 149.656 47.8438 151.953 48.8281L150.922 50.2188C149.297 49.4688 148.102 47.9688 147.453 46.125C146.805 48.1172 145.594 49.7422 143.875 50.5469L142.812 49.0938C145.172 48.0781 146.547 45.375 146.547 42.6562V40.4062H148.312V42.6562ZM154.719 39.2656V53.4062H152.969V39.2656H154.719ZM169.703 50.1875V51.625H156.797V50.1875H169.703ZM159.953 40.2188V42.6406H166.5V40.2188H168.234V47.6719H158.219V40.2188H159.953ZM159.953 46.3125H166.5V44H159.953V46.3125ZM186.25 39.2656V53.4062H184.516V45.8906H182.094V44.4688H184.516V39.2656H186.25ZM181.281 40.5V45.6719H176.656V48.6406C178.75 48.6328 180.445 48.5625 182.344 48.2188L182.484 49.6406C180.375 50.0156 178.5 50.0938 176.062 50.0938H174.938V44.2656H179.578V41.9062H174.891V40.5H181.281ZM199.969 39.2656V47.5469H198.234V39.2656H199.969ZM190.828 40.1719V45.1562C192.93 45.1328 194.883 44.9766 196.969 44.5469L197.172 45.9531C194.844 46.4531 192.656 46.6094 190.281 46.5938H189.078V40.1719H190.828ZM195.203 47.7031C198.172 47.6875 200.031 48.75 200.031 50.5469C200.031 52.3125 198.172 53.375 195.203 53.375C192.234 53.375 190.359 52.3125 190.375 50.5469C190.359 48.75 192.234 47.6875 195.203 47.7031ZM195.203 49.1094C193.234 49.1094 192.109 49.5938 192.109 50.5469C192.109 51.4688 193.234 51.9844 195.203 51.9844C197.172 51.9844 198.281 51.4688 198.297 50.5469C198.281 49.5938 197.172 49.1094 195.203 49.1094ZM211.219 42.6562C211.203 45.25 212.562 47.8438 214.859 48.8281L213.828 50.2188C212.203 49.4688 211.008 47.9688 210.359 46.125C209.711 48.1172 208.5 49.7422 206.781 50.5469L205.719 49.0938C208.078 48.0781 209.453 45.375 209.453 42.6562V40.4062H211.219V42.6562ZM217.625 39.2656V53.4062H215.875V39.2656H217.625ZM227 41.2031C227 43.3906 229.141 45.5781 232.094 46.0938L231.312 47.5469C228.945 47.0469 227.008 45.6172 226.094 43.7188C225.156 45.6016 223.219 47.0391 220.859 47.5469L220.094 46.0938C223.016 45.5625 225.141 43.375 225.156 41.2031V40.1562H227V41.2031ZM232.609 50.1562V51.5938H219.703V50.1562H232.609ZM239.5 40.1406V41.5469H235.797V42.875H238.969V44.2188H235.797V45.6719C237.492 45.6562 238.656 45.5938 240.031 45.3438L240.219 46.7031C238.594 47 237.25 47.0625 235.062 47.0625H234.125V40.1406H239.5ZM245.609 39.2656V47.7188H243.953V39.2656H245.609ZM242.828 39.5V47.6094H241.172V44.125H239.578V42.7188H241.172V39.5H242.828ZM245.609 48.3125V53.2188H236.078V48.3125H245.609ZM237.812 49.6875V51.8125H243.891V49.6875H237.812ZM1.43945 81V65.4453H7.2832C10.8496 65.4453 12.7617 67.6152 12.7617 70.6016C12.7617 73.5879 10.8281 75.7363 7.24023 75.7363H4.23242V81H1.43945ZM4.23242 73.4375H6.85352C8.95898 73.4375 9.9043 72.2559 9.9043 70.6016C9.9043 68.9258 8.95898 67.7871 6.85352 67.7871H4.23242V73.4375ZM28.8965 73.2227C28.8965 78.25 25.8457 81.2148 21.7637 81.2148C17.6816 81.2148 14.6309 78.2285 14.6309 73.2227C14.6309 68.1953 17.6816 65.2305 21.7637 65.2305C25.8457 65.2305 28.8965 68.1953 28.8965 73.2227ZM26.082 73.2227C26.082 69.6777 24.2988 67.7441 21.7637 67.7441C19.2285 67.7441 17.4453 69.6777 17.4453 73.2227C17.4453 76.7676 19.2285 78.7012 21.7637 78.7012C24.2988 78.7012 26.082 76.7676 26.082 73.2227ZM34.1816 65.4453V81H31.3887V65.4453H34.1816ZM49.8652 65.4453V81H47.373L40.0039 70.3652H39.875V81H37.082V65.4453H39.6172L46.9434 76.0801H47.0938V65.4453H49.8652ZM52.0566 67.7871V65.4453H64.4531V67.7871H59.6621V81H56.8691V67.7871H52.0566ZM77.4512 81.2148C73.7129 81.2148 71.4785 78.3145 71.4785 73.2227C71.4785 68.1523 73.7129 65.2305 77.4512 65.2305C81.168 65.2305 83.4238 68.1523 83.4238 73.2227C83.4238 78.3145 81.1895 81.2148 77.4512 81.2148ZM77.4512 78.873C79.4062 78.873 80.6094 76.9609 80.6094 73.2227C80.6094 69.5059 79.3848 67.5508 77.4512 67.5508C75.5176 67.5508 74.293 69.5059 74.293 73.2227C74.293 76.9609 75.4961 78.873 77.4512 78.873ZM85.7656 81V78.9805L91.2656 73.6738C92.834 72.1055 93.6504 71.1816 93.6504 69.8711C93.6504 68.4316 92.5117 67.5078 90.9863 67.5078C89.375 67.5078 88.3438 68.5176 88.3652 70.0859H85.7012C85.6797 67.1426 87.8926 65.2305 91.0078 65.2305C94.1875 65.2305 96.3359 67.1211 96.3359 69.7422C96.3359 71.5039 95.4766 72.9219 92.4258 75.8008L89.6543 78.5508V78.6582H96.5723V81H85.7656ZM121.344 78.6582V80.6562H103.598V78.6582H111.225V74.834H105.123V72.9434H107.852V67.1426H105.059V65.209H119.797V67.1426H116.961V72.9434H119.732V74.834H113.588V78.6582H121.344ZM110.236 72.9434H114.598V67.1426H110.236V72.9434ZM138.402 73.6738V75.5645H124.781V65.0156H138.23V66.9492H127.209V69.291H137.779V71.1602H127.209V73.6738H138.402ZM140.357 78.5938V80.5488H122.611V78.5938H140.357ZM157.695 63.9844V65.7676H155.031V68.7324H157.588V70.5156H151.637V71.9551H159.328V73.8242H141.625V71.9551H149.252V70.5156H143.322V68.7324H145.879V65.7676H143.215V63.9844H157.695ZM157.115 75.0273V79.582H146.072V80.957H157.652V82.7402H143.73V77.9492H154.773V76.7461H143.709V75.0273H157.115ZM148.264 68.7324H152.625V65.7676H148.264V68.7324ZM176.816 63.4902V82.9336H174.453V63.4902H176.816ZM170.844 65.1875V72.4707H164.162V76.3809C167.224 76.3594 169.866 76.209 172.885 75.6934L173.1 77.6484C169.791 78.2285 166.891 78.3359 163.41 78.3359H161.713V70.5801H168.416V67.1211H161.691V65.1875H170.844ZM188.482 64.5859C192.65 64.5859 195.723 66.6699 195.723 69.8281C195.723 72.7393 193.22 74.6836 189.664 75.0273V78.5938H197.398V80.5488H179.652V78.5938H187.301V75.0273C183.767 74.6836 181.264 72.7393 181.285 69.8281C181.264 66.6699 184.336 64.5859 188.482 64.5859ZM188.482 66.5195C185.646 66.498 183.605 67.7871 183.627 69.8281C183.605 71.9336 185.646 73.1797 188.482 73.1797C191.361 73.1797 193.381 71.9336 193.381 69.8281C193.381 67.7871 191.361 66.498 188.482 66.5195Z" fill="white"/>
<path d="M11.0742 110.857V123.217H9.61133V110.857H11.0742ZM8.53125 111.076V122.615H7.08203V116.736H5.90625C5.7627 119.143 4.73047 120.633 3.19922 120.619C1.58594 120.633 0.533203 118.924 0.533203 116.203C0.533203 113.482 1.58594 111.801 3.19922 111.801C4.69629 111.801 5.71484 113.195 5.89258 115.506H7.08203V111.076H8.53125ZM3.19922 113.236C2.41992 113.223 1.92773 114.275 1.94141 116.203C1.92773 118.131 2.41992 119.184 3.19922 119.17C4.01953 119.184 4.51172 118.131 4.51172 116.203C4.51172 114.275 4.01953 113.223 3.19922 113.236ZM22.4355 115.232V116.49H13.9727V111.473H22.2988V112.703H15.5312V115.232H22.4355ZM23.7891 117.844V119.074H21.0957V123.217H19.5645V119.074H16.7617V123.217H15.2441V119.074H12.4961V117.844H23.7891ZM29.6406 112.279V113.482H26.4688V115.602H29.1211V116.777H26.4688V119.17C27.9385 119.156 28.9502 119.088 30.1602 118.883L30.2969 120.1C28.875 120.373 27.6992 120.4 25.8262 120.4H25.0195V112.279H29.6406ZM35.2734 110.857V123.217H33.7969V110.857H35.2734ZM32.6758 111.104V122.615H31.2539V116.654H29.7227V115.424H31.2539V111.104H32.6758ZM46.7305 112.006V113.482C46.7305 115.273 46.7305 116.982 46.1836 119.594L44.666 119.457C44.9189 118.377 45.0625 117.427 45.1445 116.545L37.8574 116.928L37.6523 115.697L45.2129 115.41C45.2402 114.747 45.2402 114.111 45.2402 113.482V113.236H38.0215V112.006H46.7305ZM47.9746 120.4V121.645H36.709V120.4H47.9746ZM56.6973 113.824C56.6973 116.121 57.791 118.377 59.7598 119.238L58.8438 120.455C57.4424 119.771 56.458 118.459 55.9316 116.846C55.3916 118.548 54.3867 119.963 52.9648 120.688L52.0078 119.457C54.0176 118.514 55.1387 116.135 55.1523 113.824V111.855H56.6973V113.824ZM62.4941 110.857V123.23H60.9902V116.08H58.3926V114.85H60.9902V110.857H62.4941ZM74.5117 110.857V123.23H72.9805V110.857H74.5117ZM66.4043 111.869V114.959H69.3984V111.869H70.9023V120.318H64.8867V111.869H66.4043ZM66.4043 119.074H69.3984V116.148H66.4043V119.074ZM82.7148 112.553C82.7148 114.467 84.5879 116.381 87.1719 116.832L86.4883 118.104C84.417 117.666 82.7217 116.415 81.9219 114.754C81.1016 116.401 79.4062 117.659 77.3418 118.104L76.6719 116.832C79.2285 116.367 81.0879 114.453 81.1016 112.553V111.637H82.7148V112.553ZM87.623 120.387V121.645H76.3301V120.387H87.623ZM98.2871 112.02V120.209H92.4082V112.02H98.2871ZM93.9121 113.209V118.992H96.8105V113.209H93.9121ZM102.033 110.857V123.23H100.502V110.857H102.033ZM114.16 110.857V123.217H112.656V110.857H114.16ZM106.066 112.061V118.814C107.803 118.787 109.648 118.63 111.549 118.254L111.74 119.525C109.566 119.977 107.543 120.113 105.629 120.113H104.562V112.061H106.066ZM130.566 120.455V121.727H119.273V120.455H130.566ZM129.582 112.006V113.223H127.777V117.16H129.541V118.363H120.244V117.16H121.98V113.223H120.203V112.006H129.582ZM123.498 117.16H126.273V113.223H123.498V117.16ZM142.666 120.523V121.781H131.373V120.523H136.24V118.514H132.713V114.467H139.822V112.936H132.686V111.705H141.326V115.67H134.23V117.27H141.613V118.514H137.744V120.523H142.666ZM151.607 111.117V118.309H150.158V115.191H148.613V113.961H150.158V111.117H151.607ZM147.287 113.51C147.287 114.836 148.025 116.176 149.598 116.805L148.832 117.967C147.738 117.543 147 116.75 146.576 115.793C146.125 116.866 145.339 117.748 144.17 118.227L143.377 117.037C145.031 116.381 145.811 114.918 145.811 113.51V113.018H143.732V111.801H149.242V113.018H147.287V113.51ZM154.041 110.857V118.391H152.592V110.857H154.041ZM154.041 118.883V123.217H152.523V120.1H145.578V118.883H154.041ZM165.621 117.338V118.541H156.953V111.828H165.512V113.059H158.498V114.549H165.225V115.738H158.498V117.338H165.621ZM166.865 120.469V121.713H155.572V120.469H166.865ZM182.424 112.58V113.811H180.742V115.232H182.424V116.504H180.742V118.158H179.225V110.857H180.742V112.58H182.424ZM180.742 118.691V123.217H179.225V119.922H172.512V118.691H180.742ZM174.467 111.568C176.367 111.555 177.789 112.799 177.803 114.535C177.789 116.299 176.367 117.529 174.467 117.529C172.553 117.529 171.117 116.299 171.131 114.535C171.117 112.799 172.553 111.555 174.467 111.568ZM174.467 112.854C173.4 112.867 172.607 113.51 172.621 114.535C172.607 115.588 173.4 116.244 174.467 116.23C175.52 116.244 176.312 115.588 176.312 114.535C176.312 113.51 175.52 112.867 174.467 112.854ZM186.648 120.154V118.732L190.928 112.102H193.143V118.691H194.441V120.154H193.143V122H191.447V120.154H186.648ZM188.467 118.691H191.475V114.125H191.365L188.467 118.623V118.691ZM206.062 110.857V123.217H204.6V116.873H203.273V122.643H201.852V111.186H203.273V115.643H204.6V110.857H206.062ZM200.799 112.416C200.799 115.752 199.746 118.623 196.232 120.633L195.357 119.58C197.989 118.056 199.104 116.101 199.322 113.633H195.932V112.416H200.799ZM211.559 111.719C213.514 111.705 214.949 112.949 214.963 114.699C214.949 116.463 213.514 117.693 211.559 117.693C209.617 117.693 208.168 116.463 208.168 114.699C208.168 112.949 209.617 111.705 211.559 111.719ZM211.559 113.031C210.479 113.031 209.672 113.674 209.672 114.699C209.672 115.738 210.479 116.367 211.559 116.367C212.652 116.367 213.473 115.738 213.473 114.699C213.473 113.674 212.652 113.031 211.559 113.031ZM217.848 110.857V123.23H216.33V110.857H217.848ZM207.607 119.402C209.836 119.402 212.926 119.375 215.592 118.992L215.715 120.1C212.939 120.633 209.973 120.646 207.799 120.646L207.607 119.402ZM223.344 111.623C225.244 111.623 226.693 112.854 226.707 114.604C226.693 116.114 225.627 117.229 224.123 117.516V119.334C225.148 119.286 226.181 119.204 227.145 119.074L227.254 120.209C224.67 120.674 221.84 120.688 219.721 120.66L219.502 119.416C220.432 119.416 221.498 119.416 222.605 119.389V117.516C221.054 117.256 219.98 116.135 219.994 114.604C219.98 112.854 221.402 111.623 223.344 111.623ZM223.344 112.908C222.264 112.922 221.471 113.564 221.471 114.604C221.471 115.643 222.264 116.299 223.344 116.285C224.41 116.299 225.203 115.643 225.203 114.604C225.203 113.564 224.41 112.922 223.344 112.908ZM229.373 110.857V115.793H231.164V117.078H229.373V123.217H227.855V110.857H229.373ZM239.941 117.475V119.471C241.015 119.416 242.095 119.32 243.113 119.17L243.236 120.291C240.461 120.797 237.494 120.824 235.32 120.824L235.129 119.594C236.093 119.587 237.228 119.58 238.424 119.539V117.475H239.941ZM242.607 112.375V113.605H239.969C240.037 114.925 241.083 116.114 242.949 116.586L242.252 117.775C240.789 117.379 239.743 116.524 239.189 115.424C238.643 116.586 237.61 117.475 236.141 117.871L235.416 116.723C237.282 116.21 238.308 114.993 238.396 113.605H235.785V112.375H238.424V110.967H239.941V112.375H242.607ZM245.369 110.857V123.23H243.852V110.857H245.369ZM253.545 115.273V116.846H258.439V118.076H247.174V116.846H252.041V115.273H253.545ZM252.793 118.869C255.473 118.869 257.059 119.635 257.072 121.029C257.059 122.424 255.473 123.203 252.793 123.203C250.1 123.203 248.486 122.424 248.486 121.029C248.486 119.635 250.1 118.869 252.793 118.869ZM252.793 120.031C250.975 120.031 250.018 120.373 250.031 121.029C250.018 121.713 250.975 122.055 252.793 122.055C254.57 122.055 255.541 121.713 255.555 121.029C255.541 120.373 254.57 120.031 252.793 120.031ZM257.428 111.404V112.621H253.873C254.119 113.626 255.603 114.528 257.906 114.754L257.359 115.943C255.117 115.718 253.463 114.843 252.793 113.592C252.123 114.843 250.482 115.718 248.24 115.943L247.707 114.754C249.99 114.528 251.474 113.633 251.727 112.621H248.199V111.404H257.428ZM270.566 120.455V121.727H259.273V120.455H270.566ZM269.582 112.006V113.223H267.777V117.16H269.541V118.363H260.244V117.16H261.98V113.223H260.203V112.006H269.582ZM263.498 117.16H266.273V113.223H263.498V117.16ZM282.666 120.523V121.781H271.373V120.523H276.24V118.514H272.713V114.467H279.822V112.936H272.686V111.705H281.326V115.67H274.23V117.27H281.613V118.514H277.744V120.523H282.666ZM291.607 111.117V118.309H290.158V115.191H288.613V113.961H290.158V111.117H291.607ZM287.287 113.51C287.287 114.836 288.025 116.176 289.598 116.805L288.832 117.967C287.738 117.543 287 116.75 286.576 115.793C286.125 116.866 285.339 117.748 284.17 118.227L283.377 117.037C285.031 116.381 285.811 114.918 285.811 113.51V113.018H283.732V111.801H289.242V113.018H287.287V113.51ZM294.041 110.857V118.391H292.592V110.857H294.041ZM294.041 118.883V123.217H292.523V120.1H285.578V118.883H294.041ZM305.621 117.338V118.541H296.953V111.828H305.512V113.059H298.498V114.549H305.225V115.738H298.498V117.338H305.621ZM306.865 120.469V121.713H295.572V120.469H306.865ZM318.965 120.523V121.781H307.672V120.523H312.539V118.514H309.012V114.467H316.121V112.936H308.984V111.705H317.625V115.67H310.529V117.27H317.912V118.514H314.043V120.523H318.965ZM11.6758 135.119V136.35H0.410156V135.119H5.27734V133.807H6.78125V135.119H11.6758ZM6.78125 128.885V130.006H10.5684V131.209H6.9043C7.08887 132.221 8.54492 133.068 11.1152 133.246L10.6504 134.408C8.43555 134.237 6.80176 133.547 6.0293 132.48C5.25684 133.547 3.60938 134.237 1.4082 134.408L0.943359 133.246C3.5 133.068 4.95605 132.221 5.1543 131.209H1.51758V130.006H5.27734V128.885H6.78125ZM6.0293 137.033C8.72266 137.033 10.2949 137.771 10.3086 139.125C10.2949 140.465 8.72266 141.203 6.0293 141.203C3.32227 141.203 1.72266 140.465 1.72266 139.125C1.72266 137.771 3.32227 137.033 6.0293 137.033ZM6.0293 138.168C4.21094 138.168 3.25391 138.482 3.26758 139.125C3.25391 139.754 4.21094 140.068 6.0293 140.068C7.80664 140.068 8.77734 139.754 8.79102 139.125C8.77734 138.482 7.80664 138.168 6.0293 138.168ZM19.7559 140.137C17.7734 140.137 16.3242 138.961 16.2695 137.32H18.0059C18.0605 138.127 18.8125 138.701 19.7559 138.701C20.8633 138.701 21.6562 137.895 21.6562 136.801C21.6562 135.666 20.8359 134.859 19.7012 134.859C18.9355 134.846 18.375 135.119 18.0605 135.707H16.4062L17.0078 130.102H22.8594V131.592H18.4707L18.1699 134.217H18.2656C18.6484 133.779 19.373 133.465 20.1797 133.465C22.0254 133.465 23.3789 134.846 23.3789 136.746C23.3789 138.729 21.8887 140.137 19.7559 140.137ZM35.082 128.857V141.217H33.6191V134.873H32.293V140.643H30.8711V129.186H32.293V133.643H33.6191V128.857H35.082ZM29.8184 130.416C29.8184 133.752 28.7656 136.623 25.252 138.633L24.377 137.58C27.0088 136.056 28.123 134.101 28.3418 131.633H24.9512V130.416H29.8184ZM40.5781 129.719C42.5332 129.705 43.9688 130.949 43.9824 132.699C43.9688 134.463 42.5332 135.693 40.5781 135.693C38.6367 135.693 37.1875 134.463 37.1875 132.699C37.1875 130.949 38.6367 129.705 40.5781 129.719ZM40.5781 131.031C39.498 131.031 38.6914 131.674 38.6914 132.699C38.6914 133.738 39.498 134.367 40.5781 134.367C41.6719 134.367 42.4922 133.738 42.4922 132.699C42.4922 131.674 41.6719 131.031 40.5781 131.031ZM46.8672 128.857V141.23H45.3496V128.857H46.8672ZM36.627 137.402C38.8555 137.402 41.9453 137.375 44.6113 136.992L44.7344 138.1C41.959 138.633 38.9922 138.646 36.8184 138.646L36.627 137.402ZM62.2617 128.857V135.16H60.7578V128.857H62.2617ZM62.2891 135.734V138.947H55.6035V139.904H62.6582V141.107H54.1133V137.812H60.7715V136.91H54.0859V135.734H62.2891ZM56.6016 130.115C56.6016 131.688 57.6406 133.164 59.5957 133.752L58.8574 134.928C57.4219 134.49 56.3965 133.567 55.8359 132.385C55.2754 133.67 54.2227 134.675 52.7461 135.146L51.9805 133.957C53.9766 133.314 55.0293 131.729 55.0293 130.115V129.158H56.6016V130.115ZM75.373 135.857V137.088H70.4512V141.203H68.9473V137.088H64.0801V135.857H75.373ZM73.9922 129.486V134.408H65.4609V129.486H73.9922ZM66.9512 130.703V133.219H72.4746V130.703H66.9512ZM87.4863 138.455V139.727H76.1934V138.455H87.4863ZM86.502 130.006V131.223H84.6973V135.16H86.4609V136.363H77.1641V135.16H78.9004V131.223H77.123V130.006H86.502ZM80.418 135.16H83.1934V131.223H80.418V135.16ZM99.5859 138.523V139.781H88.293V138.523H93.1602V136.514H89.6328V132.467H96.7422V130.936H89.6055V129.705H98.2461V133.67H91.1504V135.27H98.5332V136.514H94.6641V138.523H99.5859ZM108.527 129.117V136.309H107.078V133.191H105.533V131.961H107.078V129.117H108.527ZM104.207 131.51C104.207 132.836 104.945 134.176 106.518 134.805L105.752 135.967C104.658 135.543 103.92 134.75 103.496 133.793C103.045 134.866 102.259 135.748 101.09 136.227L100.297 135.037C101.951 134.381 102.73 132.918 102.73 131.51V131.018H100.652V129.801H106.162V131.018H104.207V131.51ZM110.961 128.857V136.391H109.512V128.857H110.961ZM110.961 136.883V141.217H109.443V138.1H102.498V136.883H110.961ZM122.541 135.338V136.541H113.873V129.828H122.432V131.059H115.418V132.549H122.145V133.738H115.418V135.338H122.541ZM123.785 138.469V139.713H112.492V138.469H123.785ZM135.885 138.523V139.781H124.592V138.523H129.459V136.514H125.932V132.467H133.041V130.936H125.904V129.705H134.545V133.67H127.449V135.27H134.832V136.514H130.963V138.523H135.885ZM150.281 128.857V135.16H148.777V128.857H150.281ZM150.309 135.734V138.947H143.623V139.904H150.678V141.107H142.133V137.812H148.791V136.91H142.105V135.734H150.309ZM144.621 130.115C144.621 131.688 145.66 133.164 147.615 133.752L146.877 134.928C145.441 134.49 144.416 133.567 143.855 132.385C143.295 133.67 142.242 134.675 140.766 135.146L140 133.957C141.996 133.314 143.049 131.729 143.049 130.115V129.158H144.621V130.115ZM162.463 128.871V137.895H160.945V133.369H158.758V132.139H160.945V128.871H162.463ZM162.777 139.74V140.971H154.355V137.102H155.873V139.74H162.777ZM156.652 131.332C156.652 132.822 157.65 134.354 159.564 134.982L158.799 136.199C157.418 135.728 156.44 134.791 155.9 133.615C155.354 134.921 154.321 135.953 152.865 136.459L152.086 135.229C154.055 134.586 155.107 132.959 155.107 131.318V130.99H152.537V129.76H159.209V130.99H156.652V131.332ZM177.584 129.951V131.072C177.57 132.576 177.598 134.299 177.037 136.91L175.547 136.76C175.759 135.769 175.889 134.887 175.971 134.094L168.684 134.504L168.465 133.205L176.053 132.932C176.08 132.289 176.087 131.715 176.094 131.182H168.848V129.951H177.584ZM178.801 138.441V139.699H167.535V138.441H171.691V135.393H173.195V138.441H178.801ZM189.93 128.857V136.322H188.398V128.857H189.93ZM186.238 129.801V131.031H181.863V134.176C184.304 134.183 185.732 134.087 187.332 133.766L187.469 135.01C185.746 135.338 184.201 135.406 181.412 135.406H180.359V129.801H186.238ZM185.746 136.404C188.33 136.391 189.957 137.293 189.957 138.811C189.957 140.328 188.33 141.217 185.746 141.217C183.121 141.217 181.521 140.328 181.521 138.811C181.521 137.293 183.121 136.391 185.746 136.404ZM185.746 137.594C184.01 137.594 183.053 138.004 183.053 138.811C183.053 139.59 184.01 140.014 185.746 140.014C187.469 140.014 188.453 139.59 188.467 138.811C188.453 138.004 187.469 137.594 185.746 137.594ZM204.969 129.568V130.594C204.969 131.633 204.969 132.829 204.695 134.395H206.35V135.639H195.057V134.395H203.15C203.431 132.904 203.451 131.797 203.451 130.799H196.451V129.568H204.969ZM205.324 139.727V140.957H196.52V136.814H198.023V139.727H205.324ZM218.422 134.695V135.912H215.605V137.197H217.041V141.217H215.523V138.387H208.4V137.197H209.932V135.912H207.156V134.695H218.422ZM212.775 129.117C215.482 129.117 217.219 130.033 217.232 131.523C217.219 133.027 215.482 133.943 212.775 133.943C210.068 133.943 208.318 133.027 208.318 131.523C208.318 130.033 210.068 129.117 212.775 129.117ZM212.775 130.307C210.971 130.307 209.891 130.744 209.904 131.523C209.891 132.33 210.971 132.768 212.775 132.768C214.58 132.768 215.66 132.33 215.66 131.523C215.66 130.744 214.58 130.307 212.775 130.307ZM211.449 137.197H214.102V135.912H211.449V137.197ZM224.875 129.049C227.691 129.049 229.318 129.801 229.332 131.168C229.318 132.549 227.691 133.287 224.875 133.301C222.059 133.287 220.418 132.549 220.418 131.168C220.418 129.801 222.059 129.049 224.875 129.049ZM224.875 130.17C222.988 130.17 222.004 130.525 222.018 131.168C222.004 131.852 222.988 132.166 224.875 132.166C226.789 132.166 227.76 131.852 227.76 131.168C227.76 130.525 226.789 130.17 224.875 130.17ZM230.521 133.957V135.174H219.256V133.957H230.521ZM229.113 136.008V139.029H222.086V139.945H229.455V141.107H220.596V137.949H227.623V137.129H220.582V136.008H229.113ZM241.377 130.074C241.363 133.807 240.242 137.061 235.648 139.303L234.842 138.127C236.968 137.088 238.294 135.851 239.053 134.367L235.115 134.723L234.924 133.424L239.531 133.137C239.702 132.562 239.805 131.947 239.859 131.305H235.553V130.074H241.377ZM245 128.857V141.217H243.469V128.857H245ZM252.396 128.98C255.213 128.98 256.84 129.732 256.854 131.1C256.84 132.48 255.213 133.219 252.396 133.232C249.58 133.219 247.939 132.48 247.939 131.1C247.939 129.732 249.58 128.98 252.396 128.98ZM252.396 130.115C250.51 130.115 249.525 130.457 249.539 131.1C249.525 131.783 250.51 132.098 252.396 132.111C254.311 132.098 255.281 131.783 255.281 131.1C255.281 130.457 254.311 130.115 252.396 130.115ZM258.043 133.875V135.064H253.148V136.008H256.635V139.029H249.607V139.945H256.977V141.107H248.117V137.949H255.145V137.129H248.104V136.008H251.631V135.064H246.777V133.875H258.043ZM268.639 129.883C268.639 131.441 270.375 133.014 273.014 133.355L272.412 134.586C270.313 134.271 268.646 133.239 267.846 131.838C267.032 133.239 265.371 134.271 263.293 134.586L262.691 133.355C265.303 133.014 267.039 131.441 267.039 129.883V129.254H268.639V129.883ZM273.465 135.652V136.91H268.557V141.217H267.053V136.91H262.199V135.652H273.465ZM282.01 136.896C282.01 137.922 282.481 139.002 283.541 139.672C284.614 138.954 285.113 137.833 285.127 136.896V136.391H286.617V136.896C286.604 138.195 287.369 139.398 288.996 139.918L288.258 141.025C287.055 140.622 286.255 139.836 285.824 138.852C285.428 139.822 284.696 140.69 283.582 141.135C282.406 140.711 281.668 139.877 281.285 138.893C280.841 139.843 280.055 140.615 278.906 141.025L278.154 139.918C279.754 139.357 280.52 138.1 280.533 136.896V136.391H282.01V136.896ZM287.916 128.871V135.871H286.385V128.871H287.916ZM281.176 129.527C283.076 129.527 284.498 130.73 284.498 132.467C284.498 134.189 283.076 135.393 281.176 135.393C279.262 135.393 277.84 134.189 277.84 132.467C277.84 130.73 279.262 129.527 281.176 129.527ZM281.176 130.812C280.096 130.812 279.316 131.455 279.33 132.467C279.316 133.479 280.096 134.135 281.176 134.135C282.242 134.135 283.008 133.479 283.008 132.467C283.008 131.455 282.242 130.812 281.176 130.812ZM293.098 129.76C294.772 129.76 296.01 131.154 296.229 133.41H298.58V128.857H300.084V141.23H298.58V134.641H296.242C296.078 137.026 294.82 138.496 293.098 138.496C291.238 138.496 289.926 136.814 289.926 134.121C289.926 131.455 291.238 129.76 293.098 129.76ZM293.098 131.127C292.072 131.127 291.375 132.234 291.389 134.121C291.375 136.021 292.072 137.129 293.098 137.129C294.123 137.129 294.807 136.021 294.82 134.121C294.807 132.234 294.123 131.127 293.098 131.127ZM313.113 138.469V139.713H301.82V138.469H304.432V135.338C303.447 134.777 302.853 133.896 302.859 132.795C302.846 130.826 304.787 129.527 307.439 129.527C310.105 129.527 312.047 130.826 312.047 132.795C312.047 133.875 311.473 134.743 310.516 135.311V138.469H313.113ZM307.439 130.73C305.594 130.73 304.336 131.51 304.35 132.795C304.336 134.066 305.594 134.859 307.439 134.859C309.285 134.859 310.557 134.066 310.557 132.795C310.557 131.51 309.285 130.73 307.439 130.73ZM305.936 138.469H308.971V135.885C308.499 135.994 307.986 136.049 307.439 136.049C306.906 136.049 306.4 135.994 305.936 135.898V138.469ZM316.463 130.102L316.312 137.088H314.768L314.604 130.102H316.463ZM315.547 140.109C314.959 140.109 314.48 139.631 314.48 139.043C314.48 138.469 314.959 137.99 315.547 137.99C316.107 137.99 316.6 138.469 316.6 139.043C316.6 139.631 316.107 140.109 315.547 140.109Z" fill="white"/>
<path d="M3.71484 10V1.51562H7.04297C8.9707 1.51562 10.0781 2.70508 10.0781 4.375C10.0781 6.06836 8.95312 7.23438 6.99609 7.23438H5.47266V10H3.71484ZM5.47266 5.81641H6.71484C7.75781 5.81641 8.26758 5.23047 8.26172 4.375C8.26758 3.53125 7.75781 2.96289 6.71484 2.95703H5.47266V5.81641ZM18.9609 5.75781C18.9609 8.5293 17.2441 10.1172 15 10.1172C12.7383 10.1172 11.0273 8.51758 11.0273 5.75781C11.0273 2.98633 12.7383 1.39844 15 1.39844C17.2441 1.39844 18.9609 2.98633 18.9609 5.75781ZM12.8203 5.75781C12.8203 7.56836 13.6816 8.55273 15 8.55859C16.3066 8.55273 17.1738 7.56836 17.168 5.75781C17.1738 3.94141 16.3066 2.96289 15 2.95703C13.6816 2.96289 12.8203 3.94141 12.8203 5.75781ZM20.2266 10V1.51562H23.5547C25.4824 1.51562 26.5898 2.59961 26.5898 4.28125C26.5898 5.44141 26.0566 6.28516 25.0898 6.70117L26.8945 10H24.9492L23.3262 6.98828H21.9844V10H20.2266ZM21.9844 5.55859H23.2266C24.2695 5.55859 24.7793 5.13086 24.7734 4.28125C24.7793 3.42578 24.2695 2.96289 23.2266 2.95703H21.9844V5.55859ZM27.4805 2.96875V1.51562H34.4297V2.96875H31.8281V10H30.082V2.96875H27.4805ZM35.5195 10V1.51562H41.1094V2.96875H37.2773V5.03125H40.7461V6.48438H37.2773V10H35.5195ZM50.0391 5.75781C50.0391 8.5293 48.3223 10.1172 46.0781 10.1172C43.8164 10.1172 42.1055 8.51758 42.1055 5.75781C42.1055 2.98633 43.8164 1.39844 46.0781 1.39844C48.3223 1.39844 50.0391 2.98633 50.0391 5.75781ZM43.8984 5.75781C43.8984 7.56836 44.7598 8.55273 46.0781 8.55859C47.3848 8.55273 48.252 7.56836 48.2461 5.75781C48.252 3.94141 47.3848 2.96289 46.0781 2.95703C44.7598 2.96289 43.8984 3.94141 43.8984 5.75781ZM51.3047 10V1.51562H53.0625V8.54688H56.7188V10H51.3047ZM59.6133 1.51562V10H57.8555V1.51562H59.6133ZM68.8125 5.75781C68.8125 8.5293 67.0957 10.1172 64.8516 10.1172C62.5898 10.1172 60.8789 8.51758 60.8789 5.75781C60.8789 2.98633 62.5898 1.39844 64.8516 1.39844C67.0957 1.39844 68.8125 2.98633 68.8125 5.75781ZM62.6719 5.75781C62.6719 7.56836 63.5332 8.55273 64.8516 8.55859C66.1582 8.55273 67.0254 7.56836 67.0195 5.75781C67.0254 3.94141 66.1582 2.96289 64.8516 2.95703C63.5332 2.96289 62.6719 3.94141 62.6719 5.75781Z" fill="#767BFF"/>
<path d="M32.6094 191.51V192.781H21.3164V191.51H26.1699V189.076H22.2871V187.873H24.0234V184.182H22.2461V182.951H31.625V184.182H29.8203V187.873H31.584V189.076H27.6738V191.51H32.6094ZM25.541 187.873H28.3164V184.182H25.541V187.873ZM43.4648 188.338V189.541H34.7969V182.828H43.3555V184.059H36.3418V185.549H43.0684V186.738H36.3418V188.338H43.4648ZM44.709 191.469V192.713H33.416V191.469H44.709ZM55.7422 182.172V183.307H54.0469V185.193H55.6738V186.328H51.8867V187.244H56.7812V188.434H45.5156V187.244H50.3691V186.328H46.5957V185.193H48.2227V183.307H46.5273V182.172H55.7422ZM55.373 189.199V192.098H48.3457V192.973H55.7148V194.107H46.8555V191.059H53.8828V190.293H46.8418V189.199H55.373ZM49.7402 185.193H52.5156V183.307H49.7402V185.193ZM67.9102 181.857V194.23H66.4062V181.857H67.9102ZM64.1094 182.938V187.572H59.8574V190.061C61.8057 190.047 63.4873 189.951 65.4082 189.623L65.5449 190.867C63.4395 191.236 61.5938 191.305 59.3789 191.305H58.2988V186.369H62.5645V184.168H58.2852V182.938H64.1094ZM75.334 182.555C77.9863 182.555 79.9414 183.881 79.9414 185.891C79.9414 187.743 78.3486 188.98 76.0859 189.199V191.469H81.0078V192.713H69.7148V191.469H74.582V189.199C72.333 188.98 70.7402 187.743 70.7539 185.891C70.7402 183.881 72.6953 182.555 75.334 182.555ZM75.334 183.785C73.5293 183.771 72.2305 184.592 72.2441 185.891C72.2305 187.23 73.5293 188.023 75.334 188.023C77.166 188.023 78.4512 187.23 78.4512 185.891C78.4512 184.592 77.166 183.771 75.334 183.785ZM89.1973 193.137C86.8184 193.137 85.3965 191.291 85.3965 188.051C85.3965 184.824 86.8184 182.965 89.1973 182.965C91.5625 182.965 92.998 184.824 92.998 188.051C92.998 191.291 91.5762 193.137 89.1973 193.137ZM89.1973 191.646C90.4414 191.646 91.207 190.43 91.207 188.051C91.207 185.686 90.4277 184.441 89.1973 184.441C87.9668 184.441 87.1875 185.686 87.1875 188.051C87.1875 190.43 87.9531 191.646 89.1973 191.646ZM98.5078 183.102V193H96.7168V184.838H96.6621L94.3516 186.314V184.688L96.7988 183.102H98.5078Z" fill="white"/>
<path d="M5.99964 185.6C5.89355 185.6 5.79181 185.642 5.7168 185.717C5.64178 185.792 5.59964 185.894 5.59964 186C5.59964 186.106 5.64178 186.207 5.7168 186.282C5.79181 186.357 5.89355 186.4 5.99964 186.4H9.99964C10.1057 186.4 10.2075 186.357 10.2825 186.282C10.3575 186.207 10.3996 186.106 10.3996 186C10.3996 185.894 10.3575 185.792 10.2825 185.717C10.2075 185.642 10.1057 185.6 9.99964 185.6H5.99964ZM4.79964 187.6C4.79964 187.494 4.84178 187.392 4.9168 187.317C4.99181 187.242 5.09355 187.2 5.19964 187.2H10.7996C10.9057 187.2 11.0075 187.242 11.0825 187.317C11.1575 187.392 11.1996 187.494 11.1996 187.6C11.1996 187.706 11.1575 187.807 11.0825 187.882C11.0075 187.957 10.9057 188 10.7996 188H5.19964C5.09355 188 4.99181 187.957 4.9168 187.882C4.84178 187.807 4.79964 187.706 4.79964 187.6ZM5.99964 188.8C5.89355 188.8 5.79181 188.842 5.7168 188.917C5.64178 188.992 5.59964 189.094 5.59964 189.2C5.59964 189.306 5.64178 189.407 5.7168 189.482C5.79181 189.557 5.89355 189.6 5.99964 189.6H9.99964C10.1057 189.6 10.2075 189.557 10.2825 189.482C10.3575 189.407 10.3996 189.306 10.3996 189.2C10.3996 189.094 10.3575 188.992 10.2825 188.917C10.2075 188.842 10.1057 188.8 9.99964 188.8H5.99964ZM1.99964 181.6C1.71625 181.599 1.44185 181.699 1.22505 181.882C1.00825 182.064 0.863036 182.317 0.815127 182.597C0.767217 182.876 0.819705 183.163 0.963295 183.408C1.10688 183.652 1.33231 183.838 1.59964 183.932V189.6C1.59964 190.236 1.8525 190.847 2.30259 191.297C2.75267 191.747 3.36312 192 3.99964 192H7.59964V193.6H5.19964C5.09355 193.6 4.99181 193.642 4.9168 193.717C4.84178 193.792 4.79964 193.894 4.79964 194C4.79964 194.106 4.84178 194.207 4.9168 194.282C4.99181 194.357 5.09355 194.4 5.19964 194.4H10.7996C10.9057 194.4 11.0075 194.357 11.0825 194.282C11.1575 194.207 11.1996 194.106 11.1996 194C11.1996 193.894 11.1575 193.792 11.0825 193.717C11.0075 193.642 10.9057 193.6 10.7996 193.6H8.39964V192H11.9996C12.6362 192 13.2466 191.747 13.6967 191.297C14.1468 190.847 14.3996 190.236 14.3996 189.6V183.932C14.667 183.838 14.8924 183.652 15.036 183.408C15.1796 183.163 15.2321 182.876 15.1842 182.597C15.1362 182.317 14.991 182.064 14.7742 181.882C14.5574 181.699 14.283 181.599 13.9996 181.6H1.99964ZM2.39964 189.6V184H13.5996V189.6C13.5996 190.024 13.4311 190.431 13.131 190.731C12.831 191.031 12.424 191.2 11.9996 191.2H3.99964C3.5753 191.2 3.16833 191.031 2.86827 190.731C2.56821 190.431 2.39964 190.024 2.39964 189.6Z" fill="white"/>
<rect y="206" width="358" height="42" rx="21" fill="#553BF3"/>
<path d="M76.5723 226.953V228.535H62.0879V226.953H68.3281V225.547C65.4189 225.336 63.582 224.176 63.582 222.33C63.582 220.335 65.8408 219.113 69.3125 219.113C72.7754 219.113 75.0342 220.335 75.043 222.33C75.0342 224.176 73.1973 225.336 70.2969 225.547V226.953H76.5723ZM63.8809 234.248V229.625H65.832V232.666H74.9375V234.248H63.8809ZM65.6211 222.33C65.6035 223.429 67.001 224.009 69.3125 224C71.6328 224.009 73.0215 223.429 73.0215 222.33C73.0215 221.284 71.6328 220.669 69.3125 220.66C67.001 220.669 65.6035 221.284 65.6211 222.33ZM90.0898 218.674V224.773H92.5332V226.408H90.0898V234.582H88.1562V218.674H90.0898ZM78.2773 221.645V220.062H85.5898V226.057H80.2461V229.221C82.7686 229.203 84.7285 229.098 86.9434 228.711L87.1191 230.293C84.667 230.732 82.5049 230.838 79.6133 230.838H78.3125V224.492H83.6387V221.645H78.2773ZM106.438 218.691V230.17H104.469V218.691H106.438ZM93.4824 223.701C93.4824 221.39 95.3545 219.737 97.7715 219.729C100.188 219.737 102.052 221.39 102.043 223.701C102.052 226.048 100.188 227.691 97.7715 227.691C95.3545 227.691 93.4824 226.048 93.4824 223.701ZM95.3984 223.701C95.3896 225.107 96.4092 225.986 97.7715 225.986C99.0986 225.986 100.127 225.107 100.127 223.701C100.127 222.33 99.0986 221.434 97.7715 221.434C96.4092 221.434 95.3896 222.33 95.3984 223.701ZM95.9258 234.248V229.01H97.8945V232.666H106.877V234.248H95.9258ZM125.562 218.674V222.541H127.777V224.141H125.562V227.99H123.611V218.674H125.562ZM112.977 226.654C116.571 225.67 118.716 223.728 119.05 221.346H113.697V219.764H121.168C121.177 223.938 118.452 226.909 113.75 228.236L112.977 226.654ZM115.121 231.365C115.104 229.405 117.23 228.184 120.43 228.184C123.655 228.184 125.738 229.405 125.738 231.365C125.738 233.343 123.655 234.556 120.43 234.547C117.23 234.556 115.104 233.343 115.121 231.365ZM117.055 231.365C117.046 232.402 118.329 233.018 120.43 233.018C122.521 233.018 123.813 232.402 123.822 231.365C123.813 230.319 122.521 229.713 120.43 229.713C118.329 229.713 117.046 230.319 117.055 231.365ZM133.736 219.781C136.259 219.772 138.096 221.363 138.113 223.613C138.096 225.872 136.259 227.454 133.736 227.463C131.24 227.454 129.368 225.872 129.377 223.613C129.368 221.363 131.24 219.772 133.736 219.781ZM128.656 229.66C131.521 229.66 135.485 229.625 138.922 229.133L139.08 230.557C135.521 231.233 131.706 231.26 128.902 231.26L128.656 229.66ZM131.311 223.613C131.302 224.94 132.348 225.758 133.736 225.758C135.143 225.758 136.188 224.94 136.197 223.613C136.188 222.295 135.151 221.469 133.736 221.469C132.348 221.469 131.302 222.295 131.311 223.613ZM139.871 234.582V218.674H141.822V234.582H139.871ZM162.125 218.674V228.465H160.244V218.674H162.125ZM148.309 224.65C150.436 224.659 153.942 224.615 156.535 224.211L156.658 225.529C155.683 225.74 154.619 225.881 153.547 225.969V228.395H151.666V226.083C150.488 226.127 149.381 226.136 148.502 226.127L148.309 224.65ZM149.029 221.592C149.029 220.133 150.436 219.236 152.527 219.236C154.593 219.236 156.008 220.133 156.008 221.592C156.008 223.033 154.593 223.965 152.527 223.965C150.436 223.965 149.029 223.033 149.029 221.592ZM150.805 221.592C150.813 222.251 151.455 222.585 152.527 222.594C153.573 222.585 154.259 222.251 154.268 221.592C154.259 220.941 153.573 220.59 152.527 220.59C151.455 220.59 150.813 220.941 150.805 221.592ZM150.98 234.371V228.992H152.914V230.205H160.174V228.992H162.125V234.371H150.98ZM152.914 232.842H160.174V231.699H152.914V232.842ZM154.742 227.779V226.443H157.273V218.955H159.119V228.447H157.273V227.779H154.742ZM171.828 219.887C173.938 219.878 175.309 222.049 175.326 225.547C175.309 229.054 173.938 231.233 171.828 231.225C169.754 231.233 168.4 229.054 168.4 225.547C168.4 222.049 169.754 219.878 171.828 219.887ZM170.211 225.547C170.202 228.034 170.817 229.37 171.828 229.361C172.883 229.37 173.507 228.034 173.516 225.547C173.507 223.068 172.883 221.724 171.828 221.732C170.817 221.724 170.202 223.068 170.211 225.547ZM176.539 233.791V218.955H178.385V224.809H180.072V218.674H181.953V234.564H180.072V226.426H178.385V233.791H176.539ZM196.947 219.131V220.607H194.768V223.016H196.859V224.492H185.188V223.016H187.279V220.607H185.1V219.131H196.947ZM183.799 227.041V225.494H198.283V227.041H183.799ZM185.504 229.537V228.113H196.473V231.893H187.438V232.965H196.912V234.424H185.521V230.539H194.557V229.537H185.504ZM189.23 223.016H192.799V220.607H189.23V223.016ZM212.592 218.674V234.582H210.658V218.674H212.592ZM200.217 221.645V220.062H207.705V226.021H202.238V229.221C204.743 229.203 206.896 229.071 209.375 228.658L209.551 230.258C206.853 230.724 204.479 230.829 201.623 230.82H200.234V224.475H205.719V221.645H200.217ZM221.961 220.502C221.952 221.996 221.812 223.429 221.442 224.773H223.402V219.061H225.248V233.809H223.402V226.355H220.862C219.992 228.271 218.489 229.959 216.02 231.348L214.912 230.012C217.065 228.781 218.393 227.349 219.166 225.705L215.193 226.109L214.965 224.422L219.72 224.158C219.887 223.499 219.992 222.805 220.045 222.084H215.738V220.502H221.961ZM226.76 234.564V218.674H228.623V234.564H226.76ZM243.688 218.674V234.582H241.719V218.674H243.688ZM230.979 225.441C230.97 222.014 232.719 219.834 235.127 219.834C237.509 219.834 239.267 222.014 239.275 225.441C239.267 228.896 237.509 231.066 235.127 231.066C232.719 231.066 230.97 228.896 230.979 225.441ZM232.859 225.441C232.859 227.885 233.782 229.3 235.127 229.309C236.463 229.3 237.377 227.885 237.377 225.441C237.377 223.016 236.463 221.592 235.127 221.592C233.782 221.592 232.859 223.016 232.859 225.441ZM251.809 221.486C251.8 223.728 253.057 225.907 255.5 226.83L254.41 228.342C252.714 227.674 251.501 226.347 250.842 224.703C250.156 226.47 248.873 227.867 247.045 228.57L245.99 227.023C248.521 226.109 249.831 223.868 249.84 221.486V219.588H251.809V221.486ZM248.855 234.248V229.326H250.842V232.666H259.684V234.248H248.855ZM254.48 225.564V224H257.381V222.436H254.48V220.854H257.381V218.691H259.332V230.486H257.381V225.564H254.48ZM279.494 218.674V234.564H277.613V226.408H275.908V233.826H274.08V219.096H275.908V224.826H277.613V218.674H279.494ZM265.73 229.889C269.114 227.938 270.547 225.424 270.828 222.242H266.469V220.678H272.727C272.727 224.976 271.373 228.667 266.855 231.242L265.73 229.889ZM283.889 219.377V221.398H287.598V219.377H289.531V226.303H281.955V219.377H283.889ZM283.555 228.975V227.445H293.943V231.611H285.506V232.877H294.436V234.424H283.572V230.188H291.992V228.975H283.555ZM283.889 224.756H287.598V222.875H283.889V224.756ZM291.992 226.812V218.674H293.943V221.891H296.158V223.473H293.943V226.812H291.992Z" fill="white"/>
<path d="M33.8384 267.626C34.8536 267.621 35.7238 267.998 36.299 268.631H39.3688V266.91H40.6644V274.142H39.3688V272.489H36.2942C35.7189 273.117 34.8488 273.494 33.8384 273.49C31.9965 273.494 30.6236 272.276 30.6333 270.56C30.6236 268.834 31.9965 267.616 33.8384 267.626ZM31.866 270.56C31.866 271.633 32.6878 272.392 33.8384 272.383C34.9599 272.392 35.7866 271.633 35.7866 270.56C35.7866 269.463 34.9599 268.733 33.8384 268.742C32.6878 268.733 31.866 269.463 31.866 270.56ZM32.422 276.777C32.4123 275.283 33.9979 274.413 36.5601 274.413C39.1126 274.413 40.6982 275.283 40.703 276.777C40.6982 278.271 39.1126 279.141 36.5601 279.141C33.9979 279.141 32.4123 278.271 32.422 276.777ZM33.6934 276.777C33.6837 277.628 34.7666 278.116 36.5601 278.116C38.3633 278.116 39.4365 277.628 39.4365 276.777C39.4365 275.912 38.3633 275.419 36.5601 275.419C34.7666 275.419 33.6837 275.912 33.6934 276.777ZM36.8985 269.68C36.9807 269.956 37.029 270.251 37.029 270.56C37.029 270.869 36.9807 271.16 36.8985 271.43H39.3688V269.68H36.8985ZM52.179 266.905V270.454H53.9629V271.532H52.179V275.776H50.8786V266.905H52.179ZM43.1003 273.649V267.945H48.5727V269.003H44.3862V272.581C46.7695 272.581 48.1086 272.508 49.6507 272.189L49.8006 273.248C48.1376 273.572 46.6922 273.654 44.072 273.649H43.1003ZM44.4152 278.909V274.863H45.706V277.845H52.7011V278.909H44.4152ZM57.9748 267.829C59.6329 267.834 60.8512 269.24 61.0445 271.503H63.5825V266.91H64.8684V279.184H63.5825V272.561H61.0542C60.9188 274.95 59.6813 276.434 57.9748 276.434C56.1426 276.434 54.8567 274.766 54.8663 272.126C54.8567 269.501 56.1426 267.834 57.9748 267.829ZM56.1039 272.126C56.1039 274.07 56.8629 275.269 57.9748 275.269C59.077 275.269 59.8408 274.07 59.8408 272.126C59.8408 270.198 59.077 268.999 57.9748 268.989C56.8629 268.999 56.1039 270.198 56.1039 272.126ZM77.4758 268.153V269.187H70.1857V268.153H73.1926V266.852H74.4834V268.153H77.4758ZM70.8528 271.977C70.848 270.633 72.0614 269.758 73.8356 269.748C75.6001 269.758 76.799 270.633 76.8038 271.977C76.799 273.316 75.6001 274.195 73.8356 274.195C72.0614 274.195 70.848 273.316 70.8528 271.977ZM71.6988 276.25V275.196H79.7962V279.16H78.4958V276.25H71.6988ZM72.1049 271.977C72.0953 272.731 72.7914 273.185 73.8356 273.185C74.8701 273.185 75.5662 272.731 75.5759 271.977C75.5662 271.218 74.8701 270.749 73.8356 270.739C72.7914 270.749 72.0953 271.218 72.1049 271.977ZM78.4958 274.573V266.91H79.7962V270.236H81.5704V271.309H79.7962V274.573H78.4958ZM84.9345 274.258V275.559H90.6921V274.258H91.9925V279.006H83.6534V274.258H84.9345ZM82.2708 273.48V272.416H93.438V273.48H82.2708ZM82.8703 270.637C85.2439 270.323 87.1873 269.023 87.1873 267.563V267.041H88.5215V267.563C88.5215 268.979 90.4746 270.343 92.824 270.637L92.3551 271.657C90.373 271.377 88.6424 270.439 87.8592 269.134C87.0664 270.444 85.3261 271.377 83.3537 271.657L82.8703 270.637ZM84.9345 277.966H90.6921V276.564H84.9345V277.966ZM107.906 267.278V268.269H106.123V270.386H107.853V271.377H98.8616V270.386H100.597V268.269H98.8084V267.278H107.906ZM97.7884 273.316V272.281H108.956V273.316H97.7884ZM99.1178 275.23V274.273H107.539V277.067H100.413V278.058H107.892V279.044H99.142V276.148H106.263V275.23H99.1178ZM101.888 270.386H104.822V268.269H101.888V270.386ZM120.325 266.92V275.23H119.097V271.106H117.599V274.186H116.385V267.147H117.599V270.048H119.097V266.92H120.325ZM110.4 268.892V267.838H115.051V271.363H111.686V272.987C113.209 272.972 114.36 272.9 115.708 272.629L115.839 273.659C114.321 273.968 113.054 274.017 111.242 274.017H110.429V270.401H113.809V268.892H110.4ZM111.416 278.092C113.712 277.768 115.525 276.458 115.534 274.95V274.66H116.83V274.95C116.83 276.458 118.643 277.768 120.954 278.092L120.436 279.102C118.556 278.807 116.941 277.898 116.187 276.613C115.423 277.898 113.804 278.807 111.933 279.102L111.416 278.092ZM133.155 273.016V274.05H121.988V273.016H126.904V271.74H123.061V270.681H124.796V268.341H123.008V267.287H132.106V268.341H130.322V270.681H132.053V271.74H128.204V273.016H133.155ZM123.327 279.006V275.119H131.791V279.006H123.327ZM124.608 277.952H130.53V276.134H124.608V277.952ZM126.087 270.681H129.021V268.341H126.087V270.681ZM141.924 270.028C141.919 272.271 143.176 274.505 145.047 275.346L144.263 276.39C142.866 275.689 141.813 274.307 141.276 272.629C140.734 274.394 139.666 275.883 138.259 276.613L137.438 275.568C139.333 274.66 140.599 272.296 140.609 270.028V267.93H141.924V270.028ZM143.703 272.035V270.981H146.434V266.91H147.72V279.184H146.434V272.035H143.703ZM159.752 266.91V279.184H158.447V266.91H159.752ZM150.282 276.255V267.93H151.577V271.077H154.884V267.93H156.165V276.255H150.282ZM151.577 275.182H154.884V272.107H151.577V275.182ZM167.926 268.651C167.926 270.642 170.048 272.532 172.398 272.953L171.808 274.036C169.845 273.61 168.047 272.329 167.249 270.608C166.442 272.32 164.648 273.606 162.686 274.036L162.106 272.953C164.436 272.518 166.548 270.642 166.558 268.651V267.727H167.926V268.651ZM161.704 277.55V276.472H172.915V277.55H161.704ZM176.004 277.043L174.906 280.823H173.746L174.476 277.043H176.004ZM184.125 267.829C185.783 267.834 187.002 269.24 187.195 271.503H189.733V266.91H191.019V279.184H189.733V272.561H187.205C187.069 274.95 185.832 276.434 184.125 276.434C182.293 276.434 181.007 274.766 181.017 272.126C181.007 269.501 182.293 267.834 184.125 267.829ZM182.254 272.126C182.254 274.07 183.013 275.269 184.125 275.269C185.227 275.269 185.991 274.07 185.991 272.126C185.991 270.198 185.227 268.999 184.125 268.989C183.013 268.999 182.254 270.198 182.254 272.126ZM203.08 266.92V279.18H201.804V266.92H203.08ZM192.908 274.51C195.306 274.51 198.323 274.5 200.982 274.195L201.074 275.143C199.928 275.312 198.748 275.414 197.598 275.477V278.904H196.297V275.53C195.156 275.564 194.064 275.568 193.073 275.564L192.908 274.51ZM193.334 269.202V268.196H196.317V266.814H197.607V268.196H200.6V269.202H193.334ZM194.03 271.725C194.02 270.488 195.214 269.68 196.974 269.671C198.705 269.68 199.899 270.488 199.904 271.725C199.899 272.953 198.705 273.765 196.974 273.765C195.214 273.765 194.02 272.953 194.03 271.725ZM195.268 271.725C195.263 272.392 195.935 272.784 196.974 272.784C197.984 272.784 198.656 272.392 198.656 271.725C198.656 271.053 197.984 270.657 196.974 270.657C195.935 270.657 195.263 271.053 195.268 271.725ZM215.726 268.153V269.187H208.436V268.153H211.443V266.852H212.733V268.153H215.726ZM209.103 271.977C209.098 270.633 210.311 269.758 212.086 269.748C213.85 269.758 215.049 270.633 215.054 271.977C215.049 273.316 213.85 274.195 212.086 274.195C210.311 274.195 209.098 273.316 209.103 271.977ZM209.949 276.25V275.196H218.046V279.16H216.746V276.25H209.949ZM210.355 271.977C210.345 272.731 211.041 273.185 212.086 273.185C213.12 273.185 213.816 272.731 213.826 271.977C213.816 271.218 213.12 270.749 212.086 270.739C211.041 270.749 210.345 271.218 210.355 271.977ZM216.746 274.573V266.91H218.046V270.236H219.82V271.309H218.046V274.573H216.746ZM223.185 274.258V275.559H228.942V274.258H230.243V279.006H221.903V274.258H223.185ZM220.521 273.48V272.416H231.688V273.48H220.521ZM221.12 270.637C223.494 270.323 225.437 269.023 225.437 267.563V267.041H226.772V267.563C226.772 268.979 228.725 270.343 231.074 270.637L230.605 271.657C228.623 271.377 226.892 270.439 226.109 269.134C225.316 270.444 223.576 271.377 221.604 271.657L221.12 270.637ZM223.185 277.966H228.942V276.564H223.185V277.966ZM242.502 267.689V272.731H236.672V267.689H242.502ZM237.479 278.126C239.722 277.903 241.467 276.782 241.54 275.684H237.982V274.698H241.569V273.562H242.864V274.698H246.466V275.684H242.889C242.961 276.758 244.672 277.869 246.911 278.126L246.466 279.126C244.547 278.894 242.961 278.068 242.221 276.99C241.472 278.082 239.862 278.89 237.933 279.126L237.479 278.126ZM237.948 271.706H241.221V268.723H237.948V271.706ZM244.9 273.915V266.91H246.181V273.915H244.9ZM261.698 266.91V273.214H260.417V266.91H261.698ZM251.595 272.117C253.504 271.483 254.679 269.878 254.679 268.177V267.234H256.008V268.177C255.999 269.82 257.178 271.319 259.064 271.904L258.421 272.914C256.99 272.45 255.916 271.483 255.356 270.241C254.805 271.585 253.717 272.644 252.257 273.142L251.595 272.117ZM253.659 274.824V273.799H261.718V276.864H254.959V278H262.119V279.044H253.698V275.878H260.427V274.824H253.659ZM269.486 267.65V271.218H265.449V272.919C267.581 272.914 268.741 272.866 270.114 272.61L270.24 273.669C268.746 273.92 267.489 273.959 265.048 273.963H264.163V270.231H268.195V268.684H264.139V267.65H269.486ZM265.546 276.124V275.075H273.866V279.175H272.57V276.124H265.546ZM270.264 272.305V271.256H272.57V269.743H270.264V268.704H272.57V266.92H273.866V274.452H272.57V272.305H270.264ZM290.534 268.936V269.999H288.798V271.546H290.534V272.615H288.798V274.771H287.498V266.91H288.798V268.936H290.534ZM279.188 269.255V268.23H282.195V266.823H283.485V268.23H286.478V269.255H279.188ZM279.855 271.991C279.85 270.681 281.049 269.816 282.838 269.816C284.602 269.816 285.801 270.681 285.806 271.991C285.801 273.311 284.602 274.166 282.838 274.162C281.049 274.166 279.85 273.311 279.855 271.991ZM280.822 277.014C280.812 275.66 282.354 274.867 284.882 274.867C287.382 274.867 288.934 275.66 288.934 277.014C288.934 278.348 287.382 279.141 284.882 279.141C282.354 279.141 280.812 278.348 280.822 277.014ZM281.107 271.991C281.097 272.726 281.793 273.175 282.838 273.175C283.872 273.175 284.568 272.726 284.578 271.991C284.568 271.251 283.872 270.782 282.838 270.773C281.793 270.782 281.097 271.251 281.107 271.991ZM282.108 277.014C282.098 277.729 283.123 278.155 284.882 278.145C286.618 278.155 287.638 277.729 287.638 277.014C287.638 276.269 286.618 275.873 284.882 275.873C283.123 275.873 282.098 276.269 282.108 277.014ZM295.488 268.873C295.488 270.478 296.619 271.972 298.447 272.571L297.756 273.591C296.412 273.117 295.406 272.165 294.869 270.956C294.343 272.329 293.303 273.407 291.877 273.934L291.176 272.905C293.086 272.223 294.193 270.584 294.202 268.762V267.548H295.488V268.873ZM292.829 276.859C292.829 275.433 294.396 274.592 296.939 274.592C299.462 274.592 301.009 275.433 301.009 276.859C301.009 278.314 299.462 279.141 296.939 279.141C294.396 279.141 292.829 278.314 292.829 276.859ZM294.13 276.859C294.12 277.671 295.169 278.111 296.939 278.121C298.703 278.111 299.738 277.671 299.738 276.859C299.738 276.081 298.703 275.622 296.939 275.622C295.169 275.622 294.12 276.081 294.13 276.859ZM299.597 274.302V266.91H300.898V269.994H302.672V271.077H300.898V274.302H299.597ZM308.946 267.113C311.707 267.113 313.316 267.858 313.316 269.216C313.316 270.594 311.707 271.338 308.946 271.348C306.186 271.338 304.566 270.594 304.566 269.216C304.566 267.858 306.186 267.113 308.946 267.113ZM303.372 273.132V272.093H314.54V273.132H303.372ZM304.702 275.046V274.075H313.123V276.941H305.997V278.039H313.476V279.044H304.726V276.008H311.847V275.046H304.702ZM305.925 269.216C305.915 269.98 306.998 270.372 308.946 270.372C310.909 270.372 311.987 269.98 311.987 269.216C311.987 268.501 310.909 268.075 308.946 268.08C306.998 268.075 305.915 268.501 305.925 269.216ZM322.907 267.476C324.754 267.466 326.083 268.501 326.083 270.014C326.083 271.517 324.754 272.561 322.907 272.552C321.065 272.561 319.741 271.517 319.746 270.014C319.741 268.501 321.065 267.466 322.907 267.476ZM318.875 273.499C321.133 273.499 324.256 273.451 326.939 273.055L327.031 274.021C325.914 274.229 324.759 274.36 323.632 274.442V278.788H322.332V274.515C321.143 274.568 320.016 274.577 319.045 274.582L318.875 273.499ZM321.003 270.014C320.993 270.903 321.795 271.493 322.907 271.483C324.048 271.493 324.851 270.903 324.851 270.014C324.851 269.119 324.048 268.52 322.907 268.53C321.795 268.52 320.993 269.119 321.003 270.014ZM327.79 279.165V266.92H329.066V279.165H327.79ZM340.615 266.92V270.86H342.389V271.943H340.615V276.09H339.314V266.92H340.615ZM331.004 269.395V268.351H334.011V266.915H335.302V268.351H338.294V269.395H331.004ZM331.671 272.305C331.666 270.898 332.875 269.985 334.654 269.985C336.409 269.985 337.617 270.898 337.622 272.305C337.617 273.688 336.409 274.592 334.654 274.592C332.875 274.592 331.666 273.688 331.671 272.305ZM332.851 278.909V275.36H334.142V277.845H341.137V278.909H332.851ZM332.923 272.305C332.914 273.098 333.61 273.586 334.654 273.581C335.688 273.586 336.385 273.098 336.394 272.305C336.385 271.493 335.688 270.99 334.654 270.99C333.61 270.99 332.914 271.493 332.923 272.305ZM39.9972 284.91V289.653H41.9599V290.731H39.9972V297.184H38.6968V284.91H39.9972ZM30.9717 294.144V286.09H36.7003V287.144H32.2673V293.061C34.3218 293.051 35.864 292.964 37.6188 292.645L37.7735 293.752C35.8591 294.086 34.23 294.148 31.9579 294.144H30.9717ZM53.9145 286.651V287.719H52.179V289.271H53.9145V290.358H52.179V292.142H50.8786V284.91H52.179V286.651H53.9145ZM42.7377 288.531C42.7281 286.815 44.1203 285.621 46.0009 285.626C47.8717 285.621 49.2495 286.815 49.2591 288.531C49.2495 290.247 47.8717 291.436 46.0009 291.446C44.1203 291.436 42.7281 290.247 42.7377 288.531ZM44.0091 288.531C43.9995 289.624 44.8503 290.344 46.0009 290.349C47.1417 290.344 47.9877 289.624 47.9974 288.531C47.9877 287.453 47.1466 286.713 46.0009 286.723C44.8503 286.713 43.9995 287.453 44.0091 288.531ZM44.1107 294.816C44.1107 293.341 45.6963 292.481 48.2198 292.471C50.7239 292.481 52.2902 293.341 52.2902 294.816C52.2902 296.276 50.7239 297.141 48.2198 297.141C45.6963 297.141 44.1107 296.276 44.1107 294.816ZM45.4111 294.816C45.4014 295.647 46.4504 296.102 48.2198 296.102C49.9843 296.102 51.0188 295.647 51.0188 294.816C51.0188 293.989 49.9843 293.52 48.2198 293.52C46.4504 293.52 45.4014 293.989 45.4111 294.816ZM64.2786 284.92V288.86H66.0528V289.943H64.2786V294.09H62.9782V284.92H64.2786ZM54.6681 287.395V286.351H57.675V284.915H58.9658V286.351H61.9582V287.395H54.6681ZM55.3353 290.305C55.3304 288.898 56.539 287.985 58.318 287.985C60.0728 287.985 61.2814 288.898 61.2862 290.305C61.2814 291.688 60.0728 292.592 58.318 292.592C56.539 292.592 55.3304 291.688 55.3353 290.305ZM56.5148 296.909V293.36H57.8056V295.845H64.8007V296.909H56.5148ZM56.5873 290.305C56.5777 291.098 57.2738 291.586 58.318 291.581C59.3525 291.586 60.0487 291.098 60.0583 290.305C60.0487 289.493 59.3525 288.99 58.318 288.99C57.2738 288.99 56.5777 289.493 56.5873 290.305ZM80.3522 284.91V297.16H79.0469V284.91H80.3522ZM70.2872 293.878C73.5455 292.331 75.1312 290.122 75.3874 287.265H70.8819V286.23H76.712C76.7023 289.812 75.1795 292.921 70.9737 294.927L70.2872 293.878ZM92.1714 288.217V289.271H83.7598V285.137H85.0457V288.217H92.1714ZM82.2708 291.64V290.576H93.4525V291.64H82.2708ZM83.5906 294.869C83.5906 293.438 85.1859 292.631 87.8399 292.631C90.4794 292.631 92.065 293.438 92.0747 294.869C92.065 296.305 90.4794 297.107 87.8399 297.107C85.1859 297.107 83.5906 296.305 83.5906 294.869ZM84.9103 294.869C84.9007 295.652 85.969 296.106 87.8399 296.102C89.6914 296.106 90.7694 295.652 90.7791 294.869C90.7694 294.076 89.6914 293.655 87.8399 293.651C85.969 293.655 84.9007 294.076 84.9103 294.869ZM101.192 286.22V286.979C101.182 288.009 101.182 289.59 100.839 291.78L99.5528 291.678C99.867 289.72 99.8912 288.289 99.896 287.269H94.9215V286.22H101.192ZM94.2496 293.467C95.0134 293.462 95.8691 293.452 96.7586 293.433V289.725H98.0396V293.394C99.34 293.341 100.674 293.254 101.897 293.104L101.97 294.076C99.4174 294.487 96.57 294.54 94.3946 294.53L94.2496 293.467ZM102.603 297.16V284.91H103.904V289.967H105.784V291.074H103.904V297.16H102.603ZM119.702 285.461V286.539C119.697 287.695 119.697 288.927 119.358 290.595L118.072 290.484C118.213 289.827 118.295 289.237 118.343 288.691L111.063 289.019L110.889 287.932L118.401 287.719C118.411 287.313 118.416 286.921 118.416 286.539V286.51H111.203V285.461H119.702ZM109.903 292.389V291.345H114.316V289.633H115.621V291.345H121.041V292.389H109.903ZM111.28 296.972V293.341H112.576V295.913H119.958V296.972H111.28ZM132.425 284.92V294.09H131.197V284.92H132.425ZM122.529 292.152V285.896H127.199V286.955H123.776V288.488H126.716V289.493H123.776V291.093C125.391 291.088 126.454 291.04 127.707 290.794L127.842 291.833C126.425 292.099 125.26 292.152 123.322 292.152H122.529ZM124.361 296.909V293.075H125.676V295.845H132.783V296.909H124.361ZM127.271 289.392V288.352H128.789V285.162H130.027V293.781H128.789V289.392H127.271ZM145.298 294.564V295.633H134.087V294.564H145.298ZM134.667 291.61C137.152 291.204 138.96 289.682 139.023 287.854H135.102V286.796H139.038V285.166H140.314V286.796H144.254V287.854H140.338C140.391 289.682 142.189 291.204 144.689 291.61L144.171 292.655C142.141 292.282 140.464 291.248 139.671 289.749C138.883 291.248 137.196 292.282 135.17 292.655L134.667 291.61ZM160.11 284.91V297.16H158.877V284.91H160.11ZM149.421 293.791C151.157 292.737 152.041 290.508 152.041 288.328V287.347H149.798V286.288H155.406V287.347H153.293V288.328C153.293 290.426 154.139 292.519 155.86 293.51L155.087 294.468C153.912 293.767 153.11 292.519 152.684 291.04C152.249 292.64 151.418 294.008 150.224 294.753L149.421 293.791ZM154.492 290.305V289.251H156.402V285.171H157.625V296.541H156.402V290.305H154.492ZM167.23 292.611C169.879 292.611 171.552 293.448 171.561 294.883C171.552 296.305 169.879 297.141 167.23 297.141C164.6 297.141 162.918 296.305 162.918 294.883C162.918 293.448 164.6 292.611 167.23 292.611ZM161.719 291.596V290.542H166.186V288.246H167.462V290.542H172.857V291.596H161.719ZM163.019 286.554V285.51H171.47V286.539C171.47 287.516 171.47 288.531 171.126 289.793L169.85 289.662C170.179 288.401 170.179 287.506 170.179 286.554H163.019ZM164.213 294.883C164.204 295.671 165.374 296.131 167.23 296.131C169.096 296.131 170.261 295.671 170.271 294.883C170.261 294.076 169.096 293.597 167.23 293.593C165.374 293.597 164.204 294.076 164.213 294.883ZM181.641 288.028C181.636 290.271 182.893 292.505 184.763 293.346L183.98 294.39C182.583 293.689 181.529 292.307 180.993 290.629C180.451 292.394 179.383 293.883 177.976 294.613L177.154 293.568C179.049 292.66 180.316 290.296 180.326 288.028V285.93H181.641V288.028ZM183.42 290.035V288.981H186.151V284.91H187.437V297.184H186.151V290.035H183.42ZM199.469 284.91V297.184H198.163V284.91H199.469ZM189.998 294.255V285.93H191.294V289.077H194.601V285.93H195.882V294.255H189.998ZM191.294 293.182H194.601V290.107H191.294V293.182ZM207.643 286.651C207.643 288.642 209.765 290.532 212.115 290.953L211.525 292.036C209.562 291.61 207.764 290.329 206.966 288.608C206.159 290.32 204.365 291.606 202.403 292.036L201.822 290.953C204.153 290.518 206.265 288.642 206.275 286.651V285.727H207.643V286.651ZM201.421 295.55V294.472H212.632V295.55H201.421Z" fill="white"/>
<path d="M9 275L12 278L22 268" stroke="white" stroke-width="2" stroke-linecap="round" stroke-linejoin="round"/>
<path d="M21 276V283C21 283.53 20.7893 284.039 20.4142 284.414C20.0391 284.789 19.5304 285 19 285H5C4.46957 285 3.96086 284.789 3.58579 284.414C3.21071 284.039 3 283.53 3 283V269C3 268.47 3.21071 267.961 3.58579 267.586C3.96086 267.211 4.46957 267 5 267H16" stroke="white" stroke-width="2" stroke-linecap="round" stroke-linejoin="round"/>
</svg>
