<svg width="358" height="200" viewBox="0 0 358 200" fill="none" xmlns="http://www.w3.org/2000/svg">
<path d="M7.11133 58.2148C4.08203 58.1934 1.03125 56.3887 1.05273 50.6523C1.05273 45.3242 3.48047 42.2305 7.2832 42.2305C10.291 42.2305 12.3535 44.1211 12.6973 46.6348H9.92578C9.64648 45.4531 8.70117 44.6582 7.2832 44.6582C5.02734 44.6582 3.75977 46.6562 3.75977 49.9219H3.91016C4.70508 48.5898 6.20898 47.7949 7.90625 47.7949C10.6992 47.7949 12.8477 49.9004 12.8477 52.8438C12.8477 55.9375 10.5488 58.2363 7.11133 58.2148ZM7.11133 55.959C8.85156 55.959 10.1406 54.6055 10.1406 52.9082C10.1406 51.2539 8.87305 49.9219 7.1543 49.9219C5.41406 49.9219 4.08203 51.2969 4.06055 52.9297C4.08203 54.5625 5.34961 55.959 7.11133 55.959ZM31.2383 40.4902V59.9121H28.9395V49.9434H26.8555V59.0098H24.6211V41.0059H26.8555V48.0098H28.9395V40.4902H31.2383ZM22.9668 42.9395C22.9668 48.1816 21.3125 52.6934 15.791 55.8516L14.416 54.1973C18.5518 51.8018 20.3027 48.7295 20.6465 44.8516H15.3184V42.9395H22.9668ZM49.8652 40.5117V51.834H47.459V51.0391H43.8281V49.5781H47.459V40.5117H49.8652ZM33.5586 47.5156C37.3184 47.5156 42.002 47.4727 46.1699 47.0645L46.2988 48.5684C44.5264 48.8154 42.7002 48.9658 40.9062 49.041V51.8555H38.543V49.1484C36.8779 49.1914 35.2773 49.2021 33.8164 49.1914L33.5586 47.5156ZM49.8652 52.4355V56.7969H38.8223V58.043H50.3809V59.7402H36.4805V55.2285H47.502V54.0684H36.3945V52.4355H49.8652ZM39.832 40.8125C42.7109 40.8125 44.6875 41.9727 44.6875 43.7344C44.6875 45.5391 42.7109 46.6348 39.832 46.6348C36.8887 46.6348 34.9336 45.5391 34.9336 43.7344C34.9336 41.9727 36.8887 40.8125 39.832 40.8125ZM39.832 42.4023C38.1992 42.4023 37.1895 42.918 37.2109 43.7344C37.1895 44.5508 38.1992 45.0449 39.832 45.0449C41.4219 45.0449 42.4531 44.5508 42.4531 43.7344C42.4531 42.918 41.4219 42.4023 39.832 42.4023ZM74.0781 40.5117V54.6914H71.6934V47.5801H68.2559V45.6465H71.6934V40.5117H74.0781ZM74.5723 57.5918V59.5254H61.3379V53.4453H63.7227V57.5918H74.5723ZM64.9473 44.3789C64.9473 46.7207 66.5156 49.127 69.5234 50.1152L68.3203 52.0273C66.1504 51.2861 64.6143 49.8145 63.7656 47.9668C62.9062 50.0186 61.2842 51.6406 58.9961 52.4355L57.7715 50.502C60.8652 49.4922 62.5195 46.9355 62.5195 44.3574V43.8418H58.4805V41.9082H68.9648V43.8418H64.9473V44.3789ZM93.7148 42.5312V44.4004H89.6973C89.7402 46.0762 91.2764 47.5693 94.1445 48.1387L93.1992 49.9863C90.9756 49.5244 89.3965 48.4824 88.5371 47.0859C87.6885 48.6113 86.0986 49.7607 83.8105 50.2441L82.8008 48.3965C85.7119 47.8271 87.2588 46.1836 87.291 44.4004H83.2949V42.5312H87.3125V40.5332H89.6973V42.5312H93.7148ZM98.291 40.5117V59.8906H95.9277V40.5117H98.291ZM82.0703 51.2539C85.6797 51.2539 90.5137 51.2324 94.6602 50.7168L94.832 52.4355C93.1562 52.7256 91.416 52.9082 89.7188 53.0156V59.3105H87.3125V53.1445C85.54 53.2197 83.8535 53.2305 82.3711 53.2305L82.0703 51.2539ZM117.176 41.3711V43.2832H111.547C111.762 45.1094 114.136 46.8496 117.885 47.3008L116.982 49.1914C113.502 48.7725 110.935 47.2363 109.893 45.1309C108.851 47.2256 106.305 48.7725 102.824 49.1914L101.943 47.3008C105.692 46.8496 108.034 45.1094 108.26 43.2832H102.674V41.3711H117.176ZM118.787 50.2656V52.1992H111.289V55.7441H108.926V52.1992H101.041V50.2656H118.787ZM116.832 57.5918V59.5254H103.189V53.9609H105.574V57.5918H116.832ZM141.152 42.2734V44.1426C141.131 46.5488 141.131 49.2559 140.379 53.3164L137.973 53.0586C138.725 49.2773 138.725 46.5166 138.746 44.1855H127.145V42.2734H141.152ZM143 55.4434V57.3984H125.297V55.4434H131.828V48.6973H134.191V55.4434H143ZM154.666 42.1016V51.3398H145.299V42.1016H154.666ZM147.662 44.0137V49.4277H152.303V44.0137H147.662ZM160.488 40.5117V54.3691H158.082V40.5117H160.488ZM161.025 57.4629V59.3965H147.641V53.0586H150.047V57.4629H161.025ZM172.154 40.791C176.58 40.791 179.137 41.9727 179.158 44.1211C179.137 46.291 176.58 47.4512 172.154 47.4727C167.729 47.4512 165.15 46.291 165.15 44.1211C165.15 41.9727 167.729 40.791 172.154 40.791ZM172.154 42.5527C169.189 42.5527 167.643 43.1113 167.664 44.1211C167.643 45.1953 169.189 45.6895 172.154 45.6895C175.162 45.6895 176.688 45.1953 176.688 44.1211C176.688 43.1113 175.162 42.5527 172.154 42.5527ZM181.027 48.5039V50.416H163.324V48.5039H181.027ZM178.814 51.7266V56.4746H167.771V57.9141H179.352V59.7402H165.43V54.7773H176.473V53.4883H165.408V51.7266H178.814ZM204.166 40.5117V52.4785H201.889V47.5586H200.041V52.2422H197.807V40.791H200.041V45.6035H201.889V40.5117H204.166ZM197.119 42.4883V44.3789H187.451V42.4883H191.125V40.5977H193.488V42.4883H197.119ZM192.307 45.1094C194.777 45.1309 196.518 46.4629 196.539 48.4824C196.518 50.4805 194.777 51.8555 192.307 51.8555C189.879 51.8555 188.117 50.4805 188.139 48.4824C188.117 46.4629 189.879 45.1309 192.307 45.1094ZM192.307 46.8496C191.104 46.8496 190.266 47.4297 190.266 48.4824C190.266 49.4922 191.082 50.1152 192.307 50.1152C193.531 50.1152 194.369 49.4922 194.369 48.4824C194.369 47.4297 193.531 46.8496 192.307 46.8496ZM194.799 53.5527C194.799 55.0566 195.519 56.6035 197.141 57.5703C198.784 56.5391 199.547 54.9062 199.568 53.5527V53.0801H201.932V53.5527C201.932 55.4004 203.156 57.1836 205.691 57.8711L204.574 59.6758C202.673 59.0742 201.405 57.8711 200.729 56.3672C200.116 57.8496 198.978 59.1709 197.184 59.8477C195.357 59.2031 194.208 57.957 193.596 56.4746C192.887 57.8926 191.619 59.0635 189.814 59.6758L188.697 57.8711C191.189 57.1191 192.436 55.293 192.436 53.5527V53.0801H194.799V53.5527ZM216.605 41.9297V43.8633H210.096V50.0293C213.125 50.0078 215.209 49.9004 217.572 49.4492L217.809 51.3828C215.166 51.8555 212.846 51.9629 209.258 51.9844H207.732V41.9297H216.605ZM222.836 40.5117V54.6484H220.451V47.5801H215.424V45.6895H220.451V40.5117H222.836ZM223.33 57.6777V59.6113H210.074V53.5098H212.48V57.6777H223.33ZM7.71289 72.9277C7.71289 75.5059 9.25977 78.0195 12.2676 79.0508L10.957 80.9199C8.8623 80.125 7.3584 78.6104 6.55273 76.709C5.7041 78.8359 4.125 80.5225 1.84766 81.3711L0.580078 79.4805C3.69531 78.4277 5.28516 75.7422 5.30664 72.9062V70.6934H7.71289V72.9277ZM16.9082 69.5117V83.9277H14.5234V75.7422H10.6562V73.7871H14.5234V69.5117H16.9082ZM17.3379 86.5918V88.5254H4.10352V82.3594H6.53125V86.5918H17.3379ZM22.5156 71.2734V75.7637H25.6738V71.2734H27.8867V84.207H20.2598V71.2734H22.5156ZM22.5156 82.2734H25.6738V77.6543H22.5156V82.2734ZM36.416 69.4902V88.9121H34.1172V78.9648H32.0547V87.9668H29.7988V69.834H32.0547V76.9883H34.1172V69.4902H36.416ZM54.0117 71.1016C54.0117 73.5508 56.7402 76.0215 60.8867 76.5586L59.9414 78.4922C56.6436 77.998 54.0225 76.376 52.7656 74.1738C51.4873 76.376 48.877 77.998 45.6113 78.4922L44.666 76.5586C48.7695 76.0215 51.498 73.5508 51.498 71.1016V70.1133H54.0117V71.1016ZM61.5957 80.168V82.1445H53.8828V88.9121H51.5195V82.1445H43.8926V80.168H61.5957ZM80.6523 84.6797V86.6562H62.9062V84.6797H67.6113V81.4785H65.0117V75.1406H76.1836V72.7559H64.9688V70.8223H78.5469V77.0527H67.3965V79.5449H78.998V81.4785H76.1621V84.6797H80.6523ZM69.9316 84.6797H73.8203V81.4785H69.9316V84.6797ZM87.9785 73.0996C87.9785 75.2051 89.2031 77.3105 91.7598 78.2773L90.4922 80.1035C88.7627 79.4375 87.5596 78.2021 86.8613 76.6875C86.1523 78.4277 84.8848 79.9102 83.0371 80.6836L81.748 78.8574C84.4121 77.6758 85.6582 75.248 85.6797 73.0996V70.6934H87.9785V73.0996ZM98.5273 69.5117V81.4141H96.25V76.3652H94.3164V80.8125H92.082V69.877H94.3164V74.4102H96.25V69.5117H98.5273ZM91.9746 81.7363C96.0352 81.7363 98.6133 83.0684 98.6348 85.3027C98.6133 87.5371 96.0352 88.8906 91.9746 88.8906C87.8711 88.8906 85.3145 87.5371 85.3145 85.3027C85.3145 83.0684 87.8711 81.7363 91.9746 81.7363ZM91.9746 83.541C89.2891 83.541 87.6992 84.1641 87.6992 85.3027C87.6992 86.4629 89.2891 87.0645 91.9746 87.0645C94.6387 87.0645 96.2285 86.4629 96.2285 85.3027C96.2285 84.1641 94.6387 83.541 91.9746 83.541ZM107.229 70.8438C110.301 70.8223 112.557 72.7773 112.578 75.5273C112.557 78.2988 110.301 80.2324 107.229 80.2324C104.178 80.2324 101.9 78.2988 101.9 75.5273C101.9 72.7773 104.178 70.8223 107.229 70.8438ZM107.229 72.9062C105.531 72.9062 104.264 73.916 104.264 75.5273C104.264 77.1602 105.531 78.1484 107.229 78.1484C108.947 78.1484 110.236 77.1602 110.236 75.5273C110.236 73.916 108.947 72.9062 107.229 72.9062ZM117.111 69.4902V88.9336H114.727V69.4902H117.111ZM101.02 82.918C104.521 82.918 109.377 82.875 113.566 82.2734L113.76 84.0137C109.398 84.8516 104.736 84.873 101.32 84.873L101.02 82.918ZM131.227 73.0996C131.227 75.2051 132.451 77.3105 135.008 78.2773L133.74 80.1035C132.011 79.4375 130.808 78.2021 130.109 76.6875C129.4 78.4277 128.133 79.9102 126.285 80.6836L124.996 78.8574C127.66 77.6758 128.906 75.248 128.928 73.0996V70.6934H131.227V73.0996ZM141.775 69.5117V81.4141H139.498V76.3652H137.564V80.8125H135.33V69.877H137.564V74.4102H139.498V69.5117H141.775ZM135.223 81.7363C139.283 81.7363 141.861 83.0684 141.883 85.3027C141.861 87.5371 139.283 88.8906 135.223 88.8906C131.119 88.8906 128.562 87.5371 128.562 85.3027C128.562 83.0684 131.119 81.7363 135.223 81.7363ZM135.223 83.541C132.537 83.541 130.947 84.1641 130.947 85.3027C130.947 86.4629 132.537 87.0645 135.223 87.0645C137.887 87.0645 139.477 86.4629 139.477 85.3027C139.477 84.1641 137.887 83.541 135.223 83.541ZM150.24 73.0996C150.24 75.2051 151.465 77.3105 154.021 78.2773L152.754 80.1035C151.024 79.4375 149.821 78.2021 149.123 76.6875C148.414 78.4277 147.146 79.9102 145.299 80.6836L144.01 78.8574C146.674 77.6758 147.92 75.248 147.941 73.0996V70.6934H150.24V73.0996ZM160.789 69.5117V81.4141H158.512V76.3652H156.578V80.8125H154.344V69.877H156.578V74.4102H158.512V69.5117H160.789ZM154.236 81.7363C158.297 81.7363 160.875 83.0684 160.896 85.3027C160.875 87.5371 158.297 88.8906 154.236 88.8906C150.133 88.8906 147.576 87.5371 147.576 85.3027C147.576 83.0684 150.133 81.7363 154.236 81.7363ZM154.236 83.541C151.551 83.541 149.961 84.1641 149.961 85.3027C149.961 86.4629 151.551 87.0645 154.236 87.0645C156.9 87.0645 158.49 86.4629 158.49 85.3027C158.49 84.1641 156.9 83.541 154.236 83.541ZM178.514 69.5117V75.6133H181.221V77.5898H178.514V84.0137H176.129V69.5117H178.514ZM174.732 71.6602V73.5723H163.217V71.6602H167.793V69.4902H170.178V71.6602H174.732ZM168.975 74.3672C171.768 74.3672 173.701 75.8496 173.723 78.084C173.701 80.2969 171.768 81.7578 168.975 81.7578C166.16 81.7578 164.205 80.2969 164.205 78.084C164.205 75.8496 166.16 74.3672 168.975 74.3672ZM168.975 76.2148C167.492 76.2148 166.525 76.9023 166.525 78.084C166.525 79.2441 167.492 79.9316 168.975 79.9102C170.457 79.9316 171.445 79.2441 171.445 78.084C171.445 76.9023 170.457 76.2148 168.975 76.2148ZM179.287 86.5918V88.5254H166.074V82.875H168.459V86.5918H179.287ZM204.166 71.5742V73.5078H188.311V71.5742H195.078V69.4473H197.441V71.5742H204.166ZM205.176 82.0371V83.9922H197.441V88.9336H195.078V83.9922H187.43V82.0371H205.176ZM196.26 74.3887C200.363 74.3887 202.834 75.5488 202.834 77.6758C202.834 79.8027 200.363 80.9629 196.26 80.9629C192.156 80.9629 189.686 79.8027 189.686 77.6758C189.686 75.5488 192.156 74.3887 196.26 74.3887ZM196.26 76.1719C193.574 76.1719 192.156 76.6875 192.178 77.6758C192.156 78.6641 193.574 79.1797 196.26 79.1797C198.945 79.1797 200.363 78.6641 200.363 77.6758C200.363 76.6875 198.945 76.1719 196.26 76.1719ZM222.664 69.4902V88.9121H220.258V69.4902H222.664ZM216.863 71.5527C216.863 77.332 214.629 82.252 207.818 85.4746L206.572 83.5625C211.653 81.1455 214.017 77.8584 214.436 73.4434H207.561V71.5527H216.863ZM243.203 84.6797V86.6562H225.457V84.6797H233.105V81.5215H227.562V75.1621H238.734V72.7559H227.52V70.8223H241.098V77.0527H229.947V79.5664H241.549V81.5215H235.469V84.6797H243.203ZM7.58398 100.445H10.3555V111.381C10.3555 114.389 8.33594 116.215 5.34961 116.215C2.62109 116.215 0.537109 114.732 0.537109 111.875H3.33008C3.33008 113.143 4.18945 113.916 5.45703 113.916C6.81055 113.916 7.5625 113.035 7.58398 111.381V100.445ZM12.5684 112.713C12.5684 110.092 14.7383 109.318 16.9082 109.189C17.7139 109.136 19.3896 109.039 19.8945 109.018V108.094C19.8945 106.934 19.1426 106.268 17.7891 106.268C16.5645 106.268 15.8125 106.826 15.5977 107.664H12.9551C13.1484 105.688 14.9316 104.184 17.8535 104.184C20.0664 104.184 22.623 105.086 22.623 108.201V116H20.002V114.389H19.916C19.4004 115.377 18.3047 116.236 16.4785 116.236C14.2441 116.236 12.5684 115.012 12.5684 112.713ZM15.2109 112.691C15.2109 113.701 16.0273 114.217 17.1875 114.217C18.8418 114.217 19.916 113.121 19.916 111.811V110.844C19.4111 110.876 17.8857 110.983 17.3379 111.016C16.0273 111.123 15.2109 111.66 15.2109 112.691ZM35.1914 104.334L31.0234 116H28.0156L23.8477 104.334H26.7695L29.4551 113.014H29.584L32.291 104.334H35.1914ZM36.0293 112.713C36.0293 110.092 38.1992 109.318 40.3691 109.189C41.1748 109.136 42.8506 109.039 43.3555 109.018V108.094C43.3555 106.934 42.6035 106.268 41.25 106.268C40.0254 106.268 39.2734 106.826 39.0586 107.664H36.416C36.6094 105.688 38.3926 104.184 41.3145 104.184C43.5273 104.184 46.084 105.086 46.084 108.201V116H43.4629V114.389H43.377C42.8613 115.377 41.7656 116.236 39.9395 116.236C37.7051 116.236 36.0293 115.012 36.0293 112.713ZM38.6719 112.691C38.6719 113.701 39.4883 114.217 40.6484 114.217C42.3027 114.217 43.377 113.121 43.377 111.811V110.844C42.8721 110.876 41.3467 110.983 40.7988 111.016C39.4883 111.123 38.6719 111.66 38.6719 112.691ZM69.2871 98.9844V100.768H66.623V103.646H69.1797V105.473H54.9141V103.646H57.4707V100.768H54.8066V98.9844H69.2871ZM70.9199 106.676V108.566H63.2285V110.027H68.707V114.646H57.6641V115.957H69.2441V117.74H55.3223V112.992H66.3652V111.768H55.3008V110.027H60.8438V108.566H53.2168V106.676H70.9199ZM59.8555 103.646H64.2168V100.768H59.8555V103.646ZM82.2637 101.154C82.2637 104.162 85.207 107.17 89.2676 107.879L88.1934 109.877C84.9385 109.189 82.2744 107.224 81.0176 104.613C79.7285 107.202 77.0645 109.179 73.8203 109.877L72.7676 107.879C76.7852 107.148 79.707 104.141 79.7285 101.154V99.7148H82.2637V101.154ZM89.9766 113.465V115.441H72.2305V113.465H89.9766ZM99.6016 99.8438V101.756H94.2734V103.646H99.4082V105.473H94.2734V107.514C96.6475 107.492 98.291 107.396 100.182 107.041L100.439 108.975C98.1621 109.404 96.2715 109.469 93.2637 109.469H91.9746V99.8438H99.6016ZM107.852 98.5117V110.328H105.574V105.279H103.555V110.178H101.32V98.877H103.555V103.367H105.574V98.5117H107.852ZM107.852 111.188V117.912H105.467V113.121H94.5527V111.188H107.852ZM126.328 100.51V101.885C126.328 103.625 126.328 106.053 125.791 109.404L123.428 109.211C123.89 106.268 123.943 104.098 123.965 102.422H116.338V100.51H126.328ZM121.43 106.053V111.789C123.406 111.714 125.437 111.574 127.295 111.338L127.424 113.121C123.406 113.766 118.959 113.852 115.543 113.83L115.307 111.918C116.456 111.907 117.734 111.896 119.066 111.854V106.053H121.43ZM130.711 98.4902V106.396H133.525V108.416H130.711V117.912H128.305V98.4902H130.711ZM150.756 98.4902V110.027H148.371V105.279H145.062V103.324H148.371V98.4902H150.756ZM144.182 110.521C148.307 110.521 150.82 111.875 150.82 114.217C150.82 116.559 148.307 117.912 144.182 117.912C140.078 117.912 137.564 116.559 137.586 114.217C137.564 111.875 140.078 110.521 144.182 110.521ZM144.182 112.348C141.475 112.348 139.949 112.992 139.949 114.217C139.949 115.42 141.475 116.064 144.182 116.064C146.889 116.064 148.436 115.42 148.436 114.217C148.436 112.992 146.889 112.348 144.182 112.348ZM141.625 101.82C141.625 104.184 143.193 106.568 146.201 107.578L144.998 109.469C142.839 108.738 141.303 107.256 140.465 105.43C139.605 107.503 137.983 109.157 135.674 109.984L134.428 108.094C137.543 107.02 139.197 104.398 139.197 101.842V101.691H135.158V99.7578H145.643V101.691H141.625V101.82ZM168.996 100.316V113.186H159.758V100.316H168.996ZM162.121 102.186V111.273H166.676V102.186H162.121ZM174.883 98.4902V117.934H172.477V98.4902H174.883ZM193.918 98.4902V117.934H191.555V98.4902H193.918ZM187.945 100.188V107.471H181.264V111.381C184.325 111.359 186.968 111.209 189.986 110.693L190.201 112.648C186.893 113.229 183.992 113.336 180.512 113.336H178.814V105.58H185.518V102.121H178.793V100.188H187.945ZM214.5 113.615V115.57H196.754V113.615H204.402V109.834H198.709V99.7793H201.094V102.959H210.096V99.7793H212.48V109.834H206.766V113.615H214.5ZM201.094 107.9H210.096V104.871H201.094V107.9ZM231.988 98.4902V117.912H229.582V98.4902H231.988ZM226.188 100.553C226.188 106.332 223.953 111.252 217.143 114.475L215.896 112.562C220.978 110.146 223.341 106.858 223.76 102.443H216.885V100.553H226.188Z" fill="white"/>
<path d="M0.714844 10V1.51562H4.04297C5.9707 1.51562 7.07812 2.59961 7.07812 4.28125C7.07812 5.44141 6.54492 6.28516 5.57812 6.70117L7.38281 10H5.4375L3.81445 6.98828H2.47266V10H0.714844ZM2.47266 5.55859H3.71484C4.75781 5.55859 5.26758 5.13086 5.26172 4.28125C5.26758 3.42578 4.75781 2.96289 3.71484 2.95703H2.47266V5.55859ZM8.29688 10V1.51562H13.9922V2.96875H10.0547V5.03125H13.6992V6.48438H10.0547V8.54688H14.0039V10H8.29688ZM16.8516 1.51562L18.9141 7.98438H18.9961L21.0703 1.51562H23.0156L20.0859 10H17.8242L14.8828 1.51562H16.8516ZM25.7344 1.51562V10H23.9766V1.51562H25.7344ZM27.1641 10V1.51562H32.8594V2.96875H28.9219V5.03125H32.5664V6.48438H28.9219V8.54688H32.8711V10H27.1641ZM36.1289 10L33.7031 1.51562H35.625L37.0547 7.44531H37.125L38.6836 1.51562H40.3359L41.8945 7.45703H41.9648L43.3945 1.51562H45.3164L42.8906 10H41.168L39.5508 4.39844H39.4805L37.8516 10H36.1289Z" fill="#767BFF"/>
<path d="M4.12845 157.099V167H3.15193V158.115H3.09392L0.749309 159.662V158.666L3.11809 157.099H4.12845ZM16.3579 156.002V168.068H15.4974V156.002H16.3579ZM6.63139 165.018C9.94285 163.442 11.7122 160.981 11.9249 158.042H7.15832V157.331H12.7951C12.7902 160.735 11.0692 163.814 7.10515 165.733L6.63139 165.018ZM20.2973 166.159L19.3014 169.702H18.5038L19.2676 166.159H20.2973ZM25.8593 167L25.8545 166.285L29.1998 162.669C30.4712 161.281 30.9981 160.595 31.003 159.662C30.9981 158.559 30.1038 157.82 28.9242 157.82C27.677 157.82 26.8649 158.651 26.8649 159.802H25.9415C25.9318 158.144 27.2178 156.964 28.9533 156.964C30.6742 156.964 31.9118 158.139 31.9167 159.662C31.9118 160.764 31.4042 161.6 29.7026 163.408L27.2274 166.062V166.13H32.2115V167H25.8593ZM43.5786 156.002V168.068H42.7181V156.002H43.5786ZM33.8521 165.018C37.1636 163.442 38.9329 160.981 39.1456 158.042H34.379V157.331H40.0158C40.0109 160.735 38.2899 163.814 34.3258 165.733L33.8521 165.018ZM55.0951 157.186C55.0903 158.97 57.5606 160.406 59.5474 160.706L59.1897 161.416C57.4107 161.097 55.4141 160.048 54.66 158.506C53.9107 160.063 51.9093 161.097 50.1303 161.416L49.7629 160.706C51.7546 160.406 54.2104 159.009 54.2104 157.186V156.461H55.0951V157.186ZM49.149 163.611V162.876H60.142V163.611H55.0516V168.068H54.2056V163.611H49.149ZM72.2948 165.777V166.517H61.2486V165.777H64.444V163.345H62.6698V159.734H70.0131V157.665H62.6312V156.935H70.8639V160.459H63.5207V162.62H71.1443V163.345H69.1912V165.777H72.2948ZM65.29 165.777H68.3501V163.345H65.29V165.777ZM76.8627 158.477C76.8627 159.826 77.8779 161.204 79.4152 161.769L78.9559 162.441C77.7618 161.977 76.8772 161.059 76.4566 159.971C76.0167 161.155 75.103 162.229 73.8944 162.76L73.4159 162.088C74.9725 161.407 76.036 159.826 76.036 158.477V156.766H76.8627V158.477ZM75.6009 165.912C75.5913 164.564 77.1092 163.785 79.6085 163.78C82.0885 163.785 83.621 164.564 83.621 165.912C83.621 167.251 82.0885 168.03 79.6085 168.03C77.1092 168.03 75.5913 167.251 75.6009 165.912ZM76.4469 165.912C76.4421 166.797 77.67 167.348 79.6085 167.338C81.5277 167.348 82.7605 166.797 82.7653 165.912C82.7605 165.018 81.5277 164.472 79.6085 164.472C77.67 164.472 76.4421 165.018 76.4469 165.912ZM80.1065 163.099V156.249H80.9283V159.352H82.7315V156.017H83.5485V163.485H82.7315V160.077H80.9283V163.099H80.1065ZM92.6406 156.965C94.582 156.979 96.4961 158.127 96.5098 161.75C96.5098 165.168 94.9648 167.137 92.5312 167.137C90.6172 167.137 89.3047 165.947 89.0859 164.307H90.8496C91.0273 165.086 91.6289 165.592 92.5312 165.592C93.9668 165.592 94.7734 164.32 94.7871 162.201H94.6777C94.1719 163.062 93.2285 163.568 92.1348 163.568C90.3711 163.568 89.0039 162.229 88.9902 160.355C88.9902 158.414 90.4395 156.951 92.6406 156.965ZM92.6543 158.4C91.5469 158.4 90.7129 159.262 90.7266 160.314C90.7266 161.381 91.5195 162.215 92.627 162.215C93.7207 162.215 94.582 161.326 94.5684 160.301C94.5684 159.289 93.7617 158.4 92.6543 158.4ZM101.637 167.137C99.2578 167.137 97.8359 165.291 97.8359 162.051C97.8359 158.824 99.2578 156.965 101.637 156.965C104.002 156.965 105.438 158.824 105.438 162.051C105.438 165.291 104.016 167.137 101.637 167.137ZM101.637 165.646C102.881 165.646 103.646 164.43 103.646 162.051C103.646 159.686 102.867 158.441 101.637 158.441C100.406 158.441 99.627 159.686 99.627 162.051C99.627 164.43 100.393 165.646 101.637 165.646ZM109.361 161.928C107.953 161.928 107.188 160.889 107.188 159.371C107.188 157.867 107.98 156.828 109.361 156.828C110.797 156.828 111.549 157.867 111.549 159.371C111.549 160.902 110.77 161.928 109.361 161.928ZM109.361 160.834C109.977 160.834 110.277 160.26 110.277 159.371C110.277 158.51 110.004 157.908 109.361 157.922C108.76 157.922 108.445 158.51 108.445 159.371C108.445 160.26 108.76 160.834 109.361 160.834ZM115.828 167.26C114.42 167.273 113.654 166.221 113.654 164.717C113.654 163.199 114.447 162.16 115.828 162.16C117.25 162.16 118.016 163.199 118.016 164.717C118.016 166.234 117.236 167.273 115.828 167.26ZM115.828 166.166C116.457 166.166 116.744 165.592 116.744 164.717C116.744 163.842 116.471 163.24 115.828 163.254C115.227 163.254 114.912 163.855 114.912 164.717C114.912 165.592 115.227 166.166 115.828 166.166ZM108.459 167L115.268 157.102H116.648L109.84 167H108.459ZM133.109 155.857V168.23H131.578V155.857H133.109ZM126.451 156.76C128.311 156.76 129.664 158.455 129.678 161.121C129.664 163.814 128.311 165.496 126.451 165.496C124.578 165.496 123.225 163.814 123.225 161.121C123.225 158.455 124.578 156.76 126.451 156.76ZM126.451 158.127C125.398 158.127 124.688 159.234 124.688 161.121C124.688 163.021 125.398 164.129 126.451 164.129C127.49 164.129 128.201 163.021 128.201 161.121C128.201 159.234 127.49 158.127 126.451 158.127ZM139.303 157.826C139.303 159.385 140.314 160.848 142.215 161.449L141.395 162.639C140.062 162.188 139.104 161.285 138.578 160.137C138.031 161.449 137.033 162.481 135.611 162.98L134.791 161.791C136.787 161.094 137.771 159.453 137.785 157.689V156.514H139.303V157.826ZM144.676 155.857V158.865H146.398V160.123H144.676V163.254H143.158V155.857H144.676ZM140.656 163.527C143.213 163.514 144.785 164.389 144.799 165.852C144.785 167.342 143.213 168.203 140.656 168.203C138.072 168.203 136.473 167.342 136.473 165.852C136.473 164.389 138.072 163.514 140.656 163.527ZM140.656 164.717C138.961 164.717 137.99 165.127 137.99 165.852C137.99 166.617 138.961 167 140.656 167C142.352 167 143.295 166.617 143.295 165.852C143.295 165.127 142.352 164.717 140.656 164.717ZM160.645 155.871V164.799H159.113V155.871H160.645ZM160.986 166.74V167.971H152.469V163.896H154V166.74H160.986ZM153.904 156.678C155.777 156.678 157.227 157.977 157.227 159.768C157.227 161.6 155.777 162.871 153.904 162.871C152.018 162.871 150.568 161.6 150.568 159.768C150.568 157.977 152.018 156.678 153.904 156.678ZM153.904 158.004C152.852 158.004 152.045 158.701 152.059 159.768C152.045 160.861 152.852 161.545 153.904 161.545C154.93 161.545 155.736 160.861 155.736 159.768C155.736 158.701 154.93 158.004 153.904 158.004ZM172.799 155.871V165.004H171.281V160.479H169.066V159.248H171.281V155.871H172.799ZM173.113 166.74V167.971H164.678V164.211H166.209V166.74H173.113ZM168.67 156.814V158.045H164.568V159.385H168.301V160.574H164.568V161.996C166.523 161.989 167.754 161.948 169.189 161.695L169.312 162.912C167.713 163.199 166.332 163.254 163.994 163.254H163.051V156.814H168.67ZM188.221 155.871V164.895H186.703V160.369H184.516V159.139H186.703V155.871H188.221ZM188.535 166.74V167.971H180.113V164.102H181.631V166.74H188.535ZM182.41 158.332C182.41 159.822 183.408 161.354 185.322 161.982L184.557 163.199C183.176 162.728 182.198 161.791 181.658 160.615C181.111 161.921 180.079 162.953 178.623 163.459L177.844 162.229C179.812 161.586 180.865 159.959 180.865 158.318V157.99H178.295V156.76H184.967V157.99H182.41V158.332ZM199.76 155.857V160H201.428V161.258H199.76V165.51H198.242V155.857H199.76ZM200.197 166.74V167.971H191.639V164.867H193.156V166.74H200.197ZM189.861 163.035C190.784 163.035 191.857 163.028 192.979 162.98V162.201C191.604 162.037 190.736 161.36 190.736 160.369C190.736 159.152 191.926 158.441 193.717 158.455C195.521 158.441 196.697 159.152 196.697 160.369C196.697 161.354 195.85 162.023 194.496 162.201V162.912C195.549 162.857 196.608 162.762 197.6 162.611L197.723 163.678C195.111 164.17 192.158 164.197 190.025 164.225L189.861 163.035ZM197.271 156.938V158.045H190.176V156.938H192.979V155.816H194.496V156.938H197.271ZM193.717 159.48C192.76 159.48 192.186 159.795 192.199 160.369C192.186 160.902 192.76 161.217 193.717 161.217C194.674 161.217 195.248 160.902 195.248 160.369C195.248 159.795 194.674 159.48 193.717 159.48ZM204.613 157.102L204.463 164.088H202.918L202.754 157.102H204.613ZM203.697 167.109C203.109 167.109 202.631 166.631 202.631 166.043C202.631 165.469 203.109 164.99 203.697 164.99C204.258 164.99 204.75 165.469 204.75 166.043C204.75 166.631 204.258 167.109 203.697 167.109ZM11.0605 175.184V176.414H0.970703V175.184H5.27734V173.83H6.78125V175.184H11.0605ZM11.7031 181.842V183.086H6.78125V186.23H5.27734V183.086H0.410156V181.842H11.7031ZM6.0293 176.975C8.64062 176.975 10.2129 177.713 10.2129 179.066C10.2129 180.42 8.64062 181.158 6.0293 181.158C3.41797 181.158 1.8457 180.42 1.8457 179.066C1.8457 177.713 3.41797 176.975 6.0293 176.975ZM6.0293 178.109C4.32031 178.109 3.41797 178.438 3.43164 179.066C3.41797 179.695 4.32031 180.023 6.0293 180.023C7.73828 180.023 8.64062 179.695 8.64062 179.066C8.64062 178.438 7.73828 178.109 6.0293 178.109ZM22.832 173.857V186.217H21.3008V173.857H22.832ZM19.1406 175.17C19.1406 178.848 17.7188 181.979 13.3848 184.029L12.5918 182.812C15.8252 181.274 17.3291 179.183 17.5957 176.373H13.2207V175.17H19.1406ZM34.2891 173.857V178.684H36.1211V179.955H34.2891V186.189H32.7715V173.857H34.2891ZM31.0215 175.143C31.0215 178.779 29.5176 181.965 25.4023 183.988L24.541 182.812C27.5488 181.315 29.1758 179.21 29.4902 176.4H25.2109V175.143H31.0215ZM51.2969 179.613V180.844H40.0312V179.613H51.2969ZM45.6504 181.664C48.3164 181.664 49.916 182.498 49.9297 183.934C49.916 185.383 48.3164 186.203 45.6504 186.203C42.957 186.203 41.3438 185.383 41.3438 183.934C41.3438 182.498 42.957 181.664 45.6504 181.664ZM45.6504 182.854C43.8457 182.854 42.875 183.223 42.8887 183.934C42.875 184.645 43.8457 185.014 45.6504 185.014C47.4141 185.014 48.3984 184.645 48.4121 183.934C48.3984 183.223 47.4141 182.854 45.6504 182.854ZM50.2852 174.445V175.689H46.7168C46.9424 176.715 48.4258 177.638 50.7637 177.863L50.2305 179.066C47.9883 178.827 46.3203 177.945 45.6504 176.688C44.9805 177.938 43.3398 178.827 41.0977 179.066L40.5781 177.863C42.8682 177.638 44.3584 176.715 44.5977 175.689H41.0566V174.445H50.2852ZM62.4805 173.857V181.131H60.9629V179.422H58.4746V180.379H52.6641V174.787H58.4746V175.744H60.9629V173.857H62.4805ZM54.1816 175.99V179.162H56.9707V175.99H54.1816ZM58.2969 181.459C60.9219 181.459 62.5215 182.334 62.5215 183.838C62.5215 185.342 60.9219 186.203 58.2969 186.203C55.6855 186.203 54.0859 185.342 54.0996 183.838C54.0859 182.334 55.6855 181.459 58.2969 181.459ZM58.2969 182.621C56.5742 182.621 55.6035 183.045 55.6035 183.838C55.6035 184.604 56.5742 185.027 58.2969 185.027C60.0195 185.027 61.0039 184.604 61.0039 183.838C61.0039 183.045 60.0195 182.621 58.2969 182.621ZM58.4746 178.191H60.9629V176.947H58.4746V178.191ZM73.9102 173.857V178.779H75.8105V180.037H73.9102V186.217H72.4062V173.857H73.9102ZM71.4492 175.758V176.975H64.1621V175.758H67.0879V174.035H68.6055V175.758H71.4492ZM67.8535 177.781C69.6309 177.781 70.957 178.984 70.957 180.693C70.957 182.402 69.6309 183.592 67.8535 183.592C66.0488 183.592 64.7227 182.402 64.7363 180.693C64.7227 178.984 66.0488 177.781 67.8535 177.781ZM67.8535 179.025C66.8828 179.025 66.1855 179.682 66.1855 180.693C66.1855 181.705 66.8828 182.348 67.8535 182.334C68.7969 182.348 69.4941 181.705 69.5078 180.693C69.4941 179.682 68.7969 179.025 67.8535 179.025ZM86.3379 177.357V178.561H77.7793V174.309H79.2832V177.357H86.3379ZM87.6094 179.996V181.199H76.3164V179.996H87.6094ZM86.4199 184.699V185.93H77.6699V182.293H79.1875V184.699H86.4199ZM95.886 176.898C95.886 178.585 97.2734 179.997 99.0186 180.552L98.5835 181.253C97.1767 180.78 96.0069 179.784 95.4799 178.469C94.9723 179.876 93.8073 180.944 92.3812 181.461L91.9509 180.785C93.6816 180.19 95.0303 178.682 95.0352 176.898V176.414H92.212V175.689H95.0352V174.075H95.9053V175.689H98.6947V176.414H95.886V176.898ZM94.1553 185.778V182.211H95.0158V185.048H102.175V185.778H94.1553ZM98.2693 178.522V177.787H100.952V174.017H101.818V183.047H100.952V178.522H98.2693ZM114.28 174.002V186.068H113.443V179.711H111.602V185.435H110.78V174.287H111.602V178.952H113.443V174.002H114.28ZM103.886 182.849C105.597 181.916 106.627 179.885 106.627 177.396V176.231H104.138V175.501H109.818V176.231H107.459V177.396C107.454 179.634 108.459 181.568 110.147 182.423L109.62 183.1C108.372 182.419 107.488 181.181 107.062 179.629C106.651 181.389 105.733 182.747 104.437 183.511L103.886 182.849ZM117.687 175.099V185H116.716V175.099H117.687ZM119.448 175.97V175.099H126.69V175.97H123.562V185H122.586V175.97H119.448ZM137.394 175.283V176.675C137.385 178.247 137.385 179.769 136.969 181.95L136.118 181.838C136.544 179.76 136.544 178.203 136.548 176.675V176.008H128.978V175.283H137.394ZM127.803 184.28V183.545H130.651V179.508H131.516V183.545H133.662V179.508H134.513V183.545H138.796V184.28H127.803ZM150.896 179.876V180.601H147.875V182.259H149.523V186.068H148.653V182.97H141.126V182.259H142.924V180.601H139.903V179.876H150.896ZM141.16 176.588C141.16 175.148 142.784 174.297 145.39 174.302C147.995 174.297 149.615 175.148 149.615 176.588C149.615 178.029 147.995 178.875 145.39 178.865C142.784 178.875 141.16 178.029 141.16 176.588ZM142.049 176.588C142.04 177.56 143.355 178.179 145.39 178.179C147.415 178.179 148.74 177.56 148.74 176.588C148.74 175.617 147.415 175.003 145.39 175.008C143.355 175.003 142.04 175.617 142.049 176.588ZM143.785 182.259H147.029V180.601H143.785V182.259ZM162.203 174.002V183.061H161.386V174.002H162.203ZM152.099 180.596C153.627 179.866 154.671 178.169 154.671 176.743V174.872H155.498V176.743C155.498 178.169 156.474 179.634 158.007 180.272L157.509 180.949C156.353 180.432 155.502 179.455 155.092 178.319C154.666 179.557 153.772 180.688 152.597 181.268L152.099 180.596ZM154.381 185.778V181.925H155.241V185.048H162.599V185.778H154.381ZM156.962 177.884V177.159H159.017V174.258H159.853V182.718H159.017V177.884H156.962ZM174.041 174.002V186.083H173.19V179.387H170.493V178.662H173.19V174.002H174.041ZM164.663 183.119V175.138H170.29V175.863H165.533V178.541H169.719V179.257H165.533V182.38H165.567C167.96 182.385 169.391 182.322 171.078 181.998L171.189 182.723C169.434 183.028 167.984 183.11 165.567 183.119H164.663ZM189.512 174.34V175.027H187.564V177.579H189.483V178.276H180.666V177.579H182.594V175.027H180.641V174.34H189.512ZM179.592 180.103V179.387H190.585V180.103H185.505V181.408H189.145V183.927H181.826V185.222H189.522V185.914H180.985V183.265H188.299V182.085H180.951V181.408H184.649V180.103H179.592ZM183.45 177.579H186.704V175.027H183.45V177.579ZM197.599 175.839C197.599 178 200.22 179.827 202.119 180.195L201.699 180.92C200.002 180.504 197.923 179.184 197.164 177.333C196.4 179.18 194.331 180.494 192.625 180.92L192.219 180.195C194.109 179.818 196.705 178.019 196.71 175.839V174.887H197.599V175.839ZM191.692 184.376V183.642H202.738V184.376H191.692ZM209.022 174.911V175.641H205.198V177.323H208.882V178.024H205.198V179.876C207.108 179.876 208.234 179.808 209.573 179.532L209.675 180.258C208.249 180.552 207.113 180.615 205.106 180.615H204.367V174.911H209.022ZM205.928 182.694V181.969H213.992V186.068H213.151V182.694H205.928ZM210.453 181.224V174.249H211.265V177.222H213.175V174.017H213.992V181.307H213.175V177.942H211.265V181.224H210.453ZM229.545 174.002V186.068H228.699V179.692H226.833V185.44H226.011V174.331H226.833V178.967H228.699V174.002H229.545ZM219.345 182.81C222.274 181.21 223.454 178.846 223.608 176.323H219.756V175.588H224.459C224.45 178.57 223.347 181.51 219.852 183.439L219.345 182.81ZM232.793 174.5V176.337H236.641V174.5H237.492V179.745H231.947V174.5H232.793ZM232.793 179.03H236.641V177.033H232.793V179.03ZM233.175 181.587V180.876H240.774V183.675H234.05V185.193H241.243V185.914H233.204V183.003H239.919V181.587H233.175ZM239.909 180.272V174.002H240.774V176.709H242.64V177.434H240.774V180.272H239.909ZM247.435 177.85C247.431 179.803 248.968 181.935 250.641 182.742L250.128 183.429C248.794 182.752 247.561 181.273 247.024 179.595C246.473 181.403 245.158 183.023 243.834 183.724L243.307 183.037C244.951 182.225 246.594 179.924 246.599 177.85V175.999H243.723V175.264H250.244V175.999H247.435V177.85ZM251.897 186.068V174.002H252.763V178.967H254.851V179.716H252.763V186.068H251.897ZM265.628 175.375V175.902C265.618 176.791 265.618 178.425 265.265 180.736L264.4 180.664C264.743 178.546 264.767 177.019 264.767 176.1H259.542V175.375H265.628ZM258.841 182.602C259.667 182.597 260.596 182.593 261.567 182.568V178.817H262.423V182.539C263.805 182.491 265.227 182.404 266.527 182.244L266.571 182.902C264.018 183.294 261.137 183.352 258.966 183.347L258.841 182.602ZM267.344 186.068V174.002H268.2V179.117H270.259V179.876H268.2V186.068H267.344ZM281.015 174.002V181.2H280.15V177.942H277.534V177.217H280.15V174.002H281.015ZM271.158 180.354C272.889 179.711 274.286 178.082 274.286 176.294V175.665H271.458V174.94H277.94V175.665H275.146V176.284C275.146 177.898 276.471 179.402 278.187 180.001L277.728 180.698C276.364 180.195 275.252 179.141 274.74 177.85C274.228 179.32 273.038 180.485 271.612 181.046L271.158 180.354ZM273.048 183.83C273.038 182.419 274.556 181.606 277.051 181.606C279.536 181.606 281.054 182.419 281.054 183.83C281.054 185.232 279.536 186.039 277.051 186.049C274.556 186.039 273.038 185.232 273.048 183.83ZM273.899 183.83C273.889 184.763 275.122 185.348 277.051 185.338C278.975 185.348 280.203 184.763 280.203 183.83C280.203 182.883 278.975 182.298 277.051 182.298C275.122 182.298 273.889 182.883 273.899 183.83Z" fill="white"/>
</svg>
