<svg width="690" height="158" viewBox="0 0 690 158" fill="none" xmlns="http://www.w3.org/2000/svg">
<rect y="34" width="690" height="48" rx="24" fill="#553BF3"/>
<path d="M208.43 58.9375V61.0469H189.117V58.9375H197.438V57.0625C193.559 56.7812 191.109 55.2344 191.109 52.7734C191.109 50.1133 194.121 48.4844 198.75 48.4844C203.367 48.4844 206.379 50.1133 206.391 52.7734C206.379 55.2344 203.93 56.7812 200.062 57.0625V58.9375H208.43ZM191.508 68.6641V62.5H194.109V66.5547H206.25V68.6641H191.508ZM193.828 52.7734C193.805 54.2383 195.668 55.0117 198.75 55C201.844 55.0117 203.695 54.2383 203.695 52.7734C203.695 51.3789 201.844 50.5586 198.75 50.5469C195.668 50.5586 193.805 51.3789 193.828 52.7734ZM226.453 47.8984V56.0312H229.711V58.2109H226.453V69.1094H223.875V47.8984H226.453ZM210.703 51.8594V49.75H220.453V57.7422H213.328V61.9609C216.691 61.9375 219.305 61.7969 222.258 61.2812L222.492 63.3906C219.223 63.9766 216.34 64.1172 212.484 64.1172H210.75V55.6562H217.852V51.8594H210.703ZM248.25 47.9219V63.2266H245.625V47.9219H248.25ZM230.977 54.6016C230.977 51.5195 233.473 49.3164 236.695 49.3047C239.918 49.3164 242.402 51.5195 242.391 54.6016C242.402 57.7305 239.918 59.9219 236.695 59.9219C233.473 59.9219 230.977 57.7305 230.977 54.6016ZM233.531 54.6016C233.52 56.4766 234.879 57.6484 236.695 57.6484C238.465 57.6484 239.836 56.4766 239.836 54.6016C239.836 52.7734 238.465 51.5781 236.695 51.5781C234.879 51.5781 233.52 52.7734 233.531 54.6016ZM234.234 68.6641V61.6797H236.859V66.5547H248.836V68.6641H234.234ZM273.75 47.8984V53.0547H276.703V55.1875H273.75V60.3203H271.148V47.8984H273.75ZM256.969 58.5391C261.762 57.2266 264.621 54.6367 265.066 51.4609H257.93V49.3516H267.891C267.902 54.918 264.27 58.8789 258 60.6484L256.969 58.5391ZM259.828 64.8203C259.805 62.207 262.641 60.5781 266.906 60.5781C271.207 60.5781 273.984 62.207 273.984 64.8203C273.984 67.457 271.207 69.0742 266.906 69.0625C262.641 69.0742 259.805 67.457 259.828 64.8203ZM262.406 64.8203C262.395 66.2031 264.105 67.0234 266.906 67.0234C269.695 67.0234 271.418 66.2031 271.43 64.8203C271.418 63.4258 269.695 62.6172 266.906 62.6172C264.105 62.6172 262.395 63.4258 262.406 64.8203ZM284.648 49.375C288.012 49.3633 290.461 51.4844 290.484 54.4844C290.461 57.4961 288.012 59.6055 284.648 59.6172C281.32 59.6055 278.824 57.4961 278.836 54.4844C278.824 51.4844 281.32 49.3633 284.648 49.375ZM277.875 62.5469C281.695 62.5469 286.98 62.5 291.562 61.8438L291.773 63.7422C287.027 64.6445 281.941 64.6797 278.203 64.6797L277.875 62.5469ZM281.414 54.4844C281.402 56.2539 282.797 57.3438 284.648 57.3438C286.523 57.3438 287.918 56.2539 287.93 54.4844C287.918 52.7266 286.535 51.625 284.648 51.625C282.797 51.625 281.402 52.7266 281.414 54.4844ZM292.828 69.1094V47.8984H295.43V69.1094H292.828ZM322.5 47.8984V60.9531H319.992V47.8984H322.5ZM304.078 55.8672C306.914 55.8789 311.59 55.8203 315.047 55.2812L315.211 57.0391C313.91 57.3203 312.492 57.5078 311.062 57.625V60.8594H308.555V57.7773C306.984 57.8359 305.508 57.8477 304.336 57.8359L304.078 55.8672ZM305.039 51.7891C305.039 49.8438 306.914 48.6484 309.703 48.6484C312.457 48.6484 314.344 49.8438 314.344 51.7891C314.344 53.7109 312.457 54.9531 309.703 54.9531C306.914 54.9531 305.039 53.7109 305.039 51.7891ZM307.406 51.7891C307.418 52.668 308.273 53.1133 309.703 53.125C311.098 53.1133 312.012 52.668 312.023 51.7891C312.012 50.9219 311.098 50.4531 309.703 50.4531C308.273 50.4531 307.418 50.9219 307.406 51.7891ZM307.641 68.8281V61.6562H310.219V63.2734H319.898V61.6562H322.5V68.8281H307.641ZM310.219 66.7891H319.898V65.2656H310.219V66.7891ZM312.656 60.0391V58.2578H316.031V48.2734H318.492V60.9297H316.031V60.0391H312.656ZM335.438 49.5156C338.25 49.5039 340.078 52.3984 340.102 57.0625C340.078 61.7383 338.25 64.6445 335.438 64.6328C332.672 64.6445 330.867 61.7383 330.867 57.0625C330.867 52.3984 332.672 49.5039 335.438 49.5156ZM333.281 57.0625C333.27 60.3789 334.09 62.1602 335.438 62.1484C336.844 62.1602 337.676 60.3789 337.688 57.0625C337.676 53.7578 336.844 51.9648 335.438 51.9766C334.09 51.9648 333.27 53.7578 333.281 57.0625ZM341.719 68.0547V48.2734H344.18V56.0781H346.43V47.8984H348.938V69.0859H346.43V58.2344H344.18V68.0547H341.719ZM368.93 48.5078V50.4766H366.023V53.6875H368.812V55.6562H353.25V53.6875H356.039V50.4766H353.133V48.5078H368.93ZM351.398 59.0547V56.9922H370.711V59.0547H351.398ZM353.672 62.3828V60.4844H368.297V65.5234H356.25V66.9531H368.883V68.8984H353.695V63.7188H365.742V62.3828H353.672ZM358.641 53.6875H363.398V50.4766H358.641V53.6875ZM389.789 47.8984V69.1094H387.211V47.8984H389.789ZM373.289 51.8594V49.75H383.273V57.6953H375.984V61.9609C379.324 61.9375 382.195 61.7617 385.5 61.2109L385.734 63.3438C382.137 63.9648 378.973 64.1055 375.164 64.0938H373.312V55.6328H380.625V51.8594H373.289ZM402.281 50.3359C402.27 52.3281 402.082 54.2383 401.59 56.0312H404.203V48.4141H406.664V68.0781H404.203V58.1406H400.816C399.656 60.6953 397.652 62.9453 394.359 64.7969L392.883 63.0156C395.754 61.375 397.523 59.4648 398.555 57.2734L393.258 57.8125L392.953 55.5625L399.293 55.2109C399.516 54.332 399.656 53.4062 399.727 52.4453H393.984V50.3359H402.281ZM408.68 69.0859V47.8984H411.164V69.0859H408.68ZM431.25 47.8984V69.1094H428.625V47.8984H431.25ZM414.305 56.9219C414.293 52.3516 416.625 49.4453 419.836 49.4453C423.012 49.4453 425.355 52.3516 425.367 56.9219C425.355 61.5273 423.012 64.4219 419.836 64.4219C416.625 64.4219 414.293 61.5273 414.305 56.9219ZM416.812 56.9219C416.812 60.1797 418.043 62.0664 419.836 62.0781C421.617 62.0664 422.836 60.1797 422.836 56.9219C422.836 53.6875 421.617 51.7891 419.836 51.7891C418.043 51.7891 416.812 53.6875 416.812 56.9219ZM442.078 51.6484C442.066 54.6367 443.742 57.543 447 58.7734L445.547 60.7891C443.285 59.8984 441.668 58.1289 440.789 55.9375C439.875 58.293 438.164 60.1562 435.727 61.0938L434.32 59.0312C437.695 57.8125 439.441 54.8242 439.453 51.6484V49.1172H442.078V51.6484ZM438.141 68.6641V62.1016H440.789V66.5547H452.578V68.6641H438.141ZM445.641 57.0859V55H449.508V52.9141H445.641V50.8047H449.508V47.9219H452.109V63.6484H449.508V57.0859H445.641ZM478.992 47.8984V69.0859H476.484V58.2109H474.211V68.1016H471.773V48.4609H474.211V56.1016H476.484V47.8984H478.992ZM460.641 62.8516C465.152 60.25 467.062 56.8984 467.438 52.6562H461.625V50.5703H469.969C469.969 56.3008 468.164 61.2227 462.141 64.6562L460.641 62.8516ZM484.852 48.8359V51.5312H489.797V48.8359H492.375V58.0703H482.273V48.8359H484.852ZM484.406 61.6328V59.5938H498.258V65.1484H487.008V66.8359H498.914V68.8984H484.43V63.25H495.656V61.6328H484.406ZM484.852 56.0078H489.797V53.5H484.852V56.0078ZM495.656 58.75V47.8984H498.258V52.1875H501.211V54.2969H498.258V58.75H495.656Z" fill="white"/>
<path d="M78.9351 116.662C80.2403 116.655 81.3591 117.14 82.0988 117.954H86.0456V115.742H87.7113V125.04H86.0456V122.914H82.0925C81.3529 123.722 80.2341 124.207 78.9351 124.201C76.567 124.207 74.8018 122.641 74.8142 120.434C74.8018 118.215 76.567 116.649 78.9351 116.662ZM76.3992 120.434C76.3992 121.814 77.4558 122.79 78.9351 122.778C80.3771 122.79 81.4399 121.814 81.4399 120.434C81.4399 119.023 80.3771 118.085 78.9351 118.097C77.4558 118.085 76.3992 119.023 76.3992 120.434ZM77.114 128.427C77.1015 126.507 79.1402 125.388 82.4344 125.388C85.7162 125.388 87.7548 126.507 87.761 128.427C87.7548 130.348 85.7162 131.467 82.4344 131.467C79.1402 131.467 77.1015 130.348 77.114 128.427ZM78.7486 128.427C78.7362 129.521 80.1285 130.149 82.4344 130.149C84.7528 130.149 86.1326 129.521 86.1326 128.427C86.1326 127.315 84.7528 126.681 82.4344 126.681C80.1285 126.681 78.7362 127.315 78.7486 128.427ZM82.8695 119.303C82.9751 119.657 83.0373 120.037 83.0373 120.434C83.0373 120.832 82.9751 121.205 82.8695 121.553H86.0456V119.303H82.8695ZM102.516 115.735V120.298H104.809V121.684H102.516V127.141H100.844V115.735H102.516ZM90.8432 124.406V117.072H97.8792V118.433H92.4966V123.032C95.5608 123.032 97.2825 122.939 99.2652 122.529L99.4579 123.89C97.3198 124.307 95.4613 124.412 92.0926 124.406H90.8432ZM92.5339 131.169V125.966H94.1934V129.801H103.187V131.169H92.5339ZM109.968 116.923C112.099 116.929 113.666 118.738 113.914 121.646H117.178V115.742H118.831V131.523H117.178V123.008H113.927C113.753 126.078 112.162 127.986 109.968 127.986C107.612 127.986 105.959 125.842 105.971 122.448C105.959 119.073 107.612 116.929 109.968 116.923ZM107.562 122.448C107.562 124.947 108.538 126.488 109.968 126.488C111.385 126.488 112.367 124.947 112.367 122.448C112.367 119.968 111.385 118.427 109.968 118.414C108.538 118.427 107.562 119.968 107.562 122.448ZM135.04 117.339V118.669H125.667V117.339H129.533V115.667H131.193V117.339H135.04ZM126.525 122.256C126.519 120.528 128.079 119.403 130.36 119.39C132.629 119.403 134.17 120.528 134.176 122.256C134.17 123.977 132.629 125.108 130.36 125.108C128.079 125.108 126.519 123.977 126.525 122.256ZM127.613 127.75V126.395H138.024V131.492H136.352V127.75H127.613ZM128.135 122.256C128.122 123.225 129.017 123.809 130.36 123.809C131.69 123.809 132.585 123.225 132.598 122.256C132.585 121.28 131.69 120.677 130.36 120.664C129.017 120.677 128.122 121.28 128.135 122.256ZM136.352 125.593V115.742H138.024V120.018H140.305V121.398H138.024V125.593H136.352ZM144.63 125.189V126.861H152.033V125.189H153.705V131.293H142.983V125.189H144.63ZM141.205 124.189V122.821H155.563V124.189H141.205ZM141.976 120.534C145.028 120.13 147.526 118.458 147.526 116.581V115.91H149.242V116.581C149.242 118.402 151.753 120.155 154.774 120.534L154.171 121.845C151.622 121.485 149.397 120.279 148.39 118.601C147.371 120.285 145.134 121.485 142.598 121.845L141.976 120.534ZM144.63 129.956H152.033V128.154H144.63V129.956ZM174.165 116.214V117.488H171.872V120.211H174.097V121.485H162.536V120.211H164.768V117.488H162.468V116.214H174.165ZM161.157 123.977V122.647H175.514V123.977H161.157ZM162.866 126.439V125.208H173.693V128.8H164.532V130.075H174.147V131.343H162.897V127.619H172.052V126.439H162.866ZM166.427 120.211H170.2V117.488H166.427V120.211ZM190.132 115.754V126.439H188.554V121.137H186.627V125.096H185.067V116.046H186.627V119.776H188.554V115.754H190.132ZM177.372 118.29V116.935H183.351V121.466H179.025V123.555C180.983 123.536 182.462 123.443 184.197 123.095L184.364 124.419C182.413 124.816 180.784 124.878 178.453 124.878H177.409V120.229H181.754V118.29H177.372ZM178.677 130.118C181.63 129.702 183.96 128.017 183.973 126.078V125.705H185.639V126.078C185.639 128.017 187.969 129.702 190.94 130.118L190.275 131.417C187.857 131.038 185.782 129.869 184.812 128.216C183.83 129.869 181.748 131.038 179.342 131.417L178.677 130.118ZM206.628 123.592V124.922H192.27V123.592H198.591V121.951H193.65V120.59H195.881V117.581H193.581V116.227H205.279V117.581H202.985V120.59H205.21V121.951H200.263V123.592H206.628ZM193.991 131.293V126.296H204.875V131.293H193.991ZM195.639 129.938H203.253V127.601H195.639V129.938ZM197.541 120.59H201.313V117.581H197.541V120.59ZM217.902 119.751C217.896 122.635 219.512 125.506 221.917 126.588L220.91 127.93C219.114 127.029 217.759 125.251 217.069 123.095C216.373 125.363 214.999 127.278 213.191 128.216L212.134 126.874C214.57 125.705 216.199 122.666 216.211 119.751V117.053H217.902V119.751ZM220.189 122.33V120.975H223.701V115.742H225.354V131.523H223.701V122.33H220.189ZM240.824 115.742V131.523H239.146V115.742H240.824ZM228.648 127.756V117.053H230.314V121.099H234.565V117.053H236.212V127.756H228.648ZM230.314 126.376H234.565V122.423H230.314V126.376ZM251.334 117.979C251.334 120.54 254.062 122.97 257.083 123.511L256.325 124.903C253.801 124.356 251.489 122.709 250.463 120.497C249.425 122.697 247.119 124.35 244.596 124.903L243.85 123.511C246.846 122.952 249.562 120.54 249.575 117.979V116.792H251.334V117.979ZM243.334 129.422V128.036H257.748V129.422H243.334ZM261.719 128.769L260.308 133.63H258.816L259.755 128.769H261.719ZM272.161 116.923C274.293 116.929 275.859 118.738 276.108 121.646H279.371V115.742H281.024V131.523H279.371V123.008H276.12C275.946 126.078 274.355 127.986 272.161 127.986C269.805 127.986 268.152 125.842 268.164 122.448C268.152 119.073 269.805 116.929 272.161 116.923ZM269.756 122.448C269.756 124.947 270.731 126.488 272.161 126.488C273.578 126.488 274.56 124.947 274.56 122.448C274.56 119.968 273.578 118.427 272.161 118.414C270.731 118.427 269.756 119.968 269.756 122.448ZM296.531 115.754V131.517H294.89V115.754H296.531ZM283.454 125.512C286.537 125.512 290.415 125.5 293.834 125.108L293.952 126.327C292.479 126.544 290.962 126.675 289.483 126.756V131.162H287.811V126.824C286.344 126.867 284.939 126.874 283.665 126.867L283.454 125.512ZM284.001 118.688V117.395H287.836V115.617H289.495V117.395H293.343V118.688H284.001ZM284.896 121.932C284.883 120.341 286.419 119.303 288.681 119.291C290.906 119.303 292.441 120.341 292.448 121.932C292.441 123.511 290.906 124.555 288.681 124.555C286.419 124.555 284.883 123.511 284.896 121.932ZM286.487 121.932C286.481 122.79 287.345 123.294 288.681 123.294C289.98 123.294 290.844 122.79 290.844 121.932C290.844 121.068 289.98 120.559 288.681 120.559C287.345 120.559 286.481 121.068 286.487 121.932ZM312.79 117.339V118.669H303.417V117.339H307.283V115.667H308.943V117.339H312.79ZM304.275 122.256C304.269 120.528 305.829 119.403 308.11 119.39C310.379 119.403 311.92 120.528 311.926 122.256C311.92 123.977 310.379 125.108 308.11 125.108C305.829 125.108 304.269 123.977 304.275 122.256ZM305.363 127.75V126.395H315.774V131.492H314.102V127.75H305.363ZM305.885 122.256C305.872 123.225 306.767 123.809 308.11 123.809C309.44 123.809 310.335 123.225 310.348 122.256C310.335 121.28 309.44 120.677 308.11 120.664C306.767 120.677 305.872 121.28 305.885 122.256ZM314.102 125.593V115.742H315.774V120.018H318.055V121.398H315.774V125.593H314.102ZM322.38 125.189V126.861H329.783V125.189H331.455V131.293H320.733V125.189H322.38ZM318.955 124.189V122.821H333.313V124.189H318.955ZM319.726 120.534C322.778 120.13 325.276 118.458 325.276 116.581V115.91H326.992V116.581C326.992 118.402 329.503 120.155 332.524 120.534L331.921 121.845C329.372 121.485 327.147 120.279 326.14 118.601C325.121 120.285 322.884 121.485 320.348 121.845L319.726 120.534ZM322.38 129.956H329.783V128.154H322.38V129.956ZM347.217 116.742V123.225H339.721V116.742H347.217ZM340.759 130.162C343.643 129.876 345.886 128.434 345.98 127.023H341.405V125.755H346.017V124.294H347.683V125.755H352.313V127.023H347.714C347.807 128.403 350.007 129.832 352.885 130.162L352.313 131.448C349.846 131.15 347.807 130.087 346.856 128.701C345.893 130.106 343.823 131.144 341.343 131.448L340.759 130.162ZM341.362 121.907H345.57V118.073H341.362V121.907ZM350.299 124.748V115.742H351.947V124.748H350.299ZM371.898 115.742V123.847H370.251V115.742H371.898ZM358.907 122.436C361.363 121.622 362.873 119.558 362.873 117.37V116.158H364.582V117.37C364.57 119.483 366.086 121.41 368.51 122.162L367.684 123.461C365.844 122.865 364.464 121.622 363.743 120.024C363.034 121.752 361.636 123.113 359.759 123.753L358.907 122.436ZM361.561 125.916V124.599H371.923V128.539H363.233V130H372.438V131.343H361.611V127.271H370.263V125.916H361.561ZM381.91 116.693V121.28H376.72V123.468C379.461 123.461 380.953 123.399 382.718 123.07L382.88 124.431C380.959 124.754 379.343 124.804 376.204 124.81H375.067V120.012H380.251V118.023H375.036V116.693H381.91ZM376.845 127.588V126.24H387.541V131.51H385.876V127.588H376.845ZM382.911 122.678V121.329H385.876V119.384H382.911V118.048H385.876V115.754H387.541V125.438H385.876V122.678H382.911ZM408.972 118.346V119.713H406.741V121.702H408.972V123.076H406.741V125.848H405.069V115.742H406.741V118.346H408.972ZM394.384 118.756V117.439H398.25V115.63H399.91V117.439H403.757V118.756H394.384ZM395.242 122.274C395.236 120.59 396.777 119.477 399.077 119.477C401.345 119.477 402.887 120.59 402.893 122.274C402.887 123.971 401.345 125.071 399.077 125.065C396.777 125.071 395.236 123.971 395.242 122.274ZM396.485 128.732C396.473 126.992 398.455 125.972 401.706 125.972C404.919 125.972 406.915 126.992 406.915 128.732C406.915 130.448 404.919 131.467 401.706 131.467C398.455 131.467 396.473 130.448 396.485 128.732ZM396.852 122.274C396.839 123.219 397.734 123.797 399.077 123.797C400.407 123.797 401.302 123.219 401.314 122.274C401.302 121.323 400.407 120.72 399.077 120.708C397.734 120.72 396.839 121.323 396.852 122.274ZM398.138 128.732C398.126 129.652 399.444 130.199 401.706 130.186C403.937 130.199 405.249 129.652 405.249 128.732C405.249 127.775 403.937 127.265 401.706 127.265C399.444 127.265 398.126 127.775 398.138 128.732ZM415.342 118.265C415.342 120.329 416.796 122.249 419.146 123.02L418.257 124.331C416.529 123.722 415.236 122.498 414.546 120.944C413.869 122.709 412.533 124.095 410.699 124.773L409.798 123.449C412.253 122.573 413.676 120.465 413.689 118.122V116.562H415.342V118.265ZM411.924 128.533C411.924 126.7 413.937 125.618 417.207 125.618C420.451 125.618 422.44 126.7 422.44 128.533C422.44 130.404 420.451 131.467 417.207 131.467C413.937 131.467 411.924 130.404 411.924 128.533ZM413.595 128.533C413.583 129.577 414.932 130.143 417.207 130.155C419.475 130.143 420.805 129.577 420.805 128.533C420.805 127.532 419.475 126.942 417.207 126.942C414.932 126.942 413.583 127.532 413.595 128.533ZM420.625 125.245V115.742H422.297V119.707H424.578V121.099H422.297V125.245H420.625ZM432.645 116.003C436.194 116.003 438.264 116.96 438.264 118.706C438.264 120.478 436.194 121.435 432.645 121.448C429.096 121.435 427.014 120.478 427.014 118.706C427.014 116.96 429.096 116.003 432.645 116.003ZM425.479 123.741V122.405H439.837V123.741H425.479ZM427.188 126.202V124.953H438.015V128.639H428.854V130.05H438.469V131.343H427.219V127.439H436.375V126.202H427.188ZM428.761 118.706C428.748 119.689 430.14 120.192 432.645 120.192C435.169 120.192 436.555 119.689 436.555 118.706C436.555 117.787 435.169 117.24 432.645 117.246C430.14 117.24 428.748 117.787 428.761 118.706ZM450.595 116.469C452.969 116.456 454.679 117.787 454.679 119.732C454.679 121.665 452.969 123.008 450.595 122.995C448.227 123.008 446.524 121.665 446.53 119.732C446.524 117.787 448.227 116.456 450.595 116.469ZM445.411 124.213C448.314 124.213 452.329 124.151 455.779 123.642L455.897 124.885C454.461 125.152 452.976 125.32 451.527 125.425V131.013H449.855V125.519C448.326 125.587 446.878 125.599 445.629 125.606L445.411 124.213ZM448.146 119.732C448.134 120.876 449.165 121.634 450.595 121.622C452.062 121.634 453.094 120.876 453.094 119.732C453.094 118.582 452.062 117.811 450.595 117.824C449.165 117.811 448.134 118.582 448.146 119.732ZM456.873 131.498V115.754H458.514V131.498H456.873ZM473.362 115.754V120.82H475.643V122.212H473.362V127.545H471.69V115.754H473.362ZM461.005 118.936V117.594H464.871V115.748H466.531V117.594H470.378V118.936H461.005ZM461.863 122.678C461.857 120.869 463.411 119.695 465.698 119.695C467.954 119.695 469.508 120.869 469.514 122.678C469.508 124.456 467.954 125.618 465.698 125.618C463.411 125.618 461.857 124.456 461.863 122.678ZM463.38 131.169V126.606H465.039V129.801H474.033V131.169H463.38ZM463.473 122.678C463.46 123.698 464.355 124.325 465.698 124.319C467.028 124.325 467.923 123.698 467.935 122.678C467.923 121.634 467.028 120.988 465.698 120.988C464.355 120.988 463.46 121.634 463.473 122.678ZM86.8536 138.742V144.839H89.3771V146.225H86.8536V154.523H85.1816V138.742H86.8536ZM75.2493 150.613V140.258H82.6146V141.613H76.9151V149.221C79.5566 149.209 81.5394 149.097 83.7956 148.686L83.9945 150.11C81.5331 150.539 79.4385 150.619 76.5173 150.613H75.2493ZM104.747 140.979V142.353H102.516V144.348H104.747V145.747H102.516V148.04H100.844V138.742H102.516V140.979H104.747ZM90.3771 143.397C90.3647 141.191 92.1547 139.655 94.5725 139.662C96.9779 139.655 98.7493 141.191 98.7618 143.397C98.7493 145.604 96.9779 147.133 94.5725 147.145C92.1547 147.133 90.3647 145.604 90.3771 143.397ZM92.0118 143.397C91.9993 144.802 93.0932 145.728 94.5725 145.734C96.0394 145.728 97.1271 144.802 97.1395 143.397C97.1271 142.011 96.0456 141.06 94.5725 141.073C93.0932 141.06 91.9993 142.011 92.0118 143.397ZM92.1423 151.477C92.1423 149.581 94.181 148.475 97.4254 148.463C100.645 148.475 102.659 149.581 102.659 151.477C102.659 153.354 100.645 154.467 97.4254 154.467C94.181 154.467 92.1423 153.354 92.1423 151.477ZM93.8142 151.477C93.8018 152.546 95.1506 153.131 97.4254 153.131C99.6941 153.131 101.024 152.546 101.024 151.477C101.024 150.414 99.6941 149.811 97.4254 149.811C95.1506 149.811 93.8018 150.414 93.8142 151.477ZM118.073 138.754V143.82H120.354V145.212H118.073V150.545H116.401V138.754H118.073ZM105.716 141.936V140.594H109.582V138.748H111.242V140.594H115.089V141.936H105.716ZM106.574 145.678C106.568 143.869 108.122 142.695 110.409 142.695C112.665 142.695 114.219 143.869 114.225 145.678C114.219 147.456 112.665 148.618 110.409 148.618C108.122 148.618 106.568 147.456 106.574 145.678ZM108.09 154.169V149.606H109.75V152.801H118.744V154.169H108.09ZM108.184 145.678C108.171 146.698 109.066 147.325 110.409 147.319C111.739 147.325 112.634 146.698 112.646 145.678C112.634 144.634 111.739 143.988 110.409 143.988C109.066 143.988 108.171 144.634 108.184 145.678ZM138.738 138.742V154.492H137.06V138.742H138.738ZM125.798 150.271C129.987 148.282 132.026 145.442 132.355 141.769H126.562V140.439H134.058C134.046 145.044 132.088 149.041 126.68 151.62L125.798 150.271ZM153.935 142.993V144.348H143.12V139.034H144.773V142.993H153.935ZM141.205 147.394V146.026H155.582V147.394H141.205ZM142.902 151.546C142.902 149.706 144.953 148.668 148.366 148.668C151.759 148.668 153.798 149.706 153.81 151.546C153.798 153.392 151.759 154.423 148.366 154.423C144.953 154.423 142.902 153.392 142.902 151.546ZM144.599 151.546C144.587 152.552 145.96 153.137 148.366 153.131C150.746 153.137 152.132 152.552 152.145 151.546C152.132 150.526 150.746 149.985 148.366 149.979C145.96 149.985 144.587 150.526 144.599 151.546ZM165.532 140.426V141.402C165.52 142.726 165.52 144.758 165.078 147.574L163.425 147.443C163.829 144.926 163.86 143.086 163.866 141.775H157.471V140.426H165.532ZM156.607 149.743C157.589 149.737 158.689 149.724 159.832 149.7V144.932H161.48V149.65C163.151 149.581 164.867 149.47 166.439 149.277L166.533 150.526C163.251 151.055 159.59 151.123 156.793 151.11L156.607 149.743ZM167.347 154.492V138.742H169.019V145.243H171.437V146.666H169.019V154.492H167.347ZM189.331 139.45V140.836C189.324 142.322 189.324 143.907 188.889 146.051L187.236 145.908C187.416 145.063 187.522 144.305 187.584 143.602L178.224 144.025L178 142.626L187.659 142.353C187.671 141.831 187.677 141.327 187.677 140.836V140.799H178.404V139.45H189.331ZM176.732 148.357V147.015H182.407V144.814H184.085V147.015H191.052V148.357H176.732ZM178.503 154.249V149.581H180.169V152.888H189.66V154.249H178.503ZM205.689 138.754V150.545H204.11V138.754H205.689ZM192.966 148.052V140.01H198.97V141.371H194.57V143.341H198.349V144.634H194.57V146.691C196.645 146.685 198.013 146.623 199.623 146.306L199.797 147.642C197.976 147.984 196.478 148.052 193.985 148.052H192.966ZM195.322 154.169V149.24H197.012V152.801H206.149V154.169H195.322ZM199.063 144.503V143.167H201.015V139.065H202.606V150.147H201.015V144.503H199.063ZM222.24 151.154V152.528H207.826V151.154H222.24ZM208.572 147.356C211.767 146.834 214.092 144.876 214.172 142.527H209.132V141.166H214.191V139.071H215.832V141.166H220.898V142.527H215.863C215.931 144.876 218.244 146.834 221.457 147.356L220.792 148.699C218.181 148.22 216.025 146.89 215.005 144.963C213.992 146.89 211.823 148.22 209.219 148.699L208.572 147.356ZM241.284 138.742V154.492H239.699V138.742H241.284ZM227.541 150.16C229.773 148.805 230.91 145.939 230.91 143.136V141.874H228.026V140.513H235.236V141.874H232.52V143.136C232.52 145.834 233.608 148.525 235.82 149.799L234.826 151.03C233.316 150.128 232.284 148.525 231.737 146.623C231.177 148.68 230.108 150.439 228.573 151.396L227.541 150.16ZM234.061 145.678V144.323H236.517V139.077H238.089V153.696H236.517V145.678H234.061ZM250.439 148.643C253.845 148.643 255.995 149.718 256.008 151.564C255.995 153.392 253.845 154.467 250.439 154.467C247.057 154.467 244.894 153.392 244.894 151.564C244.894 149.718 247.057 148.643 250.439 148.643ZM243.353 147.338V145.983H249.096V143.03H250.737V145.983H257.673V147.338H243.353ZM245.025 140.855V139.512H255.89V140.836C255.89 142.092 255.89 143.397 255.448 145.019L253.807 144.852C254.23 143.229 254.23 142.079 254.23 140.855H245.025ZM246.56 151.564C246.548 152.577 248.052 153.168 250.439 153.168C252.838 153.168 254.336 152.577 254.348 151.564C254.336 150.526 252.838 149.911 250.439 149.905C248.052 149.911 246.548 150.526 246.56 151.564ZM268.966 142.751C268.96 145.635 270.576 148.506 272.982 149.588L271.975 150.93C270.178 150.029 268.823 148.251 268.133 146.095C267.437 148.363 266.064 150.278 264.255 151.216L263.198 149.874C265.635 148.705 267.263 145.666 267.276 142.751V140.053H268.966V142.751ZM271.254 145.33V143.975H274.765V138.742H276.419V154.523H274.765V145.33H271.254ZM291.888 138.742V154.523H290.21V138.742H291.888ZM279.712 150.756V140.053H281.378V144.099H285.629V140.053H287.276V150.756H279.712ZM281.378 149.376H285.629V145.423H281.378V149.376ZM302.398 140.979C302.398 143.54 305.127 145.97 308.147 146.511L307.389 147.903C304.866 147.356 302.553 145.709 301.528 143.497C300.49 145.697 298.184 147.35 295.66 147.903L294.915 146.511C297.91 145.952 300.627 143.54 300.639 140.979V139.792H302.398V140.979ZM294.399 152.422V151.036H308.812V152.422H294.399Z" fill="white"/>
<path d="M42 126.666L46 130.666L59.3333 117.333" stroke="white" stroke-width="2" stroke-linecap="round" stroke-linejoin="round"/>
<path d="M58 128V137.333C58 138.041 57.719 138.719 57.219 139.219C56.7189 139.719 56.0406 140 55.3333 140H36.6667C35.9594 140 35.2811 139.719 34.781 139.219C34.281 138.719 34 138.041 34 137.333V118.667C34 117.959 34.281 117.281 34.781 116.781C35.2811 116.281 35.9594 116 36.6667 116H51.3333" stroke="white" stroke-width="2" stroke-linecap="round" stroke-linejoin="round"/>
<path d="M43.1406 16.084V17.7188H28.6211V16.084H34.8613V12.9551H29.8691V11.4082H32.1016V6.66211H29.8164V5.08008H41.875V6.66211H39.5547V11.4082H41.8223V12.9551H36.7949V16.084H43.1406ZM34.0527 11.4082H37.6211V6.66211H34.0527V11.4082ZM57.0977 12.0059V13.5527H45.9531V4.92188H56.957V6.50391H47.9395V8.41992H56.5879V9.94922H47.9395V12.0059H57.0977ZM58.6973 16.0312V17.6309H44.1777V16.0312H58.6973ZM72.8828 4.07812V5.53711H70.7031V7.96289H72.7949V9.42188H67.9258V10.5996H74.2188V12.1289H59.7344V10.5996H65.9746V9.42188H61.123V7.96289H63.2148V5.53711H61.0352V4.07812H72.8828ZM72.4082 13.1133V16.8398H63.373V17.9648H72.8477V19.4238H61.457V15.5039H70.4922V14.5195H61.4395V13.1133H72.4082ZM65.166 7.96289H68.7344V5.53711H65.166V7.96289ZM88.5273 3.67383V19.582H86.5938V3.67383H88.5273ZM83.6406 5.0625V11.0215H78.1738V14.2207C80.6787 14.2031 82.8408 14.0801 85.3105 13.6582L85.4863 15.2578C82.7793 15.7324 80.4062 15.8203 77.5586 15.8203H76.1699V9.47461H81.6543V6.64453H76.1523V5.0625H83.6406ZM98.0723 4.57031C101.482 4.57031 103.996 6.27539 103.996 8.85938C103.996 11.2412 101.948 12.832 99.0391 13.1133V16.0312H105.367V17.6309H90.8477V16.0312H97.1055V13.1133C94.2139 12.832 92.166 11.2412 92.1836 8.85938C92.166 6.27539 94.6797 4.57031 98.0723 4.57031ZM98.0723 6.15234C95.752 6.13477 94.082 7.18945 94.0996 8.85938C94.082 10.582 95.752 11.6016 98.0723 11.6016C100.428 11.6016 102.08 10.582 102.08 8.85938C102.08 7.18945 100.428 6.13477 98.0723 6.15234ZM115.896 18.1758C112.838 18.1758 111.01 15.8027 111.01 11.6367C111.01 7.48828 112.838 5.09766 115.896 5.09766C118.938 5.09766 120.783 7.48828 120.783 11.6367C120.783 15.8027 118.955 18.1758 115.896 18.1758ZM115.896 16.2598C117.496 16.2598 118.48 14.6953 118.48 11.6367C118.48 8.5957 117.479 6.99609 115.896 6.99609C114.314 6.99609 113.312 8.5957 113.312 11.6367C113.312 14.6953 114.297 16.2598 115.896 16.2598ZM127.867 5.27344V18H125.564V7.50586H125.494L122.523 9.4043V7.3125L125.67 5.27344H127.867Z" fill="white"/>
<path d="M8.99995 8.40039C8.84082 8.40039 8.68821 8.46361 8.57569 8.57613C8.46316 8.68865 8.39995 8.84126 8.39995 9.00039C8.39995 9.15952 8.46316 9.31213 8.57569 9.42466C8.68821 9.53718 8.84082 9.60039 8.99995 9.60039H15C15.1591 9.60039 15.3117 9.53718 15.4242 9.42466C15.5367 9.31213 15.6 9.15952 15.6 9.00039C15.6 8.84126 15.5367 8.68865 15.4242 8.57613C15.3117 8.46361 15.1591 8.40039 15 8.40039H8.99995ZM7.19995 11.4004C7.19995 11.2413 7.26316 11.0886 7.37569 10.9761C7.48821 10.8636 7.64082 10.8004 7.79995 10.8004H16.2C16.3591 10.8004 16.5117 10.8636 16.6242 10.9761C16.7367 11.0886 16.8 11.2413 16.8 11.4004C16.8 11.5595 16.7367 11.7121 16.6242 11.8247C16.5117 11.9372 16.3591 12.0004 16.2 12.0004H7.79995C7.64082 12.0004 7.48821 11.9372 7.37569 11.8247C7.26316 11.7121 7.19995 11.5595 7.19995 11.4004ZM8.99995 13.2004C8.84082 13.2004 8.68821 13.2636 8.57569 13.3761C8.46316 13.4887 8.39995 13.6413 8.39995 13.8004C8.39995 13.9595 8.46316 14.1121 8.57569 14.2247C8.68821 14.3372 8.84082 14.4004 8.99995 14.4004H15C15.1591 14.4004 15.3117 14.3372 15.4242 14.2247C15.5367 14.1121 15.6 13.9595 15.6 13.8004C15.6 13.6413 15.5367 13.4887 15.4242 13.3761C15.3117 13.2636 15.1591 13.2004 15 13.2004H8.99995ZM2.99995 2.40039C2.57486 2.39976 2.16327 2.54959 1.83807 2.82335C1.51287 3.0971 1.29504 3.47712 1.22318 3.89609C1.15131 4.31506 1.23005 4.74594 1.44543 5.11242C1.66082 5.4789 1.99895 5.75733 2.39995 5.89839V14.4004C2.39995 15.3552 2.77924 16.2708 3.45437 16.946C4.1295 17.6211 5.04517 18.0004 5.99995 18.0004H11.4V20.4004H7.79995C7.64082 20.4004 7.48821 20.4636 7.37569 20.5761C7.26316 20.6887 7.19995 20.8413 7.19995 21.0004C7.19995 21.1595 7.26316 21.3121 7.37569 21.4247C7.48821 21.5372 7.64082 21.6004 7.79995 21.6004H16.2C16.3591 21.6004 16.5117 21.5372 16.6242 21.4247C16.7367 21.3121 16.8 21.1595 16.8 21.0004C16.8 20.8413 16.7367 20.6887 16.6242 20.5761C16.5117 20.4636 16.3591 20.4004 16.2 20.4004H12.6V18.0004H18C18.9547 18.0004 19.8704 17.6211 20.5455 16.946C21.2207 16.2708 21.5999 15.3552 21.5999 14.4004V5.89839C22.0009 5.75733 22.3391 5.4789 22.5545 5.11242C22.7699 4.74594 22.8486 4.31506 22.7767 3.89609C22.7049 3.47712 22.487 3.0971 22.1618 2.82335C21.8366 2.54959 21.425 2.39976 20.9999 2.40039H2.99995ZM3.59995 14.4004V6.00039H20.4V14.4004C20.4 15.0369 20.1471 15.6474 19.697 16.0974C19.2469 16.5475 18.6365 16.8004 18 16.8004H5.99995C5.36343 16.8004 4.75298 16.5475 4.30289 16.0974C3.85281 15.6474 3.59995 15.0369 3.59995 14.4004Z" fill="white"/>
</svg>
