<svg width="690" height="158" viewBox="0 0 690 158" fill="none" xmlns="http://www.w3.org/2000/svg">
<path d="M80.1036 119.483C80.1036 121.472 81.5829 123.3 84.0007 124.052L83.1865 125.369C81.3778 124.804 80.0166 123.61 79.3018 122.075C78.6119 123.722 77.2507 125.009 75.3985 125.631L74.578 124.325C76.9834 123.548 78.4441 121.609 78.4441 119.483V119.11H75.0193V117.768H78.4441V115.841H80.1285V117.768H83.5221V119.11H80.1036V119.483ZM77.4869 131.169V126.451H79.1526V129.801H88.1278V131.169H77.4869ZM82.9876 121.883V120.521H86.0456V115.754H87.7113V127.489H86.0456V121.883H82.9876ZM103.74 115.742V131.492H102.143V123.405H100.26V130.715H98.681V116.046H100.26V122.007H102.143V115.742H103.74ZM89.9234 127.041C92.2293 125.755 93.3046 123.039 93.3046 119.906V118.899H90.3522V117.538H97.6678V118.899H94.9206V119.906C94.9206 122.74 95.9834 125.307 98.2769 126.488L97.2949 127.769C95.741 126.93 94.7093 125.463 94.1499 123.642C93.6091 125.711 92.5649 127.365 90.9613 128.316L89.9234 127.041ZM118.489 117.258V118.936C118.477 120.925 118.477 122.995 117.917 126.01L116.276 125.836C116.823 122.983 116.823 120.876 116.823 118.936V118.613H107.171V117.258H118.489ZM105.698 129.366V127.986H109.085V122.877H110.751V127.986H113.019V122.877H114.66V127.986H120.055V129.366H105.698ZM135.612 123.256V124.605H131.901V126.426H133.847V131.492H132.169V127.75H122.845V126.426H124.921V124.605H121.254V123.256H135.612ZM122.789 119.129C122.789 117.233 124.977 116.084 128.421 116.096C131.858 116.084 134.039 117.233 134.039 119.129C134.039 121.037 131.858 122.187 128.421 122.175C124.977 122.187 122.789 121.037 122.789 119.129ZM124.524 119.129C124.511 120.235 125.997 120.876 128.421 120.882C130.832 120.876 132.33 120.235 132.33 119.129C132.33 118.048 130.832 117.407 128.421 117.414C125.997 117.407 124.511 118.048 124.524 119.129ZM126.593 126.426H130.26V124.605H126.593V126.426ZM141.939 116.86C144.431 116.86 146.215 118.402 146.227 120.615C146.215 122.834 144.431 124.369 141.939 124.369C139.459 124.369 137.637 122.834 137.65 120.615C137.637 118.402 139.459 116.86 141.939 116.86ZM136.892 126.743C139.763 126.749 143.735 126.718 147.178 126.221L147.309 127.439C143.741 128.117 139.912 128.135 137.097 128.135L136.892 126.743ZM139.297 120.615C139.285 122.007 140.41 122.921 141.939 122.921C143.468 122.921 144.593 122.007 144.599 120.615C144.593 119.229 143.468 118.309 141.939 118.309C140.41 118.309 139.285 119.229 139.297 120.615ZM148.166 131.523V115.742H149.832V131.523H148.166ZM159.404 117.271V130H157.471V117.271H159.404ZM161.36 118.936V117.271H171.224V118.936H167.265V130H165.332V118.936H161.36ZM176.508 116.674L172.406 131.914H170.734L174.836 116.674H176.508ZM190.418 115.742V131.492H188.74V115.742H190.418ZM177.478 127.271C181.667 125.282 183.705 122.442 184.035 118.769H178.242V117.439H185.738C185.725 122.044 183.768 126.041 178.36 128.62L177.478 127.271ZM200.922 116.338C200.922 118.153 203.414 119.67 206.478 120.024L205.906 121.286C203.321 120.969 201.065 119.881 200.051 118.271C199.032 119.881 196.776 120.969 194.221 121.286L193.643 120.024C196.714 119.67 199.206 118.153 199.206 116.338V115.823H200.922V116.338ZM192.885 123.53V122.2H207.243V123.53H200.878V124.928H205.422V128.664H196.26V130.05H205.875V131.343H194.625V127.452H203.781V126.221H194.594V124.928H199.206V123.53H192.885ZM225.628 117.258V118.936C225.615 120.925 225.615 122.995 225.056 126.01L223.415 125.836C223.962 122.983 223.962 120.876 223.962 118.936V118.613H214.309V117.258H225.628ZM212.836 129.366V127.986H216.224V122.877H217.889V127.986H220.158V122.877H221.799V127.986H227.194V129.366H212.836ZM242.751 123.256V124.605H239.04V126.426H240.985V131.492H239.307V127.75H229.984V126.426H232.06V124.605H228.393V123.256H242.751ZM229.928 119.129C229.928 117.233 232.116 116.084 235.559 116.096C238.996 116.084 241.178 117.233 241.178 119.129C241.178 121.037 238.996 122.187 235.559 122.175C232.116 122.187 229.928 121.037 229.928 119.129ZM231.662 119.129C231.65 120.235 233.135 120.876 235.559 120.882C237.971 120.876 239.469 120.235 239.469 119.129C239.469 118.048 237.971 117.407 235.559 117.414C233.135 117.407 231.65 118.048 231.662 119.129ZM233.732 126.426H237.399V124.605H233.732V126.426ZM261.434 115.742V131.492H259.756V115.742H261.434ZM248.493 127.271C252.682 125.282 254.721 122.442 255.051 118.769H249.258V117.439H256.754C256.741 122.044 254.783 126.041 249.376 128.62L248.493 127.271ZM272.664 116.935V117.824C272.652 118.874 272.652 120.441 272.267 122.467L270.613 122.324C270.955 120.571 271.011 119.303 271.024 118.315H264.721V116.935H272.664ZM263.77 123.828C264.74 123.822 265.84 123.816 266.996 123.791V120.478H268.649V123.735C270.34 123.666 272.074 123.542 273.659 123.318L273.758 124.537C270.47 125.115 266.71 125.177 263.926 125.183L263.77 123.828ZM266.163 131.169V126.507H267.829V129.801H276.86V131.169H266.163ZM274.66 127.576V115.742H276.356V120.758H278.526V122.169H276.356V127.576H274.66ZM293.243 117.339V118.669H283.87V117.339H287.737V115.667H289.396V117.339H293.243ZM284.728 122.256C284.722 120.528 286.282 119.403 288.563 119.39C290.832 119.403 292.373 120.528 292.379 122.256C292.373 123.977 290.832 125.108 288.563 125.108C286.282 125.108 284.722 123.977 284.728 122.256ZM285.816 127.75V126.395H296.227V131.492H294.555V127.75H285.816ZM286.338 122.256C286.326 123.225 287.221 123.809 288.563 123.809C289.893 123.809 290.788 123.225 290.801 122.256C290.788 121.28 289.893 120.677 288.563 120.664C287.221 120.677 286.326 121.28 286.338 122.256ZM294.555 125.593V115.742H296.227V120.018H298.508V121.398H296.227V125.593H294.555ZM302.833 125.189V126.861H310.236V125.189H311.908V131.293H301.186V125.189H302.833ZM299.408 124.189V122.821H313.766V124.189H299.408ZM300.179 120.534C303.231 120.13 305.73 118.458 305.73 116.581V115.91H307.445V116.581C307.445 118.402 309.956 120.155 312.977 120.534L312.374 121.845C309.826 121.485 307.6 120.279 306.594 118.601C305.574 120.285 303.337 121.485 300.801 121.845L300.179 120.534ZM302.833 129.956H310.236V128.154H302.833V129.956ZM328.123 116.935V117.824C328.111 118.874 328.111 120.441 327.726 122.467L326.072 122.324C326.414 120.571 326.47 119.303 326.483 118.315H320.18V116.935H328.123ZM319.229 123.828C320.199 123.822 321.299 123.816 322.455 123.791V120.478H324.108V123.735C325.799 123.666 327.533 123.542 329.118 123.318L329.217 124.537C325.929 125.115 322.169 125.177 319.385 125.183L319.229 123.828ZM321.622 131.169V126.507H323.288V129.801H332.319V131.169H321.622ZM330.119 127.576V115.742H331.815V120.758H333.985V122.169H331.815V127.576H330.119ZM347.981 115.742V131.523H346.328V115.742H347.981ZM335.786 118.526V117.159H343.164V122.921H337.521V126.364C340.069 126.352 342.3 126.233 344.936 125.798L345.091 127.178C342.3 127.638 339.926 127.744 337.154 127.744H335.805V121.578H341.474V118.526H335.786ZM360.648 119.751C360.635 122.628 362.37 125.525 364.812 126.6L363.805 127.93C361.997 127.066 360.567 125.295 359.827 123.138C359.1 125.444 357.652 127.352 355.769 128.266L354.737 126.874C357.217 125.767 358.957 122.759 358.97 119.751V117.053H360.648V119.751ZM366.236 131.523V115.742H367.914V131.523H366.236ZM378.423 117.979C378.423 120.54 381.152 122.97 384.173 123.511L383.414 124.903C380.891 124.356 378.579 122.709 377.553 120.497C376.515 122.697 374.209 124.35 371.686 124.903L370.94 123.511C373.936 122.952 376.652 120.54 376.664 117.979V116.792H378.423V117.979ZM370.424 129.422V128.036H384.838V129.422H370.424ZM392.681 116.736V118.11H388.28V119.819H392.059V121.124H388.28V123.008C390.356 122.995 391.724 122.914 393.334 122.616L393.508 123.934C391.687 124.276 390.189 124.344 387.696 124.344H386.677V116.736H392.681ZM388.883 131.293V125.898H399.4V131.293H388.883ZM390.537 129.938H397.765V127.228H390.537V129.938ZM392.774 121.006V119.645H394.726V116.009H396.317V125.071H394.726V121.006H392.774ZM397.821 125.195V115.742H399.4V125.195H397.821ZM86.9593 138.742V142.707H89.2403V144.081H86.9593V148.09H85.2873V138.742H86.9593ZM74.5656 146.872C78.2514 145.827 80.52 143.776 80.8246 141.228H75.268V139.867H82.6271C82.6333 143.938 79.8612 146.884 75.2431 148.22L74.5656 146.872ZM76.7037 151.365C76.6913 149.451 78.7673 148.264 81.9247 148.264C85.1008 148.264 87.1333 149.451 87.1333 151.365C87.1333 153.305 85.1008 154.473 81.9247 154.473C78.7673 154.473 76.6913 153.305 76.7037 151.365ZM78.357 151.365C78.3446 152.472 79.7244 153.155 81.9247 153.149C84.1126 153.155 85.4986 152.472 85.4986 151.365C85.4986 150.253 84.1126 149.581 81.9247 149.594C79.7244 149.581 78.3446 150.253 78.357 151.365ZM95.7845 141.539C95.7783 143.453 97.2327 145.193 99.6133 145.902L98.8177 147.213C96.9966 146.666 95.654 145.51 94.9579 144.019C94.2618 145.641 92.8633 146.89 90.9986 147.487L90.1533 146.175C92.5898 145.43 94.0877 143.602 94.1001 141.539V141.52H90.6568V140.14H99.2093V141.52H95.7845V141.539ZM89.942 149.911C91.1789 149.911 92.6209 149.911 94.1188 149.874V146.828H95.7845V149.818C97.1519 149.749 98.5256 149.644 99.806 149.463L99.924 150.682C96.5553 151.291 92.8943 151.285 90.1844 151.291L89.942 149.911ZM100.757 154.492V138.742H102.423V145.175H104.847V146.586H102.423V154.492H100.757ZM118.856 139.935V140.824C118.843 141.874 118.843 143.441 118.458 145.467L116.805 145.324C117.147 143.571 117.203 142.303 117.215 141.315H110.913V139.935H118.856ZM109.962 146.828C110.931 146.822 112.031 146.816 113.187 146.791V143.478H114.841V146.735C116.531 146.666 118.265 146.542 119.85 146.318L119.95 147.537C116.662 148.115 112.901 148.177 110.117 148.183L109.962 146.828ZM112.354 154.169V149.507H114.02V152.801H123.051V154.169H112.354ZM120.851 150.576V138.742H122.548V143.758H124.717V145.169H122.548V150.576H120.851ZM138.714 138.742V154.523H137.06V138.742H138.714ZM126.519 141.526V140.159H133.897V145.921H128.253V149.364C130.801 149.352 133.033 149.233 135.668 148.798L135.823 150.178C133.033 150.638 130.658 150.744 127.886 150.744H126.538V144.578H132.206V141.526H126.519ZM145.935 139.736C148.353 139.749 150.156 141.278 150.168 143.49C150.156 145.442 148.757 146.859 146.774 147.17V149.662C148.167 149.6 149.565 149.494 150.87 149.32L150.988 150.57C147.663 151.154 144.002 151.179 141.261 151.148L141.006 149.774C142.231 149.768 143.642 149.762 145.109 149.724V147.17C143.07 146.872 141.678 145.454 141.69 143.49C141.678 141.278 143.455 139.749 145.935 139.736ZM143.319 143.49C143.306 144.889 144.419 145.821 145.935 145.809C147.421 145.821 148.521 144.889 148.533 143.49C148.521 142.086 147.421 141.172 145.935 141.16C144.419 141.172 143.306 142.086 143.319 143.49ZM151.821 154.492V138.742H153.487V145.137H155.911V146.548H153.487V154.492H151.821ZM169.212 140.128C169.212 142.222 171.766 144.186 174.868 144.603L174.203 145.964C171.63 145.554 169.373 144.211 168.348 142.359C167.322 144.224 165.066 145.554 162.505 145.964L161.834 144.603C164.923 144.186 167.471 142.247 167.471 140.128V139.27H169.212V140.128ZM161.157 148.892V147.512H175.514V148.892H169.119V154.492H167.478V148.892H161.157ZM189.088 138.742V142.707H191.369V144.081H189.088V148.09H187.416V138.742H189.088ZM176.695 146.872C180.38 145.827 182.649 143.776 182.953 141.228H177.397V139.867H184.756C184.762 143.938 181.99 146.884 177.372 148.22L176.695 146.872ZM178.833 151.365C178.82 149.451 180.896 148.264 184.054 148.264C187.23 148.264 189.262 149.451 189.262 151.365C189.262 153.305 187.23 154.473 184.054 154.473C180.896 154.473 178.82 153.305 178.833 151.365ZM180.486 151.365C180.474 152.472 181.853 153.155 184.054 153.149C186.241 153.155 187.628 152.472 187.628 151.365C187.628 150.253 186.241 149.581 184.054 149.594C181.853 149.581 180.474 150.253 180.486 151.365ZM197.081 141.769C197.081 143.49 198.181 145.231 200.232 145.995L199.343 147.282C197.882 146.722 196.857 145.647 196.291 144.354C195.713 145.815 194.638 147.089 193.109 147.742L192.201 146.449C194.327 145.517 195.465 143.521 195.465 141.769V139.724H197.081V141.769ZM195.085 151.614C195.073 149.811 197.13 148.755 200.431 148.755C203.706 148.755 205.776 149.811 205.776 151.614C205.776 153.404 203.706 154.467 200.431 154.467C197.13 154.467 195.073 153.404 195.085 151.614ZM196.745 151.614C196.733 152.615 198.131 153.193 200.431 153.18C202.706 153.193 204.104 152.615 204.11 151.614C204.104 150.607 202.706 150.023 200.431 150.023C198.131 150.023 196.733 150.607 196.745 151.614ZM200.717 147.947V139.046H202.27V142.856H204.11V138.754H205.689V148.45H204.11V144.23H202.27V147.947H200.717ZM220.985 139.935V140.824C220.972 141.874 220.972 143.441 220.587 145.467L218.934 145.324C219.276 143.571 219.331 142.303 219.344 141.315H213.041V139.935H220.985ZM212.09 146.828C213.06 146.822 214.16 146.816 215.316 146.791V143.478H216.97V146.735C218.66 146.666 220.394 146.542 221.979 146.318L222.079 147.537C218.791 148.115 215.03 148.177 212.246 148.183L212.09 146.828ZM214.483 154.169V149.507H216.149V152.801H225.18V154.169H214.483ZM222.98 150.576V138.742H224.677V143.758H226.846V145.169H224.677V150.576H222.98ZM240.843 138.742V154.523H239.189V138.742H240.843ZM228.648 141.526V140.159H236.026V145.921H230.382V149.364C232.93 149.352 235.162 149.233 237.797 148.798L237.952 150.178C235.162 150.638 232.787 150.744 230.015 150.744H228.666V144.578H234.335V141.526H228.648ZM262.105 146.138V147.518H247.729V146.138H262.105ZM249.426 151.608C249.426 149.78 251.477 148.749 254.889 148.749C258.283 148.749 260.321 149.78 260.334 151.608C260.321 153.441 258.283 154.467 254.889 154.467C251.477 154.467 249.426 153.441 249.426 151.608ZM249.519 144.771V139.307H260.334V140.669H251.172V143.422H260.427V144.771H249.519ZM251.122 151.608C251.11 152.621 252.484 153.168 254.889 153.168C257.27 153.168 258.656 152.621 258.668 151.608C258.656 150.607 257.27 150.048 254.889 150.035C252.484 150.048 251.11 150.607 251.122 151.608ZM280.471 140.258V141.936C280.459 143.925 280.459 145.995 279.9 149.01L278.259 148.836C278.806 145.983 278.806 143.876 278.806 141.936V141.613H269.153V140.258H280.471ZM267.68 152.366V150.986H271.067V145.877H272.733V150.986H275.002V145.877H276.643V150.986H282.038V152.366H267.68ZM297.594 146.256V147.605H293.884V149.426H295.829V154.492H294.151V150.75H284.828V149.426H286.904V147.605H283.237V146.256H297.594ZM284.772 142.129C284.772 140.233 286.96 139.084 290.403 139.096C293.84 139.084 296.022 140.233 296.022 142.129C296.022 144.037 293.84 145.187 290.403 145.175C286.96 145.187 284.772 144.037 284.772 142.129ZM286.506 142.129C286.494 143.235 287.979 143.876 290.403 143.882C292.815 143.876 294.313 143.235 294.313 142.129C294.313 141.048 292.815 140.407 290.403 140.414C287.979 140.407 286.494 141.048 286.506 142.129ZM288.576 149.426H292.243V147.605H288.576V149.426ZM316.315 138.754V150.29H314.649V144.379H311.628V143.018H314.649V138.754H316.315ZM303.194 147.002C305.618 146.188 307.128 144.112 307.128 141.943V141.321H303.71V139.96H312.213V141.321H308.819V141.943C308.819 143.907 310.242 145.877 312.617 146.673L311.765 148.003C309.987 147.387 308.688 146.119 308.005 144.566C307.309 146.3 305.935 147.692 304.058 148.363L303.194 147.002ZM306.09 154.169V149.265H307.756V152.801H316.731V154.169H306.09ZM331.119 138.754V143.403H333.4V144.802H331.119V150.334H329.447V138.754H331.119ZM319.347 147.723V139.879H320.994V142.409H325.121V139.879H326.775V147.723H319.347ZM320.994 146.393H325.121V143.714H320.994V146.393ZM321.137 154.169V149.184H322.797V152.801H331.791V154.169H321.137ZM339.012 143.571C339.012 146.057 340.156 148.581 342.331 149.749L341.393 150.986C339.87 150.172 338.813 148.668 338.242 146.884C337.676 148.792 336.619 150.439 335.097 151.347L334.115 150.091C336.302 148.811 337.427 146.119 337.44 143.571V142.937H334.599V141.576H337.44V139.307H339.012V141.576H341.809V142.937H339.012V143.571ZM340.771 146.262V144.876H343.04V139.077H344.613V153.696H343.04V146.262H340.771ZM346.222 154.492V138.742H347.807V154.492H346.222ZM367.379 138.742V146.76H365.714V143.758H362.438V142.396H365.714V138.742H367.379ZM354.482 145.778C358.149 144.914 360.219 143.136 360.505 140.811H355.321V139.45H362.295C362.295 143.428 359.629 145.995 355.054 147.126L354.482 145.778ZM357.08 148.755V147.419H367.379V151.415H358.771V152.994H367.852V154.343H357.111V150.16H365.707V148.755H357.08ZM382.874 138.754V150.352H381.202V138.754H382.874ZM370.07 147.22C372.506 146.449 373.992 144.516 373.992 142.409V142.104H370.499V140.774H373.992V138.823H375.676V140.774H379.144V142.104H375.658V142.409C375.651 144.392 377.174 146.206 379.611 146.927L378.803 148.251C376.95 147.686 375.577 146.499 374.856 144.97C374.153 146.623 372.767 147.916 370.89 148.525L370.07 147.22ZM372.569 154.169V149.289H374.247V152.801H383.334V154.169H372.569ZM404.118 147.021V148.351H389.729V147.021H396.081V145.653H391.606V139.171H402.365V140.494H393.284V141.769H401.961V143.012H393.284V144.354H402.471V145.653H397.753V147.021H404.118ZM391.457 151.925C391.457 150.278 393.427 149.37 396.92 149.383C400.382 149.37 402.353 150.278 402.365 151.925C402.353 153.59 400.382 154.467 396.92 154.467C393.427 154.467 391.457 153.59 391.457 151.925ZM393.135 151.925C393.123 152.782 394.44 153.211 396.92 153.199C399.382 153.211 400.687 152.782 400.699 151.925C400.687 151.079 399.382 150.632 396.92 150.632C394.44 150.632 393.123 151.079 393.135 151.925ZM417.692 138.742V142.695H419.973V144.099H417.692V147.916H416.02V138.742H417.692ZM405.335 141.632V140.289H409.201V138.605H410.861V140.289H414.708V141.632H405.335ZM406.193 145.038C406.187 143.36 407.728 142.272 410.028 142.272C412.297 142.272 413.838 143.36 413.844 145.038C413.838 146.716 412.297 147.81 410.028 147.804C407.728 147.81 406.187 146.716 406.193 145.038ZM407.61 154.293V148.575H409.263V150.104H416.02V148.575H417.692V154.293H407.61ZM407.803 145.038C407.79 145.977 408.685 146.561 410.028 146.561C411.358 146.561 412.253 145.977 412.266 145.038C412.253 144.118 411.358 143.515 410.028 143.521C408.685 143.515 407.79 144.118 407.803 145.038ZM409.263 152.956H416.02V151.403H409.263V152.956ZM439.657 146.635V147.99H433.416V151.048H431.732V147.99H425.243V146.635H439.657ZM426.834 142.316C426.822 140.345 429.053 139.121 432.434 139.108C435.822 139.121 438.034 140.345 438.034 142.316C438.034 144.273 435.822 145.492 432.434 145.492C429.053 145.492 426.822 144.273 426.834 142.316ZM427.058 154.169V149.532H428.73V152.782H438.059V154.169H427.058ZM428.618 142.316C428.606 143.453 430.135 144.137 432.434 144.143C434.746 144.137 436.263 143.453 436.263 142.316C436.263 141.147 434.746 140.451 432.434 140.457C430.135 140.451 428.606 141.147 428.618 142.316ZM445.175 139.662C446.481 139.655 447.599 140.14 448.339 140.954H452.286V138.742H453.952V148.04H452.286V145.914H448.333C447.593 146.722 446.474 147.207 445.175 147.201C442.807 147.207 441.042 145.641 441.054 143.434C441.042 141.215 442.807 139.649 445.175 139.662ZM442.639 143.434C442.639 144.814 443.696 145.79 445.175 145.778C446.617 145.79 447.68 144.814 447.68 143.434C447.68 142.023 446.617 141.085 445.175 141.097C443.696 141.085 442.639 142.023 442.639 143.434ZM443.354 151.427C443.342 149.507 445.38 148.388 448.675 148.388C451.956 148.388 453.995 149.507 454.001 151.427C453.995 153.348 451.956 154.467 448.675 154.467C445.38 154.467 443.342 153.348 443.354 151.427ZM444.989 151.427C444.976 152.521 446.369 153.149 448.675 153.149C450.993 153.149 452.373 152.521 452.373 151.427C452.373 150.315 450.993 149.681 448.675 149.681C446.369 149.681 444.976 150.315 444.989 151.427ZM449.11 142.303C449.215 142.657 449.278 143.037 449.278 143.434C449.278 143.832 449.215 144.205 449.11 144.553H452.286V142.303H449.11ZM466.457 142.751C466.45 145.635 468.066 148.506 470.472 149.588L469.465 150.93C467.669 150.029 466.314 148.251 465.624 146.095C464.928 148.363 463.554 150.278 461.745 151.216L460.689 149.874C463.125 148.705 464.754 145.666 464.766 142.751V140.053H466.457V142.751ZM468.744 145.33V143.975H472.256V138.742H473.909V154.523H472.256V145.33H468.744ZM489.379 138.742V154.523H487.7V138.742H489.379ZM477.202 150.756V140.053H478.868V144.099H483.12V140.053H484.767V150.756H477.202ZM478.868 149.376H483.12V145.423H478.868V149.376ZM499.888 140.979C499.888 143.54 502.617 145.97 505.638 146.511L504.879 147.903C502.356 147.356 500.044 145.709 499.018 143.497C497.98 145.697 495.674 147.35 493.151 147.903L492.405 146.511C495.401 145.952 498.117 143.54 498.129 140.979V139.792H499.888V140.979ZM491.889 152.422V151.036H506.303V152.422H491.889Z" fill="white"/>
<path d="M42 126.666L46 130.666L59.3333 117.333" stroke="white" stroke-width="2" stroke-linecap="round" stroke-linejoin="round"/>
<path d="M58 128V137.333C58 138.041 57.719 138.719 57.219 139.219C56.7189 139.719 56.0406 140 55.3333 140H36.6667C35.9594 140 35.2811 139.719 34.781 139.219C34.281 138.719 34 138.041 34 137.333V118.667C34 117.959 34.281 117.281 34.781 116.781C35.2811 116.281 35.9594 116 36.6667 116H51.3333" stroke="white" stroke-width="2" stroke-linecap="round" stroke-linejoin="round"/>
<rect x="0.5" y="34.5" width="689" height="47" rx="23.5" fill="white"/>
<rect x="0.5" y="34.5" width="689" height="47" rx="23.5" stroke="#767BFF"/>
<path d="M220.266 67V50.0312H223.312V64.4219H230.812V67H220.266ZM233.25 50.0312H237L242.039 62.3594H242.25L247.289 50.0312H251.039V67H248.109V55.3281H247.945L243.234 66.9531H241.055L236.344 55.2812H236.203V67H233.25V50.0312ZM263.414 54.6953C263.262 53.2305 262.031 52.3867 260.203 52.3984C258.27 52.3867 257.121 53.3242 257.109 54.6016C257.098 56.0312 258.609 56.6172 260.016 56.9453L261.609 57.3672C264.141 57.9531 266.578 59.2891 266.578 62.2422C266.578 65.2188 264.223 67.2578 260.156 67.2578C256.207 67.2578 253.699 65.3594 253.57 62.0078H256.57C256.711 63.7773 258.199 64.6445 260.133 64.6562C262.137 64.6445 263.52 63.6719 263.531 62.2188C263.52 60.8828 262.301 60.3203 260.461 59.8516L258.539 59.3594C255.75 58.6328 254.016 57.2266 254.016 54.7891C254.016 51.7891 256.676 49.7969 260.25 49.7969C263.848 49.7969 266.297 51.8242 266.344 54.6953H263.414ZM292.219 47.8984V60.9531H289.711V47.8984H292.219ZM273.797 55.8672C276.633 55.8789 281.309 55.8203 284.766 55.2812L284.93 57.0391C283.629 57.3203 282.211 57.5078 280.781 57.625V60.8594H278.273V57.7773C276.703 57.8359 275.227 57.8477 274.055 57.8359L273.797 55.8672ZM274.758 51.7891C274.758 49.8438 276.633 48.6484 279.422 48.6484C282.176 48.6484 284.062 49.8438 284.062 51.7891C284.062 53.7109 282.176 54.9531 279.422 54.9531C276.633 54.9531 274.758 53.7109 274.758 51.7891ZM277.125 51.7891C277.137 52.668 277.992 53.1133 279.422 53.125C280.816 53.1133 281.73 52.668 281.742 51.7891C281.73 50.9219 280.816 50.4531 279.422 50.4531C277.992 50.4531 277.137 50.9219 277.125 51.7891ZM277.359 68.8281V61.6562H279.938V63.2734H289.617V61.6562H292.219V68.8281H277.359ZM279.938 66.7891H289.617V65.2656H279.938V66.7891ZM282.375 60.0391V58.2578H285.75V48.2734H288.211V60.9297H285.75V60.0391H282.375ZM305.156 49.5156C307.969 49.5039 309.797 52.3984 309.82 57.0625C309.797 61.7383 307.969 64.6445 305.156 64.6328C302.391 64.6445 300.586 61.7383 300.586 57.0625C300.586 52.3984 302.391 49.5039 305.156 49.5156ZM303 57.0625C302.988 60.3789 303.809 62.1602 305.156 62.1484C306.562 62.1602 307.395 60.3789 307.406 57.0625C307.395 53.7578 306.562 51.9648 305.156 51.9766C303.809 51.9648 302.988 53.7578 303 57.0625ZM311.438 68.0547V48.2734H313.898V56.0781H316.148V47.8984H318.656V69.0859H316.148V58.2344H313.898V68.0547H311.438ZM338.648 48.5078V50.4766H335.742V53.6875H338.531V55.6562H322.969V53.6875H325.758V50.4766H322.852V48.5078H338.648ZM321.117 59.0547V56.9922H340.43V59.0547H321.117ZM323.391 62.3828V60.4844H338.016V65.5234H325.969V66.9531H338.602V68.8984H323.414V63.7188H335.461V62.3828H323.391ZM328.359 53.6875H333.117V50.4766H328.359V53.6875ZM359.508 47.8984V69.1094H356.93V47.8984H359.508ZM343.008 51.8594V49.75H352.992V57.6953H345.703V61.9609C349.043 61.9375 351.914 61.7617 355.219 61.2109L355.453 63.3438C351.855 63.9648 348.691 64.1055 344.883 64.0938H343.031V55.6328H350.344V51.8594H343.008ZM372 50.3359C371.988 52.3281 371.801 54.2383 371.309 56.0312H373.922V48.4141H376.383V68.0781H373.922V58.1406H370.535C369.375 60.6953 367.371 62.9453 364.078 64.7969L362.602 63.0156C365.473 61.375 367.242 59.4648 368.273 57.2734L362.977 57.8125L362.672 55.5625L369.012 55.2109C369.234 54.332 369.375 53.4062 369.445 52.4453H363.703V50.3359H372ZM378.398 69.0859V47.8984H380.883V69.0859H378.398ZM400.969 47.8984V69.1094H398.344V47.8984H400.969ZM384.023 56.9219C384.012 52.3516 386.344 49.4453 389.555 49.4453C392.73 49.4453 395.074 52.3516 395.086 56.9219C395.074 61.5273 392.73 64.4219 389.555 64.4219C386.344 64.4219 384.012 61.5273 384.023 56.9219ZM386.531 56.9219C386.531 60.1797 387.762 62.0664 389.555 62.0781C391.336 62.0664 392.555 60.1797 392.555 56.9219C392.555 53.6875 391.336 51.7891 389.555 51.7891C387.762 51.7891 386.531 53.6875 386.531 56.9219ZM411.797 51.6484C411.785 54.6367 413.461 57.543 416.719 58.7734L415.266 60.7891C413.004 59.8984 411.387 58.1289 410.508 55.9375C409.594 58.293 407.883 60.1562 405.445 61.0938L404.039 59.0312C407.414 57.8125 409.16 54.8242 409.172 51.6484V49.1172H411.797V51.6484ZM407.859 68.6641V62.1016H410.508V66.5547H422.297V68.6641H407.859ZM415.359 57.0859V55H419.227V52.9141H415.359V50.8047H419.227V47.9219H421.828V63.6484H419.227V57.0859H415.359ZM448.711 47.8984V69.0859H446.203V58.2109H443.93V68.1016H441.492V48.4609H443.93V56.1016H446.203V47.8984H448.711ZM430.359 62.8516C434.871 60.25 436.781 56.8984 437.156 52.6562H431.344V50.5703H439.688C439.688 56.3008 437.883 61.2227 431.859 64.6562L430.359 62.8516ZM454.57 48.8359V51.5312H459.516V48.8359H462.094V58.0703H451.992V48.8359H454.57ZM454.125 61.6328V59.5938H467.977V65.1484H456.727V66.8359H468.633V68.8984H454.148V63.25H465.375V61.6328H454.125ZM454.57 56.0078H459.516V53.5H454.57V56.0078ZM465.375 58.75V47.8984H467.977V52.1875H470.93V54.2969H467.977V58.75H465.375Z" fill="#553BF3"/>
<path d="M43.8486 16.084V17.7188H29.3291V16.084H35.5693V12.9551H30.5771V11.4082H32.8096V6.66211H30.5244V5.08008H42.583V6.66211H40.2627V11.4082H42.5303V12.9551H37.5029V16.084H43.8486ZM34.7607 11.4082H38.3291V6.66211H34.7607V11.4082ZM57.8057 12.0059V13.5527H46.6611V4.92188H57.665V6.50391H48.6475V8.41992H57.2959V9.94922H48.6475V12.0059H57.8057ZM59.4053 16.0312V17.6309H44.8857V16.0312H59.4053ZM73.5908 4.07812V5.53711H71.4111V7.96289H73.5029V9.42188H68.6338V10.5996H74.9268V12.1289H60.4424V10.5996H66.6826V9.42188H61.8311V7.96289H63.9229V5.53711H61.7432V4.07812H73.5908ZM73.1162 13.1133V16.8398H64.0811V17.9648H73.5557V19.4238H62.165V15.5039H71.2002V14.5195H62.1475V13.1133H73.1162ZM65.874 7.96289H69.4424V5.53711H65.874V7.96289ZM89.2354 3.67383V19.582H87.3018V3.67383H89.2354ZM84.3486 5.0625V11.0215H78.8818V14.2207C81.3867 14.2031 83.5488 14.0801 86.0186 13.6582L86.1943 15.2578C83.4873 15.7324 81.1143 15.8203 78.2666 15.8203H76.8779V9.47461H82.3623V6.64453H76.8604V5.0625H84.3486ZM98.7803 4.57031C102.19 4.57031 104.704 6.27539 104.704 8.85938C104.704 11.2412 102.656 12.832 99.7471 13.1133V16.0312H106.075V17.6309H91.5557V16.0312H97.8135V13.1133C94.9219 12.832 92.874 11.2412 92.8916 8.85938C92.874 6.27539 95.3877 4.57031 98.7803 4.57031ZM98.7803 6.15234C96.46 6.13477 94.79 7.18945 94.8076 8.85938C94.79 10.582 96.46 11.6016 98.7803 11.6016C101.136 11.6016 102.788 10.582 102.788 8.85938C102.788 7.18945 101.136 6.13477 98.7803 6.15234ZM116.604 18.1758C113.546 18.1758 111.718 15.8027 111.718 11.6367C111.718 7.48828 113.546 5.09766 116.604 5.09766C119.646 5.09766 121.491 7.48828 121.491 11.6367C121.491 15.8027 119.663 18.1758 116.604 18.1758ZM116.604 16.2598C118.204 16.2598 119.188 14.6953 119.188 11.6367C119.188 8.5957 118.187 6.99609 116.604 6.99609C115.022 6.99609 114.021 8.5957 114.021 11.6367C114.021 14.6953 115.005 16.2598 116.604 16.2598ZM123.407 18V16.3477L127.907 12.0059C129.19 10.7227 129.858 9.9668 129.858 8.89453C129.858 7.7168 128.927 6.96094 127.679 6.96094C126.36 6.96094 125.517 7.78711 125.534 9.07031H123.354C123.337 6.66211 125.147 5.09766 127.696 5.09766C130.298 5.09766 132.056 6.64453 132.056 8.78906C132.056 10.2305 131.353 11.3906 128.856 13.7461L126.589 15.9961V16.084H132.249V18H123.407Z" fill="white"/>
<path d="M8.99995 8.40039C8.84082 8.40039 8.68821 8.46361 8.57569 8.57613C8.46316 8.68865 8.39995 8.84126 8.39995 9.00039C8.39995 9.15952 8.46316 9.31213 8.57569 9.42466C8.68821 9.53718 8.84082 9.60039 8.99995 9.60039H15C15.1591 9.60039 15.3117 9.53718 15.4242 9.42466C15.5367 9.31213 15.6 9.15952 15.6 9.00039C15.6 8.84126 15.5367 8.68865 15.4242 8.57613C15.3117 8.46361 15.1591 8.40039 15 8.40039H8.99995ZM7.19995 11.4004C7.19995 11.2413 7.26316 11.0886 7.37569 10.9761C7.48821 10.8636 7.64082 10.8004 7.79995 10.8004H16.2C16.3591 10.8004 16.5117 10.8636 16.6242 10.9761C16.7367 11.0886 16.8 11.2413 16.8 11.4004C16.8 11.5595 16.7367 11.7121 16.6242 11.8247C16.5117 11.9372 16.3591 12.0004 16.2 12.0004H7.79995C7.64082 12.0004 7.48821 11.9372 7.37569 11.8247C7.26316 11.7121 7.19995 11.5595 7.19995 11.4004ZM8.99995 13.2004C8.84082 13.2004 8.68821 13.2636 8.57569 13.3761C8.46316 13.4887 8.39995 13.6413 8.39995 13.8004C8.39995 13.9595 8.46316 14.1121 8.57569 14.2247C8.68821 14.3372 8.84082 14.4004 8.99995 14.4004H15C15.1591 14.4004 15.3117 14.3372 15.4242 14.2247C15.5367 14.1121 15.6 13.9595 15.6 13.8004C15.6 13.6413 15.5367 13.4887 15.4242 13.3761C15.3117 13.2636 15.1591 13.2004 15 13.2004H8.99995ZM2.99995 2.40039C2.57486 2.39976 2.16327 2.54959 1.83807 2.82335C1.51287 3.0971 1.29504 3.47712 1.22318 3.89609C1.15131 4.31506 1.23005 4.74594 1.44543 5.11242C1.66082 5.4789 1.99895 5.75733 2.39995 5.89839V14.4004C2.39995 15.3552 2.77924 16.2708 3.45437 16.946C4.1295 17.6211 5.04517 18.0004 5.99995 18.0004H11.4V20.4004H7.79995C7.64082 20.4004 7.48821 20.4636 7.37569 20.5761C7.26316 20.6887 7.19995 20.8413 7.19995 21.0004C7.19995 21.1595 7.26316 21.3121 7.37569 21.4247C7.48821 21.5372 7.64082 21.6004 7.79995 21.6004H16.2C16.3591 21.6004 16.5117 21.5372 16.6242 21.4247C16.7367 21.3121 16.8 21.1595 16.8 21.0004C16.8 20.8413 16.7367 20.6887 16.6242 20.5761C16.5117 20.4636 16.3591 20.4004 16.2 20.4004H12.6V18.0004H18C18.9547 18.0004 19.8704 17.6211 20.5455 16.946C21.2207 16.2708 21.5999 15.3552 21.5999 14.4004V5.89839C22.0009 5.75733 22.3391 5.4789 22.5545 5.11242C22.7699 4.74594 22.8486 4.31506 22.7767 3.89609C22.7049 3.47712 22.487 3.0971 22.1618 2.82335C21.8366 2.54959 21.425 2.39976 20.9999 2.40039H2.99995ZM3.59995 14.4004V6.00039H20.4V14.4004C20.4 15.0369 20.1471 15.6474 19.697 16.0974C19.2469 16.5475 18.6365 16.8004 18 16.8004H5.99995C5.36343 16.8004 4.75298 16.5475 4.30289 16.0974C3.85281 15.6474 3.59995 15.0369 3.59995 14.4004Z" fill="white"/>
</svg>
