<svg width="1400" height="335" viewBox="0 0 1400 335" fill="none" xmlns="http://www.w3.org/2000/svg">
<path d="M14.8691 86.4492C8.5127 86.4043 2.17871 82.6309 2.20117 70.6367C2.20117 59.5186 7.25488 53.0273 15.2285 53.0273C21.4951 53.0273 25.8076 56.958 26.5488 62.2363H20.7539C20.1699 59.7432 18.1934 58.0811 15.2285 58.1035C10.5117 58.0811 7.88379 62.2588 7.86133 69.1094H8.17578C9.83789 66.3018 12.96 64.6396 16.5312 64.6621C22.3711 64.6396 26.8857 69.0645 26.8633 75.2188C26.8857 81.6875 22.0566 86.4941 14.8691 86.4492ZM8.49023 75.3984C8.53516 78.79 11.1855 81.71 14.8691 81.7324C18.4854 81.71 21.1807 78.9248 21.2031 75.3535C21.1807 71.8945 18.5752 69.1094 14.959 69.1094C11.2979 69.1094 8.53516 72.0068 8.49023 75.3984ZM65.3164 49.3887V89.998H60.5098V69.1543H56.1523V88.1113H51.4805V50.4668H56.1523V65.1113H60.5098V49.3887H65.3164ZM30.1426 78.0488C38.79 73.0625 42.4512 66.6387 43.1699 58.5078H32.0293V54.5098H48.0215C48.0215 65.4932 44.5625 74.9268 33.0176 81.5078L30.1426 78.0488ZM104.264 49.4336V73.1074H99.2324V71.4453H91.6406V68.3906H99.2324V49.4336H104.264ZM70.168 64.0781C78.0068 64.0781 87.8223 64.0107 96.5371 63.1348L96.8066 66.2793C93.1006 66.7734 89.2822 67.1104 85.5312 67.29V73.1523H80.5898V67.4922C77.1084 67.582 73.7617 67.6045 70.707 67.582L70.168 64.0781ZM73.043 56.1719C73.043 52.4883 77.1084 50.085 83.2852 50.0625C89.3271 50.085 93.415 52.4883 93.4375 56.1719C93.415 59.9453 89.3271 62.2363 83.2852 62.2363C77.1084 62.2363 73.043 59.9453 73.043 56.1719ZM76.0977 77.7793V74.3652H104.264V83.4844H81.1738V86.0898H105.342V89.6387H76.2773V80.2051H99.3223V77.7793H76.0977ZM77.8047 56.1719C77.7598 57.8789 79.8711 58.9346 83.2852 58.9121C86.6318 58.9346 88.7656 57.8789 88.7656 56.1719C88.7656 54.4648 86.6318 53.3643 83.2852 53.3867C79.8711 53.3643 77.7598 54.4648 77.8047 56.1719ZM154.891 49.4336V79.082H149.904V64.2129H142.717V60.1699H149.904V49.4336H154.891ZM120.795 70.3223C127.264 68.1885 130.723 62.8877 130.723 57.4746V56.3965H122.277V52.3535H144.199V56.3965H135.799V57.5195C135.799 62.3936 139.078 67.4473 145.367 69.5137L142.852 73.5117C138.314 71.9619 135.103 68.8623 133.328 65.0215C131.554 69.2891 128.162 72.7031 123.355 74.3652L120.795 70.3223ZM128.252 89.1895V76.4766H133.238V85.1465H155.924V89.1895H128.252ZM195.949 53.6562V57.5645H187.549C187.639 61.0908 190.851 64.2129 196.848 65.3809L194.871 69.2441C190.222 68.2783 186.942 66.0996 185.146 63.1797C183.371 66.3691 180.002 68.7725 175.24 69.7832L173.129 65.9199C179.216 64.707 182.45 61.293 182.518 57.5645H174.162V53.6562H182.562V49.4785H187.549V53.6562H195.949ZM171.602 71.8945C179.171 71.917 189.256 71.8496 197.926 70.7715L198.285 74.3652C194.781 74.9717 191.143 75.3535 187.594 75.6006V88.7402H182.562V75.8701C178.856 76.0049 175.33 76.0273 172.23 76.0273L171.602 71.8945ZM200.576 89.9531V49.4336H205.518V89.9531H200.576ZM245.004 51.2305V55.2285H233.234C233.684 59.0693 238.647 62.708 246.486 63.6289L244.6 67.582C237.322 66.7061 231.954 63.4941 229.775 59.1143C227.597 63.4717 222.273 66.7061 214.996 67.582L213.154 63.6289C220.993 62.708 225.89 59.0469 226.361 55.2285H214.682V51.2305H245.004ZM211.268 73.8711V69.8281H248.373V73.8711H232.695V81.2832H227.754V73.8711H211.268ZM215.76 89.1895V77.5547H220.746V85.1465H244.285V89.1895H215.76ZM295.137 53.1172V57.0254C295.092 62.0791 295.092 67.7168 293.52 76.207L288.488 75.668C290.083 67.7617 290.083 61.9893 290.105 57.1152H265.848V53.1172H295.137ZM261.984 84.7422V80.6543H275.641V66.5488H280.582V80.6543H299V84.7422H261.984ZM323.393 52.7578V72.0742H303.807V52.7578H323.393ZM308.703 88.9199V75.668H313.734V84.877H336.689V88.9199H308.703ZM308.748 68.0762H318.451V56.7559H308.748V68.0762ZM330.535 78.4082V49.4336H335.566V78.4082H330.535ZM359.959 50.0176C369.213 50.04 374.581 52.4883 374.604 56.9805C374.581 61.5176 369.213 63.9658 359.959 63.9883C350.728 63.9658 345.314 61.5176 345.314 56.9805C345.314 52.4883 350.728 50.04 359.959 50.0176ZM341.496 70.1426V66.1445H378.512V70.1426H341.496ZM345.854 76.5664V72.8828H373.885V82.8105H350.795V85.8203H375.008V89.6387H345.898V79.2617H368.988V76.5664H345.854ZM350.57 56.9805C350.548 59.2266 353.782 60.2598 359.959 60.2598C366.226 60.2598 369.438 59.2266 369.438 56.9805C369.438 54.8916 366.226 53.7012 359.959 53.7012C353.782 53.7012 350.548 54.8916 350.57 56.9805ZM426.893 49.4336V74.4551H422.131V64.168H418.268V73.9609H413.596V50.0176H418.268V60.0801H422.131V49.4336H426.893ZM391.943 57.5195V53.5664H399.625V49.6133H404.566V53.5664H412.158V57.5195H391.943ZM393.381 66.0996C393.336 61.8545 397.02 59.0693 402.096 59.0469C407.262 59.0693 410.9 61.8545 410.945 66.0996C410.9 70.2773 407.262 73.1299 402.096 73.1523C397.02 73.1299 393.336 70.2773 393.381 66.0996ZM394.549 85.7305C399.737 84.1582 402.388 80.3398 402.365 76.7012V75.7129H407.307V76.7012C407.284 79.8682 408.789 83.1025 412.203 85.124C415.662 82.9678 417.257 79.5312 417.279 76.7012V75.7129H422.221V76.7012C422.221 80.5645 424.759 84.293 430.082 85.7305L427.746 89.5039C423.771 88.2461 421.098 85.7305 419.705 82.6309C418.402 85.708 416.021 88.4707 412.293 89.8633C408.475 88.5156 406.071 85.9102 404.791 82.833C403.309 85.7979 400.658 88.2236 396.885 89.5039L394.549 85.7305ZM397.828 66.0996C397.828 68.2334 399.558 69.5137 402.096 69.5137C404.656 69.5137 406.408 68.2334 406.408 66.0996C406.408 63.9209 404.656 62.6855 402.096 62.6855C399.558 62.6855 397.828 63.9209 397.828 66.0996ZM452.902 52.3984V56.4414H439.291V69.334C445.625 69.3115 449.982 69.0645 454.924 68.1211L455.418 72.1641C449.893 73.1299 445.041 73.3994 437.539 73.4219H434.35V52.3984H452.902ZM439.246 89.3691V76.6113H444.277V85.3262H466.963V89.3691H439.246ZM450.432 64.2129V60.2598H460.943V49.4336H465.93V78.9922H460.943V64.2129H450.432ZM16.127 116.576C16.1045 121.967 19.3389 127.223 25.6504 129.379L22.9102 133.287C18.5303 131.647 15.4082 128.48 13.6787 124.482C11.9492 128.952 8.625 132.456 3.86328 134.23L1.21289 130.277C7.74902 128.076 11.0732 122.461 11.0957 116.531V111.904H16.127V116.576ZM8.58008 149.189V136.297H13.6562V145.146H36.252V149.189H8.58008ZM22.2812 122.461V118.373H30.3672V109.434H35.3535V139.576H30.3672V122.461H22.2812ZM47.0781 113.117V122.506H53.6816V113.117H58.3086V140.16H42.3613V113.117H47.0781ZM47.0781 136.117H53.6816V126.459H47.0781V136.117ZM62.3066 148.021V110.107H67.0234V125.066H71.3359V109.389H76.1426V149.998H71.3359V129.199H67.0234V148.021H62.3066ZM112.934 112.758C112.911 117.856 118.639 123.045 127.309 124.168L125.332 128.211C118.437 127.178 112.956 123.786 110.306 119.204C107.655 123.786 102.197 127.178 95.3691 128.211L93.3926 124.168C101.973 123.045 107.678 117.901 107.678 112.758V110.691H112.934V112.758ZM91.7754 135.848V131.715H128.791V135.848H112.664V149.998H107.723V135.848H91.7754ZM168.637 141.148V145.281H131.531V141.148H141.369V134.455H135.934V121.203H159.293V116.217H135.844V112.174H164.234V125.201H140.92V130.412H165.178V134.455H159.248V141.148H168.637ZM146.221 141.148H154.352V134.455H146.221V141.148ZM183.955 116.936C183.978 121.315 186.538 125.74 191.861 127.762L189.211 131.58C185.595 130.21 183.079 127.604 181.619 124.46C180.137 128.076 177.486 131.176 173.623 132.793L170.928 128.975C176.521 126.504 179.126 121.428 179.148 116.936V111.904H183.955V116.936ZM178.385 142.451C178.362 137.779 183.753 134.994 192.311 134.994C200.801 134.994 206.214 137.779 206.236 142.451C206.214 147.146 200.801 149.953 192.311 149.953C183.753 149.953 178.362 147.146 178.385 142.451ZM183.371 142.451C183.349 144.854 186.673 146.157 192.311 146.135C197.858 146.157 201.183 144.854 201.205 142.451C201.183 140.07 197.858 138.768 192.311 138.768C186.673 138.768 183.349 140.07 183.371 142.451ZM192.535 133.062V110.197H197.207V119.676H201.25V109.434H206.012V134.32H201.25V123.764H197.207V133.062H192.535ZM224.205 112.219C230.651 112.196 235.346 116.262 235.391 122.012C235.346 127.784 230.651 131.827 224.205 131.85C217.826 131.827 213.042 127.784 213.064 122.012C213.042 116.262 217.826 112.196 224.205 112.219ZM211.223 137.465C218.545 137.465 228.675 137.375 237.457 136.117L237.861 139.756C228.765 141.485 219.017 141.553 211.852 141.553L211.223 137.465ZM218.006 122.012C217.983 125.403 220.656 127.492 224.205 127.492C227.799 127.492 230.472 125.403 230.494 122.012C230.472 118.643 227.821 116.531 224.205 116.531C220.656 116.531 217.983 118.643 218.006 122.012ZM239.883 150.043V109.389H244.869V150.043H239.883ZM274.383 116.936C274.405 121.315 276.966 125.74 282.289 127.762L279.639 131.58C276.022 130.21 273.507 127.604 272.047 124.46C270.564 128.076 267.914 131.176 264.051 132.793L261.355 128.975C266.948 126.504 269.554 121.428 269.576 116.936V111.904H274.383V116.936ZM268.812 142.451C268.79 137.779 274.181 134.994 282.738 134.994C291.229 134.994 296.642 137.779 296.664 142.451C296.642 147.146 291.229 149.953 282.738 149.953C274.181 149.953 268.79 147.146 268.812 142.451ZM273.799 142.451C273.776 144.854 277.101 146.157 282.738 146.135C288.286 146.157 291.61 144.854 291.633 142.451C291.61 140.07 288.286 138.768 282.738 138.768C277.101 138.768 273.776 140.07 273.799 142.451ZM282.963 133.062V110.197H287.635V119.676H291.678V109.434H296.439V134.32H291.678V123.764H287.635V133.062H282.963ZM314.139 116.936C314.161 121.315 316.722 125.74 322.045 127.762L319.395 131.58C315.778 130.21 313.263 127.604 311.803 124.46C310.32 128.076 307.67 131.176 303.807 132.793L301.111 128.975C306.704 126.504 309.31 121.428 309.332 116.936V111.904H314.139V116.936ZM308.568 142.451C308.546 137.779 313.937 134.994 322.494 134.994C330.984 134.994 336.397 137.779 336.42 142.451C336.397 147.146 330.984 149.953 322.494 149.953C313.937 149.953 308.546 147.146 308.568 142.451ZM313.555 142.451C313.532 144.854 316.856 146.157 322.494 146.135C328.042 146.157 331.366 144.854 331.389 142.451C331.366 140.07 328.042 138.768 322.494 138.768C316.856 138.768 313.532 140.07 313.555 142.451ZM322.719 133.062V110.197H327.391V119.676H331.434V109.434H336.195V134.32H331.434V123.764H327.391V133.062H322.719ZM373.256 109.434V122.191H378.916V126.324H373.256V139.756H368.27V109.434H373.256ZM341.271 117.924V113.926H350.84V109.389H355.826V113.926H365.35V117.924H341.271ZM343.338 127.357C343.338 122.686 347.403 119.586 353.311 119.586C359.173 119.586 363.216 122.686 363.238 127.357C363.216 132.007 359.173 135.039 353.311 135.039C347.403 135.039 343.338 132.007 343.338 127.357ZM347.246 149.189V137.375H352.232V145.146H374.873V149.189H347.246ZM348.189 127.357C348.167 129.806 350.233 131.198 353.311 131.176C356.388 131.198 358.477 129.806 358.477 127.357C358.477 124.887 356.388 123.449 353.311 123.449C350.233 123.449 348.167 124.887 348.189 127.357ZM426.893 113.746V117.789H393.74V113.746H407.891V109.299H412.832V113.746H426.893ZM391.898 139.711V135.623H429.004V139.711H412.832V150.043H407.891V139.711H391.898ZM396.615 126.504C396.615 122.057 401.781 119.631 410.361 119.631C418.941 119.631 424.107 122.057 424.107 126.504C424.107 130.929 418.941 133.377 410.361 133.377C401.781 133.377 396.615 130.929 396.615 126.504ZM401.826 126.504C401.804 128.593 404.746 129.671 410.361 129.648C415.954 129.671 418.919 128.593 418.941 126.504C418.919 124.438 415.954 123.359 410.361 123.359C404.746 123.359 401.804 124.438 401.826 126.504ZM465.57 109.389V149.998H460.539V109.389H465.57ZM431.924 138.812C442.57 133.759 447.467 126.886 448.365 117.654H433.99V113.701H453.441C453.441 125.785 448.747 136.05 434.529 142.811L431.924 138.812ZM508.516 141.148V145.281H471.41V141.148H487.402V134.545H475.812V121.248H499.172V116.217H475.723V112.174H504.113V125.201H480.799V130.457H505.057V134.545H492.344V141.148H508.516ZM15.8574 173.477H21.6523V196.342C21.6523 202.631 17.4521 206.449 11.1855 206.449C5.48047 206.449 1.10059 203.35 1.12305 197.375H6.96289C6.98535 200.025 8.78223 201.62 11.4102 201.643C14.2402 201.62 15.835 199.801 15.8574 196.342V173.477ZM26.2793 199.127C26.2793 193.646 30.8389 192.052 35.3535 191.76C37.0605 191.625 40.542 191.468 41.6201 191.423L41.5977 189.469C41.5977 187.043 40.0479 185.65 37.1953 185.65C34.6348 185.65 33.0625 186.818 32.6133 188.57H27.0879C27.4922 184.415 31.2207 181.293 37.3301 181.293C41.957 181.293 47.3027 183.202 47.3027 189.693V206H41.8223V202.631H41.6426C40.5645 204.697 38.2959 206.494 34.4551 206.494C29.8057 206.494 26.2793 203.956 26.2793 199.127ZM31.8047 199.082C31.8047 201.193 33.5342 202.271 35.9375 202.271C39.4189 202.271 41.6426 199.98 41.6426 197.24L41.6201 195.241C40.5869 195.286 37.3975 195.488 36.252 195.578C33.5342 195.803 31.8047 196.948 31.8047 199.082ZM73.582 181.607L64.8672 206H58.5781L49.8633 181.607H55.9727L61.5879 199.756H61.8574L67.5176 181.607H73.582ZM75.334 199.127C75.334 193.646 79.8936 192.052 84.4082 191.76C86.1152 191.625 89.5967 191.468 90.6748 191.423L90.6523 189.469C90.6523 187.043 89.1025 185.65 86.25 185.65C83.6895 185.65 82.1172 186.818 81.668 188.57H76.1426C76.5469 184.415 80.2754 181.293 86.3848 181.293C91.0117 181.293 96.3574 183.202 96.3574 189.693V206H90.877V202.631H90.6973C89.6191 204.697 87.3506 206.494 83.5098 206.494C78.8604 206.494 75.334 203.956 75.334 199.127ZM80.8594 199.082C80.8594 201.193 82.5889 202.271 84.9922 202.271C88.4736 202.271 90.6973 199.98 90.6973 197.24L90.6748 195.241C89.6416 195.286 86.4521 195.488 85.3066 195.578C82.5889 195.803 80.8594 196.948 80.8594 199.082ZM144.873 170.422V174.15H139.303V180.17H144.648V183.988H114.82V180.17H120.166V174.15H114.596V170.422H144.873ZM111.271 190.457V186.504H148.287V190.457H132.205V193.512H143.66V203.17H120.57V205.91H144.783V209.639H115.674V199.711H138.764V197.15H115.629V193.512H127.219V190.457H111.271ZM125.152 180.17H134.271V174.15H125.152V180.17ZM172.006 174.959C172.006 181.226 178.138 187.537 186.65 189.02L184.404 193.197C177.599 191.782 172.028 187.649 169.378 182.191C166.705 187.604 161.135 191.76 154.352 193.197L152.15 189.02C160.528 187.492 166.683 181.203 166.705 174.959V171.949H172.006V174.959ZM151.027 204.832V200.699H188.133V204.832H151.027ZM208.258 172.219V176.217H197.117V180.17H207.854V183.988H197.117V188.256C202.059 188.211 205.518 188.009 209.471 187.268L210.01 191.311C205.226 192.209 201.317 192.366 195.006 192.344H192.311V172.219H208.258ZM197.701 199.98V195.938H225.508V209.998H220.521V199.98H197.701ZM211.852 193.826V170.197H216.523V179.586H220.746V169.434H225.508V194.141H220.746V183.584H216.523V193.826H211.852ZM264.141 173.611V176.486C264.141 180.103 264.141 185.224 263.018 192.209L258.076 191.805C259.064 185.65 259.177 181.091 259.199 177.609H243.252V173.611H264.141ZM241.096 197.465C243.499 197.442 246.172 197.42 248.957 197.353V185.201H253.898V197.195C258.031 197.016 262.276 196.724 266.162 196.252L266.432 199.98C258.054 201.351 248.755 201.508 241.59 201.463L241.096 197.465ZM268.273 209.998V169.389H273.305V185.92H279.189V190.143H273.305V209.998H268.273ZM315.217 169.389V193.512H310.23V183.584H303.312V179.496H310.23V169.389H315.217ZM281.076 189.469C287.612 187.223 291.049 181.765 291.049 176.396V176.082H282.604V172.039H304.525V176.082H296.125V176.352C296.125 181.293 299.404 186.279 305.693 188.391L303.178 192.344C298.663 190.816 295.474 187.717 293.677 183.898C291.902 188.211 288.511 191.715 283.682 193.422L281.076 189.469ZM287.68 202.271C287.635 197.397 292.913 194.545 301.471 194.545C310.073 194.545 315.329 197.397 315.352 202.271C315.329 207.146 310.073 209.976 301.471 209.998C292.913 209.976 287.635 207.146 287.68 202.271ZM292.621 202.271C292.599 204.787 295.833 206.157 301.471 206.135C307.153 206.157 310.365 204.787 310.365 202.271C310.365 199.733 307.153 198.363 301.471 198.363C295.833 198.363 292.599 199.733 292.621 202.271ZM353.355 173.207V200.115H334.039V173.207H353.355ZM338.98 196.117H348.504V177.115H338.98V196.117ZM360.633 210.043V169.389H365.664V210.043H360.633ZM405.465 169.389V210.043H400.523V169.389H405.465ZM373.84 176.98V172.938H392.977V188.166H379.006V196.342C385.407 196.297 390.91 195.96 397.244 194.904L397.693 198.992C390.798 200.183 384.733 200.452 377.434 200.43H373.885V184.213H387.9V176.98H373.84ZM448.5 201.014V205.102H411.395V201.014H427.387V193.107H415.482V172.084H420.469V178.732H439.291V172.084H444.277V193.107H432.328V201.014H448.5ZM420.469 189.064H439.291V182.73H420.469V189.064ZM485.066 169.389V209.998H480.035V169.389H485.066ZM451.42 198.812C462.066 193.759 466.963 186.886 467.861 177.654H453.486V173.701H472.938C472.938 185.785 468.243 196.05 454.025 202.811L451.42 198.812Z" fill="white"/>
<path d="M5.89844 255.859V270H4.49219V257.305H4.41406L1.07422 259.512V258.086L4.45312 255.859H5.89844ZM23.3594 254.297V271.523H22.1484V254.297H23.3594ZM9.47266 267.168C14.1992 264.922 16.7285 261.396 17.041 257.207H10.2344V256.191H18.2812C18.2715 261.055 15.8105 265.449 10.1562 268.184L9.47266 267.168ZM29.0039 268.809L27.5781 273.867H26.4258L27.5195 268.809H29.0039ZM36.9141 270V268.984L41.6992 263.809C43.5059 261.826 44.2578 260.85 44.2773 259.512C44.2578 257.949 42.9883 256.885 41.3086 256.895C39.5215 256.885 38.3594 258.066 38.3594 259.727H37.0312C37.0312 257.344 38.8672 255.664 41.3477 255.664C43.7988 255.664 45.5664 257.344 45.5664 259.512C45.5664 261.094 44.8438 262.285 42.4023 264.863L38.8867 268.652V268.75H45.9961V270H36.9141ZM62.2266 254.297V271.523H61.0156V254.297H62.2266ZM48.3398 267.168C53.0664 264.922 55.5957 261.396 55.9082 257.207H49.1016V256.191H57.1484C57.1387 261.055 54.6777 265.449 49.0234 268.184L48.3398 267.168ZM78.6719 255.977C78.6621 258.535 82.1875 260.586 85.0195 261.016L84.5117 262.031C81.9824 261.572 79.1211 260.068 78.0371 257.861C76.9727 260.098 74.1211 261.572 71.582 262.031L71.0547 261.016C73.8965 260.586 77.4023 258.584 77.4023 255.977V254.941H78.6719V255.977ZM70.1758 265.156V264.102H85.8789V265.156H78.5938V271.523H77.4023V265.156H70.1758ZM103.242 268.262V269.316H87.4609V268.262H92.0312V264.785H89.4922V259.629H99.9805V256.66H89.4336V255.625H101.191V260.664H90.7031V263.75H101.602V264.785H98.8086V268.262H103.242ZM93.2422 268.262H97.5977V264.785H93.2422V268.262ZM109.766 257.832C109.766 259.756 111.221 261.719 113.418 262.52L112.754 263.496C111.055 262.832 109.785 261.514 109.18 259.971C108.555 261.65 107.246 263.184 105.527 263.945L104.844 262.988C107.07 262.012 108.584 259.746 108.594 257.832V255.371H109.766V257.832ZM107.949 268.438C107.949 266.523 110.117 265.41 113.691 265.41C117.227 265.41 119.414 266.523 119.414 268.438C119.414 270.361 117.227 271.465 113.691 271.465C110.117 271.465 107.949 270.361 107.949 268.438ZM109.18 268.438C109.16 269.707 110.918 270.498 113.691 270.488C116.426 270.498 118.184 269.707 118.203 268.438C118.184 267.168 116.426 266.387 113.691 266.387C110.918 266.387 109.16 267.168 109.18 268.438ZM114.395 264.434V254.629H115.566V259.082H118.145V254.297H119.316V264.98H118.145V260.117H115.566V264.434H114.395ZM132.285 255.664C135.049 255.684 137.803 257.334 137.812 262.5C137.812 267.373 135.605 270.195 132.129 270.195C129.404 270.195 127.52 268.496 127.207 266.152H129.727C129.98 267.275 130.85 267.988 132.129 267.988C134.18 267.988 135.332 266.182 135.352 263.145H135.195C134.482 264.375 133.115 265.107 131.562 265.098C129.033 265.107 127.08 263.184 127.07 260.508C127.07 257.744 129.15 255.645 132.285 255.664ZM129.551 260.449C129.551 261.973 130.684 263.164 132.266 263.164C133.838 263.164 135.049 261.895 135.039 260.43C135.039 258.994 133.887 257.725 132.305 257.715C130.713 257.725 129.531 258.936 129.551 260.449ZM145.137 270.195C141.729 270.195 139.697 267.559 139.707 262.93C139.697 258.32 141.748 255.664 145.137 255.664C148.525 255.664 150.566 258.32 150.566 262.93C150.566 267.568 148.535 270.195 145.137 270.195ZM142.266 262.93C142.266 266.328 143.359 268.057 145.137 268.066C146.904 268.057 148.008 266.328 148.008 262.93C147.998 259.561 146.904 257.783 145.137 257.773C143.369 257.783 142.275 259.561 142.266 262.93ZM156.172 262.754C154.16 262.764 153.057 261.27 153.066 259.102C153.057 256.953 154.209 255.469 156.172 255.469C158.213 255.469 159.287 256.953 159.297 259.102C159.287 261.289 158.174 262.764 156.172 262.754ZM154.863 259.102C154.873 260.371 155.312 261.191 156.172 261.191C157.061 261.191 157.48 260.371 157.48 259.102C157.48 257.871 157.09 257.021 156.172 257.031C155.312 257.031 154.873 257.881 154.863 259.102ZM154.883 270L164.609 255.859H166.582L156.855 270H154.883ZM162.305 266.738C162.295 264.58 163.447 263.086 165.41 263.086C167.441 263.086 168.525 264.58 168.535 266.738C168.525 268.906 167.412 270.381 165.41 270.371C163.398 270.381 162.295 268.887 162.305 266.738ZM164.102 266.738C164.111 267.988 164.551 268.818 165.41 268.809C166.299 268.818 166.719 267.988 166.719 266.738C166.719 265.488 166.328 264.639 165.41 264.648C164.551 264.658 164.111 265.498 164.102 266.738ZM190.098 254.082V271.758H187.91V254.082H190.098ZM175.977 261.602C175.967 257.793 177.91 255.371 180.586 255.371C183.232 255.371 185.186 257.793 185.195 261.602C185.186 265.439 183.232 267.852 180.586 267.852C177.91 267.852 175.967 265.439 175.977 261.602ZM178.066 261.602C178.066 264.316 179.092 265.889 180.586 265.898C182.07 265.889 183.086 264.316 183.086 261.602C183.086 258.906 182.07 257.324 180.586 257.324C179.092 257.324 178.066 258.906 178.066 261.602ZM198.945 256.895C198.945 259.111 200.381 261.211 203.105 262.07L201.934 263.77C200.029 263.125 198.662 261.836 197.891 260.195C197.129 262.07 195.703 263.545 193.672 264.258L192.5 262.559C195.342 261.572 196.768 259.219 196.777 256.699V255.02H198.945V256.895ZM194.902 268.359C194.902 266.27 197.197 265.029 200.879 265.039C204.531 265.029 206.787 266.27 206.797 268.359C206.787 270.498 204.531 271.719 200.879 271.719C197.197 271.719 194.902 270.498 194.902 268.359ZM197.07 268.359C197.07 269.453 198.457 270 200.879 270C203.291 270 204.648 269.453 204.648 268.359C204.648 267.324 203.291 266.738 200.879 266.738C198.457 266.738 197.07 267.324 197.07 268.359ZM204.453 264.648V254.082H206.621V258.379H209.082V260.176H206.621V264.648H204.453ZM229.434 254.102V266.855H227.246V254.102H229.434ZM215.039 259.668C215.039 257.1 217.119 255.264 219.805 255.254C222.49 255.264 224.561 257.1 224.551 259.668C224.561 262.275 222.49 264.102 219.805 264.102C217.119 264.102 215.039 262.275 215.039 259.668ZM217.168 259.668C217.158 261.23 218.291 262.207 219.805 262.207C221.279 262.207 222.422 261.23 222.422 259.668C222.422 258.145 221.279 257.148 219.805 257.148C218.291 257.148 217.158 258.145 217.168 259.668ZM217.754 271.387V265.566H219.941V269.629H229.922V271.387H217.754ZM246.797 254.102V267.148H244.629V260.684H241.465V258.926H244.629V254.102H246.797ZM232.871 264.648V255.449H240.898V257.207H235.039V259.121H240.371V260.82H235.039V262.852C237.832 262.852 239.58 262.773 241.641 262.422L241.816 264.16C239.541 264.561 237.559 264.648 234.219 264.648H232.871ZM235.195 271.387V266.016H237.383V269.629H247.246V271.387H235.195ZM268.828 254.102V266.992H266.66V260.527H263.535V258.77H266.66V254.102H268.828ZM254.004 263.184C256.816 262.256 258.32 259.951 258.32 257.598V257.129H254.648V255.371H264.18V257.129H260.527V257.617C260.527 259.736 261.953 261.934 264.688 262.832L263.594 264.57C261.621 263.896 260.225 262.549 259.453 260.879C258.682 262.734 257.207 264.219 255.117 264.941L254.004 263.184ZM257.246 271.387V265.859H259.414V269.629H269.277V271.387H257.246ZM285.312 254.082V260H287.695V261.797H285.312V267.871H283.145V254.082H285.312ZM271.172 264.336C272.49 264.336 274.023 264.326 275.625 264.277V263.154C273.662 262.91 272.412 261.943 272.422 260.527C272.412 258.799 274.121 257.773 276.68 257.793C279.248 257.773 280.938 258.799 280.938 260.527C280.938 261.934 279.727 262.891 277.793 263.154V264.17C279.297 264.082 280.811 263.945 282.227 263.73L282.402 265.254C278.662 265.957 274.453 266.006 271.406 266.035L271.172 264.336ZM271.621 257.207V255.625H275.625V254.023H277.793V255.625H281.758V257.207H271.621ZM273.711 271.387V266.953H275.879V269.629H285.938V271.387H273.711ZM274.512 260.527C274.492 261.289 275.312 261.738 276.68 261.738C278.047 261.738 278.867 261.289 278.867 260.527C278.867 259.697 278.047 259.248 276.68 259.258C275.312 259.248 274.492 259.697 274.512 260.527ZM292.246 255.859L292.031 265.84H289.824L289.59 255.859H292.246ZM289.414 268.633C289.404 267.812 290.098 267.139 290.938 267.129C291.748 267.139 292.441 267.812 292.441 268.633C292.441 269.473 291.748 270.156 290.938 270.156C290.098 270.156 289.404 269.473 289.414 268.633ZM15.8008 281.977V283.734H1.38672V281.977H7.53906V280.043H9.6875V281.977H15.8008ZM0.585938 293.266V291.488H16.7188V293.266H9.6875V297.758H7.53906V293.266H0.585938ZM2.63672 287.523C2.63672 285.59 4.88281 284.535 8.61328 284.535C12.3438 284.535 14.5898 285.59 14.5898 287.523C14.5898 289.447 12.3438 290.512 8.61328 290.512C4.88281 290.512 2.63672 289.447 2.63672 287.523ZM4.90234 287.523C4.89258 288.432 6.17188 288.9 8.61328 288.891C11.0449 288.9 12.334 288.432 12.3438 287.523C12.334 286.625 11.0449 286.156 8.61328 286.156C6.17188 286.156 4.89258 286.625 4.90234 287.523ZM32.6172 280.082V297.738H30.4297V280.082H32.6172ZM17.9883 292.875C22.6172 290.678 24.7461 287.689 25.1367 283.676H18.8867V281.957H27.3438C27.3438 287.211 25.3027 291.674 19.1211 294.613L17.9883 292.875ZM48.9844 280.082V286.977H51.6016V288.793H48.9844V297.699H46.8164V280.082H48.9844ZM35.0586 292.875C39.3555 290.727 41.6797 287.738 42.1094 283.715H36.0156V281.918H44.3164C44.3066 287.104 42.1582 291.664 36.2891 294.555L35.0586 292.875ZM73.2812 288.305V290.062H57.1875V288.305H73.2812ZM57.9688 285.805C61.2402 285.482 63.3691 284.174 63.7012 282.699H58.6523V280.922H71.8359V282.699H66.7383C67.0605 284.154 69.1699 285.482 72.5195 285.805L71.7578 287.523C68.5449 287.191 66.1719 285.912 65.2148 284.125C64.2578 285.912 61.9141 287.191 58.7109 287.523L57.9688 285.805ZM59.0625 294.477C59.0625 292.426 61.377 291.234 65.2148 291.234C69.0234 291.234 71.3184 292.426 71.3281 294.477C71.3184 296.557 69.0234 297.719 65.2148 297.719C61.377 297.719 59.0625 296.557 59.0625 294.477ZM61.2695 294.477C61.2598 295.502 62.6465 296.01 65.2148 296.02C67.7441 296.01 69.1406 295.502 69.1602 294.477C69.1406 293.451 67.7441 292.934 65.2148 292.934C62.6465 292.934 61.2598 293.451 61.2695 294.477ZM89.2578 280.082V290.473H87.0898V288.031H83.5352V289.398H75.2344V281.41H83.5352V282.777H87.0898V280.082H89.2578ZM77.2852 294.34C77.2656 292.191 79.5605 290.932 83.2812 290.941C87.0215 290.932 89.3066 292.191 89.3164 294.34C89.3066 296.488 87.0215 297.719 83.2812 297.719C79.5605 297.719 77.2656 296.488 77.2852 294.34ZM77.4023 287.66H81.3867V283.129H77.4023V287.66ZM79.4336 294.34C79.4238 295.434 80.8301 296.039 83.2812 296.039C85.752 296.039 87.1484 295.434 87.1484 294.34C87.1484 293.197 85.752 292.611 83.2812 292.602C80.8301 292.611 79.4238 293.197 79.4336 294.34ZM83.5352 286.273H87.0898V284.496H83.5352V286.273ZM105.586 280.082V287.113H108.301V288.91H105.586V297.738H103.438V280.082H105.586ZM91.6602 284.535V282.797H95.8398V280.336H98.0078V282.797H102.07V284.535H91.6602ZM92.4805 289.848C92.4609 287.406 94.3555 285.678 96.9336 285.688C99.4727 285.678 101.357 287.406 101.367 289.848C101.357 292.279 99.4727 293.988 96.9336 293.988C94.3555 293.988 92.4609 292.279 92.4805 289.848ZM94.5508 289.848C94.541 291.283 95.5469 292.201 96.9336 292.191C98.291 292.201 99.2773 291.283 99.2969 289.848C99.2773 288.412 98.291 287.465 96.9336 287.465C95.5469 287.465 94.541 288.412 94.5508 289.848ZM123.34 285.082V286.801H111.113V280.727H113.262V285.082H123.34ZM109.023 290.57V288.852H125.156V290.57H109.023ZM110.957 297.328V292.133H113.125V295.57H123.457V297.328H110.957ZM136.973 284.438C136.982 286.84 138.965 288.852 141.465 289.652L140.84 290.648C138.828 289.975 137.158 288.549 136.396 286.684C135.674 288.676 134.014 290.209 131.973 290.941L131.348 289.984C133.828 289.125 135.762 286.977 135.762 284.438V283.734H131.738V282.699H135.762V280.395H137.012V282.699H140.996V283.734H136.973V284.438ZM134.512 297.113V292.016H135.742V296.078H145.957V297.113H134.512ZM140.391 286.742V285.707H144.219V280.297H145.449V293.207H144.219V286.742H140.391ZM163.262 280.297V297.523H162.07V288.441H159.434V296.625H158.262V280.688H159.434V287.367H162.07V280.297H163.262ZM148.398 292.934C150.85 291.596 152.324 288.695 152.324 285.141V283.48H148.77V282.426H156.895V283.48H153.516V285.141C153.506 288.334 154.941 291.098 157.344 292.309L156.602 293.285C154.814 292.309 153.555 290.551 152.949 288.334C152.354 290.844 151.055 292.787 149.199 293.871L148.398 292.934ZM168.125 281.859V296H166.738V281.859H168.125ZM170.645 283.109V281.859H180.977V283.109H176.523V296H175.117V283.109H170.645ZM196.27 282.113V284.105C196.27 286.352 196.27 288.529 195.664 291.645L194.453 291.488C195.068 288.51 195.068 286.293 195.078 284.105V283.148H184.258V282.113H196.27ZM182.578 294.965V293.91H186.641V288.148H187.871V293.91H190.957V288.148H192.168V293.91H198.281V294.965H182.578ZM215.566 288.676V289.711H211.25V292.094H213.594V297.523H212.363V293.09H201.602V292.094H204.18V289.711H199.863V288.676H215.566ZM201.66 283.988C201.66 281.928 203.975 280.717 207.695 280.727C211.416 280.717 213.73 281.928 213.73 283.988C213.73 286.039 211.416 287.25 207.695 287.23C203.975 287.25 201.66 286.039 201.66 283.988ZM202.93 283.988C202.91 285.375 204.795 286.254 207.695 286.254C210.596 286.254 212.48 285.375 212.48 283.988C212.48 282.592 210.596 281.723 207.695 281.723C204.795 281.723 202.91 282.592 202.93 283.988ZM205.41 292.094H210.039V289.711H205.41V292.094ZM231.719 280.297V293.227H230.547V280.297H231.719ZM217.285 289.711C219.463 288.666 220.957 286.244 220.957 284.203V281.527H222.148V284.203C222.139 286.244 223.535 288.334 225.723 289.242L225.02 290.219C223.359 289.477 222.148 288.08 221.562 286.449C220.957 288.227 219.678 289.838 217.988 290.668L217.285 289.711ZM220.547 297.113V291.605H221.777V296.078H232.285V297.113H220.547ZM224.238 285.844V284.809H227.168V280.648H228.359V292.738H227.168V285.844H224.238ZM248.633 280.297V297.543H247.422V287.973H243.555V286.938H247.422V280.297H248.633ZM235.234 293.305V281.918H243.281V282.953H236.484V286.762H242.461V287.797H236.484V292.25H236.523C239.941 292.26 241.992 292.172 244.395 291.703L244.551 292.758C242.051 293.178 239.98 293.305 236.523 293.305H235.234ZM270.703 280.766V281.762H267.93V285.395H270.664V286.391H258.066V285.395H260.82V281.762H258.047V280.766H270.703ZM256.543 289.008V287.973H272.246V289.008H265V290.863H270.176V294.457H259.727V296.312H270.723V297.309H258.535V293.52H268.984V291.84H258.477V290.863H263.77V289.008H256.543ZM262.051 285.395H266.699V281.762H262.051V285.395ZM282.266 282.914C282.266 286 286.016 288.607 288.73 289.125L288.125 290.18C285.703 289.574 282.734 287.699 281.641 285.053C280.547 287.689 277.598 289.564 275.156 290.18L274.57 289.125C277.275 288.598 280.986 286.029 280.996 282.914V281.547H282.266V282.914ZM273.828 295.102V294.066H289.609V295.102H273.828ZM298.574 281.586V282.621H293.125V285.043H298.379V286.039H293.125V288.676C295.85 288.686 297.461 288.588 299.375 288.188L299.512 289.223C297.48 289.643 295.859 289.73 292.988 289.73H291.934V281.586H298.574ZM294.16 292.699V291.664H305.684V297.523H304.492V292.699H294.16ZM300.625 290.609V280.629H301.797V284.887H304.512V280.297H305.684V290.727H304.512V285.922H301.797V290.609H300.625ZM327.891 280.297V297.523H326.68V288.422H324.004V296.625H322.832V280.766H324.004V287.387H326.68V280.297H327.891ZM313.301 292.875C317.5 290.58 319.189 287.211 319.404 283.598H313.906V282.562H320.605C320.605 286.811 319.033 291.01 314.043 293.773L313.301 292.875ZM332.52 281V283.617H338.027V281H339.238V288.5H331.309V281H332.52ZM332.52 287.465H338.027V284.613H332.52V287.465ZM333.066 291.117V290.102H343.926V294.105H334.316V296.273H344.59V297.309H333.105V293.148H342.695V291.117H333.066ZM342.695 289.242V280.297H343.926V284.164H346.582V285.199H343.926V289.242H342.695ZM353.438 285.785C353.428 288.578 355.635 291.625 358.008 292.777L357.285 293.754C355.371 292.787 353.623 290.678 352.852 288.275C352.061 290.863 350.195 293.178 348.301 294.184L347.539 293.207C349.883 292.035 352.236 288.744 352.246 285.785V283.148H348.145V282.094H357.461V283.148H353.438V285.785ZM359.824 297.523V280.297H361.055V287.387H364.023V288.441H361.055V297.523H359.824ZM379.414 282.25V282.992C379.395 284.271 379.395 286.605 378.887 289.906L377.656 289.809C378.145 286.791 378.184 284.604 378.184 283.285H370.703V282.25H379.414ZM369.707 292.562C370.889 292.562 372.227 292.553 373.613 292.523V287.172H374.844V292.484C376.807 292.416 378.838 292.289 380.684 292.055L380.762 293.012C377.109 293.559 372.998 293.646 369.902 293.637L369.707 292.562ZM381.855 297.523V280.297H383.086V287.602H386.035V288.676H383.086V297.523H381.855ZM401.387 280.297V290.57H400.156V285.922H396.426V284.887H400.156V280.297H401.387ZM387.305 289.359C389.775 288.441 391.777 286.117 391.777 283.559V282.66H387.734V281.625H396.992V282.66H393.008V283.539C393.008 285.854 394.902 288.002 397.344 288.852L396.699 289.848C394.756 289.125 393.164 287.631 392.432 285.785C391.699 287.885 390 289.555 387.949 290.355L387.305 289.359ZM390.02 294.32C390 292.318 392.168 291.146 395.723 291.156C399.277 291.146 401.445 292.318 401.445 294.32C401.445 296.332 399.277 297.484 395.723 297.504C392.168 297.484 390 296.332 390.02 294.32ZM391.23 294.32C391.211 295.658 392.969 296.498 395.723 296.488C398.477 296.498 400.234 295.658 400.234 294.32C400.234 292.973 398.477 292.143 395.723 292.133C392.969 292.143 391.211 292.973 391.23 294.32Z" fill="white"/>
<path d="M0.953125 14V2.6875H5.39062C7.96094 2.6875 9.4375 4.13281 9.4375 6.375C9.4375 7.92188 8.72656 9.04688 7.4375 9.60156L9.84375 14H7.25L5.08594 9.98438H3.29688V14H0.953125ZM3.29688 8.07812H4.95312C6.34375 8.07812 7.02344 7.50781 7.01562 6.375C7.02344 5.23438 6.34375 4.61719 4.95312 4.60938H3.29688V8.07812ZM11.0625 14V2.6875H18.6562V4.625H13.4062V7.375H18.2656V9.3125H13.4062V12.0625H18.6719V14H11.0625ZM22.4688 2.6875L25.2188 11.3125H25.3281L28.0938 2.6875H30.6875L26.7812 14H23.7656L19.8438 2.6875H22.4688ZM34.3125 2.6875V14H31.9688V2.6875H34.3125ZM36.2188 14V2.6875H43.8125V4.625H38.5625V7.375H43.4219V9.3125H38.5625V12.0625H43.8281V14H36.2188ZM48.1719 14L44.9375 2.6875H47.5L49.4062 10.5938H49.5L51.5781 2.6875H53.7812L55.8594 10.6094H55.9531L57.8594 2.6875H60.4219L57.1875 14H54.8906L52.7344 6.53125H52.6406L50.4688 14H48.1719Z" fill="#767BFF"/>
</svg>
