<svg width="146" height="40" viewBox="0 0 146 40" fill="none" xmlns="http://www.w3.org/2000/svg">
<path d="M42.0986 13.2656V20.9688H40.3643V17.9531H37.9268V16.5156H40.3643V13.2656H42.0986ZM34.5205 21.5625V23.0312H40.3643V21.5625H42.0986V27.2188H32.7861V21.5625H34.5205ZM34.5205 25.8125H40.3643V24.3906H34.5205V25.8125ZM38.3799 13.9844V15.4062H35.458C35.4736 17.1016 36.6143 18.8516 38.7861 19.5781L37.9111 20.9219C36.333 20.375 35.2158 19.3125 34.5986 17.9844C33.9736 19.4609 32.8018 20.6484 31.1299 21.2188L30.2393 19.8438C32.4736 19.0859 33.6768 17.2578 33.6924 15.4062H30.7549V13.9844H38.3799ZM51.458 14.4375C51.458 16.2188 53.4424 18.0156 56.458 18.4062L55.7705 19.8125C53.3721 19.4531 51.4658 18.2734 50.5518 16.6719C49.6221 18.2734 47.7236 19.4531 45.3486 19.8125L44.6611 18.4062C47.6455 18.0156 49.6299 16.2188 49.6299 14.4375V13.7188H51.458V14.4375ZM56.9736 21.0312V22.4688H51.3643V27.3906H49.6455V22.4688H44.0986V21.0312H56.9736ZM68.9893 13.2656V18.8906H71.1611V20.3281H68.9893V27.3906H67.2705V13.2656H68.9893ZM66.1768 15.4375V16.8281H57.8486V15.4375H61.1924V13.4688H62.9268V15.4375H66.1768ZM62.0674 17.75C64.0986 17.75 65.6143 19.125 65.6143 21.0781C65.6143 23.0312 64.0986 24.3906 62.0674 24.3906C60.0049 24.3906 58.4893 23.0312 58.5049 21.0781C58.4893 19.125 60.0049 17.75 62.0674 17.75ZM62.0674 19.1719C60.958 19.1719 60.1611 19.9219 60.1611 21.0781C60.1611 22.2344 60.958 22.9688 62.0674 22.9531C63.1455 22.9688 63.9424 22.2344 63.958 21.0781C63.9424 19.9219 63.1455 19.1719 62.0674 19.1719ZM83.5518 13.2656V27.3906H81.8018V13.2656H83.5518ZM79.333 14.7656C79.333 18.9688 77.708 22.5469 72.7549 24.8906L71.8486 23.5C75.5439 21.7422 77.2627 19.3516 77.5674 16.1406H72.5674V14.7656H79.333Z" fill="white"/>
<path d="M104.135 24.1668L108.302 20.0002L104.135 15.8335" stroke="white" stroke-width="2" stroke-linecap="round" stroke-linejoin="round"/>
</svg>
