<svg width="332" height="32" viewBox="0 0 332 32" fill="none" xmlns="http://www.w3.org/2000/svg">
<path d="M9.22266 10.4609V18.1953H7.92188V14.3164H6.04688V13.2617H7.92188V10.4609H9.22266ZM9.49219 19.7773V20.832H2.27344V17.5156H3.57422V19.7773H9.49219ZM4.24219 12.5703C4.24219 13.8477 5.09766 15.1602 6.73828 15.6992L6.08203 16.7422C4.89844 16.3379 4.06055 15.5352 3.59766 14.5273C3.12891 15.6465 2.24414 16.5312 0.996094 16.9648L0.328125 15.9102C2.01562 15.3594 2.91797 13.9648 2.91797 12.5586V12.2773H0.714844V11.2227H6.43359V12.2773H4.24219V12.5703ZM13.2188 11.1055C14.625 11.1055 15.6562 12.1602 15.6562 13.6602C15.6562 15.1719 14.625 16.2031 13.2188 16.2031C11.8125 16.2031 10.793 15.1719 10.793 13.6602C10.793 12.1602 11.8125 11.1055 13.2188 11.1055ZM13.2188 12.2188C12.4805 12.2188 11.9531 12.7695 11.9648 13.6602C11.9531 14.5391 12.4805 15.1133 13.2188 15.1016C13.9453 15.1133 14.4727 14.5391 14.4727 13.6602C14.4727 12.7695 13.9453 12.2188 13.2188 12.2188ZM19.7812 10.4609V16.7773H18.5391V14.1289H17.4961V16.707H16.2891V10.6602H17.4961V13.0859H18.5391V10.4609H19.7812ZM19.7812 17.2812V21.043H18.4805V18.3242H12.5273V17.2812H19.7812ZM33.6094 16.4492V17.5039H29.3906V21.0312H28.1016V17.5039H23.9297V16.4492H33.6094ZM32.4258 10.9883V15.207H25.1133V10.9883H32.4258ZM26.3906 12.0312V14.1875H31.125V12.0312H26.3906ZM43.9922 18.7344V19.8125H34.3125V18.7344H36.8789V16.9883H35.4609V13.5312H41.5547V12.2305H35.4375V11.1758H42.8438V14.5742H36.7617V15.9336H43.0898V16.9883H41.543V18.7344H43.9922ZM38.1445 18.7344H40.2656V16.9883H38.1445V18.7344ZM54.3633 18.7344V19.8125H44.6836V18.7344H48.8555V17.0117H45.832V13.543H51.9258V12.2305H45.8086V11.1758H53.2148V14.5742H47.1328V15.9453H53.4609V17.0117H50.1445V18.7344H54.3633ZM66.5859 11.4219V12.5C66.5859 13.8125 66.5859 15.2422 66.1992 17.3164L64.9219 17.1875C65.2852 15.2305 65.2852 13.7773 65.2852 12.5V12.4648H58.875V11.4219H66.5859ZM67.5586 18.6055V19.6719H57.9023V18.6055H60.0703V15.2305H61.3711V18.6055H62.7188V15.2305H63.9961V18.6055H67.5586ZM77.9297 15.4531V16.4961H75.5156V17.5977H76.7461V21.043H75.4453V18.6172H69.3398V17.5977H70.6523V16.4961H68.2734V15.4531H77.9297ZM73.0898 10.6719C75.4102 10.6719 76.8984 11.457 76.9102 12.7344C76.8984 14.0234 75.4102 14.8086 73.0898 14.8086C70.7695 14.8086 69.2695 14.0234 69.2695 12.7344C69.2695 11.457 70.7695 10.6719 73.0898 10.6719ZM73.0898 11.6914C71.543 11.6914 70.6172 12.0664 70.6289 12.7344C70.6172 13.4258 71.543 13.8008 73.0898 13.8008C74.6367 13.8008 75.5625 13.4258 75.5625 12.7344C75.5625 12.0664 74.6367 11.6914 73.0898 11.6914ZM71.9531 17.5977H74.2266V16.4961H71.9531V17.5977ZM79.9336 17.1992C79.4297 17.1992 79.0195 16.7891 79.0195 16.2852C79.0195 15.793 79.4297 15.3828 79.9336 15.3828C80.4141 15.3828 80.8359 15.793 80.8359 16.2852C80.8359 16.7891 80.4141 17.1992 79.9336 17.1992ZM90.7383 10.4609V18.1133H89.4258V10.4609H90.7383ZM91.0312 19.7773V20.832H83.7305V17.3398H85.043V19.7773H91.0312ZM84.9609 11.1523C86.5664 11.1523 87.8086 12.2656 87.8086 13.8008C87.8086 15.3711 86.5664 16.4609 84.9609 16.4609C83.3438 16.4609 82.1016 15.3711 82.1016 13.8008C82.1016 12.2656 83.3438 11.1523 84.9609 11.1523ZM84.9609 12.2891C84.0586 12.2891 83.3672 12.8867 83.3789 13.8008C83.3672 14.7383 84.0586 15.3242 84.9609 15.3242C85.8398 15.3242 86.5312 14.7383 86.5312 13.8008C86.5312 12.8867 85.8398 12.2891 84.9609 12.2891ZM101.156 10.4609V18.2891H99.8555V14.4102H97.957V13.3555H99.8555V10.4609H101.156ZM101.426 19.7773V20.832H94.1953V17.6094H95.5078V19.7773H101.426ZM97.6172 11.2695V12.3242H94.1016V13.4727H97.3008V14.4922H94.1016V15.7109C95.7773 15.7051 96.832 15.6699 98.0625 15.4531L98.168 16.4961C96.7969 16.7422 95.6133 16.7891 93.6094 16.7891H92.8008V11.2695H97.6172ZM103.945 17.1992C103.441 17.1992 103.031 16.7891 103.031 16.2852C103.031 15.793 103.441 15.3828 103.945 15.3828C104.426 15.3828 104.848 15.793 104.848 16.2852C104.848 16.7891 104.426 17.1992 103.945 17.1992ZM109.945 12.2891C109.945 13.6016 110.848 14.9023 112.535 15.4297L111.867 16.4375C110.666 16.0566 109.793 15.2539 109.312 14.2461C108.832 15.3418 107.936 16.2148 106.676 16.6367L106.008 15.6289C107.707 15.0547 108.621 13.6719 108.633 12.2891V12.1602H106.348V11.1172H112.172V12.1602H109.945V12.2891ZM114.75 10.4492V16.8359H113.438V10.4492H114.75ZM114.75 17.3281V21.043H113.438V18.3828H107.52V17.3281H114.75ZM125.18 10.4609V18.4766H123.867V17.5508H121.793V16.6367H123.867V10.4609H125.18ZM125.426 19.7773V20.832H117.656V17.7031H118.957V19.7773H125.426ZM116.25 15.2188C118.207 15.207 120.832 15.1836 123.082 14.9023L123.152 15.8398C122.279 15.9863 121.377 16.0859 120.48 16.1445V18.1836H119.18V16.2148C118.189 16.2559 117.246 16.2617 116.414 16.2617L116.25 15.2188ZM119.707 10.8477C121.254 10.8477 122.332 11.6094 122.344 12.7227C122.332 13.8594 121.254 14.5859 119.707 14.5859C118.137 14.5859 117.059 13.8594 117.059 12.7227C117.059 11.6094 118.137 10.8477 119.707 10.8477ZM119.707 11.8086C118.863 11.8086 118.289 12.1484 118.289 12.7227C118.289 13.2969 118.863 13.6367 119.707 13.6367C120.516 13.6367 121.09 13.2969 121.102 12.7227C121.09 12.1484 120.516 11.8086 119.707 11.8086ZM138.387 10.4609V18.1953H137.086V14.3164H135.211V13.2617H137.086V10.4609H138.387ZM138.656 19.7773V20.832H131.438V17.5156H132.738V19.7773H138.656ZM133.406 12.5703C133.406 13.8477 134.262 15.1602 135.902 15.6992L135.246 16.7422C134.062 16.3379 133.225 15.5352 132.762 14.5273C132.293 15.6465 131.408 16.5312 130.16 16.9648L129.492 15.9102C131.18 15.3594 132.082 13.9648 132.082 12.5586V12.2773H129.879V11.2227H135.598V12.2773H133.406V12.5703ZM148.277 10.4492V14H149.707V15.0781H148.277V18.7227H146.977V10.4492H148.277ZM148.652 19.7773V20.832H141.316V18.1719H142.617V19.7773H148.652ZM139.793 16.6016C140.584 16.6016 141.504 16.5957 142.465 16.5547V15.8867C141.287 15.7461 140.543 15.166 140.543 14.3164C140.543 13.2734 141.562 12.6641 143.098 12.6758C144.645 12.6641 145.652 13.2734 145.652 14.3164C145.652 15.1602 144.926 15.7344 143.766 15.8867V16.4961C144.668 16.4492 145.576 16.3672 146.426 16.2383L146.531 17.1523C144.293 17.5742 141.762 17.5977 139.934 17.6211L139.793 16.6016ZM146.145 11.375V12.3242H140.062V11.375H142.465V10.4141H143.766V11.375H146.145ZM143.098 13.5547C142.277 13.5547 141.785 13.8242 141.797 14.3164C141.785 14.7734 142.277 15.043 143.098 15.043C143.918 15.043 144.41 14.7734 144.41 14.3164C144.41 13.8242 143.918 13.5547 143.098 13.5547ZM158.707 10.4492V14.6797H160.172V15.7578H158.707V21.043H157.395V10.4492H158.707ZM153.434 11.5625C153.422 14.3398 153.035 16.6836 151.125 18.7461L150.105 18.0078C151.6 16.4258 152.086 14.75 152.191 12.6289H150.527V11.5625H153.434ZM156.363 11.5625C156.352 14.4102 156.059 17.1289 154.148 19.4258L153.105 18.7109C154.617 16.9121 155.039 14.9258 155.133 12.6289H153.785V11.5625H156.363ZM164.625 13.4609C164.625 15.1953 165.645 17.0234 167.355 17.7383L166.641 18.7695C165.387 18.2305 164.473 17.1172 163.992 15.7695C163.5 17.2227 162.574 18.4414 161.332 19.0273L160.582 18.0078C162.258 17.2344 163.301 15.2656 163.301 13.4609V12.5703H160.969V11.4922H166.945V12.5703H164.625V13.4609ZM169.441 10.4492V21.043H168.129V10.4492H169.441Z" fill="#333333"/>
<path d="M182.203 10.4609V13.7891H183.68V14.8672H182.203V18.3711H180.902V10.4609H182.203ZM180.141 11.6328V12.6758H173.859V11.6328H176.355V10.4492H177.656V11.6328H180.141ZM177 13.1094C178.523 13.1094 179.578 13.918 179.59 15.1367C179.578 16.3438 178.523 17.1406 177 17.1406C175.465 17.1406 174.398 16.3438 174.398 15.1367C174.398 13.918 175.465 13.1094 177 13.1094ZM177 14.1172C176.191 14.1172 175.664 14.4922 175.664 15.1367C175.664 15.7695 176.191 16.1445 177 16.1328C177.809 16.1445 178.348 15.7695 178.348 15.1367C178.348 14.4922 177.809 14.1172 177 14.1172ZM182.625 19.7773V20.832H175.418V17.75H176.719V19.7773H182.625ZM193.09 10.4609V18.2773H191.789V14.375H189.656V16.5547H184.699V11.1523H186V12.8633H188.367V11.1523H189.656V13.3203H191.789V10.4609H193.09ZM193.324 19.7773V20.832H186.105V17.5039H187.43V19.7773H193.324ZM186 15.5234H188.367V13.8711H186V15.5234ZM203.73 10.4492V21.043H202.477V10.4492H203.73ZM201.551 10.6367V20.5273H200.309V15.4883H199.301C199.178 17.5508 198.293 18.8281 196.98 18.8164C195.598 18.8281 194.695 17.3633 194.695 15.0312C194.695 12.6992 195.598 11.2578 196.98 11.2578C198.264 11.2578 199.137 12.4531 199.289 14.4336H200.309V10.6367H201.551ZM196.98 12.4883C196.312 12.4766 195.891 13.3789 195.902 15.0312C195.891 16.6836 196.312 17.5859 196.98 17.5742C197.684 17.5859 198.105 16.6836 198.105 15.0312C198.105 13.3789 197.684 12.4766 196.98 12.4883ZM212.977 12.1367V13.1797H207.785V12.1367H209.754V10.7539H211.043V12.1367H212.977ZM210.398 13.7422C211.746 13.7422 212.707 14.7617 212.707 16.2031C212.707 17.668 211.746 18.6992 210.398 18.6992C209.062 18.6992 208.078 17.668 208.09 16.2031C208.078 14.7617 209.062 13.7422 210.398 13.7422ZM210.398 14.8203C209.707 14.8203 209.227 15.3711 209.238 16.2031C209.227 17.0586 209.707 17.5977 210.398 17.5859C211.078 17.5977 211.559 17.0586 211.559 16.2031C211.559 15.3711 211.078 14.8203 210.398 14.8203ZM216.914 10.4492V21.043H215.672V15.8633H214.641V20.5625H213.422V10.6719H214.641V14.8086H215.672V10.4492H216.914ZM227.051 10.4492V15.8164H225.75V14.8906H223.195V13.8945H225.75V12.8516H223.336C222.668 14.4688 221.121 15.5234 218.777 16.0508L218.32 14.9844C220.811 14.4688 222.053 13.373 222.234 11.9609H218.906V10.9062H223.688C223.688 11.2402 223.658 11.5566 223.617 11.8555H225.75V10.4492H227.051ZM227.051 16.2266V19.0156H221.391V19.8945H227.332V20.9375H220.09V18.043H225.75V17.2578H220.078V16.2266H227.051ZM236.848 10.4492V14.668H238.477V15.7461H236.848V21.043H235.559V10.4492H236.848ZM234.738 12.0781V13.1211H228.492V12.0781H231V10.6016H232.301V12.0781H234.738ZM231.656 13.8125C233.18 13.8125 234.316 14.8438 234.316 16.3086C234.316 17.7734 233.18 18.793 231.656 18.793C230.109 18.793 228.973 17.7734 228.984 16.3086C228.973 14.8438 230.109 13.8125 231.656 13.8125ZM231.656 14.8789C230.824 14.8789 230.227 15.4414 230.227 16.3086C230.227 17.1758 230.824 17.7266 231.656 17.7148C232.465 17.7266 233.062 17.1758 233.074 16.3086C233.062 15.4414 232.465 14.8789 231.656 14.8789ZM247.57 11.4219V12.4414C247.559 13.7539 247.559 15.2305 247.148 17.4453L245.836 17.3047C246.246 15.2422 246.246 13.7363 246.258 12.4648H239.93V11.4219H247.57ZM248.578 18.6055V19.6719H238.922V18.6055H242.484V14.9258H243.773V18.6055H248.578ZM260.965 10.4609V16.332H259.652V10.4609H260.965ZM256.09 11.8555C256.09 13.1914 256.98 14.457 258.656 14.9375L258.035 15.9805C256.799 15.5938 255.908 14.8086 255.434 13.8008C254.947 14.8906 254.045 15.752 252.773 16.1562L252.141 15.125C253.852 14.5977 254.742 13.25 254.742 11.8555V10.8359H256.09V11.8555ZM261.023 16.8594V17.8906H259.688V19.8594H261.117V20.9141H253.711V19.8594H255.152V17.8906H253.805V16.8594H261.023ZM256.441 19.8594H258.398V17.8906H256.441V19.8594ZM270.809 10.4492V14.4688H272.438V15.5352H270.809V21.0547H269.508V10.4492H270.809ZM267.902 11.457V12.5117H264.246V17.375C265.893 17.375 267.193 17.293 268.652 17.0352L268.805 18.1367C267.164 18.418 265.734 18.4648 263.824 18.4648H262.945V11.457H267.902ZM278.32 11.3398V12.1836H280.453V10.4609H281.754V18.1719H280.453V15.5H278.32V16.4141H273.34V11.3398H278.32ZM274.641 12.3711V15.3945H277.031V12.3711H274.641ZM281.988 19.7773V20.832H274.77V17.457H276.094V19.7773H281.988ZM278.32 14.457H280.453V13.25H278.32V14.457ZM285.047 17.3984C285.059 15.9102 285.48 15.4531 286.219 14.9961C286.723 14.6797 287.098 14.2812 287.098 13.6953C287.098 13.0391 286.594 12.6172 285.949 12.6172C285.363 12.6172 284.801 12.9922 284.766 13.7773H283.301C283.336 12.207 284.52 11.3984 285.961 11.3984C287.543 11.3984 288.633 12.2773 288.633 13.6719C288.633 14.6211 288.152 15.2422 287.391 15.6992C286.711 16.1094 286.43 16.5195 286.418 17.3984V17.5039H285.047V17.3984ZM285.773 20.0938C285.27 20.0938 284.859 19.6836 284.859 19.1797C284.859 18.6875 285.27 18.2773 285.773 18.2773C286.254 18.2773 286.676 18.6875 286.676 19.1797C286.676 19.6836 286.254 20.0938 285.773 20.0938Z" fill="#553BF3"/>
<circle cx="316" cy="16" r="16" fill="url(#paint0_linear_325_4064)"/>
<mask id="mask0_325_4064" style="mask-type:alpha" maskUnits="userSpaceOnUse" x="300" y="0" width="32" height="32">
<circle cx="316" cy="16" r="16" fill="url(#paint1_linear_325_4064)"/>
</mask>
<g mask="url(#mask0_325_4064)">
<path d="M319.511 -15.2512C318.895 -14.0015 317.817 -13.0892 316.876 -12.0931C316.376 -11.5629 315.902 -10.999 315.527 -10.3709C315.102 -9.65674 314.821 -8.8468 314.553 -8.06298C314.259 -7.20187 314.037 -6.31899 313.939 -5.41325C313.89 -4.9582 313.853 -4.4792 313.903 -4.02306C313.953 -3.56693 314.025 -3.14889 314.124 -2.71888C314.515 -1.0217 315.257 0.563348 315.903 2.17344C316.227 2.98229 316.53 3.80312 316.752 4.64681C316.915 5.26842 316.982 5.90854 317.134 6.53341C317.244 6.98846 317.428 7.50447 317.865 7.74288C318.436 8.05423 319.095 7.7886 319.644 7.56217C319.963 7.43044 320.26 7.29545 320.538 7.08752C320.817 6.87959 321.089 6.62486 321.326 6.35161C321.808 5.79423 322.196 5.16282 322.545 4.51509C322.88 3.89239 323.179 3.2588 323.43 2.59583C323.691 1.90672 323.912 1.20238 324.121 0.495852C324.546 -0.944409 324.916 -2.40318 325.423 -3.8184C325.93 -5.23362 326.537 -6.50732 327.468 -7.61664C327.702 -7.89533 327.952 -8.15769 328.219 -8.40481C328.485 -8.65193 328.09 -9.02751 327.833 -8.79019C326.765 -7.80062 325.981 -6.55413 325.399 -5.22818C324.818 -3.90222 324.392 -2.44563 323.989 -1.02279C323.587 0.400052 323.22 1.75975 322.651 3.08353C322.387 3.70079 322.059 4.3028 321.712 4.87651C321.353 5.47091 320.94 6.04461 320.409 6.49749C320.177 6.69562 319.912 6.86871 319.629 6.9841C319.308 7.11474 318.99 7.25844 318.646 7.32158C318.59 7.33138 318.397 7.339 318.339 7.33247C318.37 7.33682 318.306 7.32594 318.296 7.32376C318.271 7.31832 318.246 7.31178 318.221 7.30416C318.2 7.29763 318.179 7.2911 318.16 7.28239C318.221 7.30634 318.146 7.27368 318.13 7.26497C318.11 7.253 318.09 7.23993 318.069 7.22687C318.025 7.19965 318.069 7.22905 318.06 7.21925C318.02 7.18332 317.985 7.1474 317.95 7.10821C317.915 7.06902 317.968 7.13869 317.94 7.09515C317.926 7.07337 317.91 7.05269 317.897 7.03091C317.869 6.98519 317.844 6.93729 317.821 6.88939C317.815 6.87524 317.785 6.80775 317.805 6.85456C317.795 6.8317 317.786 6.80775 317.778 6.78489C317.755 6.72392 317.735 6.66187 317.717 6.59982C317.681 6.47789 317.65 6.35488 317.624 6.23077C317.563 5.94664 317.516 5.66033 317.466 5.3751C317.328 4.59455 317.103 3.83687 316.836 3.09007C316.26 1.48215 315.505 -0.0582619 314.98 -1.68577C314.85 -2.08965 314.734 -2.49789 314.64 -2.91048C314.547 -3.32307 314.462 -3.73022 314.438 -4.14281C314.388 -5.03223 314.524 -5.9347 314.741 -6.79363C314.959 -7.65257 315.264 -8.44727 315.58 -9.25503C315.837 -9.91039 316.229 -10.5124 316.676 -11.0524C317.56 -12.1192 318.656 -12.9978 319.468 -14.1278C319.662 -14.3966 319.834 -14.6797 319.981 -14.9769C320.046 -15.1086 320.017 -15.2719 319.883 -15.3492C319.763 -15.42 319.576 -15.384 319.511 -15.2512Z" fill="#202332"/>
<path d="M319.023 26.6062C318.779 27.3443 317.983 27.7449 317.245 27.501L307.119 24.1579C306.381 23.914 305.98 23.1182 306.224 22.3801L311.19 7.33739C311.434 6.59929 312.23 6.19868 312.968 6.44253L323.094 9.78572C323.833 10.0296 324.233 10.8254 323.989 11.5635L319.023 26.6062Z" fill="white"/>
<mask id="mask1_325_4064" style="mask-type:luminance" maskUnits="userSpaceOnUse" x="306" y="6" width="19" height="22">
<path d="M319.022 26.6062C318.778 27.3443 317.982 27.7449 317.244 27.501L307.118 24.1579C306.38 23.914 305.979 23.1182 306.223 22.3801L311.189 7.33739C311.433 6.59929 312.229 6.19868 312.967 6.44253L323.094 9.78572C323.832 10.0296 324.232 10.8254 323.988 11.5635L319.022 26.6062Z" fill="white"/>
</mask>
<g mask="url(#mask1_325_4064)">
<path d="M317.48 14.9536C317.48 14.9536 317.634 13.8606 316.548 13.559C315.461 13.2575 314.447 13.4611 313.992 13.2542C313.538 13.0474 313.434 12.8906 313.434 12.8906C313.434 12.8906 312.909 13.6919 313.062 14.259C313.115 14.4561 313.148 14.6248 313.168 14.7642C312.542 15.6579 312.473 17.5532 313.037 18.3251L312.95 18.373C313.922 19.5933 315.277 19.4148 316.189 18.6495C316.245 18.8248 316.317 18.9815 316.317 18.9815C316.317 18.9815 316.881 17.6665 317.368 17.1385C317.854 16.6105 318.215 15.4631 317.48 14.9536Z" fill="#010000"/>
<path d="M312.309 19.8809L311.104 23.5332L314.549 24.6707L315.755 21.0184L312.309 19.8809Z" fill="white"/>
<path d="M315.229 18.9453C315.229 18.9453 315.03 19.9752 314.968 20.5129C314.906 21.0496 314.905 21.3436 314.931 21.5232C314.988 21.9195 315.688 23.3009 315.688 23.3009C315.688 23.3009 311.872 23.9443 310.916 23.6286C309.96 23.3129 310.928 21.5069 310.928 21.5069C310.928 21.5069 312.242 21.0279 312.535 20.6621C312.828 20.2974 313.312 19.1217 313.312 19.1217L315.229 18.9464V18.9453Z" fill="#EEC2AC"/>
<path d="M316.582 27.2442C316.978 26.1828 318.735 22.9604 318.735 22.9604L315.709 21.7303L313.271 22.452L312.087 20.4195L308.579 19.6074C308.579 19.6074 308.073 23.2424 307.758 24.331C307.445 25.4196 304.064 33.8968 304.064 33.8968C304.064 33.8968 305.138 35.2892 308.59 36.4551C308.608 36.4616 308.625 36.4671 308.642 36.4725C308.66 36.478 308.677 36.4845 308.695 36.4899C312.162 37.608 313.855 37.129 313.855 37.129C313.855 37.129 316.186 28.3045 316.582 27.2442Z" fill="#EAF1F3"/>
<path d="M311.888 28.2052C313.03 24.7466 313.187 22.8066 313.187 22.8066C313.187 22.8066 312.964 23.106 311.934 24.445C310.904 25.784 308.827 32.3463 308.651 34.3908C308.651 34.3908 309.295 34.4583 310.295 34.8556C310.492 33.7681 311.103 30.5838 311.888 28.2052Z" fill="#302E93"/>
<path d="M312.47 23.4502L313.159 23.6777L313.913 22.7796L312.467 22.3027L312.47 23.4502Z" fill="#302E93"/>
<path d="M315.719 21.1328L313.208 22.5099L313.408 23.616L315.619 21.7468L315.719 21.1328Z" fill="white"/>
<path d="M312.331 19.8613L313.134 22.3325L312.423 23.1381L312.066 20.4198L312.331 19.8613Z" fill="white"/>
<path d="M316.893 17.3439C316.778 17.3058 316.647 17.3493 316.526 17.4495L316.689 15.8252L315.393 15.5019L314.158 14.9902C314.158 14.9902 313.739 15.6924 313.351 16.3467C313.308 16.2258 313.236 16.1377 313.137 16.1061C312.89 16.0244 312.572 16.3129 312.427 16.7506C312.283 17.1882 312.366 17.6095 312.614 17.6911C312.641 17.6998 312.668 17.7031 312.696 17.7042C312.771 18.1331 313.071 18.9213 313.159 19.1249C313.52 19.9577 314.348 20.1874 315.076 19.7258C315.479 19.471 315.849 19.1303 316.221 18.819C316.261 18.8723 316.311 18.9126 316.369 18.9322C316.617 19.0138 316.934 18.7253 317.079 18.2877C317.224 17.8501 317.14 17.4288 316.893 17.3471V17.3439Z" fill="#EEC2AC"/>
<path d="M305.158 22.2559C305.158 22.2559 301.276 26.0312 301.204 26.4308C301.133 26.8303 305.286 30.8114 306.062 31.5604C306.839 32.3094 307.571 32.9158 307.688 33.005C307.804 33.0943 308.786 33.1411 308.781 33.1324C308.775 33.1237 308.915 32.9713 308.915 32.9713L308.827 32.8689L309.206 32.845L309.388 32.6861L309.328 32.5881L309.69 32.4661L309.93 32.2397C309.93 32.2397 309.299 31.899 308.922 31.6867C308.545 31.4744 308.233 31.1914 308.233 31.1914C308.233 31.1914 308.732 31.1021 308.83 31.052C308.928 31.0019 309.283 31.0008 309.283 31.0008L308.904 30.61C308.904 30.61 307.546 30.5044 307.428 30.45C307.309 30.3956 306.484 30.3694 305.814 29.3777C304.617 27.601 304.084 26.5843 304.084 26.5843C304.114 26.6594 307.046 24.0216 307.046 24.0216L305.16 22.2569L305.158 22.2559Z" fill="#EEC2AC"/>
<path d="M307.434 20.003C306.264 20.5495 303.999 22.9771 303.999 22.9771L306.171 24.8006C306.171 24.8006 307.698 23.5323 308.492 22.8378C309.371 22.0692 310.472 21.2865 309.896 20.4243C309.34 19.5915 308.371 19.5664 307.435 20.003H307.434Z" fill="#EAF1F3"/>
<path d="M319.931 27.1339C319.931 27.1339 320.802 32.478 320.621 32.8416C320.44 33.2041 314.732 33.9302 313.663 34.0696C312.594 34.2089 311.644 34.2601 311.497 34.2623C311.35 34.2644 310.534 33.718 310.543 33.7136C310.553 33.7092 310.531 33.5046 310.531 33.5046L310.663 33.4752L310.371 33.2302L310.32 32.994L310.427 32.9516L310.209 32.638L310.15 32.3125C310.15 32.3125 310.86 32.4149 311.29 32.4682C311.72 32.5226 312.139 32.4813 312.139 32.4813C312.139 32.4813 311.792 32.1133 311.743 32.0142C311.694 31.9163 311.41 31.704 311.41 31.704L311.948 31.6158C311.948 31.6158 313.102 32.3397 313.229 32.3659C313.356 32.3931 314.036 32.8634 315.164 32.4649C317.183 31.7508 318.216 31.25 318.216 31.25C318.149 31.2925 317.363 27.4278 317.363 27.4278L319.928 27.1328L319.931 27.1339Z" fill="#EEC2AC"/>
<path d="M319.443 23.9677C320.058 25.1032 320.431 28.4017 320.431 28.4017L317.601 28.5737C317.601 28.5737 317.129 26.6458 316.905 25.6148C316.657 24.4739 316.238 23.1894 317.214 22.8399C318.157 22.5024 318.951 23.0576 319.443 23.9677Z" fill="#EAF1F3"/>
<path d="M302.903 20.8261L301.504 25.0645L321.249 31.5829L322.648 27.3445L302.903 20.8261Z" fill="#010000"/>
</g>
<path d="M314.543 9.65165L314.236 10.582L319.611 12.3567L319.918 11.4263L314.543 9.65165Z" fill="#C8C8C8"/>
<path d="M314.1 10.9887L314.062 11.1055L319.437 12.8801L319.476 12.7633L314.1 10.9887Z" fill="#C8C8C8"/>
<path d="M313.93 11.5043L313.892 11.6211L319.267 13.3958L319.306 13.2789L313.93 11.5043Z" fill="#C8C8C8"/>
<path d="M317.683 6.56028L316.796 9.24805L318.347 9.75997L319.234 7.07221L317.683 6.56028Z" fill="#818287"/>
</g>
<defs>
<linearGradient id="paint0_linear_325_4064" x1="316" y1="0" x2="316" y2="32" gradientUnits="userSpaceOnUse">
<stop stop-color="#6191FF"/>
<stop offset="1" stop-color="#2D6DFE"/>
</linearGradient>
<linearGradient id="paint1_linear_325_4064" x1="316" y1="0" x2="316" y2="32" gradientUnits="userSpaceOnUse">
<stop stop-color="#FFD74B"/>
<stop offset="1" stop-color="#EEDB9B"/>
</linearGradient>
</defs>
</svg>
