<svg width="170" height="40" viewBox="0 0 170 40" fill="none" xmlns="http://www.w3.org/2000/svg">
<rect x="20" width="150" height="40" rx="6" fill="#553BF3"/>
<path d="M49.0723 17.3711C49.0723 19.3945 50.2617 21.5273 52.2578 22.3613L51.4238 23.5645C49.9609 22.9355 48.8945 21.6367 48.334 20.0645C47.7598 21.7598 46.6797 23.1816 45.2305 23.8652L44.3555 22.6758C46.3105 21.7734 47.5273 19.4766 47.5273 17.3711V16.332H44.8066V15.0742H51.7793V16.332H49.0723V17.3711ZM54.6914 13.8574V26.2168H53.1602V13.8574H54.6914ZM66.4219 14.459V15.416C66.4219 16.373 66.4219 17.4668 66.1211 18.9297H67.8027V20.1602H56.5098V18.9297H64.5898C64.877 17.5967 64.9043 16.5781 64.9043 15.6758H57.9043V14.459H66.4219ZM66.4082 21.5957V26.0664H57.8633V21.5957H66.4082ZM59.3535 22.7852V24.8359H64.9043V22.7852H59.3535ZM76.5938 17.3711C76.5938 19.3945 77.7832 21.5273 79.7793 22.3613L78.9453 23.5645C77.4824 22.9355 76.416 21.6367 75.8555 20.0645C75.2812 21.7598 74.2012 23.1816 72.752 23.8652L71.877 22.6758C73.832 21.7734 75.0488 19.4766 75.0488 17.3711V16.332H72.3281V15.0742H79.3008V16.332H76.5938V17.3711ZM82.2129 13.8574V26.2168H80.6816V13.8574H82.2129ZM94.3945 13.8711V23.2227H92.8633V22.1426H90.4434V21.0762H92.8633V13.8711H94.3945ZM94.6816 24.7402V25.9707H85.6172V22.3203H87.1348V24.7402H94.6816ZM83.9766 19.4219C86.2598 19.4082 89.3223 19.3809 91.9473 19.0527L92.0293 20.1465C91.0107 20.3174 89.958 20.4336 88.9121 20.502V22.8809H87.3945V20.584C86.2393 20.6318 85.1387 20.6387 84.168 20.6387L83.9766 19.4219ZM88.0098 14.3223C89.8145 14.3223 91.0723 15.2109 91.0859 16.5098C91.0723 17.8359 89.8145 18.6836 88.0098 18.6836C86.1777 18.6836 84.9199 17.8359 84.9199 16.5098C84.9199 15.2109 86.1777 14.3223 88.0098 14.3223ZM88.0098 15.4434C87.0254 15.4434 86.3555 15.8398 86.3555 16.5098C86.3555 17.1797 87.0254 17.5762 88.0098 17.5762C88.9531 17.5762 89.623 17.1797 89.6367 16.5098C89.623 15.8398 88.9531 15.4434 88.0098 15.4434ZM105.811 13.8574V18.7793H107.711V20.0371H105.811V26.2168H104.307V13.8574H105.811ZM103.35 15.7578V16.9746H96.0625V15.7578H98.9883V14.0352H100.506V15.7578H103.35ZM99.7539 17.7812C101.531 17.7812 102.857 18.9844 102.857 20.6934C102.857 22.4023 101.531 23.5918 99.7539 23.5918C97.9492 23.5918 96.623 22.4023 96.6367 20.6934C96.623 18.9844 97.9492 17.7812 99.7539 17.7812ZM99.7539 19.0254C98.7832 19.0254 98.0859 19.6816 98.0859 20.6934C98.0859 21.7051 98.7832 22.3477 99.7539 22.334C100.697 22.3477 101.395 21.7051 101.408 20.6934C101.395 19.6816 100.697 19.0254 99.7539 19.0254ZM118.553 13.8574V26.2168H117.021V13.8574H118.553ZM114.861 15.1699C114.861 18.8477 113.439 21.9785 109.105 24.0293L108.312 22.8125C111.546 21.2744 113.05 19.1826 113.316 16.373H108.941V15.1699H114.861Z" fill="white"/>
<path d="M136.667 23.3327L140 19.9993L136.667 16.666" stroke="white" stroke-width="2" stroke-linecap="round" stroke-linejoin="round"/>
</svg>
