<svg width="358" height="108" viewBox="0 0 358 108" fill="none" xmlns="http://www.w3.org/2000/svg">
<path d="M6.01865 53.8481C8.57597 53.8577 10.3888 55.0808 10.3936 56.9565C10.3888 58.7403 8.77417 59.9151 6.44406 60.0456V62.7286H11.578V63.4682H0.531768V62.7286H5.59323V60.0456C3.27279 59.9151 1.65332 58.7403 1.65332 56.9565C1.65332 55.0808 3.47583 53.8577 6.01865 53.8481ZM2.47514 56.9565C2.4703 58.3826 3.98343 59.3494 6.01865 59.3543C8.0587 59.3494 9.57182 58.3826 9.57182 56.9565C9.57182 55.5401 8.0587 54.5684 6.01865 54.5732C3.98343 54.5684 2.4703 55.5401 2.47514 56.9565ZM16.7888 56.4102C16.7792 58.605 18.4373 60.8191 20.1245 61.607L19.583 62.2887C18.2343 61.6119 16.9435 60.1133 16.3683 58.3343C15.8123 60.2003 14.5264 61.7907 13.1486 62.5062L12.5975 61.7907C14.2847 60.9786 15.9283 58.6775 15.9332 56.4102V54.0849H16.7888V56.4102ZM21.6666 65.0829V53.0021H22.5271V65.0829H21.6666ZM34.4672 56.7728V57.4883H26.2683V53.4468H27.1191V56.7728H34.4672ZM24.7116 59.9586V59.2431H35.7579V59.9586H24.7116ZM26.2006 64.759V61.2638H27.0514V64.029H34.5397V64.759H26.2006ZM50.1411 53.0021V59.2044H49.2758V53.0021H50.1411ZM40.4339 58.7307C43.4602 58.0152 45.4035 56.4827 45.5921 54.375H41.0382V53.6402H46.5444C46.5348 56.6519 44.2482 58.6098 40.7578 59.451L40.4339 58.7307ZM42.3676 60.5193V59.799H50.1411V62.6077H43.2571V64.2465H50.6004V64.9475H42.4063V61.9358H49.2806V60.5193H42.3676Z" fill="white"/>
<path d="M16.5645 3.27344V5.25C16.5645 7.65625 16.5645 10.2773 15.8555 14.0801L13.5137 13.8438C14.1797 10.2559 14.1797 7.5918 14.1797 5.25V5.18555H2.42773V3.27344H16.5645ZM18.3477 16.4434V18.3984H0.644531V16.4434H4.61914V10.2559H7.00391V16.4434H9.47461V10.2559H11.8164V16.4434H18.3477ZM37.3613 10.6641V12.5762H32.9355V14.5957H35.1914V20.9121H32.8066V16.4648H21.6133V14.5957H24.0195V12.5762H19.6582V10.6641H37.3613ZM28.4883 1.89844C32.7422 1.89844 35.4707 3.33789 35.4922 5.67969C35.4707 8.04297 32.7422 9.48242 28.4883 9.48242C24.2344 9.48242 21.4844 8.04297 21.4844 5.67969C21.4844 3.33789 24.2344 1.89844 28.4883 1.89844ZM28.4883 3.76758C25.6523 3.76758 23.9551 4.45508 23.9766 5.67969C23.9551 6.94727 25.6523 7.63477 28.4883 7.63477C31.3242 7.63477 33.0215 6.94727 33.0215 5.67969C33.0215 4.45508 31.3242 3.76758 28.4883 3.76758ZM26.4043 14.5957H30.5723V12.5762H26.4043V14.5957ZM45.6328 4.99219C45.6328 7.37695 47.1797 9.61133 50.209 10.5352L49.0703 12.4043C46.8896 11.7275 45.3428 10.3418 44.4941 8.58008C43.6348 10.6211 41.9912 12.2432 39.6602 13.0273L38.457 11.1367C41.5938 10.1055 43.2266 7.5918 43.2266 5.01367V4.77734H39.123V2.84375H49.6719V4.77734H45.6328V4.99219ZM53.9902 1.49023V6.15234H56.6973V8.10742H53.9902V13.0703H51.6055V1.49023H53.9902ZM47.6738 13.5C51.6914 13.5 54.1621 14.8535 54.1836 17.1738C54.1621 19.5156 51.6914 20.8906 47.6738 20.8906C43.6133 20.8906 41.0996 19.5156 41.0996 17.1738C41.0996 14.8535 43.6133 13.5 47.6738 13.5ZM47.6738 15.3691C45.0098 15.3691 43.4844 15.9922 43.4844 17.1738C43.4844 18.377 45.0098 19.0215 47.6738 19.0215C50.3379 19.0215 51.8203 18.377 51.8203 17.1738C51.8203 15.9922 50.3379 15.3691 47.6738 15.3691ZM75.4316 16.5723V18.5059H57.6855V16.5723H65.291V12.082H67.6543V16.5723H75.4316ZM67.7188 4.08984C67.7188 7.0332 70.6621 9.93359 74.7441 10.5781L73.7129 12.5547C70.4258 11.9316 67.7402 10.0518 66.4512 7.50586C65.1621 10.041 62.498 11.9531 59.2324 12.5547L58.2012 10.5781C62.2617 9.93359 65.1621 7.01172 65.1836 4.08984V2.67188H67.7188V4.08984Z" fill="white"/>
</svg>
