<svg width="324" height="194" viewBox="0 0 324 194" fill="none" xmlns="http://www.w3.org/2000/svg">
<path d="M5.33702 51.326C5.33149 53.7845 7.12155 56.2928 9.03867 57.1934L8.43646 58C6.87845 57.1878 5.46409 55.4475 4.85083 53.4309C4.25414 55.5525 2.8453 57.4033 1.29282 58.2541L0.657459 57.4641C2.56906 56.4917 4.33702 53.8453 4.34254 51.326V48.6685H5.33702V51.326ZM7.53591 53.0718V52.2541H10.9945V47.4309H11.9669V61.2376H10.9945V53.0718H7.53591ZM20.7066 47.6077C23.7397 47.6133 25.5353 48.4751 25.5353 50.011C25.5353 51.5635 23.7397 52.4199 20.7066 52.4254C17.6734 52.4199 15.8723 51.5635 15.8723 50.011C15.8723 48.4751 17.6734 47.6133 20.7066 47.6077ZM14.4359 54.2376V53.4254H26.9994V54.2376H21.1928V55.663H25.353V58.6022H16.9883V60.2376H25.7839V61.0442H16.027V57.8508H24.3861V56.4365H15.9883V55.663H20.2149V54.2376H14.4359ZM16.8944 50.011C16.8889 51.0442 18.3419 51.6409 20.7066 51.6464C23.0767 51.6409 24.5353 51.0442 24.5353 50.011C24.5353 49.0055 23.0767 48.3923 20.7066 48.3867C18.3419 48.3923 16.8889 49.0055 16.8944 50.011ZM43.0561 48.1989V49.1989C43.0561 50.2707 43.0561 51.558 42.6694 53.3204H44.7633V54.1492H32.139V53.3204H41.6804C42.0837 51.5414 42.0837 50.2707 42.0837 49.1989V49.0331H33.7633V48.1989H43.0561ZM33.7191 61.0221V56.1878H43.1445V61.0221H33.7191ZM34.6859 60.1934H42.1721V56.9834H34.6859V60.1934ZM50.5527 50.7403C50.5527 52.6685 52.1384 54.2818 54.1329 54.9171L53.6356 55.7182C52.0279 55.1768 50.6909 54.0387 50.0887 52.5359C49.5085 54.1436 48.1771 55.3646 46.5472 55.9558L46.0555 55.1823C48.0334 54.5028 49.5748 52.779 49.5804 50.7403V50.1878H46.3539V49.3591H49.5804V47.5138H50.5748V49.3591H53.7627V50.1878H50.5527V50.7403ZM48.5748 60.8895V56.8122H49.5583V60.0552H57.7406V60.8895H48.5748ZM53.2765 52.5967V51.7569H56.3428V47.4475H57.3318V57.768H56.3428V52.5967H53.2765ZM70.635 48.3646V49.558C70.6295 50.8619 70.6295 52.2983 70.2317 54.2983H72.3588V55.1326H66.5521V61.2376H65.5742V55.1326H59.7952V54.2983H69.2151C69.6571 52.3039 69.6571 50.8453 69.6571 49.558V49.1934H61.4195V48.3646H70.635ZM88.8078 47.4309V61.2376H87.8243V47.4309H88.8078ZM78.421 57.768V48.779H84.9293V49.6188H79.41V56.9006H79.5149C82.2 56.9061 84.0177 56.8177 86.1779 56.4199L86.2939 57.2707C84.0729 57.663 82.2387 57.7569 79.5149 57.768H78.421ZM96.1276 51.8287C96.1276 54.1934 98.0116 56.5691 99.9508 57.4199L99.3873 58.2044C97.7961 57.4586 96.2878 55.8122 95.6469 53.8453C95.006 55.9116 93.4978 57.7403 91.9563 58.5414L91.3652 57.7569C93.2326 56.8398 95.1331 54.221 95.1442 51.8287V49.7127H91.7795V48.8729H99.5309V49.7127H96.1276V51.8287ZM101.652 61.221V47.4309H102.636V61.221H101.652ZM106.878 53.4696C109.591 53.4751 111.077 53.4254 112.906 53.105L113.005 53.9171C111.127 54.2486 109.619 54.2873 106.878 54.2873H105.889V48.3094H112.094V49.1436H106.862V50.8232H111.735V51.6188H106.862V53.4696H106.878ZM107.646 56.4033V55.5912H116.503V58.6409H108.652V60.232H117.072V61.0442H107.685V57.8729H115.53V56.4033H107.646ZM112.751 51.5083V50.6851H115.53V47.4309H116.503V54.9227H115.53V51.5083H112.751ZM131.607 58.6022V59.4475H118.983V58.6022H124.767V55.8343H120.607V51.7072H128.999V49.3315H120.563V48.4972H129.972V52.5249H121.579V55.0055H130.292V55.8343H125.74V58.6022H131.607ZM136.916 48.5304C138.877 48.547 140.855 49.8674 140.861 53.8619C140.855 57.6077 139.457 60.1547 136.75 60.1547C134.822 60.1547 133.496 58.9337 133.253 57.1436H134.352C134.573 58.3039 135.402 59.1602 136.75 59.1602C138.684 59.1602 139.805 57.3978 139.816 54.3039H139.684C139.109 55.2983 137.999 55.9282 136.75 55.9282C134.772 55.9282 133.137 54.3812 133.137 52.2431C133.137 50.2044 134.623 48.5138 136.916 48.5304ZM134.22 52.232C134.22 53.7459 135.363 54.9392 136.91 54.9392C138.479 54.9392 139.7 53.6243 139.601 52.1768C139.49 50.6796 138.396 49.5193 136.916 49.5193C135.363 49.5193 134.209 50.7459 134.22 52.232ZM153.726 47.4309V54.5193H152.737V47.4309H153.726ZM142.632 53.9779C146.091 53.1602 148.312 51.4088 148.527 49H143.323V48.1602H149.616C149.604 51.6022 146.991 53.8398 143.002 54.8011L142.632 53.9779ZM144.842 56.0221V55.1989H153.726V58.4088H145.859V60.2818H154.251V61.0829H144.886V57.6409H152.743V56.0221H144.842ZM160.6 60L160.595 59.1823L164.418 55.0497C165.871 53.4641 166.473 52.6796 166.479 51.6133C166.473 50.3536 165.451 49.5083 164.103 49.5083C162.678 49.5083 161.75 50.4586 161.75 51.7735H160.694C160.683 49.8785 162.153 48.5304 164.136 48.5304C166.103 48.5304 167.518 49.8729 167.523 51.6133C167.518 52.8729 166.937 53.8287 164.993 55.895L162.164 58.9282V59.0055H167.86V60H160.6ZM173.818 60.1547C171.641 60.1547 170.066 58.9337 170.006 57.1657H171.127C171.182 58.3646 172.337 59.1602 173.801 59.1602C175.392 59.1602 176.525 58.232 176.525 56.9558C176.525 55.6188 175.409 54.6851 173.575 54.6851H172.868V53.6961H173.575C175.061 53.6961 176.133 52.8619 176.133 51.5746C176.133 50.3591 175.221 49.5083 173.823 49.5083C172.503 49.5083 171.376 50.2928 171.337 51.5193H170.26C170.31 49.7459 171.879 48.5304 173.84 48.5304C175.901 48.5304 177.216 49.895 177.21 51.5304C177.216 52.8232 176.437 53.779 175.221 54.1215V54.1989C176.702 54.4641 177.619 55.5193 177.619 56.9669C177.619 58.7901 176.006 60.1547 173.818 60.1547ZM190.007 48.8508V57.6575H183.737V48.8508H190.007ZM184.687 56.8398H189.024V49.6519H184.687V56.8398ZM192.742 61.221V47.4309H193.731V53.0387H196.118V53.895H193.731V61.221H192.742ZM208.283 47.4309V61.2376H207.305V47.4309H208.283ZM197.747 49.5856V48.7569H204.117V53.5249H198.78V57.011H198.902C201.178 57.011 203.277 56.9171 205.858 56.5028L205.963 57.337C203.338 57.7514 201.228 57.8564 198.902 57.8564H197.775V52.6961H203.128V49.5856H197.747ZM217.05 48.3978C219.973 48.4088 222.045 49.8066 222.05 51.9503C222.045 53.989 220.2 55.3315 217.537 55.4807V58.547H223.404V59.3923H210.78V58.547H216.564V55.4807C213.912 55.3315 212.061 53.989 212.061 51.9503C212.061 49.8066 214.144 48.4088 217.05 48.3978ZM213.001 51.9503C212.995 53.5801 214.724 54.6851 217.05 54.6906C219.382 54.6851 221.111 53.5801 221.111 51.9503C221.111 50.3315 219.382 49.221 217.05 49.2265C214.724 49.221 212.995 50.3315 213.001 51.9503ZM228.287 48.5304C230.304 48.5414 231.713 50.3978 231.724 53.2983C231.713 56.2044 230.304 58.0608 228.287 58.0608C226.271 58.0608 224.862 56.2044 224.873 53.2983C224.862 50.3978 226.271 48.5414 228.287 48.5304ZM225.796 53.2983C225.796 55.6022 226.823 57.1934 228.287 57.1934C229.762 57.1934 230.773 55.6022 230.773 53.2983C230.773 50.9945 229.762 49.4144 228.287 49.4033C226.823 49.4144 225.796 50.9945 225.796 53.2983ZM234.227 61.221V47.4309H235.215V53.0387H237.602V53.895H235.215V61.221H234.227ZM244.707 47.6077C247.74 47.6133 249.535 48.4751 249.535 50.011C249.535 51.5635 247.74 52.4199 244.707 52.4254C241.673 52.4199 239.872 51.5635 239.872 50.011C239.872 48.4751 241.673 47.6133 244.707 47.6077ZM238.436 54.2376V53.4254H250.999V54.2376H245.193V55.663H249.353V58.6022H240.988V60.2376H249.784V61.0442H240.027V57.8508H248.386V56.4365H239.988V55.663H244.215V54.2376H238.436ZM240.894 50.011C240.889 51.0442 242.342 51.6409 244.707 51.6464C247.077 51.6409 248.535 51.0442 248.535 50.011C248.535 49.0055 247.077 48.3923 244.707 48.3867C242.342 48.3923 240.889 49.0055 240.894 50.011ZM257.822 48.5359V52.2818H253.883V54.5801C255.767 54.5856 257.225 54.4972 258.966 54.1326L259.087 54.9448C257.264 55.3149 255.772 55.3923 253.794 55.3867H252.927V51.5028H256.872V49.3646H252.888V48.5359H257.822ZM254.054 60.3923C256.275 60.0166 258.877 58.5635 258.888 56.6354V56.2376H259.872V56.6354C259.872 58.5635 262.468 60.0166 264.706 60.3923L264.303 61.1547C262.325 60.7956 260.192 59.7072 259.374 58.0829C258.557 59.7072 256.43 60.7956 254.457 61.1547L254.054 60.3923ZM258.38 51.9945V51.1823H260.27V47.7459H261.231V55.7901H260.27V51.9945H258.38ZM262.988 56.9171V47.4475H263.921V56.9171H262.988ZM270.475 60L270.47 59.1823L274.293 55.0497C275.746 53.4641 276.348 52.6796 276.354 51.6133C276.348 50.3536 275.326 49.5083 273.978 49.5083C272.553 49.5083 271.625 50.4586 271.625 51.7735H270.569C270.558 49.8785 272.028 48.5304 274.011 48.5304C275.978 48.5304 277.393 49.8729 277.398 51.6133C277.393 52.8729 276.812 53.8287 274.868 55.895L272.039 58.9282V59.0055H277.735V60H270.475ZM287.002 48.5193V49.2099C286.991 50.0884 286.991 51.4641 286.627 53.3039L285.638 53.221C286.002 51.453 286.024 50.232 286.035 49.3646H280.201V48.5193H287.002ZM279.345 54.6685C280.273 54.6685 281.328 54.6575 282.439 54.6298V51.5359H283.411V54.5967C284.991 54.5359 286.627 54.4254 288.102 54.221L288.174 54.9669C285.278 55.4475 281.925 55.5028 279.455 55.5083L279.345 54.6685ZM281.505 60.8895V56.8729H282.488V60.0552H290.549V60.8895H281.505ZM289.107 57.8287V47.4309H290.096V52.011H292.223V52.8674H290.096V57.8287H289.107ZM301.203 48.6851V60H300.087V49.8453H300.02L297.341 51.6133V50.4751L300.048 48.6851H301.203ZM307.953 48.6851V60H306.837V49.8453H306.77L304.091 51.6133V50.4751L306.798 48.6851H307.953ZM323.156 54.4917V55.326H310.592V54.4917H323.156ZM311.399 52.7072C313.802 52.4586 316.294 51.3757 316.343 49.6298H311.918V48.8177H316.388V47.3702H317.36V48.8177H321.852V49.6298H317.404C317.443 51.3757 319.935 52.4586 322.355 52.7072L322.045 53.4972C319.863 53.232 317.686 52.3867 316.874 50.8895C316.062 52.3867 313.874 53.232 311.714 53.4972L311.399 52.7072ZM312.128 58.9116C312.128 57.442 313.885 56.6464 316.868 56.6464C319.852 56.6464 321.592 57.442 321.598 58.9116C321.592 60.3812 319.852 61.1768 316.868 61.1768C313.885 61.1768 312.128 60.3812 312.128 58.9116ZM313.134 58.9116C313.122 59.8564 314.542 60.4033 316.868 60.3978C319.183 60.4033 320.603 59.8564 320.614 58.9116C320.603 57.9724 319.183 57.4144 316.868 57.4088C314.542 57.4144 313.122 57.9724 313.134 58.9116ZM5.19337 71.7403C5.19337 73.6685 6.77901 75.2818 8.77348 75.9171L8.27624 76.7182C6.66851 76.1768 5.33149 75.0387 4.72928 73.5359C4.14917 75.1436 2.81768 76.3646 1.18785 76.9558L0.696133 76.1823C2.67403 75.5028 4.21547 73.779 4.22099 71.7403V71.1878H0.994475V70.3591H4.22099V68.5138H5.21547V70.3591H8.40332V71.1878H5.19337V71.7403ZM3.21547 81.8895V77.8122H4.19889V81.0552H12.3812V81.8895H3.21547ZM7.91713 73.5967V72.7569H10.9834V68.4475H11.9724V78.768H10.9834V73.5967H7.91713ZM26.2149 68.4309V82.221H25.2591V74.9558H23.1541V81.4972H22.2149V68.7569H23.1541V74.0884H25.2591V68.4309H26.2149ZM14.3364 78.5414C16.2922 77.4751 17.469 75.1547 17.469 72.3094V70.9779H14.6237V70.1436H21.1154V70.9779H18.4193V72.3094C18.4138 74.8674 19.5629 77.0773 21.4911 78.0552L20.8889 78.8287C19.4635 78.0497 18.4524 76.6354 17.9662 74.8619C17.4966 76.8729 16.4469 78.4254 14.9662 79.2983L14.3364 78.5414ZM30.1093 69.6851V81H28.9988V69.6851H30.1093ZM32.1216 70.6796V69.6851H40.3979V70.6796H36.8233V81H35.7073V70.6796H32.1216ZM52.6316 69.895V71.4862C52.6205 73.2818 52.6205 75.0221 52.1454 77.5138L51.173 77.3867C51.6592 75.011 51.6592 73.232 51.6647 71.4862V70.7238H43.0128V69.895H52.6316ZM41.6702 80.1768V79.337H44.9244V74.7238H45.9133V79.337H48.3664V74.7238H49.3387V79.337H54.2338V80.1768H41.6702ZM68.0619 75.1436V75.9724H64.6089V77.8674H66.4928V82.221H65.4984V78.6796H56.8961V77.8674H58.9514V75.9724H55.4984V75.1436H68.0619ZM56.9348 71.3867C56.9348 69.7403 58.7912 68.768 61.7691 68.7735C64.747 68.768 66.5978 69.7403 66.5978 71.3867C66.5978 73.0331 64.747 74 61.7691 73.9889C58.7912 74 56.9348 73.0331 56.9348 71.3867ZM57.9514 71.3867C57.9403 72.4972 59.4431 73.2044 61.7691 73.2044C64.084 73.2044 65.5978 72.4972 65.5978 71.3867C65.5978 70.2762 64.084 69.5746 61.7691 69.5801C59.4431 69.5746 57.9403 70.2762 57.9514 71.3867ZM59.9348 77.8674H63.642V75.9724H59.9348V77.8674ZM80.9839 68.4309V78.7845H80.0502V68.4309H80.9839ZM69.437 75.9669C71.1828 75.1326 72.3762 73.1934 72.3762 71.5635V69.4254H73.321V71.5635C73.321 73.1934 74.437 74.8674 76.1884 75.5967L75.6193 76.3702C74.2989 75.779 73.3265 74.663 72.8569 73.3646C72.3707 74.779 71.3486 76.0718 70.006 76.7348L69.437 75.9669ZM72.0447 81.8895V77.4862H73.0281V81.0552H81.437V81.8895H72.0447ZM74.995 72.8674V72.0387H77.3431V68.7238H78.2989V78.3923H77.3431V72.8674H74.995ZM94.5137 68.4309V82.2376H93.5414V74.5856H90.4585V73.7569H93.5414V68.4309H94.5137ZM83.7955 78.8508V69.7293H90.2264V70.558H84.79V73.6188H89.5745V74.4365H84.79V78.0055H84.8286C87.5634 78.011 89.1988 77.9392 91.127 77.5691L91.2541 78.3978C89.2485 78.7459 87.5911 78.8398 84.8286 78.8508H83.7955Z" fill="white"/>
<rect width="108" height="32" rx="16" fill="#553BF3"/>
<path d="M36.0469 10.5625V12C36.0469 13.75 36.0469 15.6562 35.5312 18.4219L33.8281 18.25C34.3125 15.6406 34.3125 13.7031 34.3125 12V11.9531H25.7656V10.5625H36.0469ZM37.3438 20.1406V21.5625H24.4688V20.1406H27.3594V15.6406H29.0938V20.1406H30.8906V15.6406H32.5938V20.1406H37.3438ZM51.1719 15.9375V17.3281H47.9531V18.7969H49.5938V23.3906H47.8594V20.1562H39.7188V18.7969H41.4688V17.3281H38.2969V15.9375H51.1719ZM44.7188 9.5625C47.8125 9.5625 49.7969 10.6094 49.8125 12.3125C49.7969 14.0312 47.8125 15.0781 44.7188 15.0781C41.625 15.0781 39.625 14.0312 39.625 12.3125C39.625 10.6094 41.625 9.5625 44.7188 9.5625ZM44.7188 10.9219C42.6562 10.9219 41.4219 11.4219 41.4375 12.3125C41.4219 13.2344 42.6562 13.7344 44.7188 13.7344C46.7812 13.7344 48.0156 13.2344 48.0156 12.3125C48.0156 11.4219 46.7812 10.9219 44.7188 10.9219ZM43.2031 18.7969H46.2344V17.3281H43.2031V18.7969ZM60.9844 11.8125C60.9844 13.5469 62.1094 15.1719 64.3125 15.8438L63.4844 17.2031C61.8984 16.7109 60.7734 15.7031 60.1562 14.4219C59.5312 15.9062 58.3359 17.0859 56.6406 17.6562L55.7656 16.2812C58.0469 15.5312 59.2344 13.7031 59.2344 11.8281V11.6562H56.25V10.25H63.9219V11.6562H60.9844V11.8125ZM67.0625 9.26562V12.6562H69.0312V14.0781H67.0625V17.6875H65.3281V9.26562H67.0625ZM62.4688 18C65.3906 18 67.1875 18.9844 67.2031 20.6719C67.1875 22.375 65.3906 23.375 62.4688 23.375C59.5156 23.375 57.6875 22.375 57.6875 20.6719C57.6875 18.9844 59.5156 18 62.4688 18ZM62.4688 19.3594C60.5312 19.3594 59.4219 19.8125 59.4219 20.6719C59.4219 21.5469 60.5312 22.0156 62.4688 22.0156C64.4062 22.0156 65.4844 21.5469 65.4844 20.6719C65.4844 19.8125 64.4062 19.3594 62.4688 19.3594ZM82.6562 20.2344V21.6406H69.75V20.2344H75.2812V16.9688H77V20.2344H82.6562ZM77.0469 11.1562C77.0469 13.2969 79.1875 15.4062 82.1562 15.875L81.4062 17.3125C79.0156 16.8594 77.0625 15.4922 76.125 13.6406C75.1875 15.4844 73.25 16.875 70.875 17.3125L70.125 15.875C73.0781 15.4062 75.1875 13.2812 75.2031 11.1562V10.125H77.0469V11.1562Z" fill="white"/>
<path d="M11.9724 155.448V165.569H10.9834V160.155H7.95028V159.331H10.9834V155.448H11.9724ZM0.701657 162.912C2.66851 162.21 4.28177 160.381 4.28177 158.331V157.459H1.04972V156.63H8.45856V157.459H5.26519V158.331C5.26519 160.16 6.77901 161.901 8.74033 162.586L8.21547 163.381C6.65746 162.807 5.38122 161.602 4.79558 160.116C4.20994 161.779 2.85635 163.094 1.22652 163.724L0.701657 162.912ZM3.21547 168.89V164.646H4.19889V168.055H12.3812V168.89H3.21547ZM25.0215 155.431V161.381H27.353V162.227H25.0215V169.221H24.0436V155.431H25.0215ZM14.2591 165.608C15.4248 165.608 16.7839 165.602 18.1928 165.552V163.923C16.5353 163.768 15.458 162.823 15.469 161.425C15.458 159.867 16.7563 158.867 18.69 158.867C20.6016 158.867 21.9165 159.867 21.9276 161.425C21.9165 162.823 20.8226 163.768 19.1817 163.923V165.514C20.5243 165.453 21.8834 165.343 23.143 165.16L23.2204 165.923C20.1817 166.431 16.8889 166.47 14.4469 166.47L14.2591 165.608ZM14.5022 157.983V157.166H18.1928V155.436H19.1817V157.166H22.8613V157.983H14.5022ZM16.3917 161.425C16.3917 162.453 17.3088 163.155 18.69 163.144C20.0546 163.155 20.9773 162.453 20.9773 161.425C20.9773 160.381 20.0546 159.657 18.69 159.657C17.3088 159.657 16.3917 160.381 16.3917 161.425ZM33.4981 167.834C33.0395 167.834 32.6528 167.459 32.6638 167C32.6528 166.541 33.0395 166.166 33.4981 166.166C33.9567 166.166 34.3324 166.541 34.3324 167C34.3324 167.459 33.9567 167.834 33.4981 167.834ZM32.6694 160.856C32.6583 160.398 33.0451 160.022 33.5036 160.022C33.9622 160.022 34.3379 160.398 34.3379 160.856C34.3379 161.315 33.9622 161.691 33.5036 161.691C33.0451 161.691 32.6583 161.315 32.6694 160.856ZM43.9966 168.155C41.5878 168.155 40.1734 166.017 40.1734 162.343C40.1734 158.691 41.5988 156.53 43.9966 156.53C46.3889 156.53 47.8143 158.691 47.8143 162.343C47.8143 166.017 46.4055 168.155 43.9966 168.155ZM41.2563 162.343C41.2563 165.403 42.2784 167.16 43.9966 167.16C45.7093 167.16 46.7314 165.403 46.7314 162.343C46.7314 159.282 45.7038 157.508 43.9966 157.508C42.2839 157.508 41.2563 159.282 41.2563 162.343ZM49.7723 168L49.7667 167.182L53.59 163.05C55.043 161.464 55.6452 160.68 55.6507 159.613C55.6452 158.354 54.6231 157.508 53.275 157.508C51.8496 157.508 50.9214 158.459 50.9214 159.773H49.8662C49.8551 157.878 51.3248 156.53 53.3082 156.53C55.275 156.53 56.6894 157.873 56.6949 159.613C56.6894 160.873 56.1093 161.829 54.1645 163.895L51.3358 166.928V167.006H57.0319V168H49.7723ZM63.8571 162.663V163.652H59.1002V162.663H63.8571ZM69.6147 168.155C67.4379 168.155 65.8633 166.934 65.8026 165.166H66.9241C66.9794 166.365 68.1341 167.16 69.5982 167.16C71.1893 167.16 72.3219 166.232 72.3219 164.956C72.3219 163.619 71.2059 162.685 69.3716 162.685H68.6645V161.696H69.3716C70.8578 161.696 71.9296 160.862 71.9296 159.575C71.9296 158.359 71.018 157.508 69.6203 157.508C68.2998 157.508 67.1727 158.293 67.1341 159.519H66.0567C66.1064 157.746 67.6755 156.53 69.6368 156.53C71.6976 156.53 73.0125 157.895 73.007 159.53C73.0125 160.823 72.2335 161.779 71.018 162.122V162.199C72.4987 162.464 73.4158 163.519 73.4158 164.967C73.4158 166.79 71.8026 168.155 69.6147 168.155ZM75.5535 168L75.548 167.182L79.3712 163.05C80.8242 161.464 81.4265 160.68 81.432 159.613C81.4265 158.354 80.4044 157.508 79.0563 157.508C77.6309 157.508 76.7027 158.459 76.7027 159.773H75.6474C75.6364 157.878 77.106 156.53 79.0894 156.53C81.0563 156.53 82.4706 157.873 82.4762 159.613C82.4706 160.873 81.8905 161.829 79.9458 163.895L77.1171 166.928V167.006H82.8132V168H75.5535ZM88.6605 168.155C86.3732 168.155 84.7268 166.823 84.7323 165.022C84.7268 163.591 85.7489 162.376 87.0914 162.133V162.083C85.9367 161.779 85.1522 160.729 85.1577 159.497C85.1522 157.801 86.6605 156.53 88.6605 156.53C90.6439 156.53 92.1467 157.796 92.1577 159.497C92.1467 160.729 91.3732 161.779 90.2295 162.083V162.133C91.5555 162.37 92.5831 163.591 92.5887 165.022C92.5831 166.823 90.9257 168.155 88.6605 168.155ZM85.8428 164.956C85.8262 166.238 86.9643 167.166 88.6605 167.166C90.3456 167.166 91.4782 166.238 91.4782 164.956C91.4782 163.635 90.2737 162.63 88.6605 162.63C87.0417 162.63 85.8262 163.635 85.8428 164.956ZM86.2406 159.569C86.2406 160.79 87.2682 161.685 88.6605 161.685C90.0362 161.685 91.0748 160.79 91.0748 159.569C91.0748 158.365 90.0583 157.503 88.6605 157.503C87.2406 157.503 86.2406 158.365 86.2406 159.569ZM94.5848 168L94.5792 167.182L98.4025 163.05C99.8555 161.464 100.458 160.68 100.463 159.613C100.458 158.354 99.4356 157.508 98.0875 157.508C96.6621 157.508 95.7339 158.459 95.7339 159.773H94.6787C94.6676 157.878 96.1373 156.53 98.1207 156.53C100.088 156.53 101.502 157.873 101.507 159.613C101.502 160.873 100.922 161.829 98.977 163.895L96.1483 166.928V167.006H101.844V168H94.5848ZM108.67 162.663V163.652H103.913V162.663H108.67ZM114.489 168.155C112.201 168.155 110.555 166.823 110.56 165.022C110.555 163.591 111.577 162.376 112.92 162.133V162.083C111.765 161.779 110.98 160.729 110.986 159.497C110.98 157.801 112.489 156.53 114.489 156.53C116.472 156.53 117.975 157.796 117.986 159.497C117.975 160.729 117.201 161.779 116.058 162.083V162.133C117.384 162.37 118.411 163.591 118.417 165.022C118.411 166.823 116.754 168.155 114.489 168.155ZM111.671 164.956C111.654 166.238 112.792 167.166 114.489 167.166C116.174 167.166 117.306 166.238 117.306 164.956C117.306 163.635 116.102 162.63 114.489 162.63C112.87 162.63 111.654 163.635 111.671 164.956ZM112.069 159.569C112.069 160.79 113.096 161.685 114.489 161.685C115.864 161.685 116.903 160.79 116.903 159.569C116.903 158.365 115.886 157.503 114.489 157.503C113.069 157.503 112.069 158.365 112.069 159.569ZM123.91 168.155C121.921 168.155 120.446 166.901 120.385 165.166H121.468C121.534 166.32 122.557 167.166 123.91 167.166C125.49 167.166 126.623 165.989 126.617 164.436C126.612 162.818 125.407 161.685 123.833 161.674C122.866 161.669 122.087 161.989 121.645 162.713L120.54 162.718L121.313 156.685H127.197V157.68H122.242L121.766 161.425H121.866C122.352 160.956 123.175 160.674 124.015 160.674C126.098 160.674 127.7 162.215 127.7 164.414C127.695 166.58 126.104 168.155 123.91 168.155ZM133.442 168.155C131.154 168.155 129.508 166.823 129.514 165.022C129.508 163.591 130.53 162.376 131.873 162.133V162.083C130.718 161.779 129.933 160.729 129.939 159.497C129.933 157.801 131.442 156.53 133.442 156.53C135.425 156.53 136.928 157.796 136.939 159.497C136.928 160.729 136.154 161.779 135.011 162.083V162.133C136.337 162.37 137.364 163.591 137.37 165.022C137.364 166.823 135.707 168.155 133.442 168.155ZM130.624 164.956C130.607 166.238 131.746 167.166 133.442 167.166C135.127 167.166 136.259 166.238 136.259 164.956C136.259 163.635 135.055 162.63 133.442 162.63C131.823 162.63 130.607 163.635 130.624 164.956ZM131.022 159.569C131.022 160.79 132.049 161.685 133.442 161.685C134.817 161.685 135.856 160.79 135.856 159.569C135.856 158.365 134.84 157.503 133.442 157.503C132.022 157.503 131.022 158.365 131.022 159.569ZM142.963 156.53C144.924 156.547 146.902 157.867 146.907 161.862C146.902 165.608 145.504 168.155 142.797 168.155C140.869 168.155 139.543 166.934 139.3 165.144H140.399C140.62 166.304 141.449 167.16 142.797 167.16C144.731 167.16 145.852 165.398 145.863 162.304H145.731C145.156 163.298 144.046 163.928 142.797 163.928C140.819 163.928 139.184 162.381 139.184 160.243C139.184 158.204 140.67 156.514 142.963 156.53ZM140.267 160.232C140.267 161.746 141.41 162.939 142.957 162.939C144.526 162.939 145.747 161.624 145.648 160.177C145.537 158.68 144.443 157.519 142.963 157.519C141.41 157.519 140.256 158.746 140.267 160.232Z" fill="white"/>
<rect y="110" width="108" height="32" rx="16" fill="#553BF3"/>
<path d="M29.4688 121.516C29.4688 123.297 30.625 124.969 32.7969 125.656L31.8594 127.016C30.3359 126.5 29.2422 125.469 28.6406 124.156C28.0156 125.656 26.875 126.836 25.25 127.406L24.3125 126.047C26.5938 125.25 27.7188 123.375 27.7344 121.359V120.016H29.4688V121.516ZM35.6094 119.266V122.703H37.5781V124.141H35.6094V127.719H33.875V119.266H35.6094ZM31.0156 128.031C33.9375 128.016 35.7344 129.016 35.75 130.688C35.7344 132.391 33.9375 133.375 31.0156 133.375C28.0625 133.375 26.2344 132.391 26.2344 130.688C26.2344 129.016 28.0625 128.016 31.0156 128.031ZM31.0156 129.391C29.0781 129.391 27.9688 129.859 27.9688 130.688C27.9688 131.562 29.0781 132 31.0156 132C32.9531 132 34.0312 131.562 34.0312 130.688C34.0312 129.859 32.9531 129.391 31.0156 129.391ZM49.4375 119.266V122.547H51.4062V123.984H49.4375V127.219H47.7031V119.266H49.4375ZM45.1719 120.172V121.578H40.6094V125.188C43.2656 125.188 44.7422 125.086 46.4219 124.75L46.6094 126.125C44.7656 126.531 43.1094 126.594 40.0312 126.594H38.8906V120.172H45.1719ZM49.4375 127.859V133.203H40.3125V127.859H49.4375ZM42.0312 129.25V131.828H47.7188V129.25H42.0312ZM68.8125 126.328V127.719H63.3594V130.312H61.6406V127.719H55.9062V126.328H68.8125ZM67.1562 119.906V125.016H57.5469V119.906H67.1562ZM59.2344 121.266V123.656H65.4375V121.266H59.2344ZM67.3906 131.703V133.109H57.4688V129.016H59.2031V131.703H67.3906ZM74.3281 120.25C76.5625 120.234 78.2031 121.656 78.2188 123.656C78.2031 125.672 76.5625 127.078 74.3281 127.078C72.1094 127.078 70.4531 125.672 70.4531 123.656C70.4531 121.656 72.1094 120.234 74.3281 120.25ZM74.3281 121.75C73.0938 121.75 72.1719 122.484 72.1719 123.656C72.1719 124.844 73.0938 125.562 74.3281 125.562C75.5781 125.562 76.5156 124.844 76.5156 123.656C76.5156 122.484 75.5781 121.75 74.3281 121.75ZM81.5156 119.266V133.406H79.7812V119.266H81.5156ZM69.8125 129.031C72.3594 129.031 75.8906 129 78.9375 128.562L79.0781 129.828C75.9062 130.438 72.5156 130.453 70.0312 130.453L69.8125 129.031Z" fill="white"/>
</svg>
