<svg width="358" height="52" viewBox="0 0 358 52" fill="none" xmlns="http://www.w3.org/2000/svg">
<path d="M145.713 4.92773C145.713 7.50586 147.26 10.0195 150.268 11.0508L148.957 12.9199C146.862 12.125 145.358 10.6104 144.553 8.70898C143.704 10.8359 142.125 12.5225 139.848 13.3711L138.58 11.4805C141.695 10.4277 143.285 7.74219 143.307 4.90625V2.69336H145.713V4.92773ZM154.908 1.51172V15.9277H152.523V7.74219H148.656V5.78711H152.523V1.51172H154.908ZM155.338 18.5918V20.5254H142.104V14.3594H144.531V18.5918H155.338ZM160.688 2.34961V4.82031H165.221V2.34961H167.584V10.8145H158.324V2.34961H160.688ZM160.688 8.92383H165.221V6.625H160.688V8.92383ZM172.977 1.49023V5.42188H175.684V7.35547H172.977V11.4375H170.592V1.49023H172.977ZM172.977 12.2109V17.3027H162.664V18.8496H173.578V20.7402H160.301V15.5625H170.592V14.0801H160.279V12.2109H172.977ZM188.961 4.34766C188.939 6.43164 190.529 8.60156 193.494 9.46094L192.377 11.3516C190.175 10.707 188.617 9.34277 187.758 7.63477C186.877 9.52539 185.244 11.0723 182.988 11.7812L181.807 9.91211C184.836 8.92383 186.555 6.56055 186.555 4.32617V4.26172H182.473V2.32812H192.979V4.26172H188.961V4.34766ZM198.156 1.49023V11.4375H195.771V7.50586H192.441V5.59375H195.771V1.49023H198.156ZM198.156 12.2539V17.3027H187.758V18.8281H198.779V20.6973H185.373V15.5195H195.771V14.1445H185.352V12.2539H198.156ZM207.738 7.65625C207.738 10.5352 209.371 13.6719 212.357 15.0898L211.025 16.8945C208.931 15.917 207.405 13.9941 206.6 11.7168C205.74 14.166 204.14 16.2393 201.916 17.2383L200.605 15.3906C203.656 14.0156 205.375 10.707 205.375 7.65625V6.64648H201.229V4.73438H205.375V1.89844H207.76V4.73438H211.842V6.64648H207.738V7.65625ZM216.117 1.49023V9.18164H219.104V11.1797H216.117V20.9121H213.732V1.49023H216.117Z" fill="white"/>
</svg>
