<svg width="193" height="40" viewBox="0 0 193 40" fill="none" xmlns="http://www.w3.org/2000/svg">
<path d="M31.8281 14.4375C31.8281 16.2188 33.8125 18.0156 36.8281 18.4062L36.1406 19.8125C33.7422 19.4531 31.8359 18.2734 30.9219 16.6719C29.9922 18.2734 28.0938 19.4531 25.7188 19.8125L25.0312 18.4062C28.0156 18.0156 30 16.2188 30 14.4375V13.7188H31.8281V14.4375ZM37.3438 21.0312V22.4688H31.7344V27.3906H30.0156V22.4688H24.4688V21.0312H37.3438ZM49.4375 13.2656V16.7031H51.4062V18.125H49.4375V21.5469H47.7031V13.2656H49.4375ZM45.5312 14.2344C45.5312 17.9531 43.1094 20.5781 38.9375 21.7656L38.25 20.3594C41.4531 19.4844 43.3516 17.7578 43.6562 15.6406H38.8906V14.2344H45.5312ZM44.875 21.7188C47.7344 21.7188 49.5938 22.8125 49.5938 24.5469C49.5938 26.3125 47.7344 27.375 44.875 27.375C42.0312 27.375 40.1406 26.3125 40.1562 24.5469C40.1406 22.8125 42.0312 21.7188 44.875 21.7188ZM44.875 23.0781C43.0156 23.0781 41.8594 23.6094 41.875 24.5469C41.8594 25.4688 43.0156 26.0156 44.875 26.0156C46.7344 26.0156 47.8906 25.4688 47.8906 24.5469C47.8906 23.6094 46.7344 23.0781 44.875 23.0781ZM64.2969 14.7812V16.1875H52.7656V14.7812H57.6875V13.2344H59.4062V14.7812H64.2969ZM65.0312 22.3906V23.8125H59.4062V27.4062H57.6875V23.8125H52.125V22.3906H65.0312ZM58.5469 16.8281C61.5312 16.8281 63.3281 17.6719 63.3281 19.2188C63.3281 20.7656 61.5312 21.6094 58.5469 21.6094C55.5625 21.6094 53.7656 20.7656 53.7656 19.2188C53.7656 17.6719 55.5625 16.8281 58.5469 16.8281ZM58.5469 18.125C56.5938 18.125 55.5625 18.5 55.5781 19.2188C55.5625 19.9375 56.5938 20.3125 58.5469 20.3125C60.5 20.3125 61.5312 19.9375 61.5312 19.2188C61.5312 18.5 60.5 18.125 58.5469 18.125ZM77.75 13.2656V27.3906H76V13.2656H77.75ZM73.5312 14.7656C73.5312 18.9688 71.9062 22.5469 66.9531 24.8906L66.0469 23.5C69.7422 21.7422 71.4609 19.3516 71.7656 16.1406H66.7656V14.7656H73.5312ZM96.4844 24.2656V25.6875H83.5781V24.2656H89.1406V21.5156H85V14.2031H86.7344V16.5156H93.2812V14.2031H95.0156V21.5156H90.8594V24.2656H96.4844ZM86.7344 20.1094H93.2812V17.9062H86.7344V20.1094ZM109.234 13.2656V27.4062H107.5V19.8906H105.078V18.4688H107.5V13.2656H109.234ZM104.266 14.5V19.6719H99.6406V22.6406C101.734 22.6328 103.43 22.5625 105.328 22.2188L105.469 23.6406C103.359 24.0156 101.484 24.0938 99.0469 24.0938H97.9219V18.2656H102.562V15.9062H97.875V14.5H104.266ZM122.297 13.2656V18.7812H124.391V20.2344H122.297V27.3594H120.562V13.2656H122.297ZM118.562 14.7344C118.562 18.8906 116.844 22.5312 112.141 24.8438L111.156 23.5C114.594 21.7891 116.453 19.3828 116.812 16.1719H111.922V14.7344H118.562ZM136.859 13.2656V27.3906H135.109V13.2656H136.859ZM132.641 14.7656C132.641 18.9688 131.016 22.5469 126.062 24.8906L125.156 23.5C128.852 21.7422 130.57 19.3516 130.875 16.1406H125.875V14.7656H132.641Z" fill="white"/>
<path d="M157.333 24.1668L161.5 20.0002L157.333 15.8335" stroke="white" stroke-width="2" stroke-linecap="round" stroke-linejoin="round"/>
</svg>
